<?xml version="1.0" encoding="UTF-8"?>
<svg id="Capa_1" data-name="Capa 1" xmlns="http://www.w3.org/2000/svg" viewBox="0 0 50 50">
  <defs>
    <style>
      .cls-1, .cls-2, .cls-3, .cls-4, .cls-5, .cls-6 {
        stroke-width: 0px;
      }

      .cls-1, .cls-7 {
        fill: #f7a810;
      }

      .cls-2 {
        fill: #090a0a;
      }

      .cls-3 {
        fill: #000;
      }

      .cls-4 {
        fill: #161616;
      }

      .cls-8 {
        stroke: #181b35;
      }

      .cls-8, .cls-9 {
        fill: #28306e;
      }

      .cls-8, .cls-9, .cls-7 {
        stroke-miterlimit: 10;
      }

      .cls-5 {
        fill: #e2e2e1;
      }

      .cls-9 {
        stroke: #20244b;
      }

      .cls-7 {
        stroke: #825113;
        stroke-width: .25px;
      }

      .cls-6 {
        fill: #fff;
      }
    </style>
  </defs>
  <g>
    <g>
      <path class="cls-3" d="M35.14,23.47c-.5,0-1.06-.15-1.72-.33-.02,0-.04-.01-.06-.02l.18-.99.08.02c.77.21,1.5.41,1.83.26l.4.92h0s0,0-.01,0h0c-.21.09-.44.13-.68.13Z"/>
      <polygon class="cls-3" points="20.67 23.62 19.77 23.17 20.68 23.58 20.67 23.62"/>
      <path class="cls-3" d="M20.68,23.58l-.91-.42h0s0,0,0,0c.24-.52.36-1.07.36-1.64,0-.66-.16-1.31-.48-1.88,0,0,0,0,0,0h0s.88-.48.88-.48c.39.72.6,1.54.6,2.37,0,.48-.07.96-.21,1.41-.07.22-.15.44-.25.65Z"/>
      <path class="cls-3" d="M35.12,44.11l-.98-.21c.29-1.4.75-2.93,1.31-4.36.98-2.54,2.26-4.78,3.43-5.45h0s0,0,0,0c.21-.12.46-.23.73-.31,0,0,0,0,0,0l.29.96c-.2.06-.38.14-.53.22h0s-.03.02-.04.02h0s0,0,0,0h0s0,0,0,0h0c-.14.09-.29.21-.44.38h0s0,0,0,0c0,0,0,0,0,0,0,0,0,0,0,0-1.25,1.32-2.98,4.98-3.77,8.75h0Z"/>
      <path class="cls-3" d="M24.71,23.46c-.5,0-.94-.1-1.29-.38-.5-.39-.74-1.07-.74-2.06,0-1.82.69-3.55,1.95-4.87l.72.69h0s0,0-.01.01c-1.07,1.13-1.66,2.61-1.66,4.17,0,.66.12,1.09.36,1.28.44.35,1.54.09,2.6-.16l.23.97c-.76.18-1.51.35-2.15.35Z"/>
      <path class="cls-3" d="M20.18,43.4l-.47-.58.47.58ZM19.85,43.02l-.31-.39.31.39Z"/>
      <path class="cls-3" d="M32.59,43.54c-3.86-3.06-8.48-3.12-12.36-.17l-.6-.8s.05-.04.07-.06c2.26-1.69,4.73-2.47,7.26-2.31,2.16.14,4.22.97,6.15,2.46.03.03.07.05.1.08l-.62.78Z"/>
      <path class="cls-3" d="M16.3,42.15l-.84-.55c.13-.2.27-.4.41-.6.38-.54.78-1.06,1.19-1.56h0s0,0,0,0l.77.63s0,0,0,0h0c-.21.26-.42.53-.63.8-.17.23-.35.46-.52.7-.13.19-.26.38-.39.57h0s0,0,0,0Z"/>
      <g>
        <path class="cls-2" d="M16.28,41.29c.38-.53.76-1.04,1.17-1.53-.15-.11-.31-.22-.46-.34-.68-.51-1.33-1.07-1.93-1.67-.96.45-1.97,1.25-2.98,2.35,1.2.7,2.44,1.33,3.74,1.88.02-.04.05-.07.07-.11.13-.2.26-.39.4-.58Z"/>
        <path class="cls-3" d="M16.08,42.5l-.46-.05c-1.3-.55-2.58-1.2-3.79-1.91l-.54-.31.42-.46c1.07-1.16,2.13-1.98,3.14-2.46l.32-.15.25.25c.58.58,1.21,1.12,1.88,1.63.16.12.3.23.44.33l.44.31-.34.42c-.39.48-.78.98-1.15,1.5-.13.19-.26.38-.38.57l-.23.35ZM12.88,39.99c.89.5,1.81.96,2.74,1.37.08-.12.16-.24.25-.36h0c.28-.39.57-.77.86-1.15,0,0-.02-.01-.02-.02-.62-.47-1.2-.96-1.74-1.47-.67.37-1.37.91-2.09,1.62Z"/>
      </g>
      <g>
        <path class="cls-4" d="M39.13,34.52c.19-.11.41-.2.63-.27.78-.24,1.76-.23,2.88,0,.49.1,1,.25,1.53.44,1.95-2.98,3.09-6.53,3.09-10.36,0-10.44-8.47-18.9-18.91-18.9-7.86,0-14.6,4.8-17.45,11.62h5.25c1.7,0,3.17.95,3.93,2.34.34.63.54,1.36.54,2.13,0,.44-.06.87-.19,1.27-.06.2-.13.4-.22.58,0,0,0,0,0,0,0,0,0,.01,0,.02-.08.18-.18.36-.29.53.05.19.07.39.07.59v.37c0,1.35-.77,4.03-4.25,3.86h-4.4c-.56,0-1.08-.19-1.49-.51.77,3.69,2.62,6.98,5.2,9.53.6.6,1.25,1.15,1.93,1.67.15.11.3.23.46.34,0,0,0,0,0,0-.4.49-.79,1-1.17,1.53-.14.19-.27.39-.4.58-.02.04-.05.07-.07.11,1.2.51,2.43.95,3.7,1.31.11-.09.23-.19.34-.27,0,0,.01-.01.02-.02.02-.01.03-.02.05-.03,1.93-1.46,4.09-2.28,6.38-2.28s4.62.89,6.6,2.46c.38.3.75.62,1.11.97.21-.04.42-.07.63-.11.86-4.14,2.98-8.61,4.5-9.49ZM35.64,22.88c-.5.22-1.27,0-2.24-.26-.9-.24-1.98-.53-3.19-.53s-2.41.29-3.46.53c-2.07.49-3.57.81-3.57-1.6,0-1.76.69-3.35,1.81-4.53,1.2-1.26,2.88-2.04,4.76-2.04,3.63,0,6.57,2.94,6.57,6.57,0,1.13-.24,1.66-.69,1.86Z"/>
        <path class="cls-3" d="M33.84,44.66l-.18-.18c-.33-.33-.69-.64-1.07-.94-3.86-3.06-8.48-3.12-12.36-.17-.16.12-.25.19-.34.27l-.2.17-.31-.03c-1.27-.36-2.53-.81-3.76-1.33l-.55-.23.4-.62c.13-.2.26-.4.4-.59.28-.39.57-.78.86-1.14,0,0-.02-.01-.02-.02-.72-.55-1.39-1.12-2-1.73-2.71-2.68-4.56-6.07-5.34-9.79l-.28-1.33,1.07.83c.34.27.76.41,1.19.41h4.4c1.19.06,2.1-.22,2.74-.83.75-.71,1.01-1.77,1.01-2.52v-.37c0-.15-.02-.31-.06-.47l-.05-.21.12-.18c.1-.15.18-.31.26-.47.08-.18.15-.35.2-.53.11-.36.16-.74.16-1.13,0-.66-.17-1.31-.48-1.89-.7-1.28-2.03-2.08-3.49-2.08h-6l.29-.69c3.03-7.25,10.06-11.93,17.91-11.93,10.7,0,19.41,8.71,19.41,19.41,0,3.79-1.1,7.47-3.18,10.63l-.21.33-.37-.13c-.51-.18-1.01-.32-1.47-.42-1.05-.22-1.94-.23-2.63-.02-.2.06-.38.14-.53.22h0c-1.23.71-3.36,4.87-4.26,9.16l-.07.33-.33.06c-.21.04-.43.08-.64.12l-.25.04ZM26.3,40.19c2.4,0,4.79.89,6.91,2.57.33.26.65.54.96.83.02,0,.03,0,.05,0,.86-3.83,2.89-8.46,4.67-9.49.22-.12.46-.23.74-.31.86-.26,1.91-.26,3.13,0,.39.08.8.19,1.22.33,1.84-2.93,2.8-6.29,2.8-9.76,0-10.15-8.26-18.41-18.41-18.41-7.19,0-13.66,4.14-16.68,10.62h4.48c1.82,0,3.5,1,4.37,2.6.39.72.6,1.54.6,2.37,0,.48-.07.96-.21,1.41-.07.22-.15.44-.25.65-.07.15-.14.29-.22.43.03.17.04.34.04.5v.37c0,.47-.1,2.08-1.32,3.25-.85.81-2.01,1.18-3.46,1.11h-4.37c-.26,0-.52-.03-.76-.1.84,3.12,2.49,5.96,4.82,8.26.58.57,1.21,1.12,1.88,1.63.16.12.3.23.44.33l.44.31-.34.42c-.39.48-.78.98-1.15,1.5-.04.06-.08.12-.12.17.93.37,1.88.7,2.83.99.05-.04.1-.08.15-.12,2.15-1.63,4.4-2.44,6.75-2.44ZM35.14,23.47c-.51,0-1.1-.16-1.79-.34-.88-.24-1.97-.53-3.14-.53s-2.25.27-3.25.5c-1.45.34-2.72.64-3.54,0-.5-.39-.74-1.07-.74-2.06,0-1.82.69-3.55,1.95-4.87,1.35-1.42,3.17-2.2,5.12-2.2,3.9,0,7.07,3.17,7.07,7.07,0,.81-.1,1.93-.99,2.31-.21.09-.45.13-.7.13ZM30.21,21.59c1.31,0,2.47.31,3.32.54.85.23,1.58.43,1.91.28h0c.32-.14.39-.84.39-1.4,0-3.35-2.72-6.07-6.07-6.07-1.68,0-3.24.67-4.4,1.89-1.08,1.13-1.68,2.62-1.68,4.18,0,.66.12,1.09.36,1.28.44.35,1.54.09,2.6-.16,1.14-.27,2.33-.55,3.57-.55Z"/>
      </g>
      <g>
        <path class="cls-5" d="M26.3,40.69c-2.29,0-4.45.82-6.38,2.28-.02.01-.03.02-.05.03,0,0-.01.01-.02.02-.11.09-.23.18-.34.27,2.87.83,5.91,1.27,9.06,1.27,1.85,0,3.67-.16,5.43-.45-.36-.35-.73-.67-1.11-.97-1.98-1.57-4.22-2.46-6.6-2.46Z"/>
        <path class="cls-3" d="M28.57,45.07c-3.12,0-6.22-.43-9.19-1.29l-.92-.26.74-.6c.15-.12.25-.21.35-.28,2.15-1.63,4.4-2.43,6.75-2.43s4.76.86,6.91,2.56c.4.32.79.66,1.14,1l.71.69-.98.16c-1.82.3-3.68.46-5.51.46ZM20.62,43.08c3.97,1.01,8.14,1.25,12.26.7-.1-.08-.2-.16-.3-.24-3.73-2.95-8.17-3.11-11.96-.46Z"/>
      </g>
      <g>
        <path class="cls-6" d="M29.75,14.45c-1.87,0-3.56.78-4.76,2.04-1.12,1.18-1.81,2.77-1.81,4.53,0,2.41,1.5,2.09,3.57,1.6,1.05-.25,2.24-.53,3.46-.53s2.28.28,3.19.53c.97.26,1.73.48,2.24.26.44-.19.69-.72.69-1.86,0-3.63-2.94-6.57-6.57-6.57Z"/>
        <path class="cls-3" d="M35.14,23.47c-.51,0-1.1-.16-1.79-.35-.88-.24-1.96-.53-3.14-.53s-2.25.27-3.25.5c-1.45.34-2.72.64-3.54,0-.5-.39-.74-1.07-.74-2.06,0-1.82.69-3.55,1.95-4.87,1.35-1.42,3.17-2.2,5.12-2.2,3.9,0,7.07,3.17,7.07,7.07,0,.81-.1,1.93-.99,2.31-.21.09-.45.13-.7.13ZM30.21,21.59c1.31,0,2.47.31,3.32.54.85.23,1.58.43,1.91.28.32-.14.39-.84.39-1.4,0-3.35-2.72-6.07-6.07-6.07-1.68,0-3.24.67-4.4,1.89-1.08,1.13-1.68,2.62-1.68,4.18,0,.66.12,1.09.36,1.28.44.35,1.54.09,2.6-.16,1.14-.27,2.33-.55,3.57-.55Z"/>
      </g>
      <g>
        <path class="cls-2" d="M42.65,34.26c-1.12-.24-2.1-.24-2.88,0-.23.07-.44.16-.63.27-1.52.88-3.63,5.35-4.5,9.49,5.44-1.02,10.4-3.39,14.49-6.73-1.75-1.18-3.43-2.05-4.94-2.58-.53-.19-1.05-.33-1.53-.44Z"/>
        <path class="cls-3" d="M33.99,44.64l.15-.73c.81-3.89,2.91-8.76,4.74-9.82.22-.13.47-.23.74-.31.86-.26,1.91-.26,3.13,0h0c.5.11,1.04.26,1.59.46,1.58.56,3.28,1.45,5.05,2.64l.56.38-.52.43c-4.23,3.46-9.32,5.83-14.71,6.84l-.73.14ZM41.06,34.58c-.43,0-.81.05-1.15.16-.2.06-.38.14-.53.22-1.16.67-3.12,4.4-4.09,8.41,4.73-1,9.19-3.08,12.98-6.05-1.49-.96-2.92-1.68-4.26-2.15-.51-.18-1.01-.32-1.47-.42h0c-.54-.12-1.04-.17-1.48-.17Z"/>
      </g>
      <g>
        <path class="cls-1" d="M15.76,28.74c3.48.18,4.25-2.5,4.25-3.86v-.37c0-.2-.03-.4-.07-.59-.79,1.24-2.18,2.07-3.77,2.07h-7.25v.3c0,.79.37,1.49.95,1.93,0,0,0,0,0,0,.41.32.93.51,1.49.51h4.4Z"/>
        <path class="cls-3" d="M16.08,29.25c-.11,0-.22,0-.34,0h-4.38c-.66,0-1.28-.21-1.8-.62-.73-.56-1.15-1.41-1.15-2.33v-.8h7.75c1.36,0,2.61-.69,3.35-1.84l.62-.98.28,1.13c.06.24.09.48.09.71v.37c0,.47-.1,2.08-1.32,3.25-.78.74-1.82,1.12-3.11,1.12ZM9.42,26.49c.05.53.32,1.01.75,1.34.34.27.76.41,1.19.41h4.42c1.15.05,2.07-.22,2.72-.83.64-.61.93-1.48,1-2.2-.9.82-2.08,1.28-3.33,1.28h-6.74Z"/>
      </g>
      <g>
        <path class="cls-1" d="M19.93,23.92c.11-.17.2-.34.29-.53,0,0,0-.01,0-.02,0,0,0,0,0,0,.26-.56.4-1.19.4-1.85h0c0-.77-.2-1.5-.54-2.13-.76-1.39-2.23-2.34-3.93-2.34H5.35c-2.47,0-4.47,2-4.47,4.47h0c0,2.47,2,4.47,4.47,4.47h10.82c1.59,0,2.97-.83,3.77-2.07Z"/>
        <path class="cls-3" d="M16.17,26.49H5.35c-2.74,0-4.97-2.23-4.97-4.97s2.23-4.97,4.97-4.97h10.82c1.82,0,3.5,1,4.37,2.6.39.72.6,1.54.6,2.37,0,.72-.15,1.41-.45,2.06-.1.22-.21.42-.33.61h0c-.92,1.44-2.49,2.3-4.19,2.3ZM5.35,17.55c-2.19,0-3.97,1.78-3.97,3.97s1.78,3.97,3.97,3.97h10.82c1.36,0,2.61-.69,3.35-1.84.1-.15.18-.31.26-.47.25-.54.37-1.09.37-1.66,0-.66-.17-1.31-.48-1.89-.7-1.28-2.03-2.08-3.49-2.08H5.35Z"/>
      </g>
    </g>
    <path class="cls-9" d="M42.51,11.79c1.18,1.45-7.59.04-14.43.04s-14.48.67-13.27-.66c1.89-2.09,6.72-5.73,13.56-5.73s12.03,3.76,14.14,6.36Z"/>
    <polygon class="cls-8" points="18.84 11.52 9.75 4.14 32.01 3.31 47.12 9.24 18.84 11.52"/>
    <path class="cls-7" d="M27.51,6.15c-.38-.04-.74-.02-1.05.04,0,0-.01,0-.02,0L9.1,3.86c-.18-.04-.6-.11-.58.11l-.07,6.85h.65v-6.27s.04-.07.08-.07l16.46,2.21s-.02.03-.02.05c-.04.42.75.83,1.75.93s1.85-.17,1.89-.59c.04-.42-.75-.83-1.75-.93Z"/>
    <circle class="cls-7" cx="8.78" cy="10.82" r="1.02"/>
    <path class="cls-7" d="M10.2,14.46c0-1.45-.64-2.62-1.43-2.62s-1.43,1.17-1.43,2.62h2.85Z"/>
  </g>
  <g>
    <ellipse class="cls-8" cx="26.82" cy="39.11" rx="2.52" ry="1.79"/>
    <path class="cls-8" d="M36.14,41.87c-3.75,0-6.8-1.24-6.8-2.76s3.04-2.76,6.8-2.76v5.52Z"/>
    <path class="cls-8" d="M17.37,41.87c3.75,0,6.8-1.24,6.8-2.76s-3.04-2.76-6.8-2.76v5.52Z"/>
  </g>
</svg>