<?xml version="1.0" encoding="UTF-8"?>
<svg id="Capa_1" data-name="Capa 1" xmlns="http://www.w3.org/2000/svg" viewBox="0 0 50 50">
  <defs>
    <style>
      .cls-1 {
        fill: #f7a810;
      }

      .cls-1, .cls-2, .cls-3, .cls-4, .cls-5, .cls-6 {
        stroke-width: 0px;
      }

      .cls-2 {
        fill: #090a0a;
      }

      .cls-3, .cls-7 {
        fill: #000;
      }

      .cls-4 {
        fill: #161616;
      }

      .cls-8 {
        fill: #434e89;
      }

      .cls-8, .cls-7 {
        stroke: #1d1d1b;
        stroke-miterlimit: 10;
        stroke-width: .5px;
      }

      .cls-5 {
        fill: #e2e2e1;
      }

      .cls-6 {
        fill: #fff;
      }
    </style>
  </defs>
  <path class="cls-3" d="M15.2,23.47c.5,0,1.06-.15,1.72-.33.02,0,.04-.01.06-.02l-.18-.99-.08.02c-.77.21-1.5.41-1.83.26l-.4.92h0s0,0,.01,0h0c.21.09.44.13.68.13Z"/>
  <polygon class="cls-3" points="29.67 23.62 30.56 23.17 29.65 23.58 29.67 23.62"/>
  <path class="cls-3" d="M29.65,23.58l.91-.42h0s0,0,0,0c-.24-.52-.36-1.07-.36-1.64,0-.66.16-1.31.48-1.88,0,0,0,0,0,0h0s-.88-.48-.88-.48c-.39.72-.6,1.54-.6,2.37,0,.48.07.96.21,1.41.07.22.15.44.25.65Z"/>
  <path class="cls-3" d="M15.22,44.11l.98-.21c-.29-1.4-.75-2.93-1.31-4.36-.98-2.54-2.26-4.78-3.43-5.45h0s0,0,0,0c-.21-.12-.46-.23-.73-.31,0,0,0,0,0,0l-.29.96c.2.06.38.14.53.22h0s.03.02.04.02h0s0,0,0,0h0s0,0,0,0h0c.14.09.29.21.44.38h0s0,0,0,0c0,0,0,0,0,0,0,0,0,0,0,0,1.25,1.32,2.98,4.98,3.77,8.75h0Z"/>
  <path class="cls-3" d="M25.62,23.46c.5,0,.94-.1,1.29-.38.5-.39.74-1.07.74-2.06,0-1.82-.69-3.55-1.95-4.87l-.72.69h0s0,0,.01.01c1.07,1.13,1.66,2.61,1.66,4.17,0,.66-.12,1.09-.36,1.28-.44.35-1.54.09-2.6-.16l-.23.97c.76.18,1.51.35,2.15.35Z"/>
  <path class="cls-3" d="M30.63,42.82l-.47.58.47-.58ZM30.8,42.64l-.31.39.31-.39Z"/>
  <path class="cls-3" d="M17.75,43.54c3.86-3.06,8.48-3.12,12.36-.17l.6-.8s-.05-.04-.07-.06c-2.26-1.69-4.73-2.47-7.26-2.31-2.16.14-4.22.97-6.15,2.46-.03.03-.07.05-.1.08l.62.78Z"/>
  <path class="cls-3" d="M34.03,42.15l.84-.55c-.13-.2-.27-.4-.41-.6-.38-.54-.78-1.06-1.19-1.56h0s0,0,0,0l-.77.63s0,0,0,0h0c.21.26.42.53.63.8.17.23.35.46.52.7.13.19.26.38.39.57h0s0,0,0,0Z"/>
  <g>
    <path class="cls-2" d="M34.06,41.29c-.38-.53-.76-1.04-1.17-1.53.15-.11.31-.22.46-.34.68-.51,1.33-1.07,1.93-1.67.96.45,1.97,1.25,2.98,2.35-1.2.7-2.44,1.33-3.74,1.88-.02-.04-.05-.07-.07-.11-.13-.2-.26-.39-.4-.58Z"/>
    <path class="cls-3" d="M34.03,42.15c-.12-.19-.25-.38-.38-.57-.37-.52-.75-1.02-1.15-1.5l-.34-.42.44-.31c.14-.1.28-.21.44-.33.67-.5,1.3-1.05,1.88-1.63l.25-.25.32.15c1.01.47,2.06,1.3,3.14,2.46l.42.46-.54.31c-1.22.71-2.49,1.36-3.79,1.91l-.46.05-.23-.35ZM35.37,38.37c-.54.51-1.12,1.01-1.74,1.47,0,0-.02.01-.02.02.29.37.58.75.86,1.15h0c.08.12.17.24.25.36.93-.41,1.85-.87,2.74-1.37-.72-.71-1.42-1.26-2.09-1.63Z"/>
  </g>
  <g>
    <path class="cls-4" d="M15.7,44.01c.21.04.42.08.63.11.36-.35.73-.67,1.11-.97,1.98-1.57,4.22-2.46,6.6-2.46s4.45.82,6.38,2.28c.02.01.03.02.05.03,0,0,.01.01.02.02.11.09.23.18.34.27,1.27-.36,2.5-.8,3.7-1.31-.02-.04-.05-.07-.07-.11-.13-.2-.26-.39-.4-.58-.38-.53-.76-1.04-1.17-1.53,0,0,0,0,0,0,.15-.11.31-.22.46-.34.68-.51,1.32-1.07,1.93-1.67,2.58-2.55,4.43-5.85,5.2-9.53-.41.32-.93.51-1.49.51h-4.4c-3.48.18-4.25-2.5-4.25-3.86v-.37c0-.2.03-.4.07-.59-.11-.17-.2-.34-.29-.53,0,0,0-.01,0-.02,0,0,0,0,0,0-.09-.19-.16-.38-.22-.58-.12-.4-.19-.83-.19-1.27,0-.77.2-1.5.54-2.13.76-1.39,2.23-2.34,3.93-2.34h5.25s0,0,0,0c-2.85-6.82-9.59-11.62-17.45-11.62-10.44,0-18.91,8.47-18.91,18.9,0,3.83,1.14,7.38,3.09,10.36.53-.19,1.05-.33,1.53-.44,1.12-.24,2.1-.24,2.88,0,.23.07.44.16.63.27,1.52.88,3.63,5.35,4.5,9.49ZM14.01,21.02c0-3.63,2.94-6.57,6.57-6.57,1.87,0,3.56.78,4.76,2.04,1.12,1.18,1.81,2.77,1.81,4.53,0,2.41-1.5,2.09-3.57,1.6-1.05-.25-2.24-.53-3.46-.53s-2.28.28-3.19.53c-.97.26-1.73.48-2.24.26-.44-.19-.69-.72-.69-1.86Z"/>
    <path class="cls-3" d="M16.25,44.61c-.21-.04-.43-.07-.64-.12l-.33-.06-.07-.33c-.9-4.29-3.03-8.44-4.26-9.16h0c-.15-.09-.33-.16-.53-.22-.7-.21-1.58-.21-2.63.02-.46.1-.96.24-1.47.42l-.37.13-.21-.33c-2.08-3.17-3.18-6.84-3.18-10.63,0-10.7,8.71-19.41,19.41-19.41,7.85,0,14.88,4.68,17.91,11.93l.29.69h-6c-1.46,0-2.79.8-3.49,2.08-.31.58-.48,1.23-.48,1.89,0,.38.06.76.16,1.13.05.18.12.35.2.53.08.16.16.32.26.47l.12.18-.05.21c-.04.16-.06.32-.06.47v.37c0,.75.27,1.81,1.01,2.52.64.61,1.55.89,2.74.83h4.4c.43,0,.84-.14,1.19-.41l1.07-.83-.28,1.33c-.78,3.72-2.62,7.1-5.34,9.79-.61.6-1.28,1.18-2,1.73,0,0-.02.01-.02.02.29.37.58.75.86,1.14.14.2.27.4.4.59l.4.62-.55.23c-1.22.52-2.49.97-3.76,1.33l-.31.03-.2-.17c-.09-.07-.18-.15-.34-.27-3.89-2.95-8.5-2.89-12.36.17-.37.3-.73.61-1.07.94l-.18.18-.25-.04ZM30.79,42.63s.1.07.15.12c.95-.28,1.9-.61,2.83-.99-.04-.06-.08-.12-.12-.17-.37-.52-.75-1.02-1.15-1.5l-.34-.42.44-.31c.14-.1.28-.21.44-.33.67-.51,1.3-1.05,1.88-1.63,2.32-2.3,3.98-5.14,4.82-8.26-.25.07-.5.1-.76.1h-4.37c-1.44.07-2.61-.3-3.46-1.11-1.23-1.17-1.32-2.78-1.32-3.25v-.37c0-.16.02-.33.04-.5-.08-.13-.15-.27-.22-.43-.1-.21-.18-.42-.25-.65-.14-.46-.21-.93-.21-1.41,0-.83.21-1.65.6-2.37.87-1.6,2.55-2.6,4.37-2.6h4.48c-3.02-6.48-9.49-10.62-16.68-10.62-10.15,0-18.41,8.26-18.41,18.41,0,3.47.97,6.83,2.8,9.76.42-.14.83-.25,1.22-.33,1.22-.26,2.27-.26,3.13,0,.27.08.52.19.74.31,1.78,1.02,3.81,5.66,4.67,9.49.02,0,.03,0,.05,0,.3-.29.63-.56.96-.83,2.12-1.68,4.51-2.57,6.91-2.57s4.59.8,6.75,2.44ZM14.5,23.33c-.89-.38-.99-1.5-.99-2.31,0-3.9,3.17-7.07,7.07-7.07,1.95,0,3.77.78,5.12,2.2,1.26,1.32,1.95,3.05,1.95,4.87,0,.99-.24,1.67-.74,2.06-.82.65-2.1.35-3.54,0-1-.23-2.13-.5-3.25-.5s-2.26.29-3.14.53c-.69.19-1.27.34-1.79.34-.25,0-.48-.04-.7-.13ZM23.7,22.14c1.06.25,2.16.51,2.6.16.24-.19.36-.62.36-1.28,0-1.56-.6-3.05-1.68-4.18-1.16-1.22-2.72-1.89-4.4-1.89-3.35,0-6.07,2.72-6.07,6.07,0,.56.07,1.26.39,1.4h0c.33.14,1.05-.05,1.91-.28.85-.23,2.01-.54,3.32-.54s2.43.28,3.57.55Z"/>
  </g>
  <g>
    <path class="cls-5" d="M24.04,40.69c2.29,0,4.45.82,6.38,2.28.02.01.03.02.05.03,0,0,.01.01.02.02.11.09.23.18.34.27-2.87.83-5.91,1.27-9.06,1.27-1.85,0-3.67-.16-5.43-.45.36-.35.73-.67,1.11-.97,1.98-1.57,4.22-2.46,6.6-2.46Z"/>
    <path class="cls-3" d="M16.25,44.61l-.98-.16.71-.69c.36-.35.74-.69,1.14-1,2.15-1.7,4.47-2.56,6.91-2.56s4.6.8,6.75,2.43c.1.08.2.16.35.28l.74.6-.92.26c-2.98.86-6.07,1.29-9.19,1.29-1.84,0-3.69-.15-5.51-.46ZM17.75,43.54c-.1.08-.2.16-.3.24,4.12.55,8.29.31,12.26-.7-3.79-2.65-8.23-2.49-11.96.46Z"/>
  </g>
  <g>
    <path class="cls-6" d="M20.58,14.45c1.87,0,3.56.78,4.76,2.04,1.12,1.18,1.81,2.77,1.81,4.53,0,2.41-1.5,2.09-3.57,1.6-1.05-.25-2.24-.53-3.46-.53s-2.28.28-3.19.53c-.97.26-1.73.48-2.24.26-.44-.19-.69-.72-.69-1.86,0-3.63,2.94-6.57,6.57-6.57Z"/>
    <path class="cls-3" d="M14.5,23.33c-.89-.38-.99-1.5-.99-2.31,0-3.9,3.17-7.07,7.07-7.07,1.95,0,3.77.78,5.12,2.2,1.26,1.32,1.95,3.05,1.95,4.87,0,.99-.24,1.67-.74,2.06-.82.65-2.09.35-3.54,0-1-.23-2.13-.5-3.25-.5s-2.26.29-3.14.53c-.69.19-1.28.35-1.79.35-.25,0-.48-.04-.7-.13ZM23.7,22.14c1.06.25,2.16.51,2.6.16.24-.19.36-.62.36-1.28,0-1.56-.6-3.05-1.68-4.18-1.16-1.22-2.72-1.89-4.4-1.89-3.35,0-6.07,2.72-6.07,6.07,0,.56.07,1.26.39,1.4.33.14,1.06-.05,1.91-.28.85-.23,2.01-.54,3.32-.54s2.43.28,3.57.55Z"/>
  </g>
  <g>
    <path class="cls-2" d="M7.69,34.26c1.12-.24,2.1-.24,2.88,0,.23.07.44.16.63.27,1.52.88,3.63,5.35,4.5,9.49-5.44-1.02-10.4-3.39-14.49-6.73,1.75-1.18,3.43-2.05,4.94-2.58.53-.19,1.05-.33,1.53-.44Z"/>
    <path class="cls-3" d="M15.61,44.5c-5.39-1.01-10.48-3.37-14.71-6.84l-.52-.43.56-.38c1.77-1.19,3.47-2.08,5.05-2.64.55-.2,1.09-.35,1.59-.46h0c1.22-.26,2.27-.26,3.13,0,.27.08.52.19.74.31,1.83,1.05,3.92,5.93,4.74,9.82l.15.73-.73-.14ZM7.79,34.75h0c-.46.1-.96.24-1.47.42-1.33.47-2.76,1.19-4.26,2.15,3.79,2.97,8.25,5.05,12.98,6.05-.97-4.01-2.93-7.74-4.09-8.41-.15-.09-.33-.16-.53-.22-.34-.1-.72-.16-1.15-.16-.45,0-.94.06-1.48.17Z"/>
  </g>
  <g>
    <path class="cls-1" d="M34.58,28.74c-3.48.18-4.25-2.5-4.25-3.86v-.37c0-.2.03-.4.07-.59.79,1.24,2.18,2.07,3.77,2.07h7.25v.3c0,.79-.37,1.49-.95,1.93,0,0,0,0,0,0-.41.32-.93.51-1.49.51h-4.4Z"/>
    <path class="cls-3" d="M31.15,28.13c-1.23-1.17-1.32-2.78-1.32-3.25v-.37c0-.23.03-.47.09-.71l.28-1.13.62.98c.74,1.15,1.99,1.84,3.35,1.84h7.75v.8c0,.92-.42,1.76-1.15,2.33-.52.4-1.14.62-1.8.62h-4.38c-.11,0-.23,0-.34,0-1.28,0-2.33-.38-3.11-1.12ZM34.17,26.49c-1.25,0-2.43-.46-3.33-1.28.07.71.35,1.58,1,2.2.64.61,1.56.89,2.72.83h4.42c.43,0,.84-.14,1.19-.41.43-.33.69-.81.75-1.34h-6.74Z"/>
  </g>
  <g>
    <path class="cls-8" d="M37.93,20.55l.08-.85c.07-.69-.43-1.3-1.12-1.36l-6.8-.67.17-1.73c.04-.43-.08-.84-.36-1.18-.27-.33-.66-.54-1.08-.58l-15.13-1.5c-.43-.04-.84.08-1.18.36-.33.27-.54.66-.58,1.08l-.02.15-6.28.29c-.81-.08-1.82.42-1.91,1.34l-.07.32c-.01.05-.02.1-.02.15-.29,3.04-.34,2.43.78,1.42.25-.22.57-.35.9-.34l6.29.15c-.09,1.78.48,3.5,1.61,4.89,1.01,1.23,2.37,2.08,3.9,2.43.31.07.62.12.93.15l4.07.4c3.26.32,6.23-1.6,7.37-4.51l7.07.7c.69.07,1.3-.43,1.36-1.12ZM25.5,21.77c-.98.81-2.23,1.18-3.49,1.06l-3.31-.33c-2.61-.26-4.53-2.6-4.27-5.22l.19-1.88,12.8,1.27-.19,1.88c-.13,1.27-.74,2.41-1.72,3.22Z"/>
    <path class="cls-7" d="M17.11,24.97c-1.55-.36-2.91-1.21-3.93-2.45-1.13-1.37-1.7-3.1-1.63-4.87l-6.23-.15c-.32,0-.62.11-.86.32-.21.2-.38.37-.52.52-.24.25-.34.36-.44.32-.13-.06-.1-.32.02-1.52.02-.23.05-.48.08-.77,0-.05.01-.11.03-.16l.07-.32c.04-.43.3-.82.71-1.08.37-.23.84-.34,1.26-.3l6.23-.28v-.11c.05-.44.27-.84.61-1.12.34-.28.77-.41,1.22-.37l15.13,1.5c.44.04.84.26,1.12.6.28.34.41.77.37,1.22l-.17,1.67,6.74.67c.35.03.66.2.88.47s.32.61.29.95l-.08.85c-.03.35-.2.66-.47.88-.27.22-.61.32-.95.29l-7.03-.7c-1.19,2.97-4.23,4.82-7.41,4.5l-4.07-.4c-.32-.03-.63-.08-.94-.16ZM11.67,17.54v.06c-.09,1.76.48,3.48,1.6,4.85,1,1.22,2.34,2.06,3.87,2.42.3.07.62.12.93.15l4.07.4c3.15.31,6.16-1.53,7.32-4.47l.02-.04h.04s7.07.71,7.07.71c.32.03.63-.06.87-.26.25-.2.4-.49.43-.81l.08-.85c.03-.32-.06-.63-.26-.87-.2-.25-.49-.4-.81-.43l-6.85-.68.18-1.78c.04-.41-.08-.82-.34-1.14-.26-.32-.63-.52-1.05-.56l-15.13-1.5c-.41-.04-.82.08-1.14.34-.32.26-.52.63-.56,1.05l-.02.2h-.05s-6.28.29-6.28.29c-.41-.04-.85.07-1.2.28-.39.24-.62.6-.66,1l-.07.33s-.02.1-.02.15c-.03.29-.05.55-.08.77-.08.82-.13,1.36-.08,1.42.04,0,.18-.15.32-.3.14-.14.31-.32.53-.52.26-.24.59-.36.94-.35l6.34.15ZM18.07,22.45c-2.32-.54-3.94-2.74-3.7-5.17l.19-1.93h.05s12.85,1.28,12.85,1.28l-.19,1.93c-.13,1.28-.75,2.44-1.74,3.25h0c-1,.82-2.25,1.2-3.53,1.07l-3.31-.33c-.21-.02-.42-.06-.62-.1ZM14.66,15.46l-.18,1.83c-.26,2.59,1.64,4.9,4.23,5.16l3.31.33c1.25.12,2.48-.25,3.45-1.04.97-.8,1.58-1.93,1.7-3.18l.18-1.83-12.69-1.26Z"/>
  </g>
  <g>
    <path class="cls-1" d="M30.4,23.92c-.11-.17-.2-.34-.29-.53,0,0,0-.01,0-.02,0,0,0,0,0,0-.26-.56-.4-1.19-.4-1.85h0c0-.77.2-1.5.54-2.13.76-1.39,2.23-2.34,3.93-2.34h5.25s0,0,0,0h5.57c2.47,0,4.47,2,4.47,4.47h0c0,2.47-2,4.47-4.47,4.47h-3.56s-7.25,0-7.25,0c-1.59,0-2.97-.83-3.77-2.07Z"/>
    <path class="cls-3" d="M29.98,24.19h0c-.12-.19-.23-.38-.33-.61-.3-.65-.45-1.35-.45-2.06,0-.83.21-1.65.6-2.37.87-1.6,2.55-2.6,4.37-2.6h10.82c2.74,0,4.97,2.23,4.97,4.97s-2.23,4.97-4.97,4.97h-10.82c-1.7,0-3.27-.86-4.19-2.3ZM34.17,17.55c-1.46,0-2.79.8-3.49,2.08-.31.58-.48,1.23-.48,1.89,0,.57.12,1.12.37,1.66.08.16.16.32.26.47.74,1.15,1.99,1.84,3.35,1.84h10.82c2.19,0,3.97-1.78,3.97-3.97s-1.78-3.97-3.97-3.97h-10.82Z"/>
  </g>
</svg>