<?xml version="1.0" encoding="UTF-8"?>
<svg id="Capa_1" data-name="Capa 1" xmlns="http://www.w3.org/2000/svg" viewBox="0 0 50 50">
  <defs>
    <style>
      .cls-1 {
        fill: #f7a810;
      }

      .cls-1, .cls-2, .cls-3, .cls-4, .cls-5, .cls-6 {
        stroke-width: 0px;
      }

      .cls-2 {
        fill: #090a0a;
      }

      .cls-3, .cls-7, .cls-8 {
        fill: #000;
      }

      .cls-4 {
        fill: #161616;
      }

      .cls-9 {
        fill: #434e89;
      }

      .cls-9, .cls-7, .cls-8 {
        stroke-miterlimit: 10;
      }

      .cls-9, .cls-8 {
        stroke: #1d1d1b;
        stroke-width: .5px;
      }

      .cls-7 {
        stroke: #fff;
      }

      .cls-5 {
        fill: #e2e2e1;
      }

      .cls-6 {
        fill: #fff;
      }
    </style>
  </defs>
  <path class="cls-7" d="M44.33,16.76h-5.12c-3.02-6.89-9.78-11.33-17.33-11.33-6.93,0-12.99,3.76-16.29,9.34-.3.03-.6.13-.85.29-.41.25-.65.63-.69,1.05l-.07.31c-.01.05-.02.1-.02.16-.03.28-.05.53-.07.75-.09.92-.12,1.27-.07,1.41-.55,1.78-.85,3.66-.85,5.62,0,3.5.97,6.89,2.79,9.86-1.39.55-2.85,1.33-4.38,2.35l-.54.37.51.42c4.04,3.31,8.88,5.58,14.02,6.59h0s0,.01,0,.01h-.01s.71.13.71.13l.33.06h0s.15.02.15.02h0c1.7.26,3.42.4,5.13.4,3.05,0,6.06-.42,8.97-1.26l.89-.26-.03-.02c.94-.3,1.88-.63,2.79-1.02l.53-.23v-.02c1.08-.48,2.14-1.02,3.17-1.62l.52-.31-.41-.44c-.84-.91-1.68-1.6-2.48-2.08,2.36-2.5,3.99-5.57,4.72-8.93.57-.5.9-1.19.95-1.94h3.01c2.67,0,4.85-2.17,4.85-4.85s-2.17-4.85-4.85-4.85Z"/>
  <g>
    <path class="cls-3" d="M15.28,23.5c.48,0,1.04-.15,1.68-.32.02,0,.04-.01.06-.02l-.18-.96-.08.02c-.75.2-1.46.4-1.78.26l-.39.89h0s0,0,.01,0h0c.2.09.43.12.66.12Z"/>
    <polygon class="cls-3" points="29.39 23.66 30.26 23.21 29.37 23.62 29.39 23.66"/>
    <path class="cls-3" d="M29.37,23.62l.89-.41h0s0,0,0,0c-.23-.51-.35-1.04-.35-1.6,0-.64.16-1.28.46-1.84,0,0,0,0,0,0h0s-.86-.47-.86-.47c-.38.71-.59,1.5-.59,2.31,0,.47.07.93.2,1.38.07.22.15.43.24.63Z"/>
    <path class="cls-3" d="M15.29,43.63l.95-.2c-.29-1.37-.73-2.86-1.28-4.25-.96-2.48-2.21-4.66-3.35-5.32h0s0,0,0,0c-.21-.12-.45-.22-.71-.3,0,0,0,0,0,0l-.29.93c.19.06.37.13.52.22h0s.02.02.04.02h0s0,0,0,0h0s0,0,0,0h0c.13.09.28.21.43.37h0s0,0,0,0c0,0,0,0,0,0,0,0,0,0,0,0,1.22,1.29,2.91,4.86,3.68,8.53h0Z"/>
    <path class="cls-3" d="M25.44,23.5c.48,0,.92-.1,1.26-.37.48-.38.72-1.04.72-2.01,0-1.78-.68-3.46-1.9-4.75l-.71.67h0s0,0,.01.01c1.05,1.1,1.62,2.55,1.62,4.07,0,.64-.12,1.06-.35,1.24-.43.34-1.5.09-2.53-.16l-.22.95c.75.18,1.47.35,2.1.35Z"/>
    <path class="cls-3" d="M30.32,42.38l-.46.57.46-.57ZM30.49,42.2l-.31.38.31-.38Z"/>
    <path class="cls-3" d="M17.77,43.08c3.77-2.98,8.27-3.04,12.06-.16l.59-.78s-.05-.04-.07-.06c-2.2-1.65-4.61-2.41-7.08-2.25-2.11.14-4.12.94-6,2.4-.03.02-.06.05-.1.08l.61.76Z"/>
    <path class="cls-3" d="M33.64,41.72l.82-.53c-.13-.2-.26-.39-.4-.58-.37-.52-.76-1.03-1.16-1.52h0s0,0,0,0l-.75.62s0,0,0,0h0c.21.25.41.51.61.78.17.22.34.45.5.69.13.18.25.37.38.55h0s0,0,0,0Z"/>
    <g>
      <path class="cls-2" d="M33.67,40.89c-.37-.51-.75-1.01-1.14-1.49.15-.11.3-.22.44-.33.66-.5,1.29-1.04,1.88-1.63.94.44,1.92,1.22,2.91,2.29-1.17.69-2.38,1.3-3.64,1.83-.02-.04-.05-.07-.07-.11-.13-.19-.25-.38-.39-.57Z"/>
      <path class="cls-3" d="M33.64,41.72c-.12-.19-.25-.37-.37-.55-.36-.51-.73-.99-1.12-1.46l-.33-.4.43-.3c.14-.1.28-.2.43-.32.65-.49,1.27-1.02,1.83-1.59l.24-.24.31.15c.98.46,2.01,1.27,3.06,2.4l.41.44-.52.31c-1.19.7-2.43,1.32-3.7,1.86l-.44.05-.22-.34ZM34.94,38.03c-.53.5-1.09.98-1.7,1.44,0,0-.01.01-.02.02.29.36.56.74.84,1.12h0c.08.12.16.23.24.35.91-.4,1.81-.85,2.67-1.34-.7-.7-1.38-1.23-2.03-1.58Z"/>
    </g>
    <g>
      <path class="cls-4" d="M15.77,43.53c.2.04.41.08.62.11.35-.34.71-.65,1.08-.95,1.93-1.53,4.12-2.4,6.43-2.4,2.23,0,4.34.8,6.22,2.23.01.01.03.02.04.03,0,0,.01.01.02.01.11.09.22.18.33.27,1.24-.36,2.44-.78,3.61-1.28-.02-.04-.05-.07-.07-.11-.13-.19-.25-.38-.39-.57-.37-.51-.75-1.01-1.14-1.49,0,0,0,0,0,0,.15-.11.3-.22.44-.33.66-.5,1.29-1.04,1.88-1.63,2.52-2.49,4.32-5.7,5.07-9.3-.4.31-.91.5-1.46.5h-4.29c-3.4.17-4.15-2.44-4.15-3.76v-.36c0-.2.03-.39.07-.58-.1-.16-.2-.34-.28-.51,0,0,0,0,0-.02,0,0,0,0,0,0-.08-.18-.16-.37-.21-.57-.12-.39-.18-.81-.18-1.24,0-.75.19-1.46.53-2.08.74-1.36,2.18-2.28,3.83-2.28h5.12s0,0,0,0c-2.78-6.65-9.35-11.33-17.01-11.33-10.18,0-18.44,8.25-18.44,18.43,0,3.73,1.11,7.2,3.02,10.1.52-.18,1.02-.33,1.49-.43,1.09-.23,2.05-.24,2.81,0,.22.07.43.15.62.26,1.48.86,3.54,5.22,4.39,9.25ZM14.12,21.12c0-3.54,2.87-6.41,6.41-6.41,1.83,0,3.47.76,4.64,1.99,1.1,1.15,1.77,2.7,1.77,4.42,0,2.35-1.46,2.04-3.48,1.56-1.02-.24-2.18-.52-3.37-.52s-2.23.28-3.11.51c-.94.26-1.69.47-2.18.25-.43-.19-.67-.7-.67-1.81Z"/>
      <path class="cls-3" d="M16.31,44.12c-.21-.04-.42-.07-.63-.11l-.32-.06-.07-.32c-.88-4.18-2.95-8.23-4.15-8.93h0c-.15-.08-.32-.16-.51-.22-.68-.21-1.54-.2-2.57.02-.45.09-.93.23-1.43.41l-.36.13-.21-.32c-2.03-3.09-3.1-6.67-3.1-10.37,0-10.43,8.49-18.92,18.92-18.92,7.66,0,14.51,4.57,17.46,11.63l.28.68h-5.85c-1.42,0-2.73.78-3.4,2.03-.31.56-.47,1.2-.47,1.84,0,.38.05.74.16,1.1.05.17.12.34.2.52.07.16.16.31.25.46l.11.18-.05.2c-.04.16-.06.31-.06.46v.36c0,.74.26,1.77.99,2.46.63.59,1.51.86,2.67.81h4.29c.42,0,.82-.14,1.16-.4l1.05-.81-.27,1.3c-.76,3.63-2.56,6.92-5.2,9.54-.59.59-1.24,1.15-1.95,1.68,0,0-.01.01-.02.02.28.36.56.73.84,1.12.14.19.27.39.39.58l.39.6-.53.23c-1.19.51-2.42.94-3.66,1.3l-.3.03-.2-.16c-.09-.07-.18-.15-.33-.26-3.79-2.88-8.29-2.82-12.06.16-.36.29-.71.6-1.04.91l-.18.17-.24-.04ZM30.48,42.19s.09.07.15.11c.93-.28,1.86-.6,2.76-.96-.04-.06-.08-.11-.12-.17-.36-.51-.73-1-1.12-1.46l-.33-.4.43-.3c.14-.1.28-.2.43-.32.65-.49,1.27-1.03,1.83-1.59,2.26-2.24,3.88-5.01,4.7-8.06-.24.06-.49.1-.74.1h-4.26c-1.41.07-2.54-.29-3.37-1.08-1.2-1.14-1.29-2.71-1.29-3.17v-.36c0-.16.01-.32.04-.49-.08-.13-.15-.27-.22-.42-.09-.2-.17-.41-.24-.63-.13-.44-.2-.91-.2-1.38,0-.81.2-1.61.59-2.31.85-1.56,2.48-2.54,4.26-2.54h4.37c-2.95-6.32-9.25-10.36-16.27-10.36-9.9,0-17.95,8.05-17.95,17.95,0,3.38.94,6.66,2.73,9.52.41-.13.81-.24,1.19-.32,1.19-.25,2.22-.25,3.06,0,.27.08.51.18.72.31,1.73,1,3.71,5.52,4.55,9.25.02,0,.03,0,.05,0,.3-.28.61-.55.93-.81,2.07-1.64,4.4-2.5,6.74-2.5s4.48.78,6.58,2.37ZM14.6,23.38c-.86-.37-.96-1.47-.96-2.26,0-3.8,3.09-6.89,6.9-6.89,1.9,0,3.68.76,4.99,2.14,1.23,1.29,1.9,2.98,1.9,4.75,0,.97-.24,1.63-.72,2.01-.8.63-2.04.34-3.45,0-.97-.23-2.07-.49-3.17-.49s-2.21.29-3.06.52c-.67.18-1.24.34-1.74.34-.24,0-.47-.04-.68-.13ZM23.57,22.21c1.03.24,2.1.49,2.53.16.23-.18.35-.6.35-1.25,0-1.52-.58-2.97-1.63-4.08-1.13-1.19-2.65-1.84-4.29-1.84-3.26,0-5.92,2.66-5.92,5.92,0,.55.07,1.23.38,1.36h0c.32.14,1.03-.05,1.86-.28.83-.22,1.96-.53,3.23-.53s2.37.27,3.48.53Z"/>
    </g>
    <g>
      <path class="cls-5" d="M23.9,40.3c2.23,0,4.34.8,6.22,2.23.01.01.03.02.04.03,0,0,.01.01.02.01.11.09.22.18.33.27-2.8.81-5.76,1.24-8.83,1.24-1.81,0-3.57-.15-5.3-.44.35-.34.71-.65,1.08-.95,1.93-1.53,4.12-2.4,6.43-2.4Z"/>
      <path class="cls-3" d="M16.31,44.12l-.95-.16.69-.67c.35-.34.72-.67,1.12-.98,2.1-1.66,4.36-2.5,6.74-2.5s4.48.78,6.58,2.37c.1.08.2.16.34.28l.72.59-.89.26c-2.9.84-5.92,1.26-8.97,1.26-1.79,0-3.6-.15-5.38-.45ZM17.77,43.08c-.1.08-.19.16-.29.24,4.01.54,8.09.3,11.95-.68-3.7-2.58-8.02-2.43-11.66.45Z"/>
    </g>
    <g>
      <path class="cls-6" d="M20.53,14.71c1.83,0,3.47.76,4.64,1.99,1.09,1.15,1.77,2.7,1.77,4.42,0,2.35-1.46,2.04-3.48,1.56-1.02-.24-2.18-.52-3.37-.52s-2.23.28-3.11.51c-.94.25-1.69.47-2.18.25-.43-.19-.67-.7-.67-1.81,0-3.54,2.87-6.41,6.41-6.41Z"/>
      <path class="cls-3" d="M14.6,23.38c-.86-.37-.96-1.47-.96-2.26,0-3.8,3.09-6.89,6.9-6.89,1.9,0,3.68.76,4.99,2.14,1.23,1.29,1.9,2.98,1.9,4.75,0,.97-.24,1.62-.72,2.01-.8.63-2.04.34-3.45,0-.97-.23-2.07-.49-3.17-.49s-2.21.29-3.06.52c-.67.18-1.25.34-1.74.34-.24,0-.47-.04-.68-.13ZM23.57,22.21c1.03.24,2.1.49,2.53.16.23-.18.35-.6.35-1.24,0-1.52-.58-2.97-1.63-4.08-1.13-1.19-2.65-1.84-4.29-1.84-3.26,0-5.92,2.66-5.92,5.92,0,.55.07,1.23.38,1.36.32.14,1.03-.05,1.86-.28.83-.22,1.96-.53,3.23-.53s2.37.27,3.48.53Z"/>
    </g>
    <g>
      <path class="cls-2" d="M7.96,34.03c1.09-.23,2.05-.24,2.81,0,.22.07.43.15.62.26,1.48.86,3.54,5.22,4.39,9.25-5.31-.99-10.14-3.3-14.13-6.56,1.71-1.15,3.35-2,4.82-2.51.52-.18,1.02-.33,1.49-.43Z"/>
      <path class="cls-3" d="M15.68,44.01c-5.26-.98-10.22-3.29-14.35-6.67l-.51-.42.54-.37c1.73-1.16,3.39-2.02,4.93-2.57.54-.19,1.06-.34,1.55-.44h0c1.19-.25,2.22-.25,3.06,0,.26.08.5.18.72.31,1.78,1.03,3.83,5.78,4.62,9.57l.15.71-.72-.13ZM8.06,34.5h0c-.45.1-.93.23-1.43.41-1.3.46-2.7,1.16-4.15,2.09,3.7,2.89,8.05,4.92,12.66,5.9-.95-3.91-2.86-7.55-3.99-8.2-.15-.09-.32-.16-.52-.22-.33-.1-.71-.15-1.12-.15-.44,0-.92.06-1.45.17Z"/>
    </g>
    <g>
      <path class="cls-1" d="M34.18,28.65c-3.4.17-4.15-2.44-4.15-3.76v-.36c0-.2.03-.39.07-.58.77,1.21,2.13,2.02,3.67,2.02h7.07v.3c0,.77-.36,1.45-.93,1.88,0,0,0,0,0,0-.4.31-.91.5-1.46.5h-4.29Z"/>
      <path class="cls-3" d="M30.83,28.05c-1.2-1.14-1.29-2.71-1.29-3.17v-.36c0-.23.03-.46.09-.69l.27-1.1.61.96c.72,1.12,1.94,1.79,3.26,1.79h7.56v.78c0,.89-.41,1.72-1.12,2.27-.51.39-1.12.6-1.76.6h-4.28c-.11,0-.22,0-.33,0-1.25,0-2.27-.37-3.03-1.09ZM33.78,26.45c-1.22,0-2.37-.45-3.24-1.25.06.7.34,1.55.97,2.14.63.6,1.52.86,2.65.81h4.31c.42,0,.82-.14,1.16-.4.42-.32.68-.79.73-1.31h-6.58Z"/>
    </g>
    <g>
      <path class="cls-9" d="M37.45,20.66l.08-.83c.07-.67-.42-1.26-1.09-1.33l-6.63-.66.17-1.68c.04-.42-.08-.82-.35-1.15-.26-.32-.64-.52-1.06-.57l-14.76-1.46c-.42-.04-.82.08-1.15.35-.32.26-.52.64-.57,1.06v.15s-6.14.28-6.14.28c-.79-.08-1.78.41-1.87,1.3l-.07.31s-.02.1-.02.15c-.28,2.96-.33,2.37.76,1.38.24-.22.55-.34.88-.33l6.13.15c-.09,1.73.47,3.41,1.57,4.76.99,1.2,2.31,2.03,3.8,2.37.3.07.6.12.91.15l3.97.39c3.18.31,6.07-1.56,7.19-4.39l6.89.68c.67.07,1.26-.42,1.33-1.09ZM25.32,21.85c-.96.79-2.17,1.15-3.41,1.03l-3.23-.32c-2.55-.25-4.42-2.53-4.17-5.09l.18-1.83,12.48,1.24-.18,1.83c-.12,1.24-.72,2.35-1.68,3.14Z"/>
      <path class="cls-8" d="M17.14,24.97c-1.51-.35-2.84-1.18-3.83-2.39-1.1-1.34-1.66-3.02-1.59-4.75l-6.07-.15c-.31,0-.61.1-.84.32-.21.19-.38.36-.51.5-.23.24-.34.35-.43.31-.12-.06-.1-.31.02-1.49.02-.22.05-.47.07-.75,0-.05.01-.11.02-.16l.07-.31c.04-.42.29-.8.69-1.05.36-.22.82-.33,1.23-.29l6.07-.28v-.1c.05-.43.26-.82.59-1.09.33-.27.76-.4,1.19-.36l14.76,1.46c.43.04.82.25,1.09.58.27.33.4.76.36,1.19l-.16,1.63,6.58.65c.34.03.64.2.86.46s.31.59.28.93l-.08.83c-.03.34-.2.64-.46.86-.26.21-.59.31-.93.28l-6.85-.68c-1.16,2.89-4.13,4.7-7.23,4.39l-3.97-.39c-.31-.03-.62-.08-.92-.15ZM11.83,17.73v.05c-.09,1.72.47,3.39,1.56,4.73.98,1.19,2.28,2.01,3.77,2.35.3.07.6.12.9.15l3.97.39c3.07.3,6-1.49,7.13-4.36v-.04s.05,0,.05,0l6.89.68c.31.03.61-.06.85-.26.24-.2.39-.48.42-.79l.08-.83c.03-.31-.06-.61-.26-.85-.2-.24-.47-.39-.79-.42l-6.68-.66.17-1.74c.04-.4-.08-.8-.34-1.11-.26-.31-.62-.51-1.02-.55l-14.76-1.46c-.4-.04-.8.08-1.11.33-.31.26-.51.62-.55,1.02l-.02.2h-.05s-6.12.28-6.12.28c-.4-.04-.83.07-1.17.28-.38.24-.61.58-.65.98l-.07.32s-.02.1-.02.14c-.03.28-.05.53-.07.75-.08.8-.13,1.33-.07,1.38.04,0,.17-.15.31-.29.13-.14.3-.32.51-.51.25-.23.58-.35.91-.34l6.18.15ZM18.08,22.51c-2.26-.53-3.84-2.67-3.61-5.04l.19-1.89h.05s12.53,1.25,12.53,1.25l-.19,1.89c-.12,1.25-.73,2.38-1.7,3.17h0c-.97.8-2.19,1.17-3.44,1.04l-3.23-.32c-.21-.02-.41-.05-.61-.1ZM14.75,15.7l-.18,1.78c-.25,2.52,1.6,4.78,4.12,5.03l3.23.32c1.22.12,2.42-.24,3.37-1.02.95-.78,1.54-1.88,1.66-3.1l.18-1.78-12.37-1.23Z"/>
    </g>
    <g>
      <path class="cls-1" d="M30.11,23.95c-.1-.16-.2-.34-.28-.51,0,0,0,0,0-.02,0,0,0,0,0,0-.25-.55-.39-1.16-.39-1.81h0c0-.75.19-1.46.53-2.08.74-1.36,2.18-2.28,3.83-2.28h5.12s0,0,0,0h5.43c2.41,0,4.36,1.95,4.36,4.36h0c0,2.41-1.95,4.36-4.36,4.36h-3.48s-7.07,0-7.07,0c-1.55,0-2.9-.81-3.67-2.02Z"/>
      <path class="cls-3" d="M29.69,24.21h0c-.12-.18-.22-.37-.32-.59-.29-.64-.44-1.31-.44-2.01,0-.81.2-1.6.59-2.31.85-1.56,2.48-2.54,4.26-2.54h10.55c2.67,0,4.85,2.17,4.85,4.85s-2.17,4.85-4.85,4.85h-10.55c-1.66,0-3.19-.84-4.08-2.25ZM33.78,17.74c-1.42,0-2.73.78-3.4,2.03-.31.56-.47,1.2-.47,1.84,0,.56.12,1.1.36,1.62.07.16.16.31.25.46.72,1.12,1.94,1.79,3.26,1.79h10.55c2.13,0,3.87-1.74,3.87-3.87s-1.74-3.87-3.87-3.87h-10.55Z"/>
    </g>
  </g>
</svg>