<?xml version="1.0" encoding="UTF-8"?>
<svg id="Capa_1" data-name="Capa 1" xmlns="http://www.w3.org/2000/svg" viewBox="0 0 407.27 394.87">
  <defs>
    <style>
      .cls-1 {
        fill: #7e1710;
      }

      .cls-1, .cls-2, .cls-3, .cls-4, .cls-5, .cls-6, .cls-7, .cls-8, .cls-9, .cls-10, .cls-11, .cls-12 {
        stroke-width: 0px;
      }

      .cls-13 {
        fill: #161616;
      }

      .cls-13, .cls-14, .cls-15, .cls-16, .cls-17, .cls-18, .cls-19 {
        stroke-miterlimit: 10;
      }

      .cls-13, .cls-14, .cls-15, .cls-16, .cls-18 {
        stroke: #000;
      }

      .cls-2 {
        fill: #45c1f1;
      }

      .cls-14, .cls-11 {
        fill: #fff;
      }

      .cls-3 {
        fill: #f7a51e;
      }

      .cls-15 {
        fill: #090a0a;
      }

      .cls-4 {
        fill: #81aede;
      }

      .cls-16 {
        fill: #e2e2e1;
      }

      .cls-5 {
        fill: #cfeaf4;
      }

      .cls-17 {
        fill: none;
        stroke: #7e1712;
        stroke-width: 6px;
      }

      .cls-18 {
        fill: #f7a810;
      }

      .cls-6 {
        fill: #411415;
      }

      .cls-19 {
        fill: #a3402b;
        stroke: #a4402b;
      }

      .cls-7 {
        fill: #c4c4c4;
      }

      .cls-8 {
        fill: #87bd2d;
      }

      .cls-9 {
        fill: #68c8f0;
      }

      .cls-10 {
        fill: #98c0e5;
      }

      .cls-12 {
        fill: #a5c961;
      }
    </style>
  </defs>
  <ellipse class="cls-7" cx="131.31" cy="379.97" rx="112.58" ry="14.91"/>
  <g>
    <polygon class="cls-19" points="406.26 387.5 401.62 384.79 234.64 3.07 239.45 .59 406.77 125.77 406.26 387.5"/>
    <polygon class="cls-3" points="401.62 384.79 234.64 273.47 234.64 3.07 401.62 129.74 401.62 384.79"/>
    <polygon class="cls-11" points="396.81 373.79 239.45 268.89 239.45 14.07 396.81 133.43 396.81 373.79"/>
  </g>
  <g>
    <ellipse class="cls-15" cx="199.86" cy="205.48" rx="89.93" ry="25.79" transform="translate(-84.77 171.55) rotate(-39)"/>
    <path class="cls-13" d="M24.16,274.62c-1.74-35.05,6.8-67.28,22-91.06,5.91-9.25,12.84-17.21,20.56-23.57-9.49-11.69-15.5-26.39-16.3-42.59-2.01-40.51,29.2-74.98,69.71-76.99,40.51-2.01,74.98,29.2,76.99,69.71,1.23,24.72-9.93,47.18-28.01,61.4,1.65,1.83,3.26,3.73,4.82,5.71,17.49,22.16,21.91,54.05,23.65,89.1s6.76,64.19-8.45,87.97c-15.21,23.78-43.38,19.54-68.32,20.77-24.95,1.24-62.16,3.86-79.65-18.3-17.49-22.16-15.25-47.1-16.99-82.15Z"/>
    <path class="cls-16" d="M77.7,263.3c1.15,23.11,8.5,43.72,19.46,58.36,10.96,14.64,25.53,23.31,41.11,22.53s29.22-10.84,38.67-26.49c9.46-15.65,14.73-36.89,13.58-60-1.15-23.11-8.5-43.72-19.46-58.36-10.96-14.64-25.53-23.31-41.11-22.53-15.58.77-29.22,10.84-38.67,26.49-9.46,15.65-14.73,36.89-13.58,60Z"/>
    <path class="cls-14" d="M98.41,92.66c.04-5.88,2.42-8.45,6.27-9.54s9.15-.7,15.04-.66,11.23-.28,15.1.86,6.25,3.74,6.21,9.62-2.42,9.12-6.27,10.87-9.15,2.02-15.04,1.98c-5.88-.04-11.23-.38-15.1-2.18s-6.25-5.06-6.21-10.95Z"/>
    <path class="cls-15" d="M5.1,163.62c6.52-27.22,20.99-49.47,32.49-68.14,11.5-18.67,27.14-27.72,33.99-26.07,6.85,1.64,6.48,11.71,1.43,27.52-5.14,16.28-25.74,42.15-27.86,69.91-6.52,27.22,21.47,24,20.07,48.74-3.36,19.71-13.29,47.83-33.23,41.99-6.85-1.64-26.02-25.84-28.98-42.84-2.96-17-4.42-23.89,2.1-51.1Z"/>
    <path class="cls-18" d="M179.44,129.03l15.15-7.87c4.66-2.42,6.47-8.15,4.05-12.81l-.67-1.29c-2.42-4.66-7.15-4.57-13.17-3.38l-23.55,5.58c-4.66,2.42-6.47,8.15-4.05,12.81l.67,1.29c2.42,4.66,9.87,12.52,21.56,5.68Z"/>
    <rect class="cls-18" x="153.18" y="82.07" width="76.74" height="34.72" rx="17.36" ry="17.36" transform="translate(387.8 189.25) rotate(177.16)"/>
  </g>
  <path class="cls-18" d="M127.09,372.29c0-7.53,2.41-11.38,22.34-11.38s40.52,7.95,40.52,15.48-18.31,5.92-38.24,5.92c-19.93,0-24.63-2.49-24.63-10.02Z"/>
  <path class="cls-18" d="M49.49,372.29c0-7.53,2.41-11.38,22.34-11.38s40.52,7.95,40.52,15.48c0,7.53-18.31,5.92-38.24,5.92-19.93,0-24.63-2.49-24.63-10.02Z"/>
  <line class="cls-17" x1="267.37" y1="62.19" x2="369.56" y2="138.47"/>
  <line class="cls-17" x1="264.06" y1="90.91" x2="366.25" y2="167.2"/>
  <line class="cls-17" x1="260.29" y1="123.72" x2="303.19" y2="155.75"/>
  <g>
    <path class="cls-1" d="M294.08,147.87c-4.87-.64-10.67-.17-15.54-.31-5.83.2-11.32.31-17.14.44-1.3.03-5.04,3.62-7.27,6.06-3.81,4.16-8.14,7.39,1.63,7.29s18.99.02,28.49.08c5.52-.1,10.3-.22,13.71-1.98,7.42-3.82,7.6-7.31-3.72-11.54l-.16-.03Z"/>
    <path class="cls-6" d="M289.18,157.87c-4.01-.13-8.78-.03-12.78-.06-5.09.04-9,.06-14.09.09-1.07,0-4.14.72-5.98,1.21-3.13.83-6.7,1.47,1.34,1.45s15.62,0,23.43.02c4.54-.02,8.59.48,11.27-.39,4.3-1.39,6.06-2.37-3.06-2.3h-.14Z"/>
  </g>
  <polygon class="cls-19" points="389.6 388.84 225.67 279.05 234.64 273.47 405.26 387.73 389.6 388.84"/>
  <g>
    <path class="cls-8" d="M295.04,304.37c-3.76-3.16-8.9-5.89-12.94-8.63-5.02-2.97-9.71-5.83-14.68-8.86-1.11-.68-10.59-7-13.78-6.14-5.45,1.46-6.45,9.18,1.84,14.35,8.17,5.1,16,10.24,23.97,15.4,4.71,2.89,8.8,5.36,12.62,5.71,8.31.77,10.34-2.07,3.08-11.73l-.12-.12Z"/>
    <path class="cls-12" d="M287.9,303.98c-3.47-2-7.48-4.6-10.9-6.68-4.3-2.72-7.62-4.79-11.93-7.5-.91-.57-5.2-2.91-6.27-3.78-2.51-2.04-3.09-5.18,3.73-.93s13.28,8.23,19.92,12.33c3.85,2.41,7.55,4.12,9.37,6.28,2.92,3.45,3.9,5.21-3.81.34l-.12-.07Z"/>
  </g>
  <g>
    <path class="cls-4" d="M353.06,343.17c-3.76-3.16-8.9-5.89-12.94-8.63-5.02-2.97-9.71-5.83-14.68-8.86-1.11-.68-10.59-7-13.78-6.14-5.45,1.46-6.45,9.18,1.84,14.35,8.17,5.1,16,10.24,23.97,15.4,4.71,2.89,8.8,5.36,12.62,5.71,8.31.77,10.34-2.07,3.08-11.73l-.12-.12Z"/>
    <path class="cls-10" d="M345.91,342.77c-3.47-2-7.48-4.6-10.9-6.68-4.3-2.72-7.62-4.79-11.93-7.5-.91-.57-5.2-2.91-6.27-3.78-2.51-2.04-3.09-5.18,3.73-.93,6.72,4.19,13.28,8.23,19.92,12.33,3.85,2.41,7.55,4.12,9.37,6.28,2.92,3.45,3.9,5.21-3.81.34l-.12-.07Z"/>
  </g>
  <g>
    <path class="cls-2" d="M114.68,14.08c0-7.87,3.88-13.86,8.67-13.86,4.79,0,8.67,5.99,8.67,13.86s-8.67,18.55-8.67,18.55c0,0-8.67-10.68-8.67-18.55Z"/>
    <path class="cls-2" d="M94.73,28.7c-3.46-4.27-3.98-9.23-1.38-11.34s7.34-.56,10.8,3.71,3.45,13.88,3.45,13.88c0,0-9.4-1.99-12.86-6.26Z"/>
    <path class="cls-2" d="M140.85,19.88c2.8-4.73,7.27-6.95,10.15-5.24s3.08,6.69.28,11.42-11.82,8.06-11.82,8.06c0,0-1.41-9.51,1.39-14.24Z"/>
    <path class="cls-9" d="M116.24,13.96c0-6.45,3.18-11.35,7.1-11.35s7.1,4.9,7.1,11.35-7.1,15.2-7.1,15.2c0,0-7.1-8.75-7.1-15.2Z"/>
    <path class="cls-9" d="M95.62,28.15c-2.83-3.5-3.26-7.56-1.13-9.29s6.01-.46,8.85,3.04,2.82,11.37,2.82,11.37c0,0-7.7-1.63-10.54-5.13Z"/>
    <path class="cls-9" d="M141.82,20.64c2.3-3.88,5.95-5.69,8.31-4.29s2.52,5.48.23,9.35-9.68,6.6-9.68,6.6c0,0-1.16-7.79,1.14-11.66Z"/>
    <path class="cls-5" d="M100.92,22.09c.58,2.24-1.56-1.38-3.97-.76-1.89.48-2.52,4.82-3.1,2.59s.54-4.46,2.49-4.96,4,.9,4.58,3.14Z"/>
    <path class="cls-5" d="M127.89,7.47c0,2.31-1.41-1.72-4.41-1.73-2.36,0-4.41,4.04-4.41,1.73s1.98-4.18,4.41-4.18,4.41,1.87,4.41,4.18Z"/>
    <path class="cls-5" d="M150.97,22.13c-1.03,2.07-.28-2.06-2.5-3.17-1.74-.87-5.07,1.99-4.04-.08s3.32-3.02,5.13-2.12,2.44,3.3,1.41,5.37Z"/>
  </g>
</svg>