<?xml version="1.0" standalone="no"?>
<!DOCTYPE svg PUBLIC "-//W3C//DTD SVG 20010904//EN" "http://www.w3.org/TR/2001/REC-SVG-20010904/DTD/svg10.dtd">
<!-- Created using Krita: https://krita.org -->
<svg xmlns="http://www.w3.org/2000/svg" 
    xmlns:xlink="http://www.w3.org/1999/xlink"
    xmlns:krita="http://krita.org/namespaces/svg/krita"
    xmlns:sodipodi="http://sodipodi.sourceforge.net/DTD/sodipodi-0.dtd"
    width="595.2pt"
    height="841.92pt"
    viewBox="0 0 595.2 841.92">
<defs/>
<path id="shape0" transform="matrix(-1 0 0 1 564.301122291147 39.2002257491293)" fill="#ffffff" stroke="#fea711" stroke-width="12" stroke-linecap="square" stroke-linejoin="bevel" d="M2.16586 184.461C165.479 61.4869 247.136 -4.84143e-15 247.136 0L247.136 402.281L0.252027 573.005C0.252027 606.856 -1.02386 427.792 2.16586 184.461Z" sodipodi:nodetypes="ccccc"/><g id="group0" transform="matrix(-1 0 0 1 351.632375511679 205.721713072626)" fill="none">
  <ellipse id="shape01" transform="matrix(0.0293993984696436 0.999567744262303 -0.999567744262303 0.0293993984696436 286.601747969298 260.356110942257)" rx="13.8434409381174" ry="122.488198893784" cx="13.8434409381174" cy="122.488198893784" fill="#8c8c8c" fill-rule="evenodd" stroke-opacity="0" stroke="#000000" stroke-width="0" stroke-linecap="square" stroke-linejoin="bevel"/>
  <g id="group1" fill="none">
   <ellipse id="shape4" transform="matrix(1.14983618104507 0 0 1.13606844430607 217.051222495112 258.376643515853)" rx="30.9957175940393" ry="14.3132267851812" cx="30.9957175940393" cy="14.3132267851812" fill="#ffba02" fill-rule="evenodd" stroke-opacity="0" stroke="#000000" stroke-width="0" stroke-linecap="square" stroke-linejoin="bevel"/>
   <ellipse id="shape41" transform="matrix(1.14983618104507 0 0 1.13606844430607 126.245699685634 265.721223738376)" rx="34.1249849014188" ry="15.9999999999987" cx="34.1249849014188" cy="15.9999999999987" fill="#ffba02" fill-rule="evenodd" stroke-opacity="0" stroke="#000000" stroke-width="0" stroke-linecap="square" stroke-linejoin="bevel"/>
   <path id="shape1" transform="translate(50.0805587717734, 12.479994851922)" fill="#ffffff" fill-rule="evenodd" stroke="#0295ff" stroke-width="0.576" stroke-linecap="square" stroke-linejoin="bevel" d="M6.84001 92.52L15.84 68.4L30.24 43.56L47.16 27L69.12 10.08L91.08 0L152.28 18.72L185.76 116.28L168.48 180L130.32 211.68L108 221.04L52.08 221.76L37.44 218.88L16.56 187.2L4.32 157.68L0.72 126.72L0 102.24C0 102.24 2.28 99 6.84001 92.52Z" sodipodi:nodetypes="cccccccccccccccccc"/>
   <ellipse id="shape011" transform="matrix(1.14983618104507 0 0 1.13606844430607 50.0017210063253 2.56011581987369)" rx="118.124989438803" ry="119.24998933822" cx="118.124989438803" cy="119.24998933822" fill="none" stroke="#000000" stroke-width="7.99999999999936" stroke-linecap="round" stroke-linejoin="round"/>
   <path id="shape11" transform="matrix(1.14983618104507 0 0 1.13606844430607 85.9702558942423 1.78229328184898e-07)" fill="#0a0a00" fill-rule="evenodd" stroke="#000000" stroke-width="2.39999999999981" stroke-linecap="square" stroke-linejoin="bevel" d="M46.7185 10.1285L49.7185 22.8785C54.791 20.3284 61.541 21.0784 69.9685 25.1285C78.3961 29.1786 85.3961 46.4286 90.9685 76.8785L100.719 108.378L117.219 106.128C119.219 119.628 118.969 129.378 116.469 135.378C113.969 141.378 111.969 144.628 110.469 145.128C93.8766 182.892 70.5016 201.767 40.3436 201.753C10.1855 201.74 -3.06446 202.99 0.593554 205.503C14.0801 216.799 23.3326 230.375 48.9685 235.128C64.7231 242.51 74.2665 240.575 86.4685 242.628C102.651 241.218 118.812 239.909 135.969 233.628L167.469 212.628C171.341 209.953 177.466 208.203 185.844 207.378C194.221 206.554 200.721 204.304 205.344 200.628L190.719 180.378C195.719 168.223 205.232 157.662 204.969 139.878C207.182 129.128 208.239 118.378 206.469 107.628C202.848 89.219 197.586 72.0402 189.969 56.6285L160.719 24.3785L126.219 6.37849C106.719 1.87984 87.2185 -1.08918 67.7185 0.378488C67.7185 0.378488 60.7185 3.62849 46.7185 10.1285Z" sodipodi:nodetypes="cczccczczccccczccccccccc"/>
   <ellipse id="shape2" transform="matrix(0.847530414955699 0.767751428989281 -0.777055621538851 0.837382381849977 142.707263304405 65.1859010601956)" rx="13.1438594597301" ry="18.7736543617569" cx="13.1438594597301" cy="18.7736543617569" fill="#060606" fill-rule="evenodd" stroke="#000000" stroke-width="2.39999999999981" stroke-linecap="square" stroke-linejoin="bevel"/>
   <ellipse id="shape3" transform="matrix(0.962284144708707 0.621854450297847 -0.629390552902039 0.950762090531894 32.6435553947867 12.8147420500109)" rx="35.4999999999972" ry="23.4999999999981" cx="35.4999999999972" cy="23.4999999999981" fill="#ffda03" fill-rule="evenodd" stroke-opacity="0" stroke="#000000" stroke-width="0" stroke-linecap="square" stroke-linejoin="bevel"/>
   <ellipse id="shape42" transform="matrix(1.14983618104507 0 0 1.13606844430607 128.478070818105 261.725804730645)" rx="34.1249849014188" ry="15.9999999999987" cx="34.1249849014188" cy="15.9999999999987" fill="#ffda03" fill-rule="evenodd" stroke-opacity="0" stroke="#000000" stroke-width="0" stroke-linecap="square" stroke-linejoin="bevel"/>
   <ellipse id="shape0111" transform="matrix(1.14983618104507 0 0 1.13606844430607 215.231307256074 251.300505952837)" rx="31.2758101688897" ry="15.9999999999987" cx="31.2758101688897" cy="15.9999999999987" fill="#ffda03" fill-rule="evenodd" stroke-opacity="0" stroke="#000000" stroke-width="0" stroke-linecap="square" stroke-linejoin="bevel"/>
   <path id="shape5" transform="matrix(1.14983618104507 0 0 1.13606844430607 0 101.669665649314)" fill="#0a0a00" fill-rule="evenodd" stroke-opacity="0" stroke="#000000" stroke-width="0" stroke-linecap="square" stroke-linejoin="bevel" d="M11.846 0.501L11.832 0.5L10.943 0.475L10.079 0.497L9.241 0.567L8.43 0.685L7.647 0.851L6.894 1.067L6.171 1.332L5.48 1.648L4.822 2.014L4.198 2.432L3.609 2.901L3.096 3.383L2.624 3.901L2.192 4.454L1.799 5.043L1.446 5.665L1.133 6.32L0.858 7.007L0.622 7.725L0.424 8.473L0.264 9.249L0.142 10.053L0.058 10.885L0.01 11.742L0 12.624L0.026 13.529L0.088 14.458L0.187 15.409L0.321 16.38L0.491 17.371L0.696 18.382L0.935 19.41L1.209 20.455L1.518 21.516L1.861 22.592L2.237 23.681L2.647 24.784L3.089 25.899L3.565 27.025L4.073 28.16L4.614 29.305L5.186 30.458L5.79 31.617L6.426 32.783L7.093 33.953L7.79 35.128L8.518 36.305L9.277 37.485L10.065 38.666L10.883 39.846L11.73 41.026L12.606 42.204L13.512 43.378L14.445 44.549L15.407 45.715L16.397 46.875L17.478 48.099L18.571 49.292L19.674 50.454L20.785 51.584L21.904 52.682L23.03 53.746L24.161 54.778L25.296 55.775L26.435 56.738L27.575 57.665L28.716 58.558L29.857 59.414L30.996 60.233L32.132 61.016L33.265 61.761L34.392 62.467L35.513 63.135L36.627 63.764L37.732 64.353L38.828 64.902L39.913 65.41L40.985 65.877L42.045 66.301L43.09 66.684L44.12 67.024L45.133 67.32L46.128 67.572L47.104 67.78L47.835 67.905L47.616 67.235L46.761 64.381L45.975 61.497L45.26 58.584L44.615 55.643L44.043 52.676L43.544 49.683L43.119 46.666L42.769 43.624L42.495 40.56L42.299 37.474L42.18 34.368L42.14 31.241L42.18 28.114L42.299 25.008L42.495 21.922L42.769 18.857L43.119 15.816L43.544 12.798L43.584 12.557L42.905 11.938L41.719 10.918L40.49 9.919L39.342 9.036L38.184 8.192L37.02 7.387L35.849 6.623L34.674 5.899L33.497 5.215L32.319 4.572L31.142 3.97L29.967 3.41L28.797 2.89L27.632 2.413L26.475 1.978L25.327 1.585L24.191 1.235L23.066 0.927L21.956 0.663L20.862 0.443L19.785 0.266L18.728 0.133L17.691 0.044L16.677 0L15.688 0.001L14.724 0.047L13.787 0.138L12.88 0.275L12.004 0.458L11.846 0.501" sodipodi:nodetypes="ccccccccccccccccccccccccccccccccccccccccccccccccccccccccccccccccccccccccccccccccccccccccccccccccccccccccccccccccccccccccccccccccccccccccc"/>
   <path id="shape6" transform="matrix(1.14983618104507 0 0 1.13606844430607 111.567249770269 163.979614325853)" fill="#0a0a00" fill-rule="evenodd" stroke-opacity="0" stroke="#000000" stroke-width="0" stroke-linecap="square" stroke-linejoin="bevel" d="M87.4571 0.788966C59.4571 1.1223 40.7905 0.955633 31.4571 0.288966C17.4571 -0.711034 8.95714 0.788966 3.45714 6.28897C-0.209523 9.95563 -0.959523 16.4973 1.20714 25.914C3.85298 29.731 6.49881 33.683 9.14464 36.539C16.0196 40.7056 22.9571 43.6223 29.9571 45.289C36.9571 46.9556 46.2905 48.4556 57.9571 49.789C79.6238 45.4556 92.2905 39.289 95.9571 31.289C101.457 19.289 101.457 19.289 87.4571 0.788966Z" sodipodi:nodetypes="czzcczccc"/>
   <ellipse id="shape7" transform="matrix(0.922298428869236 -0.386478470429262 0.386478470429262 0.922298428869236 19.1579159081979 37.4359061575439)" rx="13.1376367018069" ry="9.59999999999999" cx="13.1376367018069" cy="9.59999999999999" fill="#ffeb00" fill-rule="evenodd" stroke-opacity="0" stroke="#000000" stroke-width="0" stroke-linecap="square" stroke-linejoin="bevel"/>
   <ellipse id="shape8" transform="matrix(0.739822173612249 -0.672802460928654 0.672802460928654 0.739822173612249 129.69488798218 86.5704361261534)" rx="10.7399876982186" ry="9.77998725223253" cx="10.7399876982186" cy="9.77998725223253" fill="#2b463f" fill-rule="evenodd" stroke-opacity="0" stroke="#000000" stroke-width="0" stroke-linecap="square" stroke-linejoin="bevel"/>
   <path id="shape9" transform="matrix(0.999034529090792 0.0439318754930921 -0.0439318754930921 0.999034529090792 217.676839889259 14.7070074726165)" fill="#575757" fill-rule="evenodd" stroke="#575757" stroke-width="0.576" stroke-linecap="square" stroke-linejoin="bevel" d="M4.118 10.591L0.9426 10.018L0.7068 9.942L0.4987 9.809L0.3218 9.626L0.1799 9.4L0.0765 9.138L0.0153 8.848L0 8.537L0.0343 8.212L1.2844 1.374L1.4045 0.959L1.5949 0.601L1.8412 0.313L2.1293 0.108L2.445 0L2.7742 0.001L5.1407 0.428L5.1707 0.129L6.3572 0.359L9.3144 1.011L12.2409 1.737L15.1349 2.536L17.9959 3.407L20.8239 4.348L23.6169 5.359L26.3749 6.439L29.0969 7.586L31.7809 8.799L34.4279 10.077L37.0359 11.419L39.6039 12.825L42.1309 14.292L44.6169 15.821L47.0609 17.409L49.4609 19.056L51.8169 20.76L54.1289 22.522L56.3939 24.338L58.6129 26.209L60.7849 28.133L62.9079 30.11L64.9819 32.137L67.0059 34.215L68.9779 36.342L70.8989 38.516L72.7669 40.738L74.5819 43.005L76.3419 45.316L78.0469 47.672L79.6949 50.069L81.2869 52.508L82.8199 54.988L84.2949 57.506L85.7099 60.063L87.0649 62.657L88.3579 65.287L89.2739 67.268L88.7749 67.268L88.9539 67.673L89.0329 67.929L89.0479 68.192L89.0039 68.456L88.9049 68.712L88.7539 68.954L88.5559 69.173L88.3129 69.364L88.0299 69.517L81.6809 72.299L81.4099 72.395L81.1379 72.447L80.8709 72.458L80.6139 72.428L80.3739 72.36L80.1549 72.255L79.9639 72.115L79.8059 71.941L79.6859 71.734L77.7029 67.268L77.3559 67.268L76.3169 65.261L75.0409 62.934L73.7099 60.641L72.3269 58.385L70.8909 56.165L69.4039 53.983L67.8659 51.84L66.2769 49.736L64.6399 47.673L62.9539 45.652L61.2209 43.673L59.4399 41.738L57.6139 39.847L55.7419 38.003L53.8259 36.204L51.8659 34.454L49.8629 32.752L47.8179 31.099L45.7309 29.497L43.6039 27.947L41.4369 26.449L39.2309 25.005L36.9869 23.615L34.7049 22.281L32.3859 21.003L30.0319 19.782L27.6419 18.62L25.2179 17.517L22.7609 16.475L20.2699 15.494L17.7479 14.576L15.1939 13.721L12.6099 12.93L9.9966 12.204L7.354 11.545L4.6833 10.953L4.0931 10.839L4.118 10.591" sodipodi:nodetypes="cccccccccccccccccccccccccccccccccccccccccccccccccccccccccccccccccccccccccccccccccccccccccccccccccccccccccccccccccccccc"/>
  </g>
 </g><path id="shape10" transform="matrix(-1 0 0 1 571.381123396506 222.839986614213)" fill="#a46a6a" fill-rule="evenodd" stroke="#a2402b" stroke-width="8.2296" stroke-linecap="square" stroke-linejoin="miter" stroke-miterlimit="2" d="M0.36 0L0 395.88" sodipodi:nodetypes="cc"/><path id="shape12" transform="matrix(-1 0 0 1 568.781122200914 32.1600000136749)" fill="none" stroke="#a2402b" stroke-width="8.2296" stroke-linecap="square" stroke-linejoin="miter" stroke-miterlimit="2" d="M0 187.92L249.12 0" sodipodi:nodetypes="cc"/><path id="shape13" transform="matrix(-1 0 0 1 521.101124929045 167.039994944247)" fill="none" stroke="#ffffff" stroke-width="8.2296" stroke-linecap="square" stroke-linejoin="miter" stroke-miterlimit="2" d="M0 119.52L174.24 0" sodipodi:nodetypes="cc"/><path id="shape14" transform="matrix(-1 0 0 1 516.781127806378 191.519988495579)" fill="none" stroke="#ffffff" stroke-width="8.2296" stroke-linecap="square" stroke-linejoin="miter" stroke-miterlimit="2" d="M0 112.32L154.08 0" sodipodi:nodetypes="cc"/><path id="shape02" transform="matrix(-0.999576903665791 -0.0290863139279481 -0.0290863139279481 0.999576903665791 541.302999868375 184.092274129546)" fill="none" stroke="#7f0000" stroke-width="8.2296" stroke-linecap="square" stroke-linejoin="miter" stroke-miterlimit="2" d="M0 132.04L190.202 0" sodipodi:nodetypes="cc"/><path id="shape03" transform="matrix(-1 0 0 1 519.661127633379 243.359985381601)" fill="none" stroke="#7f0000" stroke-width="8.2296" stroke-linecap="square" stroke-linejoin="miter" stroke-miterlimit="2" d="M0 109.44L152.64 0" sodipodi:nodetypes="cc"/><path id="shape15" transform="matrix(-1 0 0 1 462.06112671599 486.719985268588)" fill="none" stroke="#ffffff" stroke-width="8.2296" stroke-linecap="square" stroke-linejoin="miter" stroke-miterlimit="2" d="M0 41.76L60.48 0" sodipodi:nodetypes="cc"/><path id="shape16" transform="matrix(-1 0 0 1 503.821125452052 511.199984527659)" fill="none" stroke="#ffffff" stroke-width="8.2296" stroke-linecap="square" stroke-linejoin="miter" stroke-miterlimit="2" d="M37.44 0L0 27.36" sodipodi:nodetypes="cc"/><path id="shape17" transform="matrix(-0.999897858728358 -0.0142923794535872 -0.0142923794535872 0.999897858728358 584.302504072981 449.979388613039)" fill="#b74100" fill-rule="evenodd" stroke="#b74100" stroke-width="8.2296" stroke-linecap="square" stroke-linejoin="bevel" d="M0 181.44L51.84 162.72L298.08 0L254.4 10.08C258.56 10.08 173.76 67.2 0 181.44Z" sodipodi:nodetypes="ccccc"/><rect id="shape18" transform="matrix(-0.829740060969805 -0.558150007813158 -0.558150007813158 0.829740060969805 512.000543195309 564.311761319145)" fill="#77b3fe" fill-rule="evenodd" stroke="#77b3fe" stroke-width="8.2296" stroke-linecap="square" stroke-linejoin="bevel" width="84.4799954672579" height="8.64000156902602" rx="10.3276278077332" ry="4.32000078451301"/><rect id="shape04" transform="matrix(-0.829740060969805 -0.558150007813158 -0.558150007813158 0.829740060969805 416.33184867444 502.400722135907)" fill="#82d322" fill-rule="evenodd" stroke="#82d322" stroke-width="8.2296" stroke-linecap="square" stroke-linejoin="bevel" width="84.4799954672579" height="8.64000156902602" rx="10.3276278077332" ry="4.32000078451301"/><rect id="shape05" transform="matrix(0.999342572976749 0.0362549560228866 0.0362549560228866 -0.999342572976749 322.914874931684 328.243660046261)" fill="#7f0000" fill-rule="evenodd" stroke="#7f0000" stroke-width="8.2296" stroke-linecap="square" stroke-linejoin="bevel" width="84.4799954672579" height="8.64000156902602" rx="10.3276278077332" ry="4.32000078451301"/><path id="shape19" transform="matrix(-1 0 0 1 348.541122391341 312.959999854667)" fill="#1a1a1a" fill-rule="evenodd" stroke="none" stroke-width="1.2" stroke-linecap="square" stroke-linejoin="bevel" d="M0 0.24C10.24 4.72 17.12 9.92 20.64 15.84L14.16 28.56L37.44 20.16L29.04 0C29.04 0 19.36 0.08 0 0.24Z" sodipodi:nodetypes="cccccc"/><path id="shape06" transform="matrix(-1 0 0 1 509.416103114383 330.239980162805)" fill="none" stroke="#7f0000" stroke-width="8.2296" stroke-linecap="square" stroke-linejoin="miter" stroke-miterlimit="2" d="M0 67.845L101.115 0" sodipodi:nodetypes="cc"/><rect id="shape07" transform="matrix(0.999342572976749 0.0362549560228865 0.0362549560228865 -0.999342572976749 335.5017159509 332.196928896252)" fill="#421313" fill-rule="evenodd" stroke="none" stroke-width="8.2296" stroke-linecap="square" stroke-linejoin="bevel" width="72.4056485084817" height="5.43194877740452" rx="8.85154627243049" ry="2.71597438870226"/><rect id="shape08" transform="matrix(-0.829740060969805 -0.558150007813158 -0.558150007813158 0.829740060969805 417.983150982711 500.369680979366)" fill="#b9d598" fill-rule="evenodd" stroke="none" stroke-width="8.2296" stroke-linecap="square" stroke-linejoin="bevel" width="84.4799954672579" height="3.26484609298256" rx="10.3276278077332" ry="1.63242304649128"/><rect id="shape09" transform="matrix(-0.829740060969805 -0.558150007813158 -0.558150007813158 0.829740060969805 513.651845496427 562.640720047996)" fill="#bcc6d2" fill-rule="evenodd" stroke="none" stroke-width="8.2296" stroke-linecap="square" stroke-linejoin="bevel" width="84.4799954672579" height="3.29907508462732" rx="10.3276278077332" ry="1.64953754231366"/><rect id="shape20" transform="matrix(0.811613405016136 -0.584194899668012 0.584194899668012 0.811613405016136 152.868241319504 298.343772714011)" fill="none" stroke="#2c1139" stroke-width="8.2296" stroke-linecap="square" stroke-linejoin="bevel" width="89.9999998826478" height="67.6800001310601" rx="4.40097798937153" ry="4.8516129126208"/><rect id="shape010" transform="matrix(-0.93045244501742 0.366412673854376 0.366412673854376 0.93045244501742 169.679989807492 327.839980306979)" fill="#82d322" fill-rule="evenodd" stroke="#2c1139" stroke-width="8.2296" stroke-linecap="square" stroke-linejoin="bevel" width="64.3436449783904" height="3.63094593354526" rx="7.86597126875185" ry="1.81547296677263"/><rect id="shape012" transform="matrix(-0.657701439815841 0.753278710746681 0.753278710746681 0.657701439815841 259.919992133086 245.519992568926)" fill="#82d322" fill-rule="evenodd" stroke="#2c1139" stroke-width="8.2296" stroke-linecap="square" stroke-linejoin="bevel" width="25.8115507822265" height="3.73758737526577" rx="3.15544630589565" ry="1.86879368763289"/><path id="shape21" transform="translate(126.404931829126, 120.568868163593)" fill="#45c6ea" fill-rule="evenodd" stroke="none" stroke-width="8.2296" stroke-linecap="square" stroke-linejoin="bevel" d="M49.2751 20.9111C48.5376 2.82653 26.4306 -0.365121 22.8751 0.0311305C18.36 0.534322 -7.24573 5.21187 1.99507 36.7511C4.32898 44.7169 16.673 56.0671 27.6751 57.1511C39.2663 56.1866 48.9732 35.4638 49.2751 20.9111Z" sodipodi:nodetypes="csscc"/><path id="shape013" transform="translate(126.404936152067, 120.568868069243)" fill="#abedff" fill-rule="evenodd" stroke-opacity="0" stroke="#000000" stroke-width="0" stroke-linecap="square" stroke-linejoin="bevel" d="M49.2751 20.9111C48.5376 2.82653 26.4306 -0.365121 22.8751 0.0311306C18.36 0.534322 -7.24573 5.21187 1.99507 36.7511C4.32898 44.7169 16.673 56.0671 27.6751 57.1511C39.2663 56.1866 48.9732 35.4638 49.2751 20.9111Z" sodipodi:nodetypes="csscc"/><path id="shape014" transform="translate(134.692450041155, 126.839998632185)" fill="#1bceff" fill-rule="evenodd" stroke-opacity="0" stroke="#000000" stroke-width="0" stroke-linecap="square" stroke-linejoin="bevel" d="M33.0675 16.6682C32.5726 2.25302 17.7371 -0.291038 15.351 0.0248142C12.321 0.425907 -4.86247 4.15438 1.33885 29.2943C2.90509 35.6438 11.1889 44.691 18.5722 45.5551C26.3508 44.7863 32.8649 28.2682 33.0675 16.6682Z" sodipodi:nodetypes="csscc"/><path id="shape015" transform="translate(147.8399978285, 152.279998620372)" fill="#dbf7ff" fill-rule="evenodd" stroke-opacity="0" stroke="#000000" stroke-width="0" stroke-linecap="square" stroke-linejoin="bevel" d="M15.3067 6.21671C15.0776 0.840305 8.21037 -0.108548 7.10587 0.00925494C5.7033 0.15885 -2.2508 1.54945 0.619745 10.9258C1.34475 13.294 5.17926 16.6683 8.59694 16.9906C12.1976 16.7039 15.2129 10.5431 15.3067 6.21671Z" sodipodi:nodetypes="csscc"/><path id="shape016" transform="matrix(0.514781152139147 0.401187971519445 -0.435034491597638 0.558211044954137 202.874105552504 142.23142015399)" fill="#45c6ea" fill-rule="evenodd" stroke-opacity="0" stroke="#000000" stroke-width="0" stroke-linecap="square" stroke-linejoin="bevel" d="M49.2751 20.9111C48.5376 2.82653 26.4306 -0.365121 22.8751 0.0311306C18.36 0.534322 -7.24573 5.21187 1.99507 36.7511C4.32898 44.7169 16.673 56.0671 27.6751 57.1511C39.2663 56.1866 48.9732 35.4638 49.2751 20.9111Z" sodipodi:nodetypes="csscc"/><path id="shape017" transform="matrix(0.514781152139147 0.401187971519445 -0.435034491597638 0.558211044954137 202.874107781749 142.231421883328)" fill="#abedff" fill-rule="evenodd" stroke-opacity="0" stroke="#000000" stroke-width="0" stroke-linecap="square" stroke-linejoin="bevel" d="M49.2751 20.9111C48.5376 2.82653 26.4306 -0.365121 22.8751 0.0311306C18.36 0.534322 -7.24573 5.21187 1.99507 36.7511C4.32898 44.7169 16.673 56.0671 27.6751 57.1511C39.2663 56.1866 48.9732 35.4638 49.2751 20.9111Z" sodipodi:nodetypes="csscc"/><path id="shape021" transform="matrix(0.514781152139147 0.401187971519445 -0.435034491597638 0.558211044954137 204.41220260848 149.056884699014)" fill="#1bceff" fill-rule="evenodd" stroke-opacity="0" stroke="#000000" stroke-width="0" stroke-linecap="square" stroke-linejoin="bevel" d="M33.0675 16.6682C32.5726 2.25302 17.7371 -0.291038 15.351 0.0248143C12.321 0.425907 -4.86247 4.15438 1.33885 29.2943C2.90509 35.6438 11.1889 44.691 18.5722 45.5551C26.3508 44.7863 32.8649 28.2682 33.0675 16.6682Z" sodipodi:nodetypes="csscc"/><path id="shape031" transform="matrix(0.514781152139147 0.401187971519445 -0.435034491597638 0.558211044954137 200.113036003799 168.532412585585)" fill="#dbf7ff" fill-rule="evenodd" stroke-opacity="0" stroke="#000000" stroke-width="0" stroke-linecap="square" stroke-linejoin="bevel" d="M15.3067 6.21671C15.0776 0.840305 8.21037 -0.108548 7.10587 0.00925495C5.7033 0.15885 -2.2508 1.54945 0.619744 10.9258C1.34475 13.294 5.17926 16.6683 8.59694 16.9906C12.1976 16.7039 15.2129 10.5431 15.3067 6.21671Z" sodipodi:nodetypes="csscc"/><path id="shape018" transform="matrix(0.431189533327102 -0.4899255141741 0.531258442700121 0.467567157366998 73.6241077106495 170.863569151889)" fill="#45c6ea" fill-rule="evenodd" stroke-opacity="0" stroke="#000000" stroke-width="0" stroke-linecap="square" stroke-linejoin="bevel" d="M49.2751 20.9111C48.5376 2.82653 26.4306 -0.365121 22.8751 0.0311306C18.36 0.534322 -7.24573 5.21187 1.99507 36.7511C4.32898 44.7169 16.673 56.0671 27.6751 57.1511C39.2663 56.1866 48.9732 35.4638 49.2751 20.9111Z" sodipodi:nodetypes="csscc"/><path id="shape019" transform="matrix(0.431189533327102 -0.4899255141741 0.531258442700121 0.467567157366998 73.624109569923 170.863567029803)" fill="#abedff" fill-rule="evenodd" stroke-opacity="0" stroke="#000000" stroke-width="0" stroke-linecap="square" stroke-linejoin="bevel" d="M49.2751 20.9111C48.5376 2.82653 26.4306 -0.365121 22.8751 0.0311306C18.36 0.534322 -7.24573 5.21187 1.99507 36.7511C4.32898 44.7169 16.673 56.0671 27.6751 57.1511C39.2663 56.1866 48.9732 35.4638 49.2751 20.9111Z" sodipodi:nodetypes="csscc"/><path id="shape022" transform="matrix(0.431189533327102 -0.4899255141741 0.531258442700121 0.467567157366998 80.5291847360056 169.735483008768)" fill="#1bceff" fill-rule="evenodd" stroke-opacity="0" stroke="#000000" stroke-width="0" stroke-linecap="square" stroke-linejoin="bevel" d="M33.0675 16.6682C32.5726 2.25302 17.7371 -0.291038 15.351 0.0248143C12.321 0.425907 -4.86247 4.15438 1.33885 29.2943C2.90509 35.6438 11.1889 44.691 18.5722 45.5551C26.3508 44.7863 32.8649 28.2682 33.0675 16.6682Z" sodipodi:nodetypes="csscc"/><path id="shape032" transform="matrix(0.431189533327102 -0.4899255141741 0.531258442700121 0.467567157366998 99.7134860897257 175.189070632589)" fill="#dbf7ff" fill-rule="evenodd" stroke-opacity="0" stroke="#000000" stroke-width="0" stroke-linecap="square" stroke-linejoin="bevel" d="M15.3067 6.21671C15.0776 0.840305 8.21037 -0.108548 7.10587 0.00925495C5.7033 0.15885 -2.2508 1.54945 0.619744 10.9258C1.34475 13.294 5.17926 16.6683 8.59694 16.9906C12.1976 16.7039 15.2129 10.5431 15.3067 6.21671Z" sodipodi:nodetypes="csscc"/>
</svg>
