<svg width="498" height="545" xmlns="http://www.w3.org/2000/svg" xmlns:xlink="http://www.w3.org/1999/xlink" xml:space="preserve" overflow="hidden"><g transform="translate(8 18)"><path d="M1.85233 157.758C141.524 52.586 211.36-4.14058e-15 211.36 0L211.36 344.046 0.215543 490.056C0.215543 519.007-0.875644 365.864 1.85233 157.758Z" stroke="#FEA711" stroke-width="10.2629" stroke-linecap="square" stroke-linejoin="bevel" fill="#FFFFFF" transform="matrix(-1.00009 0 0 1 463.543 15.5255)"/><path d="M23.6789 104.757C23.6789 162.612 18.3782 209.513 11.8394 209.513 5.3007 209.513 6.10675e-08 162.612 6.10675e-08 104.757 6.10675e-08 46.9011 5.3007-1.34026e-06 11.8394-1.34026e-06 18.3782-1.34026e-06 23.6789 46.9011 23.6789 104.757Z" fill="#8C8C8C" fill-rule="evenodd" transform="matrix(-0.029402 0.999568 0.999656 0.0293994 36.5101 380.608)"/><path d="M60.2315 13.9069C60.2315 21.5874 46.7482 27.8137 30.1157 27.8137 13.4833 27.8137 3.96689e-07 21.5874 3.96689e-07 13.9069 3.96689e-07 6.22632 13.4833-8.29289e-08 30.1157-8.29289e-08 46.7482-8.29289e-08 60.2315 6.22632 60.2315 13.9069Z" fill="#FFBA02" fill-rule="evenodd" transform="matrix(-1.01221 0 0 1 95.9977 378.915)"/><path d="M66.3123 15.5457C66.3123 24.1314 51.4678 31.0915 33.1562 31.0915 14.8445 31.0915-1.55659e-07 24.1314-1.55659e-07 15.5457-1.55659e-07 6.96007 14.8445 1.25993e-12 33.1562 1.25993e-12 51.4678 1.2582e-12 66.3123 6.96007 66.3123 15.5457Z" fill="#FFBA02" fill-rule="evenodd" transform="matrix(-1.01221 0 0 1 173.665 385.196)"/><path d="M5.84984 79.1267 13.547 58.4983 25.8624 37.2542 40.333 23.0914 59.1141 8.6208 77.8951 0 130.236 16.0101 158.869 99.4471 144.091 153.943 111.455 181.037 92.3657 189.042 44.5408 189.658 32.0201 187.195 14.1627 160.101 3.69463 134.854 0.615772 108.376 0 87.4396C0 87.4396 1.94994 84.6686 5.84984 79.1267Z" stroke="#0295FF" stroke-width="0.492617" stroke-linecap="square" stroke-linejoin="bevel" fill="#FFFFFF" fill-rule="evenodd" transform="matrix(-1.00009 0 0 1 238.81 168.614)"/><path d="M229.543 115.864C229.543 179.855 178.158 231.729 114.771 231.729 51.3849 231.729 2.84857e-06 179.855 2.84857e-06 115.864 2.84857e-06 51.8743 51.3849 2.94629e-06 114.771 2.94629e-06 178.158 2.94629e-06 229.543 51.8743 229.543 115.864Z" stroke="#000000" stroke-width="7.77287" stroke-linecap="round" stroke-linejoin="round" fill="none" transform="matrix(-1.01221 0 0 1 238.877 160.131)"/><path d="M45.3921 9.84094 48.307 22.229C53.2354 19.7513 59.7938 20.48 67.982 24.4151 76.1704 28.3502 82.9716 45.1105 88.3858 74.6959L97.8595 105.301 113.891 103.115C115.834 116.232 115.591 125.705 113.162 131.535 110.733 137.364 108.79 140.522 107.333 141.008 91.2114 177.7 68.5 196.039 39.1982 196.025 9.89633 196.012-2.97746 197.227 0.576703 199.669 13.6804 210.644 22.6702 223.834 47.5782 228.453 62.8856 235.625 72.158 233.745 84.0136 235.74 99.7367 234.37 115.439 233.098 132.109 226.995L162.714 206.591C166.477 203.992 172.428 202.292 180.568 201.49 188.707 200.69 195.022 198.504 199.514 194.932L185.304 175.257C190.162 163.447 199.405 153.186 199.15 135.907 201.3 125.462 202.327 115.017 200.607 104.572 197.089 86.686 191.976 69.9949 184.576 55.0208L156.156 23.6864 122.636 6.1974C103.689 1.82647 84.7423-1.05826 65.7959 0.367742 65.7959 0.367742 58.9947 3.52547 45.3921 9.84094Z" stroke="#000000" stroke-width="2.33186" stroke-linecap="square" stroke-linejoin="bevel" fill="#0A0A00" fill-rule="evenodd" transform="matrix(-1.01221 0 0 1 208.113 157.941)"/><path d="M25.6824 18.3414C25.6824 28.471 19.9332 36.6827 12.8412 36.6827 5.7492 36.6827 3.94259e-07 28.471 3.94259e-07 18.3414 3.94259e-07 8.21171 5.7492 5.62724e-07 12.8412 5.62724e-07 19.9332 5.62724e-07 25.6824 8.21171 25.6824 18.3414Z" stroke="#000000" stroke-width="2.34474" stroke-linecap="square" stroke-linejoin="bevel" fill="#060606" fill-rule="evenodd" transform="matrix(-0.74199 0.672087 0.680292 0.733041 159.585 213.691)"/><path d="M69.2334 22.9153C69.2334 35.571 53.735 45.8306 34.6167 45.8306 15.4984 45.8306 2.72988e-12 35.571 2.72988e-12 22.9153 2.72295e-12 10.2595 15.4984 1.84994e-12 34.6167 1.84994e-12 53.735 1.84648e-12 69.2334 10.2595 69.2334 22.9153Z" fill="#FFDA03" fill-rule="evenodd" transform="matrix(-0.844057 0.545404 0.552063 0.833877 253.724 168.901)"/><path d="M66.3123 15.5457C66.3123 24.1314 51.4678 31.0915 33.1562 31.0915 14.8445 31.0915-1.55659e-07 24.1314-1.55659e-07 15.5457-1.55659e-07 6.96007 14.8445 1.25993e-12 33.1562 1.25993e-12 51.4678 1.2582e-12 66.3123 6.96007 66.3123 15.5457Z" fill="#FFDA03" fill-rule="evenodd" transform="matrix(-1.01221 0 0 1 171.756 381.779)"/><path d="M60.7757 15.5457C60.7757 24.1314 47.1706 31.0915 30.3879 31.0915 13.6051 31.0915 7.07424e-08 24.1314 7.07424e-08 15.5457 7.07424e-08 6.96007 13.6051 1.25993e-12 30.3879 1.25993e-12 47.1706 1.2582e-12 60.7757 6.96007 60.7757 15.5457Z" fill="#FFDA03" fill-rule="evenodd" transform="matrix(-1.01221 0 0 1 97.5543 372.863)"/><path d="M11.5097 0.486776 11.4961 0.485805 10.6323 0.461514 9.79285 0.48289 8.97864 0.550902 8.19067 0.665552 7.4299 0.82684 6.69827 1.03671 5.9958 1.29418 5.32442 1.60121 4.6851 1.95682 4.07882 2.36295 3.50654 2.81864 3.0081 3.28695 2.5495 3.79025 2.12977 4.32755 1.74793 4.89983 1.40495 5.50417 1.10083 6.14057 0.833641 6.80807 0.604341 7.50568 0.411962 8.23244 0.256505 8.98641 0.137969 9.76759 0.0563533 10.576 0.00971609 11.4086 0 12.2656 0.0252618 13.1449 0.0855016 14.0475 0.181691 14.9715 0.311887 15.915 0.47706 16.8778 0.67624 17.8601 0.908455 18.8589 1.17468 19.8743 1.4749 20.9051 1.80816 21.9506 2.17349 23.0087 2.57185 24.0804 3.0013 25.1637 3.46379 26.2577 3.95736 27.3605 4.48301 28.473 5.03877 29.5933 5.62562 30.7194 6.24356 31.8523 6.89162 32.989 7.56884 34.1307 8.27617 35.2743 9.01362 36.4208 9.77925 37.5682 10.574 38.7147 11.397 39.8612 12.2481 41.0058 13.1284 42.1465 14.0349 43.2842 14.9696 44.4171 15.9315 45.5442 16.9818 46.7334 18.0438 47.8926 19.1154 49.0216 20.1949 50.1195 21.2821 51.1863 22.3762 52.2201 23.4751 53.2228 24.5778 54.1915 25.6845 55.1272 26.7921 56.0279 27.9007 56.8955 29.0093 57.7272 30.116 58.5229 31.2197 59.2837 32.3206 60.0076 33.4156 60.6935 34.5048 61.3426 35.5871 61.9537 36.6608 62.526 37.7256 63.0594 38.7798 63.553 39.8214 64.0067 40.8513 64.4187 41.8666 64.7908 42.8674 65.1211 43.8516 65.4087 44.8184 65.6536 45.7667 65.8557 46.4769 65.9771 46.2641 65.3261 45.4334 62.5532 44.6697 59.7511 43.975 56.9208 43.3484 54.0633 42.7926 51.1805 42.3078 48.2725 41.8948 45.3411 41.5548 42.3855 41.2885 39.4085 41.0981 36.4101 40.9825 33.3923 40.9436 30.354 40.9825 27.3158 41.0981 24.298 41.2885 21.2996 41.5548 18.3216 41.8948 15.367 42.3078 12.4347 42.3466 12.2005 41.6869 11.5991 40.5346 10.608 39.3405 9.63739 38.2251 8.77946 37.0999 7.95942 35.969 7.17728 34.8312 6.43497 33.6896 5.73152 32.546 5.06694 31.4014 4.4422 30.2579 3.85729 29.1162 3.31319 27.9794 2.80795 26.8475 2.34449 25.7234 1.92184 24.6079 1.54 23.5042 1.19994 22.4111 0.900682 21.3327 0.644177 20.2697 0.430423 19.2233 0.258448 18.1963 0.129224 17.1887 0.0427508 16.2035 0 15.2426 0.000971609 14.306 0.0456656 13.3956 0.134082 12.5143 0.267193 11.6632 0.444997 11.5097 0.486776" fill="#0A0A00" fill-rule="evenodd" transform="matrix(-1.01221 0 0 1 281.645 244.893)"/><path d="M84.9741 0.766567C57.7691 1.09044 39.6324 0.928502 30.564 0.280762 16.9615-0.690847 8.70284 0.766567 3.35899 6.11042-0.203575 9.67298-0.932281 16.0289 1.17287 25.1783 3.74359 28.8869 6.3143 32.7267 8.88502 35.5016 15.5648 39.5499 22.3053 42.3838 29.1066 44.0032 35.9079 45.6225 44.9763 47.0799 56.3117 48.3755 77.3632 44.1651 89.6703 38.1736 93.2328 30.4007 98.5766 18.7414 98.5766 18.7414 84.9741 0.766567Z" fill="#0A0A00" fill-rule="evenodd" transform="matrix(-1.01221 0 0 1 186.22 298.183)"/><path d="M22.4719 8.2104C22.4719 12.7449 17.4414 16.4208 11.236 16.4208 5.03051 16.4208 3.73368e-07 12.7449 3.73368e-07 8.2104 3.73368e-07 3.67592 5.03051 3.26252e-07 11.236 3.26252e-07 17.4414 3.26252e-07 22.4719 3.67592 22.4719 8.2104Z" fill="#FFEB00" fill-rule="evenodd" transform="matrix(-0.922368 -0.386473 -0.386508 0.922286 265.259 189.958)"/><path d="M18.3712 8.36456C18.3712 12.9842 14.2587 16.7291 9.18562 16.7291 4.11254 16.7291-2.77849e-07 12.9842-2.77849e-07 8.36456-2.77849e-07 3.74494 4.11254 7.09641e-08 9.18562 7.09641e-08 14.2587 7.09641e-08 18.3712 3.74494 18.3712 8.36456Z" fill="#2B463F" fill-rule="evenodd" transform="matrix(-0.739858 -0.672776 -0.672835 0.739792 170.715 231.979)"/><path d="M3.52187 9.05783 0.806148 8.56778 0.604483 8.50278 0.426507 8.38904 0.275216 8.23253 0.153857 8.03924 0.0654257 7.81517 0.0130852 7.56715 0 7.30117 0.0293347 7.02322 1.09847 1.1751 1.20118 0.820174 1.36402 0.513998 1.57467 0.26769 1.82106 0.0923658 2.09106 0 2.3726 0.000855239 4.39652 0.366042 4.42218 0.110326 5.43692 0.307031 7.96603 0.864646 10.4689 1.48555 12.9439 2.16888 15.3908 2.9138 17.8094 3.71858 20.1981 4.58322 22.5568 5.50688 24.8848 6.48784 27.1803 7.52524 29.4441 8.61824 31.6745 9.76597 33.8708 10.9684 36.032 12.2231 38.1581 13.5307 40.2483 14.8888 42.3009 16.2974 44.3158 17.7548 46.2931 19.2617 48.2302 20.8148 50.128 22.4149 51.9856 24.0604 53.8013 25.7512 55.575 27.4848 57.306 29.262 58.9926 31.0811 60.6355 32.9404 62.2331 34.8407 63.7853 36.7795 65.2905 38.756 66.7487 40.7709 68.1581 42.8209 69.5197 44.9069 70.8308 47.0279 72.0922 49.1814 73.3024 51.3682 74.4613 53.5867 75.5671 55.836 76.3505 57.5302 75.9237 57.5302 76.0768 57.8766 76.1444 58.0955 76.1572 58.3204 76.1196 58.5462 76.0349 58.7651 75.9058 58.9721 75.7364 59.1594 75.5286 59.3228 75.2866 59.4536 69.8567 61.8329 69.6249 61.915 69.3923 61.9595 69.1639 61.9689 68.9441 61.9432 68.7389 61.8851 68.5516 61.7953 68.3882 61.6755 68.2531 61.5267 68.1505 61.3497 66.4545 57.5302 66.1578 57.5302 65.2692 55.8137 64.1779 53.8236 63.0395 51.8625 61.8568 49.9331 60.6286 48.0345 59.3569 46.1683 58.0415 44.3356 56.6826 42.5361 55.2825 40.7718 53.8406 39.0434 52.3585 37.3508 50.8353 35.6959 49.2736 34.0787 47.6726 32.5016 46.034 30.9631 44.3577 29.4664 42.6447 28.0108 40.8957 26.5971 39.1108 25.227 37.2917 23.9014 35.4384 22.6202 33.5518 21.3852 31.6326 20.1965 29.681 19.0556 27.6977 17.9626 25.6844 16.9183 23.6404 15.9245 21.5673 14.9812 19.466 14.0901 17.3356 13.2511 15.1787 12.466 12.9944 11.7347 10.7845 11.0582 8.54948 10.4373 6.28942 9.87373 4.00534 9.36743 3.50058 9.26993 3.52187 9.05783" stroke="#575757" stroke-width="0.492617" stroke-linecap="square" stroke-linejoin="bevel" fill="#575757" fill-rule="evenodd" transform="matrix(-0.999123 0.0439319 0.0439358 0.999034 95.4626 170.519)"/><path d="M0.307886 0 0 338.572" stroke="#A2402B" stroke-width="7.03827" stroke-linecap="square" stroke-miterlimit="2" fill="#A46A6A" fill-rule="evenodd" transform="matrix(-1.00009 0 0 1 469.599 172.581)"/><path d="M0 160.716 213.057 0" stroke="#A2402B" stroke-width="7.03827" stroke-linecap="square" stroke-miterlimit="2" fill="none" transform="matrix(-1.00009 0 0 1 467.375 9.50447)"/><path d="M0 102.218 149.017 0" stroke="#FFFFFF" stroke-width="7.03827" stroke-linecap="square" stroke-miterlimit="2" fill="none" transform="matrix(-1.00009 0 0 1 426.594 124.859)"/><path d="M0 96.0604 131.775 0" stroke="#FFFFFF" stroke-width="7.03827" stroke-linecap="square" stroke-miterlimit="2" fill="none" transform="matrix(-1.00009 0 0 1 422.899 145.795)"/><path d="M0 112.926 162.668 0" stroke="#7F0000" stroke-width="7.03827" stroke-linecap="square" stroke-miterlimit="2" fill="none" transform="matrix(-0.999665 -0.0290863 -0.0290889 0.999577 443.873 139.443)"/><path d="M0 93.5973 130.544 0" stroke="#7F0000" stroke-width="7.03827" stroke-linecap="square" stroke-miterlimit="2" fill="none" transform="matrix(-1.00009 0 0 1 425.362 190.131)"/><path d="M0 35.7148 51.7248 0" stroke="#FFFFFF" stroke-width="7.03827" stroke-linecap="square" stroke-miterlimit="2" fill="none" transform="matrix(-1.00009 0 0 1 376.096 398.262)"/><path d="M32.0201 0 0 23.3993" stroke="#FFFFFF" stroke-width="7.03827" stroke-linecap="square" stroke-miterlimit="2" fill="none" transform="matrix(-1.00009 0 0 1 411.814 419.198)"/><path d="M0 155.174 44.3356 139.164 254.929 0 217.573 8.6208C221.13 8.6208 148.606 57.472 0 155.174Z" stroke="#B74100" stroke-width="7.03827" stroke-linecap="square" stroke-linejoin="bevel" fill="#B74100" fill-rule="evenodd" transform="matrix(-0.999986 -0.0142924 -0.0142936 0.999898 480.651 366.84)"/><path d="M63.4197 0C68.2979 -7.59625e-16 72.2525 1.65419 72.2525 3.69473L72.2525 3.69473C72.2525 5.73528 68.2979 7.38946 63.4197 7.38946L8.83283 7.38946C3.95459 7.38946-5.3516e-07 5.73528-5.3516e-07 3.69473L-5.3516e-07 3.69473C-5.3516e-07 1.65419 3.95459-1.16328e-07 8.83283-1.16328e-07Z" stroke="#77B3FE" stroke-width="7.03846" stroke-linecap="square" stroke-linejoin="bevel" fill="#77B3FE" fill-rule="evenodd" transform="matrix(-0.829791 -0.558135 -0.558184 0.829717 418.81 464.621)"/><path d="M63.4197 0C68.2979 -7.59625e-16 72.2525 1.65419 72.2525 3.69473L72.2525 3.69473C72.2525 5.73528 68.2979 7.38946 63.4197 7.38946L8.83283 7.38946C3.95459 7.38946-5.3516e-07 5.73528-5.3516e-07 3.69473L-5.3516e-07 3.69473C-5.3516e-07 1.65419 3.95459-1.16328e-07 8.83283-1.16328e-07Z" stroke="#82D322" stroke-width="7.03846" stroke-linecap="square" stroke-linejoin="bevel" fill="#82D322" fill-rule="evenodd" transform="matrix(-0.829791 -0.558135 -0.558184 0.829717 336.983 411.672)"/><path d="M63.418 0C68.2961 -7.59604e-16 72.2505 1.65414 72.2505 3.69463L72.2505 3.69463C72.2505 5.73512 68.2961 7.38926 63.418 7.38926L8.83258 7.38926C3.95448 7.38926-5.35145e-07 5.73512-5.35145e-07 3.69463L-5.35145e-07 3.69463C-5.35145e-07 1.65414 3.95448-1.16325e-07 8.83258-1.16325e-07Z" stroke="#7F0000" stroke-width="7.03827" stroke-linecap="square" stroke-linejoin="bevel" fill="#7F0000" fill-rule="evenodd" transform="matrix(0.999431 0.036255 0.0362582 -0.999342 257.082 262.727)"/><path d="M0 0.205257C8.75764 4.03673 14.6417 8.48396 17.6521 13.547L12.1102 24.4256 32.0201 17.2416 24.8361 0C24.8361 0 16.5574 0.0684191 0 0.205257Z" fill="#1A1A1A" fill-rule="evenodd" transform="matrix(-1.00009 0 0 1 279.001 249.655)"/><path d="M0 58.0236 86.4774 0" stroke="#7F0000" stroke-width="7.03827" stroke-linecap="square" stroke-miterlimit="2" fill="none" transform="matrix(-1.00009 0 0 1 416.599 264.434)"/><path d="M54.3539 0C58.5348 -3.79802e-16 61.9241 1.03996 61.9241 2.32281L61.9241 2.32281C61.9241 3.60566 58.5348 4.64561 54.3539 4.64561L7.57018 4.64561C3.38928 4.64561-1.61832e-06 3.60566-1.61832e-06 2.32281L-1.61832e-06 2.32281C-1.61832e-06 1.03996 3.38928-4.94329e-08 7.57018-4.94329e-08Z" fill="#421313" fill-rule="evenodd" transform="matrix(0.999431 0.036255 0.0362582 -0.999342 267.848 266.108)"/><path d="M63.4197 0C68.2979 0 72.2525 0.625077 72.2525 1.39615L72.2525 1.39615C72.2525 2.16722 68.2979 2.7923 63.4197 2.7923L8.83283 2.7923C3.95459 2.7923-5.3516e-07 2.16722-5.3516e-07 1.39615L-5.3516e-07 1.39615C-5.3516e-07 0.625077 3.95459-2.77126e-09 8.83283-2.77126e-09Z" fill="#B9D598" fill-rule="evenodd" transform="matrix(-0.829791 -0.558135 -0.558184 0.829717 338.395 409.935)"/><path d="M63.4197 0C68.2979 -1.89906e-16 72.2525 0.631631 72.2525 1.41079L72.2525 1.41079C72.2525 2.18994 68.2979 2.82157 63.4197 2.82157L8.83283 2.82157C3.95459 2.82157-5.3516e-07 2.18994-5.3516e-07 1.41079L-5.3516e-07 1.41079C-5.3516e-07 0.631631 3.95459 1.79693e-08 8.83283 1.79693e-08Z" fill="#BCC6D2" fill-rule="evenodd" transform="matrix(-0.829791 -0.558135 -0.558184 0.829717 420.222 463.192)"/><path d="M73.2098 0C75.2886 -7.59627e-16 76.9738 1.85775 76.9738 4.14941L76.9738 53.7349C76.9738 56.0265 75.2886 57.8843 73.2098 57.8843L3.764 57.8843C1.6852 57.8843 8.46775e-08 56.0265 8.46775e-08 53.7349L8.46775e-08 4.14941C8.46775e-08 1.85776 1.6852 9.28639e-07 3.764 9.28639e-07Z" stroke="#2C1139" stroke-width="7.03848" stroke-linecap="square" stroke-linejoin="bevel" fill="none" transform="matrix(0.811661 -0.584177 0.584229 0.811589 111.639 237.155)"/><path d="M48.3024 0C52.0179 0 55.0298 0.695159 55.0298 1.55268L55.0298 1.55268C55.0298 2.4102 52.0179 3.10536 48.3024 3.10536L6.72736 3.10536C3.01194 3.10536-9.69866e-07 2.4102-9.69866e-07 1.55268L-9.69866e-07 1.55268C-9.69866e-07 0.695159 3.01194-5.38851e-09 6.72736-5.38851e-09Z" stroke="#2C1139" stroke-width="7.03835" stroke-linecap="square" stroke-linejoin="bevel" fill="#82D322" fill-rule="evenodd" transform="matrix(-0.930524 0.366408 0.366441 0.930441 126.018 262.381)"/><path d="M19.3771 0C20.8676 -1.89908e-16 22.0759 0.715595 22.0759 1.59833L22.0759 1.59833C22.0759 2.48106 20.8676 3.19665 19.3771 3.19665L2.69876 3.19665C1.20828 3.19665 3.95059e-07 2.48106 3.95059e-07 1.59833L3.95059e-07 1.59833C3.95059e-07 0.715595 1.20828 3.27864e-08 2.69876 3.27864e-08Z" stroke="#2C1139" stroke-width="7.03854" stroke-linecap="square" stroke-linejoin="bevel" fill="#82D322" fill-rule="evenodd" transform="matrix(-0.657734 0.75325 0.753317 0.657676 203.202 191.978)"/><path d="M42.142 17.884C41.5112 2.41736 22.6045-0.312265 19.5637 0.026624 15.7022 0.456973-6.19683 4.45739 1.70626 31.431 3.70231 38.2436 14.2594 47.9507 23.6688 48.8778 33.582 48.0529 41.8838 30.33 42.142 17.884Z" fill="#45C6EA" fill-rule="evenodd" transform="matrix(1.00009 0 0 1 89.0045 85.1151)"/><path d="M42.142 17.884C41.5112 2.41736 22.6045-0.312265 19.5637 0.0266241 15.7022 0.456973-6.19683 4.45739 1.70626 31.431 3.70231 38.2436 14.2594 47.9507 23.6688 48.8778 33.582 48.0529 41.8838 30.33 42.142 17.884Z" fill="#ABEDFF" fill-rule="evenodd" transform="matrix(1.00009 0 0 1 89.0045 85.1151)"/><path d="M28.2806 14.2553C27.8573 1.92687 15.1694-0.248907 13.1288 0.0212221 10.5374 0.364252-4.15857 3.55299 1.14504 25.0536 2.48454 30.4839 9.56918 38.2215 15.8837 38.9605 22.5362 38.303 28.1073 24.1761 28.2806 14.2553Z" fill="#1BCEFF" fill-rule="evenodd" transform="matrix(1.00009 0 0 1 96.0929 90.4784)"/><path d="M13.0909 5.31677C12.8949 0.718661 7.02182-0.0928344 6.07721 0.00791518 4.87768 0.135855-1.92497 1.32515 0.53003 9.34416 1.15008 11.3695 4.4295 14.2554 7.35243 14.531 10.4319 14.2858 13.0107 9.01686 13.0909 5.31677Z" fill="#DBF7FF" fill-rule="evenodd" transform="matrix(1.00009 0 0 1 107.338 112.236)"/><path d="M27.5054 11.6726C27.0938 1.57777 14.7536-0.203811 12.7689 0.0173772 10.2486 0.298259-4.04458 2.90927 1.11365 20.5145 2.41644 24.961 9.3069 31.2967 15.4483 31.9018 21.9185 31.3635 27.3369 19.796 27.5054 11.6726Z" fill="#45C6EA" fill-rule="evenodd" transform="matrix(0.788782 0.614673 -0.666589 0.855253 154.41 103.642)"/><path d="M27.5054 11.6726C27.0938 1.57777 14.7536-0.203811 12.7689 0.0173772 10.2486 0.298259-4.04458 2.90927 1.11365 20.5145 2.41644 24.961 9.3069 31.2967 15.4483 31.9018 21.9185 31.3635 27.3369 19.796 27.5054 11.6726Z" fill="#ABEDFF" fill-rule="evenodd" transform="matrix(0.788782 0.614673 -0.666589 0.855253 154.41 103.642)"/><path d="M18.4583 9.30422C18.1821 1.25764 9.90088-0.162458 8.56895 0.0138514 6.8776 0.237742-2.71424 2.31898 0.747348 16.3521 1.62163 19.8964 6.24566 24.9466 10.367 25.4289 14.7091 24.9998 18.3452 15.7794 18.4583 9.30422Z" fill="#1BCEFF" fill-rule="evenodd" transform="matrix(0.788782 0.614673 -0.666589 0.855253 155.725 109.479)"/><path d="M8.54423 3.47018C8.41634 0.46906 4.58304-0.0605917 3.96651 0.00516613 3.18359 0.0886703-1.2564 0.864906 0.345942 6.0988 0.750642 7.42073 2.89107 9.30427 4.79883 9.48418 6.80872 9.32414 8.49187 5.88518 8.54423 3.47018Z" fill="#DBF7FF" fill-rule="evenodd" transform="matrix(0.788782 0.614673 -0.666589 0.855253 152.048 126.135)"/><path d="M27.505 11.6724C27.0933 1.57775 14.7534-0.203808 12.7687 0.0173769 10.2484 0.298255-4.04451 2.90923 1.11363 20.5142 2.4164 24.9606 9.30674 31.2962 15.448 31.9013 21.9182 31.3629 27.3365 19.7956 27.505 11.6724Z" fill="#45C6EA" fill-rule="evenodd" transform="matrix(0.660708 -0.750643 0.814043 0.716386 43.8603 128.129)"/><path d="M27.505 11.6724C27.0933 1.57775 14.7534-0.203808 12.7687 0.0173769 10.2484 0.298255-4.04451 2.90923 1.11363 20.5142 2.4164 24.9606 9.30674 31.2962 15.448 31.9013 21.9182 31.3629 27.3365 19.7956 27.505 11.6724Z" fill="#ABEDFF" fill-rule="evenodd" transform="matrix(0.660708 -0.750643 0.814043 0.716386 43.8603 128.129)"/><path d="M18.458 9.30406C18.1818 1.25762 9.90072-0.162455 8.56881 0.0138512 6.87749 0.237738-2.71419 2.31894 0.747336 16.3519 1.6216 19.8961 6.24556 24.9462 10.3669 25.4285 14.7088 24.9994 18.3449 15.7791 18.458 9.30406Z" fill="#1BCEFF" fill-rule="evenodd" transform="matrix(0.660708 -0.750643 0.814043 0.716386 49.7663 127.164)"/><path d="M8.54408 3.47012C8.4162 0.469052 4.58297-0.0605907 3.96644 0.00516604 3.18354 0.0886689-1.25638 0.864891 0.345936 6.0987 0.750629 7.42061 2.89102 9.30412 4.79875 9.48403 6.80861 9.32399 8.49173 5.88508 8.54408 3.47012Z" fill="#DBF7FF" fill-rule="evenodd" transform="matrix(0.660708 -0.750643 0.814043 0.716386 66.1749 131.828)"/></g></svg>