<svg width="332" height="253" xmlns="http://www.w3.org/2000/svg" xmlns:xlink="http://www.w3.org/1999/xlink" xml:space="preserve" overflow="hidden"><defs><clipPath id="clip0"><rect x="328" y="144" width="332" height="253"/></clipPath></defs><g clip-path="url(#clip0)" transform="translate(-328 -144)"><path d="M29.9991 93.3555C29.9991 144.914 23.2835 186.711 14.9995 186.711 6.71552 186.711 4.9333e-07 144.914 4.9333e-07 93.3555 4.9333e-07 41.7967 6.71552-1.1944e-06 14.9995-1.1944e-06 23.2835-1.1944e-06 29.9991 41.7967 29.9991 93.3555Z" fill="#8C8C8C" fill-rule="evenodd" transform="matrix(0.0323545 0.999476 -1.10004 0.0293967 626.922 347.452)"/><path d="M46.1132 11.3525C46.1132 3.30252 39.4464-5.81324 22.9123 4.83293 10.1785 4.83293 1.55939e-15 3.30252 0 11.3525-1.55939e-15 19.4025 10.3228 25.9283 23.0566 25.9283 35.7904 25.9283 46.1132 19.4025 46.1132 11.3525Z" fill="#FFBA02" fill-rule="evenodd" transform="matrix(0.602748 -0.797932 0.867814 0.541019 596.065 344.073)"/><path d="M62.1253 11.3435C62.1253 3.29989 53.1435-5.80861 30.8682 4.82908 13.7128 4.82908 2.10086e-15 3.29989 0 11.3435-2.10086e-15 19.387 13.9072 25.9077 31.0627 25.9077 48.2181 25.9077 62.1253 19.387 62.1253 11.3435Z" fill="#FFBA02" fill-rule="evenodd" transform="matrix(0.94889 -0.315608 0.409204 0.939025 591.324 291.089)"/><path d="M5.41917 73.3013 12.5496 54.1916 23.9584 34.5115 37.3637 21.3914 54.7621 7.98613 72.1604 0 120.648 14.8314 147.173 92.1257 133.482 142.61 103.249 167.709 85.5657 175.124 41.2617 175.695 29.6628 173.413 13.1201 148.314 3.42263 124.926 0.570438 100.397 0 81.0022C0 81.0022 1.80639 78.4352 5.41917 73.3013Z" stroke="#0295FF" stroke-width="0.45635" stroke-linecap="square" stroke-linejoin="bevel" fill="#FFFFFF" fill-rule="evenodd" transform="matrix(0.602748 -0.797932 0.878331 0.547575 376.466 285.258)"/><path d="M212.15 108.195C212.15 48.4405 164.659 3.65877e-15 106.075 0 47.4914-3.65877e-15 7.17418e-15 48.4405 0 108.195 5.62192 166.962 13.3054 183.652 79.8768 211.462 138.46 211.462 212.15 167.949 212.15 108.195Z" stroke="#000000" stroke-width="7.18391" stroke-linecap="round" stroke-linejoin="round" fill="none" transform="matrix(0.454959 -0.890512 0.968503 0.408366 374.59 303.758)"/><path d="M42.5599 9.13619 45.2929 20.6371C49.9139 18.3369 56.063 19.0134 63.7404 22.6667 71.4178 26.32 77.7947 41.8801 82.8711 69.3468L91.7537 97.7607 106.785 95.731C108.607 107.908 108.379 116.703 106.102 122.115 103.824 127.527 102.002 130.459 100.636 130.91 85.5203 164.974 64.226 182.001 36.7525 181.988 9.27885 181.976-2.79168 183.104 0.54072 185.37 12.8268 195.56 21.2557 207.805 44.6096 212.093 58.9619 218.752 67.6558 217.006 78.7716 218.858 93.5137 217.586 108.236 216.406 123.866 210.739L152.562 191.797C156.089 189.384 161.669 187.805 169.301 187.061 176.933 186.319 182.854 184.289 187.066 180.973L173.742 162.707C178.297 151.742 186.964 142.216 186.724 126.174 188.74 116.478 189.703 106.78 188.09 97.0838 184.792 80.4784 179.998 64.9825 173.059 51.0807L146.413 21.9902 114.984 5.7536C97.2196 1.69567 79.4549-0.982472 61.6906 0.341407 61.6906 0.341407 55.3137 3.27301 42.5599 9.13619Z" stroke="#000000" stroke-width="2.18637" stroke-linecap="square" stroke-linejoin="bevel" fill="#0A0A00" fill-rule="evenodd" transform="matrix(0.602748 -0.797932 0.867814 0.541019 384.635 261.614)"/><path d="M23.1316 16.5197C23.1316 25.6433 17.9534 33.0394 11.5658 33.0394 5.17819 33.0394 3.55101e-07 25.6433 3.55101e-07 16.5197 3.55101e-07 7.39612 5.17819 5.06834e-07 11.5658 5.06834e-07 17.9534 5.06834e-07 23.1316 7.39612 23.1316 16.5197Z" stroke="#000000" stroke-width="2.11186" stroke-linecap="square" stroke-linejoin="bevel" fill="#060606" fill-rule="evenodd" transform="matrix(1.06711 -0.230378 0.240517 0.971114 457.376 249.567)"/><path d="M63.1397 11.9672C51.5584-8.35778 42.2334 7.10099 31.1065 7.27173 21.6886-9.38027 2.21677e-15 6.61603 0 15.1399-2.21677e-15 23.6638 14.6745 30.5737 32.7764 30.5737 50.8783 30.5737 63.1397 20.4912 63.1397 11.9672Z" fill="#FFDA03" fill-rule="evenodd" transform="matrix(0.994367 -0.105992 0.315028 1.15697 581.128 323.533)"/><path d="M136.839 0.692147C93.029 0.984576 63.8224 0.838362 49.2191 0.253505 27.3141-0.623779 14.0147 0.692147 5.40919 5.51721-0.327829 8.73392-1.50131 14.4728 1.88874 22.7339 6.02853 26.0825 10.1683 29.5496 14.3081 32.0551 25.0649 35.7104 35.9196 38.2692 46.8721 39.7313 57.8246 41.1934 72.428 42.5093 90.6822 43.6791 124.582 39.8775 144.402 34.4676 150.138 27.4493 158.744 16.9219 158.744 16.9219 136.839 0.692147Z" fill="#0A0A00" fill-rule="evenodd" transform="matrix(0.950588 -0.550164 0.546505 0.839111 445.77 352.481)"/><path d="M16.5014 7.51322C16.5014 11.6627 12.8075 15.0264 8.25072 15.0264 3.69397 15.0264-2.4957e-07 11.6627-2.4957e-07 7.51322-2.4957e-07 3.36378 3.69397 6.37415e-08 8.25072 6.37415e-08 12.8075 6.37415e-08 16.5014 3.36378 16.5014 7.51322Z" fill="#2B463F" fill-rule="evenodd" transform="matrix(-0.149557 -0.988753 1.08838 -0.135867 466.043 267.07)"/><path d="M3.27603 8.42555 0.749875 7.96971 0.562287 7.90925 0.396735 7.80344 0.256004 7.65786 0.143117 7.47806 0.0608587 7.26963 0.0121717 7.03893 0 6.79151 0.027287 6.53296 1.02179 1.09307 1.11733 0.762922 1.2688 0.478119 1.46475 0.249004 1.69394 0.0859182 1.94509 0 2.20698 0.000795539 4.08963 0.340491 4.11349 0.102624 5.0574 0.285598 7.40997 0.80429 9.73811 1.38185 12.0404 2.01749 14.3164 2.7104 16.5662 3.459 18.7882 4.26329 20.9823 5.12247 23.1477 6.03496 25.2829 6.99995 27.3887 8.01664 29.4635 9.08426 31.5064 10.2028 33.5168 11.3698 35.4945 12.5862 37.4388 13.8495 39.3481 15.1598 41.2224 16.5154 43.0616 17.9171 44.8635 19.3618 46.6288 20.8503 48.3567 22.3809 50.0457 23.9537 51.6956 25.5662 53.3058 27.2194 54.8746 28.9115 56.4028 30.641 57.8889 32.4087 59.3328 34.2121 60.7329 36.0506 62.0893 37.9249 63.4004 39.8318 64.6669 41.7721 65.8864 43.7451 67.0599 45.7483 68.1855 47.7824 69.2635 49.8461 70.2921 51.9383 71.0209 53.5143 70.6239 53.5143 70.7663 53.8365 70.8291 54.0402 70.8411 54.2494 70.8061 54.4594 70.7273 54.6631 70.6072 54.8556 70.4497 55.0298 70.2563 55.1818 70.0312 55.3035 64.9803 57.5167 64.7647 57.593 64.5483 57.6344 64.3359 57.6432 64.1315 57.6193 63.9406 57.5652 63.7663 57.4817 63.6144 57.3703 63.4887 57.2319 63.3932 57.0672 61.8157 53.5143 61.5396 53.5143 60.7131 51.9177 59.6979 50.0664 58.6391 48.2423 57.5389 46.4475 56.3965 44.6814 55.2135 42.9456 53.99 41.2407 52.7258 39.5669 51.4235 37.9257 50.0823 36.3179 48.7036 34.7436 47.2867 33.2042 45.8341 31.6998 44.3448 30.2329 42.8206 28.8017 41.2613 27.4095 39.6679 26.0555 38.041 24.7405 36.3807 23.466 34.6886 22.2329 32.9647 21.0412 31.2097 19.8924 29.4245 18.7866 27.6091 17.7254 25.7642 16.7087 23.8915 15.7373 21.9902 14.8129 20.0618 13.9355 18.1072 13.1065 16.1255 12.3261 14.1191 11.5958 12.0873 10.9156 10.0317 10.2863 7.95268 9.70876 5.85039 9.18449 3.72575 8.71354 3.25622 8.62284 3.27603 8.42555" stroke="#575757" stroke-width="0.45823" stroke-linecap="square" stroke-linejoin="bevel" fill="#575757" fill-rule="evenodd" transform="matrix(0.638124 -0.769934 0.847512 0.579713 458.05 180.273)"/><path d="M81.1286 74.5727 0 12.7019 63.1 0 137.673 59.8221C139.312 59.8221 120.464 64.7389 81.1286 74.5727Z" stroke="#7D7DFF" stroke-width="4.0974" stroke-linecap="square" stroke-linejoin="bevel" fill="#7D7DFF" fill-rule="evenodd" transform="matrix(1 0 0 1.00149 332.564 318.635)"/><path d="M0 9.01428 44.2519 43.4325 50.8078 49.1688 76.2117 41.7935 22.9454 0C22.9454 0 15.297 3.00476 0 9.01428Z" stroke="#441521" stroke-width="2.0487" stroke-linecap="square" stroke-linejoin="bevel" fill="none" transform="matrix(1 0 0 1.00149 371.899 333.407)"/><path d="M0 0 81.1286 60.283" stroke="#441521" stroke-width="3.07305" stroke-linecap="square" stroke-miterlimit="2" fill="none" transform="matrix(1 0 0 1.00149 331.949 332.33)"/><path d="M0 14.3409C19.2236 9.5606 37.4229 4.7803 56.6466 0" stroke="#441521" stroke-width="2.0487" stroke-linecap="square" stroke-miterlimit="2" fill="none" transform="matrix(1 0 0 1.00149 414.717 378.751)"/><path d="M52.2419 40.3594 0 0" stroke="#441521" stroke-width="2.0487" stroke-linecap="square" stroke-miterlimit="2" fill="none" transform="matrix(1 0 0 1.00149 389.313 335.254)"/><path d="M52.2419 40.3594 0 0" stroke="#441521" stroke-width="2.0487" stroke-linecap="square" stroke-miterlimit="2" fill="none" transform="matrix(1 0 0 1.00149 384.171 337.531)"/><path d="M52.2419 40.3594 0 0" stroke="#441521" stroke-width="2.0487" stroke-linecap="square" stroke-miterlimit="2" fill="none" transform="matrix(1 0 0 1.00149 377.799 339.604)"/><path d="M0 7.58019 22.3308 0" stroke="#441521" stroke-width="2.0487" stroke-linecap="square" stroke-miterlimit="2" fill="none" transform="matrix(1 0 0 1.00149 417.79 370.134)"/><path d="M0 7.58019 22.3308 0" stroke="#441521" stroke-width="2.0487" stroke-linecap="square" stroke-miterlimit="2" fill="none" transform="matrix(1 0 0 1.00149 412.397 365.29)"/><path d="M0 7.58019 21.6701 0" stroke="#441521" stroke-width="2.0487" stroke-linecap="square" stroke-miterlimit="2" fill="none" transform="matrix(1 0 0 1.00149 406.466 360.104)"/><path d="M0 7.58019 22.3308 0" stroke="#441521" stroke-width="2.0487" stroke-linecap="square" stroke-miterlimit="2" fill="none" transform="matrix(1 0 0 1.00149 401.61 356.688)"/><path d="M33.8142 11.0152C33.8142 17.0988 26.2446 22.0305 16.9071 22.0305 7.56956 22.0305-3.40947e-07 17.0988-3.40947e-07 11.0152-3.40947e-07 4.93169 7.56956-3.36074e-07 16.9071-3.36074e-07 26.2446-3.36074e-07 33.8142 4.93169 33.8142 11.0152Z" stroke="#441521" stroke-width="2.04935" stroke-linecap="square" stroke-linejoin="bevel" fill="#7D7DFF" fill-rule="evenodd" transform="matrix(0.887704 0.460415 -0.459732 0.889023 362.877 306.238)"/><path d="M26.4046 6.16853C26.4046 9.57531 20.4938 12.3371 13.2023 12.3371 5.91088 12.3371-2.58306e-07 9.57531-2.58306e-07 6.16853-2.58306e-07 2.76174 5.91088 1.0359e-07 13.2023 1.0359e-07 20.4938 1.0359e-07 26.4046 2.76174 26.4046 6.16853Z" stroke="#441521" stroke-width="2.04935" stroke-linecap="square" stroke-linejoin="bevel" fill="#7D7DFF" fill-rule="evenodd" transform="matrix(0.887704 0.460415 -0.459732 0.889023 376.209 318.075)"/><path d="M14.8543 0.3313 14.8367 0.330639 13.722 0.314107 12.6386 0.328654 11.5877 0.374944 10.5708 0.452975 9.58899 0.562746 8.64474 0.705583 7.73812 0.880822 6.87165 1.08978 6.04654 1.33181 5.26408 1.60823 4.5255 1.91836 3.88223 2.2371 3.29037 2.57964 2.74866 2.94533 2.25586 3.33482 1.81321 3.74613 1.42073 4.17927 1.07589 4.63356 0.779956 5.10836 0.531674 5.603 0.331043 6.11615 0.178061 6.64782 0.0727291 7.198 0.0125395 7.76471 0 8.34797 0.0326027 8.94638 0.110347 9.56072 0.234489 10.1897 0.402518 10.8318 0.615689 11.487 0.872745 12.1556 1.17244 12.8354 1.51603 13.5264 1.90349 14.228 2.3336 14.9396 2.80509 15.6597 3.31921 16.3891 3.87345 17.1264 4.47033 17.871 5.10733 18.6215 5.78572 19.3788 6.50299 20.1412 7.26037 20.9076 8.05788 21.6786 8.89422 22.4524 9.76825 23.2293 10.6811 24.0077 11.6329 24.7879 12.621 25.569 13.6468 26.3492 14.7088 27.1296 15.8073 27.9086 16.9434 28.6849 18.1133 29.4592 19.3196 30.2303 20.561 30.9974 21.9165 31.8067 23.2871 32.5957 24.6702 33.3641 26.0634 34.1113 27.4665 34.8374 28.8785 35.541 30.2967 36.2235 31.7199 36.8827 33.1482 37.5196 34.5776 38.1326 36.0084 38.7231 37.4391 39.2892 38.8674 39.8307 40.2919 40.3485 41.7126 40.8412 43.1258 41.308 44.5315 41.7497 45.9284 42.1657 47.314 42.5552 48.6883 42.9182 50.0489 43.2541 51.3931 43.5629 52.7223 43.8434 54.0327 44.0966 55.3242 44.3214 56.5945 44.5172 57.8422 44.6838 59.066 44.8214 59.9827 44.904 59.708 44.461 58.6359 42.5737 57.6503 40.6665 56.7538 38.7402 55.945 36.7954 55.2277 34.8334 54.602 32.8542 54.0691 30.8591 53.6302 28.8476 53.2866 26.8214 53.0408 24.7807 52.8916 22.7268 52.8414 20.6589 52.8916 18.5912 53.0408 16.5372 53.2866 14.4965 53.6302 12.4697 54.0691 10.4588 54.602 8.46303 54.6522 8.30366 53.8007 7.89432 52.3135 7.21982 50.7724 6.5592 49.3329 5.9753 47.8808 5.41719 46.4212 4.88485 44.9529 4.37964 43.4794 3.90087 42.0036 3.44856 40.5264 3.02336 39.0505 2.62527 37.5771 2.25495 36.11 1.91109 34.6491 1.59566 33.1983 1.308 31.7588 1.04812 30.3343 0.816677 28.9236 0.613004 27.5317 0.438427 26.1599 0.292945 24.8094 0.175899 23.484 0.0879497 22.1837 0.0290962 20.9121 0 19.672 0.000661277 18.4631 0.03108 17.2882 0.0912564 16.1509 0.181851 15.0524 0.302865 14.8543 0.3313" fill="#0A0A00" fill-rule="evenodd" transform="matrix(0.98792 -0.657475 0.512699 0.860003 379.195 336.678)"/><path d="M53.4545 19.2062C53.4545 29.8135 41.4883 38.4124 26.7273 38.4124 11.9662 38.4124 4.74573e-07 29.8135 4.74573e-07 19.2062 4.74573e-07 8.59891 11.9662-5.00368e-08 26.7273-5.00369e-08 41.4883-5.00369e-08 53.4545 8.59891 53.4545 19.2062Z" fill="#FFDA03" fill-rule="evenodd" transform="matrix(1.10518 0.0380613 -0.0537183 0.998743 393.895 290.031)"/><path d="M20.2337 7.39262C20.2337 11.4755 15.7042 14.7852 10.1168 14.7852 4.52946 14.7852 3.36179e-07 11.4755 3.36179e-07 7.39262 3.36179e-07 3.30979 4.52946 2.93756e-07 10.1168 2.93756e-07 15.7042 2.93756e-07 20.2337 3.30979 20.2337 7.39262Z" fill="#FFEB00" fill-rule="evenodd" transform="matrix(0.222701 -0.974887 1.07312 0.202316 394.904 316.488)"/><path d="M82.7675 129.478 89.3234 54.9052 2.45844 0 0 68.8363C0 68.8363 27.5892 89.0502 82.7675 129.478Z" stroke="#441521" stroke-width="1.02435" stroke-linecap="square" stroke-linejoin="bevel" fill="#7D7DFF" fill-rule="evenodd" transform="matrix(1 0 0 1.00149 331.745 262.007)"/><path d="M33.8142 11.0152C33.8142 17.0988 26.2446 22.0305 16.9071 22.0305 7.56956 22.0305-3.40947e-07 17.0988-3.40947e-07 11.0152-3.40947e-07 4.93169 7.56956-3.36074e-07 16.9071-3.36074e-07 26.2446-3.36074e-07 33.8142 4.93169 33.8142 11.0152Z" stroke="#441521" stroke-width="2.04935" stroke-linecap="square" stroke-linejoin="bevel" fill="#7D7DFF" fill-rule="evenodd" transform="matrix(0.887704 0.460415 -0.459732 0.889023 367.321 310.184)"/><path d="M33.8142 11.0152C33.8142 17.0988 26.2446 22.0305 16.9071 22.0305 7.56956 22.0305-3.40947e-07 17.0988-3.40947e-07 11.0152-3.40947e-07 4.93169 7.56956-3.36074e-07 16.9071-3.36074e-07 26.2446-3.36074e-07 33.8142 4.93169 33.8142 11.0152Z" stroke="#441521" stroke-width="2.04935" stroke-linecap="square" stroke-linejoin="bevel" fill="#7D7DFF" fill-rule="evenodd" transform="matrix(0.887704 0.460415 -0.459732 0.889023 371.765 314.13)"/></g></svg>