<?xml version="1.0" standalone="no"?>
<!DOCTYPE svg PUBLIC "-//W3C//DTD SVG 20010904//EN" "http://www.w3.org/TR/2001/REC-SVG-20010904/DTD/svg10.dtd">
<!-- Created using Krita: https://krita.org -->
<svg xmlns="http://www.w3.org/2000/svg" 
    xmlns:xlink="http://www.w3.org/1999/xlink"
    xmlns:krita="http://krita.org/namespaces/svg/krita"
    xmlns:sodipodi="http://sodipodi.sourceforge.net/DTD/sodipodi-0.dtd"
    width="595.2pt"
    height="841.92pt"
    viewBox="0 0 595.2 841.92">
<defs/>
<ellipse id="shape0" transform="matrix(0.0288876930731444 0.891058654987394 -0.982169966228386 0.0262079169802869 492.43228128664 423.949040495743)" rx="19.6803086483755" ry="122.488198893784" cx="19.6803086483755" cy="122.488198893784" fill="#8c8c8c" fill-rule="evenodd" stroke-opacity="0" stroke="#000000" stroke-width="0" stroke-linecap="square" stroke-linejoin="bevel"/><path id="shape41" transform="matrix(0.643250795526066 -0.850287282790604 0.926128561507418 0.576517182864866 456.284492235784 419.99570653161)" fill="#ffba02" fill-rule="evenodd" stroke-opacity="0" stroke="#000000" stroke-width="0" stroke-linecap="square" stroke-linejoin="bevel" d="M50.619 12.4618C50.619 3.62521 43.3007 -6.38126 25.1511 5.30516C11.173 5.30516 1.71176e-15 3.62521 0 12.4618C-1.71176e-15 21.2983 11.3315 28.4618 25.3095 28.4618C39.2875 28.4618 50.619 21.2983 50.619 12.4618Z" sodipodi:nodetypes="ccccc"/><path id="shape411" transform="matrix(1.0118457473787 -0.336047961951859 0.436353296104966 0.999840975133837 450.729956529835 358.018941738698)" fill="#ffba02" fill-rule="evenodd" stroke-opacity="0" stroke="#000000" stroke-width="0" stroke-linecap="square" stroke-linejoin="bevel" d="M68.25 12.4618C68.25 3.62521 58.3827 -6.38126 33.9114 5.30516C15.0647 5.30516 2.30798e-15 3.62521 0 12.4618C-2.30798e-15 21.2983 15.2783 28.4618 34.125 28.4618C52.9717 28.4618 68.25 21.2983 68.25 12.4618Z" sodipodi:nodetypes="ccccc"/><path id="shape1" transform="matrix(0.559428209104907 -0.739485586562245 0.815204899096653 0.507466945107354 199.029655730885 351.198336529126)" fill="#ffffff" fill-rule="evenodd" stroke="#0295ff" stroke-width="0.576" stroke-linecap="square" stroke-linejoin="bevel" d="M6.84001 92.52L15.84 68.4L30.24 43.56L47.16 27L69.12 10.08L91.08 0L152.28 18.72L185.76 116.28L168.48 180L130.32 211.68L108 221.04L52.08 221.76L37.44 218.88L16.56 187.2L4.32 157.68L0.72 126.72L0 102.24C0 102.24 2.28 99 6.84001 92.52Z" sodipodi:nodetypes="cccccccccccccccccc"/><path id="shape01" transform="matrix(0.478603639640369 -0.935403236318979 1.01883631004326 0.428951382508707 196.831711491238 372.838180639806)" fill="none" stroke="#000000" stroke-width="7.99999999999936" stroke-linecap="round" stroke-linejoin="round" d="M236.25 120.486C236.25 53.9433 183.364 4.07441e-15 118.125 0C52.8864 -4.07441e-15 7.98916e-15 53.9433 0 120.486C6.26057 185.929 14.8169 204.515 88.9508 235.484C154.189 235.484 236.25 187.028 236.25 120.486Z" sodipodi:nodetypes="ccccc"/><path id="shape11" transform="matrix(0.643250795526066 -0.850287282790604 0.926128561507421 0.576517182864866 208.599534163061 323.540274320464)" fill="#0a0a00" fill-rule="evenodd" stroke="#000000" stroke-width="2.39999999999981" stroke-linecap="square" stroke-linejoin="bevel" d="M46.7185 10.0289L49.7185 22.6536C54.791 20.1286 61.541 20.8712 69.9685 24.8815C78.3961 28.8918 85.3961 45.9722 90.9685 76.1228L100.719 107.313L117.219 105.085C119.219 118.452 118.969 128.106 116.469 134.047C113.969 139.988 111.969 143.206 110.469 143.701C93.8766 181.094 70.5016 199.784 40.3436 199.77C10.1855 199.757 -3.06446 200.995 0.593554 203.483C14.0801 214.668 23.3326 228.11 48.9685 232.817C64.7231 240.126 74.2665 238.21 86.4685 240.243C102.651 238.847 118.812 237.551 135.969 231.331L167.469 210.538C171.341 207.889 177.466 206.156 185.844 205.339C194.221 204.524 200.721 202.296 205.344 198.656L190.719 178.605C195.719 166.569 205.232 156.112 204.969 138.503C207.182 127.859 208.239 117.214 206.469 106.57C202.848 88.342 197.586 71.332 189.969 56.0718L160.719 24.1389L126.219 6.31579C106.719 1.86136 87.2185 -1.07847 67.7185 0.374766C67.7185 0.374766 60.7185 3.59282 46.7185 10.0289Z" sodipodi:nodetypes="cczccczczccccczccccccccc"/><ellipse id="shape2" transform="matrix(1.10000714840112 -0.237128053761862 0.247931385368946 0.999565311289274 293.813760115177 309.448728809112)" rx="13.1438594597301" ry="18.7736543617569" cx="13.1438594597301" cy="18.7736543617569" fill="#060606" fill-rule="evenodd" stroke="#000000" stroke-width="2.39999999999981" stroke-linecap="square" stroke-linejoin="bevel"/><path id="shape42" transform="matrix(0.98432035444309 -0.104765493854151 0.311845167138033 1.14358080331155 438.785891461633 395.969001083937)" fill="#ffda03" fill-rule="evenodd" stroke-opacity="0" stroke="#000000" stroke-width="0" stroke-linecap="square" stroke-linejoin="bevel" d="M74.7215 14.1624C61.0158 -9.89085 49.9803 8.40353 36.8124 8.60559C25.6669 -11.1009 2.62339e-15 7.82961 0 17.917C-2.62339e-15 28.0045 17.3662 36.1819 38.7886 36.1819C60.2109 36.1819 74.7215 24.2499 74.7215 14.1624Z" sodipodi:nodetypes="ccccc"/><path id="shape6" transform="matrix(0.976934296583063 -0.564573970404232 0.561651577382256 0.861088219040909 280.217933929806 429.830911360421)" fill="#0a0a00" fill-rule="evenodd" stroke-opacity="0" stroke="#000000" stroke-width="0" stroke-linecap="square" stroke-linejoin="bevel" d="M155.98 0.788966C106.042 1.1223 72.75 0.955633 56.1039 0.288966C31.1348 -0.711034 15.9751 0.788966 6.16583 6.28897C-0.373686 9.95563 -1.71131 16.4973 2.15294 25.914C6.87181 29.731 11.5907 33.683 16.3095 36.539C28.571 40.7056 40.9441 43.6223 53.4286 45.289C65.9132 46.9556 82.5593 48.4556 103.367 49.789C142.009 45.4556 164.601 39.289 171.14 31.289C180.949 19.289 180.949 19.289 155.98 0.788966Z" sodipodi:nodetypes="czzcczccc"/><ellipse id="shape8" transform="matrix(-0.134594468633324 -0.888512843513581 0.979491336187728 -0.122092424094657 303.967048043137 329.923137489298)" rx="10.7399876982186" ry="9.77998725223253" cx="10.7399876982186" cy="9.77998725223253" fill="#2b463f" fill-rule="evenodd" stroke-opacity="0" stroke="#000000" stroke-width="0" stroke-linecap="square" stroke-linejoin="bevel"/><path id="shape9" transform="matrix(0.594701577571697 -0.716477660091323 0.78984111205181 0.539463989252256 294.603214727822 228.393437572651)" fill="#575757" fill-rule="evenodd" stroke="#575757" stroke-width="0.576" stroke-linecap="square" stroke-linejoin="bevel" d="M4.118 10.591L0.9426 10.018L0.7068 9.942L0.4987 9.809L0.3218 9.626L0.1799 9.4L0.0765 9.138L0.0153 8.848L0 8.537L0.0343 8.212L1.2844 1.374L1.4045 0.959L1.5949 0.601L1.8412 0.313L2.1293 0.108L2.445 0L2.7742 0.001L5.1407 0.428L5.1707 0.129L6.3572 0.359L9.3144 1.011L12.2409 1.737L15.1349 2.536L17.9959 3.407L20.8239 4.348L23.6169 5.359L26.3749 6.439L29.0969 7.586L31.7809 8.799L34.4279 10.077L37.0359 11.419L39.6039 12.825L42.1309 14.292L44.6169 15.821L47.0609 17.409L49.4609 19.056L51.8169 20.76L54.1289 22.522L56.3939 24.338L58.6129 26.209L60.7849 28.133L62.9079 30.11L64.9819 32.137L67.0059 34.215L68.9779 36.342L70.8989 38.516L72.7669 40.738L74.5819 43.005L76.3419 45.316L78.0469 47.672L79.6949 50.069L81.2869 52.508L82.8199 54.988L84.2949 57.506L85.7099 60.063L87.0649 62.657L88.3579 65.287L89.2739 67.268L88.7749 67.268L88.9539 67.673L89.0329 67.929L89.0479 68.192L89.0039 68.456L88.9049 68.712L88.7539 68.954L88.5559 69.173L88.3129 69.364L88.0299 69.517L81.6809 72.299L81.4099 72.395L81.1379 72.447L80.8709 72.458L80.6139 72.428L80.3739 72.36L80.1549 72.255L79.9639 72.115L79.8059 71.941L79.6859 71.734L77.7029 67.268L77.3559 67.268L76.3169 65.261L75.0409 62.934L73.7099 60.641L72.3269 58.385L70.8909 56.165L69.4039 53.983L67.8659 51.84L66.2769 49.736L64.6399 47.673L62.9539 45.652L61.2209 43.673L59.4399 41.738L57.6139 39.847L55.7419 38.003L53.8259 36.204L51.8659 34.454L49.8629 32.752L47.8179 31.099L45.7309 29.497L43.6039 27.947L41.4369 26.449L39.2309 25.005L36.9869 23.615L34.7049 22.281L32.3859 21.003L30.0319 19.782L27.6419 18.62L25.2179 17.517L22.7609 16.475L20.2699 15.494L17.7479 14.576L15.1939 13.721L12.6099 12.93L9.9966 12.204L7.354 11.545L4.6833 10.953L4.0931 10.839L4.118 10.591" sodipodi:nodetypes="cccccccccccccccccccccccccccccccccccccccccccccccccccccccccccccccccccccccccccccccccccccccccccccccccccccccccccccccccccccc"/><path id="shape3" transform="translate(147.599996465383, 390.24000103488)" fill="#7d7dff" fill-rule="evenodd" stroke="#7d7dff" stroke-width="4.8" stroke-linecap="square" stroke-linejoin="bevel" d="M95.04 87.36L0 14.88L73.92 0L161.28 70.08C163.2 70.08 141.12 75.84 95.04 87.36Z" sodipodi:nodetypes="ccccc"/><path id="shape4" transform="translate(193.679994913061, 407.520000452759)" fill="none" stroke="#441521" stroke-width="2.4" stroke-linecap="square" stroke-linejoin="bevel" d="M0 10.56L51.84 50.88L59.52 57.6L89.28 48.96L26.88 0C26.88 0 17.92 3.52 0 10.56Z" sodipodi:nodetypes="cccccc"/><path id="shape5" transform="translate(146.879996489639, 406.260000495207)" fill="none" stroke="#441521" stroke-width="3.6" stroke-linecap="square" stroke-linejoin="miter" stroke-miterlimit="2" d="M0 0L95.04 70.62" sodipodi:nodetypes="cc"/><path id="shape7" transform="translate(243.839999574766, 460.560015867878)" fill="none" stroke="#441521" stroke-width="2.4" stroke-linecap="square" stroke-linejoin="miter" stroke-miterlimit="2" d="M0 16.8C22.52 11.2 43.84 5.6 66.36 0" sodipodi:nodetypes="cc"/><path id="shape10" transform="translate(214.079999726154, 409.680016065562)" fill="none" stroke="#441521" stroke-width="2.4" stroke-linecap="square" stroke-linejoin="miter" stroke-miterlimit="2" d="M61.2 47.28L0 0" sodipodi:nodetypes="cc"/><path id="shape02" transform="translate(208.05599977744, 412.344016077684)" fill="none" stroke="#441521" stroke-width="2.4" stroke-linecap="square" stroke-linejoin="miter" stroke-miterlimit="2" d="M61.2 47.28L0 0" sodipodi:nodetypes="cc"/><path id="shape03" transform="translate(200.591999834319, 414.768016090738)" fill="none" stroke="#441521" stroke-width="2.4" stroke-linecap="square" stroke-linejoin="miter" stroke-miterlimit="2" d="M61.2 47.28L0 0" sodipodi:nodetypes="cc"/><path id="shape12" transform="translate(247.439999596544, 450.480015907045)" fill="none" stroke="#441521" stroke-width="2.4" stroke-linecap="square" stroke-linejoin="miter" stroke-miterlimit="2" d="M0 8.88L26.16 0" sodipodi:nodetypes="cc"/><path id="shape04" transform="translate(241.122000230807, 444.814016072754)" fill="none" stroke="#441521" stroke-width="2.4" stroke-linecap="square" stroke-linejoin="miter" stroke-miterlimit="2" d="M0 8.88L26.16 0" sodipodi:nodetypes="cc"/><path id="shape05" transform="translate(234.174000840697, 438.748016592037)" fill="none" stroke="#441521" stroke-width="2.4" stroke-linecap="square" stroke-linejoin="miter" stroke-miterlimit="2" d="M0 8.88L25.386 0" sodipodi:nodetypes="cc"/><path id="shape06" transform="translate(228.486000877062, 434.752016615115)" fill="none" stroke="#441521" stroke-width="2.4" stroke-linecap="square" stroke-linejoin="miter" stroke-miterlimit="2" d="M0 8.88L26.16 0" sodipodi:nodetypes="cc"/><ellipse id="shape13" transform="matrix(0.887982905683205 0.459876460817923 -0.459876460817923 0.887982905683205 183.110345667031 375.739483035585)" rx="19.7999996363451" ry="12.9000009657834" cx="19.7999996363451" cy="12.9000009657834" fill="#7d7dff" fill-rule="evenodd" stroke="#441521" stroke-width="2.4" stroke-linecap="square" stroke-linejoin="bevel"/><ellipse id="shape07" transform="matrix(0.887982905683205 0.459876460817923 -0.459876460817923 0.887982905683205 198.728705975062 389.585483003359)" rx="15.4613135501846" ry="7.22399937895977" cx="15.4613135501846" cy="7.22399937895977" fill="#7d7dff" fill-rule="evenodd" stroke="#441521" stroke-width="2.4" stroke-linecap="square" stroke-linejoin="bevel"/><path id="shape51" transform="matrix(0.976759954915068 -0.64908341161417 0.506907719154897 0.849026496935662 202.226398678918 411.346050500956)" fill="#0a0a00" fill-rule="evenodd" stroke-opacity="0" stroke="#000000" stroke-width="0" stroke-linecap="square" stroke-linejoin="bevel" d="M17.6002 0.392544L17.5794 0.39176L16.2586 0.372172L14.9749 0.389409L13.7298 0.444256L12.5249 0.536711L11.3616 0.666775L10.2428 0.836016L9.16858 1.04365L8.14193 1.29124L7.1643 1.57801L6.23719 1.90552L5.36208 2.27299L4.59989 2.65065L3.89862 3.05651L3.25677 3.4898L2.67287 3.95129L2.1484 4.43864L1.68336 4.95185L1.27478 5.49012L0.924138 6.05269L0.629959 6.63876L0.392239 7.24678L0.210977 7.87673L0.0861737 8.52861L0.0148575 9.20009L0 9.89116L0.0386296 10.6002L0.130746 11.3281L0.277836 12.0733L0.476927 12.8341L0.729505 13.6105L1.03408 14.4027L1.38918 15.2081L1.79628 16.0269L2.25537 16.8582L2.76499 17.7013L3.32363 18.5545L3.93279 19.4188L4.58949 20.2924L5.29671 21.1746L6.05147 22.0639L6.85526 22.9611L7.70512 23.8645L8.60251 24.7726L9.54745 25.6861L10.5384 26.6029L11.574 27.5235L12.6556 28.4457L13.7833 29.3702L14.9541 30.2956L16.1695 31.2201L17.4279 32.1447L18.7294 33.0677L20.0755 33.9875L21.4617 34.905L22.891 35.8186L24.3619 36.7275L25.968 37.6865L27.5919 38.6213L29.2307 39.5317L30.8814 40.4171L32.5439 41.2774L34.2169 42.1111L35.8973 42.9197L37.5836 43.7008L39.2759 44.4554L40.9696 45.1817L42.6649 45.8814L44.3601 46.5521L46.0524 47.1938L47.7402 47.8073L49.4236 48.391L51.098 48.9441L52.7635 49.4675L54.4187 49.9604L56.0604 50.4219L57.6888 50.852L59.3009 51.25L60.8936 51.6159L62.4685 51.9482L64.0211 52.2482L65.5514 52.5146L67.0565 52.7466L68.5348 52.944L69.9849 53.107L71.071 53.2049L70.7456 52.68L69.4753 50.4438L68.3075 48.1841L67.2452 45.9017L66.2869 43.5974L65.437 41.2727L64.6956 38.9276L64.0642 36.5637L63.5442 34.1803L63.1371 31.7796L62.8459 29.3616L62.6691 26.928L62.6096 24.4779L62.6691 22.0279L62.8459 19.5943L63.1371 17.1763L63.5442 14.7748L64.0642 12.3922L64.6956 10.0275L64.7551 9.83866L63.7462 9.35366L61.9841 8.55447L60.1581 7.77173L58.4525 7.07989L56.732 6.4186L55.0026 5.78786L53.2628 5.18925L51.517 4.62198L49.7683 4.08606L48.0181 3.58225L46.2693 3.11057L44.5236 2.6718L42.7852 2.26437L41.0543 1.89063L39.3353 1.5498L37.6297 1.24188L35.9419 0.967647L34.2704 0.726323L32.6212 0.519474L30.9958 0.347099L29.3956 0.208416L27.8252 0.104208L26.2845 0.0344749L24.7779 0L23.3085 0.00078352L21.8762 0.0368254L20.4841 0.108126L19.1365 0.215468L17.835 0.358852L17.6002 0.392544" sodipodi:nodetypes="ccccccccccccccccccccccccccccccccccccccccccccccccccccccccccccccccccccccccccccccccccccccccccccccccccccccccccccccccccccccccccccccccccccccccc"/><ellipse id="shape31" transform="matrix(1.13194171196619 0.0389251533814839 -0.0550191995881953 1.02141199638259 219.447097797465 356.780923100826)" rx="30.5699762638356" ry="21.9675751304731" cx="30.5699762638356" cy="21.9675751304731" fill="#ffda03" fill-rule="evenodd" stroke-opacity="0" stroke="#000000" stroke-width="0" stroke-linecap="square" stroke-linejoin="bevel"/><ellipse id="shape71" transform="matrix(0.20090061583327 -0.878151443396303 0.968069156213191 0.182240707776522 220.629641494661 387.728797886541)" rx="13.1376367018069" ry="9.59999999999999" cx="13.1376367018069" cy="9.59999999999999" fill="#ffeb00" fill-rule="evenodd" stroke-opacity="0" stroke="#000000" stroke-width="0" stroke-linecap="square" stroke-linejoin="bevel"/><g id="group0" transform="translate(146.639996497723, 324.000003266344)" fill="none">
  <path id="shape14" fill="#7d7dff" fill-rule="evenodd" stroke="#441521" stroke-width="1.2" stroke-linecap="square" stroke-linejoin="bevel" d="M96.96 151.68L104.64 64.32L2.88 0L0 80.64C0 80.64 32.32 104.32 96.96 151.68Z" sodipodi:nodetypes="ccccc"/>
  <ellipse id="shape08" transform="matrix(0.887982905683205 0.459876460817923 -0.459876460817923 0.887982905683205 41.676469271985 56.3548130918326)" rx="19.7999996363451" ry="12.9000009657834" cx="19.7999996363451" cy="12.9000009657834" fill="#7d7dff" fill-rule="evenodd" stroke="#441521" stroke-width="2.4" stroke-linecap="square" stroke-linejoin="bevel"/>
  <ellipse id="shape09" transform="matrix(0.887982905683205 0.459876460817923 -0.459876460817923 0.887982905683205 46.882589374662 60.9701464144235)" rx="19.7999996363451" ry="12.9000009657834" cx="19.7999996363451" cy="12.9000009657834" fill="#7d7dff" fill-rule="evenodd" stroke="#441521" stroke-width="2.4" stroke-linecap="square" stroke-linejoin="bevel"/>
 </g>
</svg>
