<?xml version="1.0" encoding="UTF-8"?>
<svg id="Penguin_2" data-name="Penguin 2" xmlns="http://www.w3.org/2000/svg" viewBox="0 0 380 380">
  <defs>
    <style>
      .cls-1 {
        fill: #161616;
      }

      .cls-1, .cls-2, .cls-3, .cls-4, .cls-5, .cls-6, .cls-7, .cls-8, .cls-9 {
        stroke: #000;
        stroke-miterlimit: 10;
      }

      .cls-2 {
        fill: #fff;
      }

      .cls-3 {
        fill: #4d59a4;
      }

      .cls-3, .cls-6, .cls-8, .cls-9 {
        stroke-width: .5px;
      }

      .cls-4 {
        fill: #090a0a;
      }

      .cls-5 {
        fill: #e2e2e1;
      }

      .cls-6 {
        fill: #9698a3;
      }

      .cls-7 {
        fill: #f7a810;
      }

      .cls-8 {
        fill: #6272b5;
      }

      .cls-10 {
        fill: #c4c4c4;
        opacity: .79;
        stroke-width: 0px;
      }

      .cls-9 {
        fill: #434e89;
      }
    </style>
  </defs>
  <path class="cls-10" d="M342.59,378.54l-34.83-50.84c6.19-4.81,9.59-10.05,9.59-15.53,0-23.53-62.67-42.61-139.97-42.61s-139.97,19.08-139.97,42.61,62.67,42.61,139.97,42.61c1.97,0,3.92-.02,5.87-.04l14.56,20.93,144.78,2.87Z"/>
  <g>
    <g id="Body">
      <ellipse class="cls-4" cx="224.94" cy="206.38" rx="34.49" ry="98.18" transform="translate(-80.22 198.04) rotate(-40.97)"/>
      <path class="cls-1" d="M49.26,258.3c-2.27-38.24,6.71-73.52,23.06-99.64,6.36-10.16,13.83-18.92,22.19-25.95-10.49-12.67-17.2-28.65-18.25-46.32C73.63,42.19,107.34,4.23,151.54,1.61c44.2-2.63,82.16,31.08,84.78,75.28,1.6,26.97-10.34,51.61-29.93,67.32,1.82,1.98,3.6,4.04,5.32,6.18,19.33,24,24.49,58.78,26.76,97.02,2.27,38.24,6.45,23.94-9.9,50.06-16.35,26.12-45.3,7.8-72.52,9.42-27.22,1.62-67.82,52.91-87.15,28.91-19.33-24-17.38-39.24-19.65-77.49Z"/>
      <path class="cls-5" d="M113.29,249.5c1.57,26.37.3,22.44,12.47,39.06,12.17,16.62,37.76,17.76,54.76,16.75,17-1.01,31.75,23.41,41.86,5.47,10.11-17.94,15.58-42.23,14.02-68.6-1.57-26.37-9.87-49.83-22.04-66.45-12.17-16.62-28.19-26.39-45.19-25.38-17,1.01-31.75,12.61-41.86,30.55-10.11,17.94-15.58,42.23-14.02,68.6Z"/>
      <path class="cls-2" d="M132.89,73.53c-.67-11.29,7.94-20.99,19.24-21.67s20.99,7.94,21.67,19.24c.67,11.29-10.39,3.96-21.68,4.63-11.29.67-18.55,9.1-19.22-2.2Z"/>
    </g>
    <path class="cls-4" d="M202.85,149.22c-3.18-2.68-8.97-1.38-14.84-.8l.13-5.24c.11-4.52-3.46-8.28-7.98-8.39s-8.28,3.46-8.39,7.98l-.08,3.36c-5.9-1.53-12.15-3.06-18.66-4.16-9.39-1.59-19.32-2.3-29.51-.89s-18.21,2.11-25.02,3.45c-6.81,1.34-12.41,3.31-17.74,7.26-5.33,3.95-10.8,10.82-14.82,17.52-4.02,6.7-6.59,13.22-6.14,16.47.45,3.25,3,6.59,7.21,9.68,4.21,3.1,10.08,5.95,17.16,8.22,7.09,2.27,15.39,3.96,24.47,4.73,9.08.77,18.94.62,29.13-.8,10.19-1.41,19.75-3.95,28.33-7.16,8.58-3.21,16.18-7.1,22.45-11.22,6.27-4.12,11.1-7.39,14.25-10.45,3.15-3.06,4.62-5.9,4.17-9.14-.45-3.25.7-16.36-4.1-20.4Z"/>
    <path class="cls-9" d="M231.62,54.52l-.51-3.9c-.41-3.14-3.29-5.35-6.42-4.94l-31.1,4.07-1.03-7.9c-.25-1.95-1.26-3.69-2.82-4.89-1.56-1.2-3.49-1.72-5.45-1.46l-69.24,9.07c-1.95.26-3.69,1.26-4.89,2.82-1.2,1.56-1.72,3.49-1.46,5.45l.09.7-27.79,7.83c-3.7.48-7.71,3.76-7.16,7.98l.02,1.5c0,.24.02.48.05.72,1.87,13.89,1.03,11.24,4.97,5.51.86-1.25,2.18-2.14,3.67-2.45l28.26-5.87c1.46,8.04,5.79,15.15,12.31,20.16,5.81,4.46,12.77,6.82,19.97,6.82,1.44,0,2.89-.09,4.34-.28l18.62-2.44c14.9-1.95,26.17-13.65,28.26-27.84l32.34-4.24c3.14-.41,5.35-3.29,4.94-6.42ZM177.29,72.94c-3.56,4.64-8.72,7.61-14.52,8.37l-15.14,1.98c-11.96,1.57-22.98-6.9-24.55-18.86l-1.13-8.6,58.56-7.67,1.13,8.6c.76,5.8-.78,11.55-4.35,16.18Z"/>
    <g>
      <path class="cls-7" d="M218.49,101.43l17.63-6.06c5.42-1.86,8.3-7.76,6.43-13.18l-.52-1.5c-1.86-5.42-6.99-6.09-13.68-5.77l-26.32,2.24c-5.42,1.86-8.3,7.76-6.43,13.18l.52,1.5c1.86,5.42,8.64,15.1,22.37,9.59Z"/>
      <rect class="cls-7" x="186.69" y="46.64" width="83.77" height="37.91" rx="18.95" ry="18.95" transform="translate(466.05 53.28) rotate(161.02)"/>
    </g>
    <g>
      <polygon class="cls-3" points="341.98 221.99 198.56 221.99 157.29 301.64 302.07 297.85 341.98 221.99"/>
      <polygon class="cls-8" points="341.98 221.99 198.56 221.99 191.11 204.48 341.98 204.48 341.98 221.99"/>
      <polygon class="cls-9" points="157.29 301.64 138.34 301.64 191.11 204.48 198.56 221.99 157.29 301.64"/>
      <path class="cls-3" d="M295.45,329.07l-140.43,2.58c-9.16.17-16.68-6.84-16.68-15.55v-1.37c0-8.44,7.08-15.34,15.96-15.54l140.47-3.28c9.32-.22,16.95,7,16.76,15.85l-.04,2.07c-.17,8.35-7.26,15.08-16.04,15.24Z"/>
      <rect class="cls-9" x="65.95" y="299.94" width="89.07" height="31.71" rx="10.31" ry="10.31"/>
      <ellipse class="cls-9" cx="148.66" cy="314.29" rx="16.98" ry="18.38"/>
      <ellipse class="cls-6" cx="148.66" cy="314.29" rx="4.07" ry="4.4"/>
      <rect class="cls-9" x="276.43" y="312.62" width="18.18" height="6.36" rx="2.18" ry="2.18"/>
      <path class="cls-9" d="M263.25,269.99c-1.25-.85-2.44-1.47-3.51-1.85,1.33-2.03,2.11-4.46,2.11-7.07,0-7.12-5.77-12.9-12.9-12.9-5.36,0-9.96,3.27-11.9,7.93h-3.8c-1.68,0-3.05,1.36-3.05,3.05h0c0,1.68,1.37,3.05,3.05,3.05h2.43v.21c0,.54.25,1.01.65,1.32.53,2.52,1.79,4.76,3.55,6.5-1.47.69-3.09,2.57-4.58,5.22h33.75c-1.86-2.31-3.89-4.15-5.81-5.46Z"/>
    </g>
    <path class="cls-7" d="M60.55,308.81c1.05,5.96,3.03,11.47,5.71,16.33,2.69,4.86,6.08,9.06,9.94,12.41,3.87,3.35,8.21,5.85,12.8,7.3s9.43,1.85,14.28,1c4.85-.85,9.27-2.87,13.09-5.79,3.82-2.92,7.06-6.75,9.55-11.22,2.5-4.47,4.25-9.57,5.13-15.05.87-5.48.86-11.33-.19-17.3-1.05-5.96-3.03-11.47-5.71-16.33s-9.53,8.19-13.4,4.84c-3.87-3.35-2.51-9.91-7.1-11.36s-7.59,8.22-12.45,9.07c-4.85.85-11.1-7.2-14.93-4.28s-1.32,9.94-3.82,14.41c-2.5,4.47-12.23-6.81-13.11-1.33-.87,5.48-.86,11.33.19,17.3Z"/>
  </g>
</svg>