<?xml version="1.0" standalone="no"?>
<!DOCTYPE svg PUBLIC "-//W3C//DTD SVG 20010904//EN" "http://www.w3.org/TR/2001/REC-SVG-20010904/DTD/svg10.dtd">
<!-- Created using Krita: https://krita.org -->
<svg xmlns="http://www.w3.org/2000/svg" 
    xmlns:xlink="http://www.w3.org/1999/xlink"
    xmlns:krita="http://krita.org/namespaces/svg/krita"
    xmlns:sodipodi="http://sodipodi.sourceforge.net/DTD/sodipodi-0.dtd"
    width="595.2pt"
    height="841.92pt"
    viewBox="0 0 595.2 841.92">
<defs/>
<path id="shape0" transform="matrix(0.569937228460405 -0.385617912542184 0.397139750597176 0.639694761167808 -27.0023977252037 48.0155750952693)" fill="#ff8d00" fill-rule="evenodd" stroke="none" stroke-width="0.576" stroke-linecap="square" stroke-linejoin="bevel" d="M211.65 230.472L211.642 229.846L211.621 229.224L211.586 228.606L211.538 227.993L211.475 227.384L211.4 226.779L211.311 226.18L211.209 225.586L211.094 224.997L210.967 224.414L210.827 223.836L210.674 223.265L210.51 222.699L210.334 222.14L210.145 221.587L209.945 221.042L209.734 220.503L209.511 219.971L209.278 219.446L209.033 218.929L208.778 218.42L208.512 217.919L208.235 217.425L207.948 216.94L207.651 216.464L207.345 215.996L207.028 215.537L206.702 215.087L206.367 214.647L206.022 214.216L205.669 213.794L205.306 213.383L204.935 212.981L204.555 212.59L204.167 212.209L203.771 211.839L203.366 211.48L202.954 211.132L202.535 210.795L202.107 210.469L201.673 210.155L201.231 209.853L200.782 209.563L200.327 209.285L199.865 209.02L199.396 208.767L198.922 208.527L198.441 208.301L197.954 208.087L197.461 207.887L196.963 207.7L196.46 207.527L195.951 207.368L195.437 207.224L194.919 207.093L194.395 206.978L193.867 206.877L193.335 206.791L192.798 206.72L192.258 206.665L191.714 206.625L191.166 206.601L190.614 206.593L190.063 206.601L189.514 206.625L188.97 206.665L188.43 206.72L187.893 206.791L187.361 206.877L186.833 206.978L186.309 207.093L185.791 207.224L185.277 207.368L184.768 207.527L184.265 207.7L183.767 207.887L183.274 208.087L182.787 208.301L182.306 208.527L181.832 208.767L181.363 209.02L180.901 209.285L180.446 209.563L179.997 209.853L179.555 210.155L179.121 210.469L178.694 210.795L178.64 210.838L178.64 166.432L142.614 166.432L142.645 166.269L142.749 165.642L142.838 165.009L142.91 164.371L142.967 163.728L143.008 163.081L143.033 162.429L143.041 161.774L143.033 161.118L143.008 160.466L142.967 159.819L142.91 159.177L142.838 158.539L142.749 157.906L142.645 157.278L142.526 156.656L142.392 156.039L142.243 155.428L142.079 154.823L141.901 154.225L141.709 153.633L141.503 153.047L141.283 152.468L141.049 151.896L140.802 151.332L140.542 150.775L140.268 150.226L139.982 149.684L139.683 149.151L139.372 148.626L139.049 148.109L138.714 147.601L138.367 147.102L138.008 146.612L137.638 146.131L137.257 145.66L136.865 145.199L136.462 144.747L136.048 144.306L135.624 143.875L135.19 143.454L134.746 143.045L134.293 142.646L133.829 142.258L133.357 141.882L132.875 141.517L132.384 141.164L131.884 140.823L131.376 140.495L130.86 140.178L130.335 139.875L129.803 139.584L129.262 139.306L128.715 139.041L128.16 138.79L127.597 138.552L127.028 138.328L126.452 138.119L125.87 137.923L125.281 137.742L124.686 137.576L124.086 137.424L123.479 137.288L122.867 137.167L122.25 137.061L121.627 136.971L121 136.897L120.368 136.839L119.732 136.797L119.091 136.772L118.446 136.764L117.801 136.772L117.16 136.797L116.524 136.839L115.892 136.897L115.265 136.971L114.642 137.061L114.025 137.167L113.413 137.288L112.807 137.424L112.206 137.576L111.611 137.742L111.022 137.923L110.44 138.119L109.864 138.328L109.295 138.552L108.733 138.79L108.177 139.041L107.63 139.306L107.089 139.584L106.557 139.875L106.032 140.178L105.516 140.495L105.008 140.823L104.508 141.164L104.017 141.517L103.536 141.882L103.063 142.258L102.6 142.646L102.146 143.045L101.702 143.454L101.268 143.875L100.844 144.306L100.43 144.747L100.027 145.199L99.6352 145.66L99.254 146.131L98.884 146.612L98.5254 147.102L98.1783 147.601L97.8431 148.109L97.5198 148.626L97.2087 149.151L96.91 149.684L96.6239 150.226L96.3506 150.775L96.0903 151.332L95.8432 151.896L95.6095 152.468L95.3895 153.047L95.1832 153.633L94.9909 154.225L94.8129 154.823L94.6493 155.428L94.5003 156.039L94.3661 156.656L94.247 157.278L94.1431 157.906L94.0546 158.539L93.9817 159.177L93.9247 159.819L93.8837 160.466L93.859 161.118L93.8507 161.774L93.859 162.429L93.8837 163.081L93.9247 163.728L93.9817 164.371L94.0546 165.009L94.1431 165.642L94.247 166.269L94.2782 166.432L58.8994 166.432L58.8994 203.057L58.898 203.057L58.363 202.809L57.8212 202.575L57.2729 202.356L56.7182 202.151L56.1573 201.96L55.5904 201.785L55.0178 201.624L54.4395 201.479L53.8559 201.349L53.267 201.235L52.6731 201.136L52.0743 201.054L51.4709 200.988L50.8631 200.939L50.251 200.906L49.6348 200.89L49.0185 200.891L48.4059 200.91L47.7973 200.945L47.1928 200.997L46.5926 201.065L45.997 201.149L45.4061 201.25L44.8201 201.366L44.2393 201.498L43.6637 201.645L43.0937 201.807L42.5294 201.984L41.9709 202.176L41.4186 202.383L40.8726 202.604L40.333 202.839L39.8001 203.088L39.2741 203.351L38.7552 203.627L38.2435 203.916L37.7394 204.219L37.2428 204.534L36.7541 204.863L36.2735 205.203L35.8011 205.556L35.3372 205.921L34.8819 206.298L34.4354 206.686L33.998 207.086L33.5698 207.497L33.151 207.92L32.7418 208.353L32.3424 208.796L31.953 209.25L31.5739 209.715L31.2051 210.189L30.8469 210.673L30.4995 211.166L30.1631 211.669L29.8379 212.181L29.524 212.703L29.2217 213.232L28.9312 213.771L28.6527 214.318L28.3862 214.872L28.1322 215.435L27.8907 216.006L27.6619 216.584L27.4461 217.169L27.2434 217.762L27.054 218.361L26.8782 218.967L26.7161 219.579L26.5679 220.198L26.4338 220.823L26.314 221.454L26.2087 222.09L26.1181 222.732L26.0424 223.379L25.9818 224.031L25.9365 224.688L25.9066 225.349L25.8924 226.015L25.8941 226.681L25.9115 227.343L25.9445 228.001L25.9929 228.654L26.0564 229.303L26.135 229.946L26.2283 230.585L26.3362 231.218L26.4586 231.846L26.5951 232.468L26.7457 233.085L26.9101 233.695L27.0882 234.298L27.2797 234.895L27.4845 235.485L27.7024 236.069L27.9332 236.645L28.1766 237.213L28.4325 237.774L28.7008 238.328L28.9811 238.873L29.2734 239.409L29.5774 239.938L29.893 240.457L30.2199 240.968L30.5579 241.47L30.9069 241.962L31.2667 242.445L31.6371 242.918L32.0179 243.381L32.4088 243.834L32.8098 244.276L33.2206 244.708L33.641 245.129L34.0708 245.54L34.5099 245.938L34.958 246.326L35.415 246.702L35.8807 247.066L36.3548 247.417L36.8372 247.757L37.3277 248.084L37.8261 248.398L38.3322 248.7L38.8459 248.988L39.3668 249.263L39.8949 249.524L40.4299 249.772L40.9717 250.006L41.52 250.225L42.0747 250.43L42.6356 250.621L43.2025 250.796L43.7751 250.957L44.3534 251.102L44.9371 251.232L45.5259 251.346L46.1199 251.445L46.7186 251.527L47.322 251.593L47.9298 251.643L48.5419 251.675L49.1581 251.691L49.7744 251.69L50.387 251.671L50.9956 251.636L51.6001 251.584L52.2003 251.516L52.7959 251.432L53.3868 251.331L53.9728 251.215L54.5536 251.083L55.1292 250.936L55.6992 250.774L56.2636 250.597L56.822 250.405L57.3743 250.198L57.9204 249.977L58.4599 249.742L58.8994 249.537L58.8994 280.764L98.5105 280.764L98.4172 280.396L98.2898 279.84L98.175 279.277L98.0731 278.71L97.9842 278.138L97.9086 277.561L97.8462 276.98L97.7975 276.394L97.7624 275.805L97.7413 275.211L97.7342 274.613L97.7413 274.015L97.7624 273.422L97.7975 272.832L97.8462 272.246L97.9086 271.665L97.9842 271.088L98.0731 270.516L98.175 269.949L98.2898 269.387L98.4172 268.83L98.5571 268.279L98.7094 267.733L98.8738 267.193L99.0502 266.66L99.2385 266.132L99.4383 265.611L99.6496 265.097L99.8723 264.589L100.106 264.088L100.351 263.595L100.606 263.109L100.872 262.63L101.149 262.159L101.435 261.696L101.732 261.241L102.039 260.795L102.355 260.357L102.681 259.927L103.017 259.507L103.362 259.095L103.715 258.693L104.078 258.3L104.449 257.917L104.829 257.543L105.217 257.18L105.613 256.827L106.017 256.484L106.429 256.151L106.849 255.83L107.276 255.519L107.711 255.219L108.153 254.931L108.601 254.654L109.057 254.389L109.519 254.136L109.987 253.895L110.462 253.666L110.943 253.449L111.43 253.245L111.922 253.054L112.42 252.876L112.924 252.711L113.433 252.559L113.946 252.421L114.465 252.297L114.989 252.186L115.516 252.09L116.049 252.008L116.585 251.941L117.126 251.888L117.67 251.85L118.218 251.827L118.77 251.819L119.321 251.827L119.869 251.85L120.414 251.888L120.954 251.941L121.491 252.008L122.023 252.09L122.551 252.186L123.074 252.297L123.593 252.421L124.107 252.559L124.616 252.711L125.119 252.876L125.617 253.054L126.11 253.245L126.596 253.449L127.077 253.666L127.552 253.895L128.021 254.136L128.483 254.389L128.938 254.654L129.387 254.931L129.828 255.219L130.263 255.519L130.69 255.83L131.11 256.151L131.522 256.484L131.926 256.827L132.323 257.18L132.711 257.543L133.09 257.917L133.462 258.3L133.824 258.693L134.178 259.095L134.523 259.507L134.858 259.927L135.184 260.357L135.5 260.795L135.807 261.241L136.104 261.696L136.391 262.159L136.667 262.63L136.933 263.109L137.189 263.595L137.433 264.088L137.667 264.589L137.89 265.097L138.101 265.611L138.301 266.132L138.489 266.66L138.666 267.193L138.83 267.733L138.982 268.279L139.122 268.83L139.25 269.387L139.364 269.949L139.466 270.516L139.555 271.088L139.631 271.665L139.693 272.246L139.742 272.832L139.777 273.422L139.798 274.015L139.805 274.613L139.798 275.211L139.777 275.805L139.742 276.394L139.693 276.98L139.631 277.561L139.555 278.138L139.466 278.71L139.364 279.277L139.25 279.84L139.122 280.396L139.029 280.764L178.64 280.764L178.64 250.107L178.694 250.15L179.121 250.476L179.555 250.789L179.997 251.092L180.446 251.382L180.901 251.659L181.363 251.925L181.832 252.177L182.306 252.417L182.787 252.644L183.274 252.858L183.767 253.058L184.265 253.245L184.768 253.418L185.277 253.576L185.791 253.721L186.309 253.851L186.833 253.967L187.361 254.068L187.893 254.154L188.43 254.225L188.97 254.28L189.514 254.32L190.063 254.344L190.614 254.352L191.166 254.344L191.714 254.32L192.258 254.28L192.798 254.225L193.335 254.154L193.867 254.068L194.395 253.967L194.919 253.851L195.437 253.721L195.951 253.576L196.46 253.418L196.963 253.245L197.461 253.058L197.954 252.858L198.441 252.644L198.922 252.417L199.396 252.177L199.865 251.925L200.327 251.659L200.782 251.382L201.231 251.092L201.673 250.789L202.107 250.476L202.535 250.15L202.954 249.813L203.366 249.465L203.771 249.106L204.167 248.736L204.555 248.355L204.935 247.964L205.306 247.562L205.669 247.151L206.022 246.729L206.367 246.298L206.702 245.858L207.028 245.408L207.345 244.949L207.651 244.481L207.948 244.004L208.235 243.519L208.512 243.026L208.778 242.525L209.033 242.015L209.278 241.498L209.511 240.974L209.734 240.442L209.945 239.903L210.145 239.357L210.334 238.805L210.51 238.246L210.674 237.68L210.827 237.108L210.967 236.531L211.094 235.948L211.209 235.359L211.311 234.765L211.4 234.165L211.475 233.561L211.538 232.952L211.586 232.339L211.621 231.721L211.642 231.098L211.65 230.472" sodipodi:nodetypes="ccccccccccccccccccccccccccccccccccccccccccccccccccccccccccccccccccccccccccccccccccccccccccccccccccccccccccccccccccccccccccccccccccccccccccccccccccccccccccccccccccccccccccccccccccccccccccccccccccccccccccccccccccccccccccccccccccccccccccccccccccccccccccccccccccccccccccccccccccccccccccccccccccccccccccccccccccccccccccccccccccccccccccccccccccccccccccccccccccccccccccccccccccccccccccccccccccccccccccccccccccccccccccccccccccccccccccccccccccccccccccccccccccccccccccccccccccccccccccccccccccccccccccccccccccccccccccccccccccccccccccccccccccccccccccccccccccccccccccccccccccccccccccccccccccccccccccccccccccccccccccccccccccccccccccccccccccccccccccc"/><path id="shape01" transform="matrix(0.39674856871929 0.639959219850854 -0.570209609800386 0.385178866069799 232.569240002891 -3.6885841779874)" fill="#0295ff" fill-rule="evenodd" stroke-opacity="0" stroke="#000000" stroke-width="0" stroke-linecap="square" stroke-linejoin="bevel" d="M192.264 93.708L192.256 93.082L192.234 92.46L192.198 91.842L192.148 91.229L192.083 90.62L192.005 90.015L191.913 89.416L191.807 88.822L191.688 88.233L191.557 87.65L191.412 87.072L191.254 86.501L191.084 85.935L190.902 85.376L190.706 84.823L190.499 84.278L190.281 83.739L190.05 83.207L189.809 82.682L189.555 82.165L189.291 81.656L189.016 81.155L188.729 80.661L188.432 80.176L188.125 79.7L187.808 79.232L187.48 78.773L187.143 78.323L186.796 77.883L186.439 77.452L186.073 77.03L185.698 76.619L185.314 76.217L184.92 75.826L184.519 75.445L184.109 75.075L183.69 74.716L183.263 74.368L182.83 74.031L182.387 73.705L181.937 73.391L181.48 73.089L181.015 72.799L180.544 72.521L180.066 72.256L179.581 72.003L179.09 71.763L178.592 71.537L178.088 71.323L177.578 71.123L177.062 70.936L176.542 70.763L176.015 70.604L175.483 70.46L174.947 70.329L174.404 70.214L173.858 70.113L173.307 70.027L172.752 69.956L172.193 69.901L171.63 69.861L171.062 69.837L170.491 69.829L169.921 69.837L169.353 69.861L168.789 69.901L168.231 69.956L167.675 70.027L167.124 70.113L166.578 70.214L166.035 70.329L165.499 70.46L164.967 70.604L164.44 70.763L163.92 70.936L163.404 71.123L162.894 71.323L162.39 71.537L161.892 71.763L161.401 72.003L160.916 72.256L160.438 72.521L159.967 72.799L159.502 73.089L159.045 73.391L158.596 73.705L158.154 74.031L158.098 74.074L158.098 29.668L120.81 29.668L120.842 29.505L120.95 28.878L121.042 28.245L121.116 27.607L121.175 26.964L121.218 26.317L121.244 25.665L121.252 25.01L121.244 24.354L121.218 23.702L121.175 23.055L121.116 22.413L121.042 21.775L120.95 21.142L120.842 20.514L120.719 19.892L120.58 19.275L120.426 18.664L120.256 18.059L120.072 17.461L119.873 16.869L119.66 16.283L119.432 15.704L119.19 15.132L118.934 14.568L118.665 14.011L118.382 13.462L118.086 12.92L117.776 12.387L117.454 11.862L117.12 11.345L116.773 10.837L116.414 10.338L116.042 9.848L115.66 9.367L115.265 8.896L114.859 8.435L114.442 7.983L114.014 7.542L113.575 7.111L113.126 6.69L112.666 6.281L112.197 5.882L111.717 5.494L111.229 5.118L110.73 4.753L110.222 4.4L109.704 4.059L109.178 3.731L108.644 3.414L108.101 3.111L107.55 2.82L106.99 2.542L106.424 2.277L105.85 2.026L105.267 1.788L104.678 1.564L104.082 1.355L103.479 1.159L102.87 0.978L102.254 0.812L101.633 0.66L101.005 0.524L100.371 0.403L99.7326 0.297L99.0877 0.207L98.4388 0.133L97.7847 0.075L97.1264 0.033L96.4629 0.008L95.7953 0L95.1277 0.008L94.4643 0.033L93.806 0.075L93.1519 0.133L92.5029 0.207L91.8581 0.297L91.2195 0.403L90.586 0.524L89.9588 0.66L89.3368 0.812L88.7209 0.978L88.1113 1.159L87.5089 1.355L86.9127 1.564L86.3238 1.788L85.7421 2.026L85.1667 2.277L84.6005 2.542L84.0405 2.82L83.4899 3.111L82.9465 3.414L82.4125 3.731L81.8867 4.059L81.3691 4.4L80.8609 4.753L80.3631 5.118L79.8735 5.494L79.3943 5.882L78.9244 6.281L78.4649 6.69L78.0157 7.111L77.5768 7.542L77.1483 7.983L76.7312 8.435L76.3257 8.896L75.9311 9.367L75.5482 9.848L75.177 10.338L74.8177 10.837L74.4708 11.345L74.1362 11.862L73.8142 12.387L73.505 12.92L73.2089 13.462L72.926 14.011L72.6566 14.568L72.4009 15.132L72.159 15.704L71.9313 16.283L71.7177 16.869L71.5187 17.461L71.3345 18.059L71.1651 18.664L71.0109 19.275L70.872 19.892L70.7488 20.514L70.6412 21.142L70.5496 21.775L70.4742 22.413L70.4152 23.055L70.3727 23.702L70.3472 24.354L70.3386 25.01L70.3472 25.665L70.3727 26.317L70.4152 26.964L70.4742 27.607L70.5496 28.245L70.6412 28.878L70.7488 29.505L70.781 29.668L34.1631 29.668L34.1631 66.293L34.1616 66.293L33.6079 66.045L33.0471 65.811L32.4796 65.592L31.9055 65.387L31.3249 65.196L30.7382 65.021L30.1455 64.86L29.547 64.715L28.9429 64.585L28.3334 64.471L27.7187 64.372L27.0989 64.29L26.4744 64.224L25.8453 64.175L25.2118 64.142L24.574 64.126L23.9361 64.127L23.302 64.146L22.6721 64.181L22.0465 64.233L21.4252 64.301L20.8088 64.385L20.1972 64.486L19.5907 64.602L18.9895 64.734L18.3937 64.881L17.8038 65.043L17.2197 65.22L16.6417 65.412L16.07 65.619L15.5049 65.84L14.9464 66.075L14.3948 66.324L13.8504 66.587L13.3133 66.863L12.7837 67.152L12.2619 67.455L11.748 67.77L11.2421 68.099L10.7447 68.439L10.2558 68.792L9.77561 69.157L9.30436 69.534L8.84222 69.922L8.3895 70.322L7.9463 70.733L7.51284 71.156L7.0893 71.589L6.67591 72.032L6.27288 72.486L5.8805 72.951L5.49878 73.425L5.12803 73.909L4.76847 74.402L4.42028 74.905L4.08369 75.417L3.7588 75.939L3.44591 76.468L3.14524 77.007L2.85698 77.554L2.58115 78.108L2.31825 78.671L2.06829 79.242L1.83148 79.82L1.60812 80.405L1.39832 80.998L1.20229 81.597L1.02033 82.203L0.85255 82.815L0.69916 83.434L0.560363 84.059L0.436367 84.69L0.327379 85.326L0.233605 85.968L0.155254 86.615L0.0925313 87.267L0.0456446 87.924L0.0146974 88.585L0 89.251L0.00175954 89.917L0.019769 90.579L0.0539248 91.237L0.10402 91.89L0.169744 92.539L0.251097 93.182L0.347665 93.821L0.459344 94.454L0.586031 95.082L0.727312 95.704L0.883187 96.321L1.05335 96.931L1.23768 97.534L1.43589 98.131L1.64786 98.721L1.8734 99.305L2.11228 99.881L2.36421 100.449L2.62907 101.01L2.90677 101.564L3.19688 102.109L3.49942 102.645L3.81407 103.174L4.14072 103.693L4.47907 104.204L4.82891 104.706L5.19014 105.198L5.56254 105.681L5.94591 106.154L6.34005 106.617L6.74464 107.07L7.15969 107.512L7.58487 107.944L8.02 108.365L8.46485 108.776L8.91933 109.174L9.38313 109.562L9.85613 109.938L10.3381 110.302L10.8289 110.653L11.3281 110.993L11.8358 111.32L12.3517 111.634L12.8755 111.936L13.4072 112.224L13.9463 112.499L14.4929 112.76L15.0467 113.008L15.6075 113.242L16.175 113.461L16.7491 113.666L17.3296 113.857L17.9164 114.032L18.509 114.193L19.1076 114.338L19.7117 114.468L20.3212 114.582L20.936 114.681L21.5556 114.763L22.1802 114.829L22.8093 114.879L23.4428 114.911L24.0806 114.927L24.7185 114.926L25.3525 114.907L25.9825 114.872L26.6081 114.82L27.2293 114.752L27.8458 114.668L28.4574 114.567L29.0639 114.451L29.6651 114.319L30.2608 114.172L30.8508 114.01L31.435 113.833L32.0129 113.641L32.5846 113.434L33.1498 113.213L33.7082 112.978L34.1631 112.773L34.1631 144L75.1616 144L75.065 143.632L74.9332 143.076L74.8143 142.513L74.7089 141.946L74.6168 141.374L74.5386 140.797L74.474 140.216L74.4236 139.63L74.3873 139.041L74.3654 138.447L74.3581 137.849L74.3654 137.251L74.3873 136.658L74.4236 136.068L74.474 135.482L74.5386 134.901L74.6168 134.324L74.7089 133.752L74.8143 133.185L74.9332 132.623L75.065 132.066L75.2098 131.515L75.3674 130.969L75.5376 130.429L75.7202 129.896L75.9151 129.368L76.1219 128.847L76.3406 128.333L76.5711 127.825L76.813 127.324L77.0665 126.831L77.3305 126.345L77.6058 125.866L77.8925 125.395L78.1885 124.932L78.4959 124.477L78.8137 124.031L79.1407 123.593L79.4782 123.163L79.8259 122.743L80.183 122.331L80.5484 121.929L80.9241 121.536L81.3081 121.153L81.7014 120.779L82.103 120.416L82.5128 120.063L82.931 119.72L83.3574 119.387L83.7921 119.066L84.2341 118.755L84.6843 118.455L85.1418 118.167L85.6055 117.89L86.0775 117.625L86.5557 117.372L87.0401 117.131L87.5317 116.902L88.0295 116.685L88.5336 116.481L89.0428 116.29L89.5583 116.112L90.0799 115.947L90.6067 115.795L91.1377 115.657L91.6749 115.533L92.2172 115.422L92.7627 115.326L93.3144 115.244L93.8691 115.177L94.4291 115.124L94.9922 115.086L95.5593 115.063L96.1307 115.055L96.701 115.063L97.2682 115.086L97.8323 115.124L98.3912 115.177L98.947 115.244L99.4976 115.326L100.044 115.422L100.585 115.533L101.123 115.657L101.655 115.795L102.181 115.947L102.702 116.112L103.217 116.29L103.728 116.481L104.231 116.685L104.729 116.902L105.22 117.131L105.706 117.372L106.184 117.625L106.655 117.89L107.12 118.167L107.576 118.455L108.026 118.755L108.468 119.066L108.903 119.387L109.329 119.72L109.747 120.063L110.158 120.416L110.56 120.779L110.952 121.153L111.337 121.536L111.712 121.929L112.078 122.331L112.435 122.743L112.782 123.163L113.12 123.593L113.447 124.031L113.764 124.477L114.072 124.932L114.369 125.395L114.655 125.866L114.93 126.345L115.195 126.831L115.447 127.324L115.69 127.825L115.92 128.333L116.139 128.847L116.346 129.368L116.54 129.896L116.724 130.429L116.893 130.969L117.051 131.515L117.196 132.066L117.328 132.623L117.446 133.185L117.552 133.752L117.644 134.324L117.722 134.901L117.787 135.482L117.837 136.068L117.873 136.658L117.895 137.251L117.902 137.849L117.895 138.447L117.873 139.041L117.837 139.63L117.787 140.216L117.722 140.797L117.644 141.374L117.552 141.946L117.446 142.513L117.328 143.076L117.196 143.632L117.099 144L158.098 144L158.098 113.343L158.154 113.386L158.596 113.712L159.045 114.025L159.502 114.328L159.967 114.618L160.438 114.895L160.916 115.161L161.401 115.413L161.892 115.653L162.39 115.88L162.894 116.094L163.404 116.294L163.92 116.481L164.44 116.654L164.967 116.812L165.499 116.957L166.035 117.087L166.578 117.203L167.124 117.304L167.675 117.39L168.231 117.461L168.789 117.516L169.353 117.556L169.921 117.58L170.491 117.588L171.062 117.58L171.63 117.556L172.193 117.516L172.752 117.461L173.307 117.39L173.858 117.304L174.404 117.203L174.947 117.087L175.483 116.957L176.015 116.812L176.542 116.654L177.062 116.481L177.578 116.294L178.088 116.094L178.592 115.88L179.09 115.653L179.581 115.413L180.066 115.161L180.544 114.895L181.015 114.618L181.48 114.328L181.937 114.025L182.387 113.712L182.83 113.386L183.263 113.049L183.69 112.701L184.109 112.342L184.519 111.972L184.92 111.591L185.314 111.2L185.698 110.798L186.073 110.387L186.439 109.965L186.796 109.534L187.143 109.094L187.48 108.644L187.808 108.185L188.125 107.717L188.432 107.24L188.729 106.755L189.016 106.262L189.291 105.761L189.555 105.251L189.809 104.734L190.05 104.21L190.281 103.678L190.499 103.139L190.706 102.593L190.902 102.041L191.084 101.482L191.254 100.916L191.412 100.344L191.557 99.767L191.688 99.184L191.807 98.595L191.913 98.001L192.005 97.401L192.083 96.797L192.148 96.188L192.198 95.575L192.234 94.957L192.256 94.334L192.264 93.708" sodipodi:nodetypes="ccccccccccccccccccccccccccccccccccccccccccccccccccccccccccccccccccccccccccccccccccccccccccccccccccccccccccccccccccccccccccccccccccccccccccccccccccccccccccccccccccccccccccccccccccccccccccccccccccccccccccccccccccccccccccccccccccccccccccccccccccccccccccccccccccccccccccccccccccccccccccccccccccccccccccccccccccccccccccccccccccccccccccccccccccccccccccccccccccccccccccccccccccccccccccccccccccccccccccccccccccccccccccccccccccccccccccccccccccccccccccccccccccccccccccccccccccccccccccccccccccccccccccccccccccccccccccccccccccccccccccccccccccccccccccccccccccccccccccccccccccccccccccccccccccccccccccccccccccccccccccccccccccccccccccccccccccccccccccc"/><path id="shape1" transform="translate(42.1893152222676, -107.519995804288)" fill="#ffbd02" fill-rule="evenodd" stroke="none" stroke-width="0.576" stroke-linecap="square" stroke-linejoin="bevel" d="M98.7365 201.665L106.854 213.236L106.99 213.451L107.1 213.677L107.188 213.912L107.251 214.156L107.292 214.406L107.31 214.662L107.306 214.922L107.281 215.186L107.233 215.453L107.165 215.72L107.076 215.988L106.967 216.254L106.838 216.519L106.689 216.78L106.521 217.036L106.334 217.286L106.129 217.53L105.906 217.766L105.665 217.992L105.407 218.209L105.133 218.413L104.86 218.594L104.582 218.756L104.301 218.901L104.017 219.028L103.732 219.136L103.446 219.227L103.161 219.3L102.878 219.355L102.598 219.393L102.321 219.412L102.049 219.414L101.783 219.398L101.524 219.365L101.272 219.313L101.03 219.244L100.798 219.158L100.578 219.054L100.369 218.932L100.174 218.793L99.9929 218.636L99.8274 218.462L99.6783 218.27L94.5268 210.928L86.1155 216.634L85.898 216.766L85.6704 216.873L85.434 216.957L85.1898 217.017L84.9391 217.054L84.6829 217.068L84.4224 217.06L84.1587 217.03L83.8931 216.978L83.6266 216.906L83.3604 216.813L83.0956 216.699L82.8334 216.566L82.5749 216.413L82.3213 216.241L82.0737 216.051L81.8332 215.842L81.601 215.615L81.3783 215.371L81.1662 215.109L80.9658 214.831L80.7895 214.556L80.6313 214.276L80.4911 213.992L80.3689 213.707L80.2647 213.42L80.1783 213.133L80.1098 212.847L80.0591 212.563L80.0261 212.281L80.0109 212.004L80.0133 211.732L80.0334 211.467L80.0711 211.208L80.1263 210.958L80.199 210.717L80.2891 210.486L80.3967 210.267L80.5216 210.06L80.6638 209.867L80.8233 209.689L81.0001 209.526L81.194 209.38L92.891 201.444L93.1086 201.313L93.3361 201.205L93.5726 201.122L93.8167 201.062L94.0675 201.025L94.1439 201.021L94.3975 200.907L94.6827 200.799L94.9683 200.708L95.2533 200.635L95.5366 200.58L95.8172 200.542L96.094 200.523L96.366 200.521L96.632 200.537L96.8911 200.57L97.1423 200.622L97.3843 200.691L97.6163 200.777L97.837 200.881L98.0456 201.003L98.2409 201.142L98.4218 201.299L98.5874 201.473L98.7365 201.665" sodipodi:nodetypes="cccccccccccccccccccccccccccccccccccccccccccccccccccccccccccccccccccccccccccccccccccccccccccccccccccccccccccccccccccc"/><path id="shape2" transform="translate(53.9041622908952, -51.6913953856607)" fill="#ffba02" fill-rule="evenodd" stroke="none" stroke-width="0.576" stroke-linecap="square" stroke-linejoin="bevel" d="M62.9252 155.461L62.9207 155.131L62.9074 154.804L62.8853 154.478L62.8545 154.155L62.8153 153.835L62.7676 153.517L62.7116 153.201L62.6474 152.888L62.5751 152.579L62.4948 152.272L62.4066 151.968L62.3107 151.667L62.207 151.369L62.0959 151.075L61.9773 150.784L61.8513 150.497L61.7182 150.213L61.5779 149.933L61.4306 149.657L61.2764 149.385L61.1154 149.117L60.9478 148.853L60.7736 148.593L60.5929 148.338L60.4059 148.087L60.2126 147.841L60.0132 147.599L59.8077 147.362L59.5964 147.131L59.3792 146.904L59.1564 146.682L58.9279 146.465L58.694 146.254L58.4547 146.048L58.2102 145.848L57.9605 145.653L57.7057 145.464L57.446 145.28L57.1815 145.103L56.9123 144.932L56.6385 144.766L56.3602 144.607L56.0775 144.455L55.7905 144.309L55.4993 144.169L55.2041 144.036L54.905 143.91L54.6019 143.79L54.2952 143.678L53.9848 143.572L53.671 143.474L53.3537 143.383L53.0331 143.3L52.7094 143.223L52.3825 143.155L52.0527 143.094L51.72 143.041L51.3846 142.996L51.0466 142.958L50.706 142.929L50.3629 142.908L50.0176 142.896L49.6701 142.891L49.3226 142.896L48.9772 142.908L48.6342 142.929L48.2936 142.958L47.9556 142.996L47.6201 143.041L47.2875 143.094L46.9577 143.155L46.6308 143.223L46.3071 143.3L45.9865 143.383L45.6692 143.474L45.3553 143.572L45.045 143.678L44.7382 143.79L44.4352 143.91L44.1361 144.036L43.8408 144.169L43.5497 144.309L43.2627 144.455L42.98 144.607L42.7017 144.766L42.4279 144.932L42.1586 145.103L41.8941 145.28L41.6345 145.464L41.3797 145.653L41.13 145.848L40.8855 146.048L40.6462 146.254L40.4123 146.465L40.1838 146.682L39.961 146.904L39.7438 147.131L39.5324 147.362L39.327 147.599L39.1276 147.841L38.9343 148.087L38.7473 148.338L38.5666 148.593L38.3924 148.853L38.2247 149.117L38.0638 149.385L37.9096 149.657L37.7623 149.933L37.622 150.213L37.4888 150.497L37.3629 150.784L37.2443 151.075L37.1331 151.369L37.0295 151.667L36.9336 151.968L36.8454 152.272L36.7651 152.579L36.6928 152.888L36.6286 153.201L36.5726 153.517L36.5249 153.835L36.4856 154.155L36.4569 154.458L36.4653 154.446L36.6523 154.195L36.8456 153.949L37.045 153.707L37.2505 153.47L37.4618 153.238L37.679 153.011L37.9018 152.79L38.1303 152.573L38.3642 152.362L38.6035 152.156L38.848 151.955L39.0977 151.761L39.3525 151.571L39.6121 151.388L39.8766 151.211L40.1459 151.04L40.4197 150.874L40.698 150.715L40.9807 150.563L41.2677 150.416L41.5588 150.277L41.8541 150.144L42.1532 150.018L42.4562 149.898L42.763 149.786L43.0733 149.68L43.3872 149.582L43.7045 149.491L44.0251 149.407L44.3488 149.331L44.6757 149.263L45.0055 149.202L45.3381 149.149L45.6736 149.103L46.0116 149.066L46.3522 149.037L46.6952 149.016L47.0406 149.004L47.3881 148.999L47.7356 149.004L48.081 149.016L48.424 149.037L48.7646 149.066L49.1026 149.103L49.438 149.149L49.7707 149.202L50.1005 149.263L50.4274 149.331L50.7511 149.407L51.0717 149.491L51.389 149.582L51.7029 149.68L52.0132 149.786L52.32 149.898L52.623 150.018L52.9221 150.144L53.2173 150.277L53.5085 150.416L53.7955 150.563L54.0782 150.715L54.3565 150.874L54.6303 151.04L54.8995 151.211L55.164 151.388L55.4237 151.571L55.6785 151.761L55.9282 151.955L56.1727 152.156L56.412 152.362L56.6459 152.573L56.8744 152.79L57.0972 153.011L57.3144 153.238L57.5257 153.47L57.7312 153.707L57.9306 153.949L58.1239 154.195L58.3109 154.446L58.4916 154.701L58.6658 154.961L58.8335 155.225L58.9944 155.493L59.1486 155.765L59.2959 156.041L59.4362 156.321L59.5693 156.604L59.6953 156.892L59.8139 157.183L59.925 157.477L60.0287 157.775L60.1246 158.075L60.2128 158.379L60.2931 158.686L60.3654 158.996L60.4296 159.309L60.4856 159.625L60.5333 159.943L60.5726 160.263L60.6033 160.586L60.6254 160.911L60.6387 161.239L60.6432 161.568L60.6387 161.898L60.6254 162.225L60.6033 162.551L60.6013 162.571L60.7736 162.328L60.9478 162.068L61.1154 161.804L61.2764 161.536L61.4306 161.264L61.5779 160.988L61.7182 160.708L61.8513 160.425L61.9773 160.137L62.0959 159.846L62.207 159.552L62.3107 159.254L62.4066 158.954L62.4948 158.65L62.5751 158.343L62.6474 158.033L62.7116 157.72L62.7676 157.404L62.8153 157.086L62.8545 156.766L62.8853 156.443L62.9074 156.118L62.9207 155.79L62.9252 155.461" sodipodi:nodetypes="ccccccccccccccccccccccccccccccccccccccccccccccccccccccccccccccccccccccccccccccccccccccccccccccccccccccccccccccccccccccccccccccccccccccccccccccccccccccccccccccccccccccccccccccccccccccccccccccccccccccccccccccccccccccccccccccccccccccccccccccccccccccccccccccc"/><path id="shape02" transform="matrix(0.993773211992387 0.111421735430467 -0.111421735430467 0.993773211992387 180.467561218011 31.3947041711847)" opacity="0.98" fill="#06ffbd" fill-rule="evenodd" stroke-opacity="0" stroke="#000000" stroke-width="0" stroke-linecap="square" stroke-linejoin="bevel" d="M26.4683 12.57L26.4638 12.24L26.4505 11.913L26.4284 11.587L26.3976 11.264L26.3584 10.944L26.3107 10.626L26.2547 10.31L26.1905 9.997L26.1182 9.688L26.0379 9.381L25.9497 9.077L25.8538 8.776L25.7501 8.478L25.639 8.184L25.5204 7.893L25.3944 7.606L25.2613 7.322L25.121 7.042L24.9737 6.766L24.8195 6.494L24.6585 6.226L24.4909 5.962L24.3167 5.702L24.136 5.447L23.949 5.196L23.7557 4.95L23.5563 4.708L23.3508 4.471L23.1395 4.24L22.9223 4.013L22.6995 3.791L22.471 3.574L22.2371 3.363L21.9978 3.157L21.7533 2.957L21.5036 2.762L21.2488 2.573L20.9891 2.389L20.7246 2.212L20.4554 2.041L20.1816 1.875L19.9033 1.716L19.6206 1.564L19.3336 1.418L19.0424 1.278L18.7472 1.145L18.4481 1.019L18.145 0.899L17.8383 0.787L17.5279 0.681L17.2141 0.583L16.8968 0.492L16.5762 0.409L16.2525 0.332L15.9256 0.264L15.5958 0.203L15.2631 0.15L14.9277 0.105L14.5897 0.067L14.2491 0.038L13.906 0.017L13.5607 0.005L13.2132 0L12.8657 0.005L12.5203 0.017L12.1773 0.038L11.8367 0.067L11.4987 0.105L11.1632 0.15L10.8306 0.203L10.5008 0.264L10.1739 0.332L9.8502 0.409L9.5296 0.492L9.2123 0.583L8.8984 0.681L8.5881 0.787L8.2813 0.899L7.9783 1.019L7.6792 1.145L7.3839 1.278L7.0928 1.418L6.8058 1.564L6.5231 1.716L6.2448 1.875L5.971 2.041L5.7017 2.212L5.4372 2.389L5.1776 2.573L4.9228 2.762L4.6731 2.957L4.4286 3.157L4.1893 3.363L3.9554 3.574L3.7269 3.791L3.5041 4.013L3.2869 4.24L3.0755 4.471L2.8701 4.708L2.6707 4.95L2.4774 5.196L2.2904 5.447L2.1097 5.702L1.9355 5.962L1.7678 6.226L1.6069 6.494L1.4527 6.766L1.3054 7.042L1.1651 7.322L1.0319 7.606L0.906 7.893L0.7874 8.184L0.6762 8.478L0.5726 8.776L0.4767 9.077L0.3885 9.381L0.3082 9.688L0.2359 9.997L0.1717 10.31L0.1157 10.626L0.068 10.944L0.0287 11.264L0 11.567L0.0084 11.555L0.1954 11.304L0.3887 11.058L0.5881 10.816L0.7936 10.579L1.0049 10.347L1.2221 10.12L1.4449 9.899L1.6734 9.682L1.9073 9.471L2.1466 9.265L2.3911 9.064L2.6408 8.87L2.8956 8.68L3.1552 8.497L3.4197 8.32L3.689 8.149L3.9628 7.983L4.2411 7.824L4.5238 7.672L4.8108 7.525L5.1019 7.386L5.3972 7.253L5.6963 7.127L5.9993 7.007L6.3061 6.895L6.6164 6.789L6.9303 6.691L7.2476 6.6L7.5682 6.516L7.8919 6.44L8.2188 6.372L8.5486 6.311L8.8812 6.258L9.2167 6.212L9.5547 6.175L9.8953 6.146L10.2383 6.125L10.5837 6.113L10.9312 6.108L11.2787 6.113L11.6241 6.125L11.9671 6.146L12.3077 6.175L12.6457 6.212L12.9811 6.258L13.3138 6.311L13.6436 6.372L13.9705 6.44L14.2942 6.516L14.6148 6.6L14.9321 6.691L15.246 6.789L15.5563 6.895L15.8631 7.007L16.1661 7.127L16.4652 7.253L16.7604 7.386L17.0516 7.525L17.3386 7.672L17.6213 7.824L17.8996 7.983L18.1734 8.149L18.4426 8.32L18.7071 8.497L18.9668 8.68L19.2216 8.87L19.4713 9.064L19.7158 9.265L19.9551 9.471L20.189 9.682L20.4175 9.899L20.6403 10.12L20.8575 10.347L21.0688 10.579L21.2743 10.816L21.4737 11.058L21.667 11.304L21.854 11.555L22.0347 11.81L22.2089 12.07L22.3766 12.334L22.5375 12.602L22.6917 12.874L22.839 13.15L22.9793 13.43L23.1124 13.713L23.2384 14.001L23.357 14.292L23.4681 14.586L23.5718 14.884L23.6677 15.184L23.7559 15.488L23.8362 15.795L23.9085 16.105L23.9727 16.418L24.0287 16.734L24.0764 17.052L24.1157 17.372L24.1464 17.695L24.1685 18.02L24.1818 18.348L24.1863 18.677L24.1818 19.007L24.1685 19.334L24.1464 19.66L24.1444 19.68L24.3167 19.437L24.4909 19.177L24.6585 18.913L24.8195 18.645L24.9737 18.373L25.121 18.097L25.2613 17.817L25.3944 17.534L25.5204 17.246L25.639 16.955L25.7501 16.661L25.8538 16.363L25.9497 16.063L26.0379 15.759L26.1182 15.452L26.1905 15.142L26.2547 14.829L26.3107 14.513L26.3584 14.195L26.3976 13.875L26.4284 13.552L26.4505 13.227L26.4638 12.899L26.4683 12.57" sodipodi:nodetypes="ccccccccccccccccccccccccccccccccccccccccccccccccccccccccccccccccccccccccccccccccccccccccccccccccccccccccccccccccccccccccccccccccccccccccccccccccccccccccccccccccccccccccccccccccccccccccccccccccccccccccccccccccccccccccccccccccccccccccccccccccccccccccccccccc"/><path id="shape03" transform="matrix(-0.917273147535341 -0.398258675750609 -0.398258675750609 0.917273147535341 242.66597525826 44.9973979712891)" fill="#02ffe9" fill-rule="evenodd" stroke-opacity="0" stroke="#000000" stroke-width="0" stroke-linecap="square" stroke-linejoin="bevel" d="M18.8368 1.06986L27.0025 11.8909L27.1393 12.092L27.25 12.3034L27.3385 12.5231L27.4019 12.7513L27.4431 12.9851L27.4612 13.2245L27.4572 13.4677L27.4321 13.7146L27.3838 13.9643L27.3154 14.2139L27.2258 14.4646L27.1162 14.7133L26.9864 14.9612L26.8365 15.2052L26.6675 15.4447L26.4794 15.6785L26.2732 15.9066L26.0489 16.1273L25.8065 16.3387L25.5469 16.5416L25.2713 16.7324L24.9967 16.9017L24.717 17.0532L24.4344 17.1888L24.1487 17.3076L23.862 17.4086L23.5743 17.4937L23.2876 17.5619L23.0029 17.6134L22.7212 17.6489L22.4426 17.6667L22.169 17.6685L21.9014 17.6536L21.6409 17.6227L21.3874 17.5741L21.1439 17.5096L20.9106 17.4291L20.6892 17.3319L20.479 17.2178L20.2828 17.0878L20.1007 16.941L19.9342 16.7782L19.7842 16.5987L14.6021 9.73252L6.14085 15.0687L5.92206 15.1922L5.69311 15.2922L5.45531 15.3708L5.20966 15.4269L4.95747 15.4615L4.69975 15.4746L4.4377 15.4671L4.17243 15.439L3.90526 15.3904L3.63717 15.3231L3.36939 15.2361L3.10302 15.1295L2.83926 15.0051L2.57923 14.862L2.32412 14.7012L2.07505 14.5235L1.83312 14.328L1.59954 14.1158L1.37552 13.8876L1.16216 13.6425L0.960571 13.3826L0.783224 13.1254L0.624085 12.8635L0.483052 12.5979L0.360126 12.3314L0.255307 12.063L0.168394 11.7946L0.0994874 11.5271L0.0484863 11.2616L0.0152903 10.9978L0 10.7388L0.00241425 10.4844L0.0226336 10.2366L0.0605575 9.99437L0.116085 9.76058L0.189217 9.53519L0.279852 9.31917L0.388091 9.11436L0.513733 8.92077L0.656778 8.74028L0.817225 8.57382L0.995075 8.42138L1.19013 8.28485L12.9566 0.86318L13.1755 0.74067L13.4043 0.63967L13.6422 0.562049L13.8878 0.505938L14.1401 0.471336L14.2169 0.467595L14.472 0.360983L14.7589 0.259983L15.0462 0.17488L15.3329 0.106612L15.6179 0.0551762L15.9002 0.019639L16.1786 0.00187038L16.4522 0L16.7198 0.014963L16.9805 0.0458243L17.2331 0.0944542L17.4766 0.158982L17.71 0.239409L17.932 0.336668L18.1418 0.450761L18.3383 0.580753L18.5202 0.727578L18.6868 0.890301L18.8368 1.06986" sodipodi:nodetypes="cccccccccccccccccccccccccccccccccccccccccccccccccccccccccccccccccccccccccccccccccccccccccccccccccccccccccccccccccccc"/><ellipse id="shape3" transform="matrix(0.0293993984696436 0.999567744262303 -0.999567744262303 0.0293993984696436 493.990496238951 432.477825031845)" rx="13.8434409381174" ry="122.488198893784" cx="13.8434409381174" cy="122.488198893784" fill="#8c8c8c" fill-rule="evenodd" stroke="none" stroke-width="8.2296" stroke-linecap="square" stroke-linejoin="bevel"/><ellipse id="shape4" transform="matrix(1.14983618104507 0 0 1.13606844430607 424.439970764764 430.498357605441)" rx="30.9957175940393" ry="14.3132267851812" cx="30.9957175940393" cy="14.3132267851812" fill="#ffba02" fill-rule="evenodd" stroke-opacity="0" stroke="#000000" stroke-width="0" stroke-linecap="square" stroke-linejoin="bevel"/><ellipse id="shape41" transform="matrix(1.14983618104507 0 0 1.13606844430607 333.634447955286 437.842937827964)" rx="34.1249849014188" ry="15.9999999999987" cx="34.1249849014188" cy="15.9999999999987" fill="#ffba02" fill-rule="evenodd" stroke-opacity="0" stroke="#000000" stroke-width="0" stroke-linecap="square" stroke-linejoin="bevel"/><path id="shape5" transform="translate(257.469307041426, 184.60170894151)" fill="#ffffff" fill-rule="evenodd" stroke="#0295ff" stroke-width="0.576" stroke-linecap="square" stroke-linejoin="bevel" d="M6.84001 92.52L15.84 68.4L30.24 43.56L47.16 27L69.12 10.08L91.08 0L152.28 18.72L185.76 116.28L168.48 180L130.32 211.68L108 221.04L52.08 221.76L37.44 218.88L16.56 187.2L4.32 157.68L0.72 126.72L0 102.24C0 102.24 2.28 99 6.84001 92.52Z" sodipodi:nodetypes="cccccccccccccccccc"/><ellipse id="shape04" transform="matrix(1.14983618104507 0 0 1.13606844430607 257.390469275978 174.681829909462)" rx="118.124989438803" ry="119.24998933822" cx="118.124989438803" cy="119.24998933822" fill="none" stroke="#000000" stroke-width="7.99999999999936" stroke-linecap="round" stroke-linejoin="round"/><path id="shape11" transform="matrix(1.14983618104507 0 0 1.13606844430607 293.35900420917 172.121714089588)" fill="#0a0a00" fill-rule="evenodd" stroke="#000000" stroke-width="2.39999999999981" stroke-linecap="square" stroke-linejoin="bevel" d="M46.7185 10.1285L49.7185 22.8785C54.791 20.3284 61.541 21.0784 69.9685 25.1285C78.3961 29.1786 85.3961 46.4286 90.9685 76.8785L100.719 108.378L117.219 106.128C119.219 119.628 118.969 129.378 116.469 135.378C113.969 141.378 111.969 144.628 110.469 145.128C93.8766 182.892 70.5016 201.767 40.3436 201.753C10.1855 201.74 -3.06446 202.99 0.593554 205.503C14.0801 216.799 23.3326 230.375 48.9685 235.128C64.7231 242.51 74.2665 240.575 86.4685 242.628C102.651 241.218 118.812 239.909 135.969 233.628L167.469 212.628C171.341 209.953 177.466 208.203 185.844 207.378C194.221 206.554 200.721 204.304 205.344 200.628L190.719 180.378C195.719 168.223 205.232 157.662 204.969 139.878C207.182 129.128 208.239 118.378 206.469 107.628C202.848 89.219 197.586 72.0402 189.969 56.6285L160.719 24.3785L126.219 6.37849C106.719 1.87984 87.2185 -1.08918 67.7185 0.378488C67.7185 0.378488 60.7185 3.62849 46.7185 10.1285Z" sodipodi:nodetypes="cczccczczccccczccccccccc"/><path id="shape21" transform="matrix(0.847530414955699 0.767751428989281 -0.777055621538851 0.837382381849977 350.096011574058 237.307615149784)" fill="#060606" fill-rule="evenodd" stroke="#000000" stroke-width="2.39999999999981" stroke-linecap="square" stroke-linejoin="bevel" d="M26.2877 18.7737C26.2877 8.40525 20.403 6.34861e-16 13.1439 0C5.88471 -6.34861e-16 8.88961e-16 8.40525 0 18.7737C-8.88961e-16 29.1421 5.00081 19.4416 12.26 19.4416C19.5191 19.4416 26.2877 29.1421 26.2877 18.7737Z" sodipodi:nodetypes="ccccc"/><ellipse id="shape31" transform="matrix(0.962284144708707 0.621854450297847 -0.629390552902039 0.950762090531894 240.032303664439 184.936456139599)" rx="35.4999999999972" ry="23.4999999999981" cx="35.4999999999972" cy="23.4999999999981" fill="#ffda03" fill-rule="evenodd" stroke-opacity="0" stroke="#000000" stroke-width="0" stroke-linecap="square" stroke-linejoin="bevel"/><ellipse id="shape42" transform="matrix(1.14983618104507 0 0 1.13606844430607 335.866819087757 433.847518820233)" rx="34.1249849014188" ry="15.9999999999987" cx="34.1249849014188" cy="15.9999999999987" fill="#ffda03" fill-rule="evenodd" stroke-opacity="0" stroke="#000000" stroke-width="0" stroke-linecap="square" stroke-linejoin="bevel"/><ellipse id="shape011" transform="matrix(1.14983618104507 0 0 1.13606844430607 422.620055525726 423.422220042425)" rx="31.2758101688897" ry="15.9999999999987" cx="31.2758101688897" cy="15.9999999999987" fill="#ffda03" fill-rule="evenodd" stroke-opacity="0" stroke="#000000" stroke-width="0" stroke-linecap="square" stroke-linejoin="bevel"/><path id="shape51" transform="matrix(1.14983618104507 0 0 1.13606844430607 207.388748269652 273.791379738902)" fill="#0a0a00" fill-rule="evenodd" stroke-opacity="0" stroke="#000000" stroke-width="0" stroke-linecap="square" stroke-linejoin="bevel" d="M11.846 0.501L11.832 0.5L10.943 0.475L10.079 0.497L9.241 0.567L8.43 0.685L7.647 0.851L6.894 1.067L6.171 1.332L5.48 1.648L4.822 2.014L4.198 2.432L3.609 2.901L3.096 3.383L2.624 3.901L2.192 4.454L1.799 5.043L1.446 5.665L1.133 6.32L0.858 7.007L0.622 7.725L0.424 8.473L0.264 9.249L0.142 10.053L0.058 10.885L0.01 11.742L0 12.624L0.026 13.529L0.088 14.458L0.187 15.409L0.321 16.38L0.491 17.371L0.696 18.382L0.935 19.41L1.209 20.455L1.518 21.516L1.861 22.592L2.237 23.681L2.647 24.784L3.089 25.899L3.565 27.025L4.073 28.16L4.614 29.305L5.186 30.458L5.79 31.617L6.426 32.783L7.093 33.953L7.79 35.128L8.518 36.305L9.277 37.485L10.065 38.666L10.883 39.846L11.73 41.026L12.606 42.204L13.512 43.378L14.445 44.549L15.407 45.715L16.397 46.875L17.478 48.099L18.571 49.292L19.674 50.454L20.785 51.584L21.904 52.682L23.03 53.746L24.161 54.778L25.296 55.775L26.435 56.738L27.575 57.665L28.716 58.558L29.857 59.414L30.996 60.233L32.132 61.016L33.265 61.761L34.392 62.467L35.513 63.135L36.627 63.764L37.732 64.353L38.828 64.902L39.913 65.41L40.985 65.877L42.045 66.301L43.09 66.684L44.12 67.024L45.133 67.32L46.128 67.572L47.104 67.78L47.835 67.905L47.616 67.235L46.761 64.381L45.975 61.497L45.26 58.584L44.615 55.643L44.043 52.676L43.544 49.683L43.119 46.666L42.769 43.624L42.495 40.56L42.299 37.474L42.18 34.368L42.14 31.241L42.18 28.114L42.299 25.008L42.495 21.922L42.769 18.857L43.119 15.816L43.544 12.798L43.584 12.557L42.905 11.938L41.719 10.918L40.49 9.919L39.342 9.036L38.184 8.192L37.02 7.387L35.849 6.623L34.674 5.899L33.497 5.215L32.319 4.572L31.142 3.97L29.967 3.41L28.797 2.89L27.632 2.413L26.475 1.978L25.327 1.585L24.191 1.235L23.066 0.927L21.956 0.663L20.862 0.443L19.785 0.266L18.728 0.133L17.691 0.044L16.677 0L15.688 0.001L14.724 0.047L13.787 0.138L12.88 0.275L12.004 0.458L11.846 0.501" sodipodi:nodetypes="ccccccccccccccccccccccccccccccccccccccccccccccccccccccccccccccccccccccccccccccccccccccccccccccccccccccccccccccccccccccccccccccccccccccccc"/><path id="shape6" transform="matrix(1.14983618104507 0 0 1.13606844430607 318.955998372201 336.101328542138)" fill="#0a0a00" fill-rule="evenodd" stroke="none" stroke-width="2.39999999999981" stroke-linecap="square" stroke-linejoin="bevel" d="M87.4571 0.788966C59.4571 1.1223 40.7905 0.955633 31.4571 0.288966C17.4571 -0.711034 8.95714 0.788966 3.45714 6.28897C-0.209523 9.95563 -0.959523 16.4973 1.20714 25.914C3.85298 29.731 6.49881 33.683 9.14464 36.539C16.0196 40.7056 22.9571 43.6223 29.9571 45.289C36.9571 46.9556 46.2905 48.4556 57.9571 49.789C79.6238 45.4556 92.2905 39.289 95.9571 31.289C101.457 19.289 101.457 19.289 87.4571 0.788966Z" sodipodi:nodetypes="czzcczccc"/><ellipse id="shape7" transform="matrix(0.922298428869236 -0.386478470429262 0.386478470429262 0.922298428869236 226.54666417785 209.557620247132)" rx="13.1376367018069" ry="9.59999999999999" cx="13.1376367018069" cy="9.59999999999999" fill="#ffeb00" fill-rule="evenodd" stroke="none" stroke-width="0.576" stroke-linecap="square" stroke-linejoin="bevel"/><path id="shape8" transform="matrix(0.739822173612249 -0.672802460928654 0.672802460928654 0.739822173612249 342.702328086401 253.582449765645)" fill="#2b463f" fill-rule="evenodd" stroke="none" stroke-width="0.576" stroke-linecap="square" stroke-linejoin="bevel" d="M13.8853 9.77999C13.8853 4.37865 9.07687 3.30726e-16 3.14534 0C-2.7862 -3.30726e-16 1.49257 3.88381 1.49257 9.28515C1.49257 14.6865 -2.7862 19.56 3.14534 19.56C9.07687 19.56 13.8853 15.1813 13.8853 9.77999Z" sodipodi:nodetypes="ccccc"/><path id="shape9" transform="matrix(0.999034529090792 0.0439318754930921 -0.0439318754930921 0.999034529090792 351.034754465848 -145.293245904147)" fill="#575757" fill-rule="evenodd" stroke="#575757" stroke-width="0.576" stroke-linecap="square" stroke-linejoin="bevel" d="M92.6681 339.14L89.4927 338.567L89.2569 338.491L89.0488 338.358L88.8719 338.175L88.73 337.949L88.6266 337.687L88.5654 337.397L88.5501 337.086L88.5844 336.761L89.8345 329.923L89.9546 329.508L90.145 329.15L90.3913 328.862L90.6794 328.657L90.9951 328.549L91.3243 328.55L93.6908 328.977L93.7208 328.678L94.9073 328.908L97.8645 329.56L100.791 330.286L103.685 331.085L106.546 331.956L109.374 332.897L112.167 333.908L114.925 334.988L117.647 336.135L120.331 337.348L122.978 338.626L125.586 339.968L128.154 341.374L130.681 342.841L133.167 344.37L135.611 345.958L138.011 347.605L140.367 349.309L142.679 351.071L144.944 352.887L147.163 354.758L149.335 356.682L151.458 358.659L153.532 360.686L155.556 362.764L157.528 364.891L159.449 367.065L161.317 369.287L163.132 371.554L164.892 373.865L166.597 376.221L168.245 378.618L169.837 381.057L171.37 383.537L172.845 386.055L174.26 388.612L175.615 391.206L176.908 393.836L177.824 395.817L177.325 395.817L177.504 396.222L177.583 396.478L177.598 396.741L177.554 397.005L177.455 397.261L177.304 397.503L177.106 397.722L176.863 397.913L176.58 398.066L170.231 400.848L169.96 400.944L169.688 400.996L169.421 401.007L169.164 400.977L168.924 400.909L168.705 400.804L168.514 400.664L168.356 400.49L168.236 400.283L166.253 395.817L165.906 395.817L164.867 393.81L163.591 391.483L162.26 389.19L160.877 386.934L159.441 384.714L157.954 382.532L156.416 380.389L154.827 378.285L153.19 376.222L151.504 374.201L149.771 372.222L147.99 370.287L146.164 368.396L144.292 366.552L142.376 364.753L140.416 363.003L138.413 361.301L136.368 359.648L134.281 358.046L132.154 356.496L129.987 354.998L127.781 353.554L125.537 352.164L123.255 350.83L120.936 349.552L118.582 348.331L116.192 347.169L113.768 346.066L111.311 345.024L108.82 344.043L106.298 343.125L103.744 342.27L101.16 341.479L98.5467 340.753L95.9041 340.094L93.2334 339.502L92.6432 339.388L92.6681 339.14" sodipodi:nodetypes="cccccccccccccccccccccccccccccccccccccccccccccccccccccccccccccccccccccccccccccccccccccccccccccccccccccccccccccccccccccc"/>
</svg>
