<?xml version="1.0" encoding="UTF-8"?>
<svg id="Capa_1" data-name="Capa 1" xmlns="http://www.w3.org/2000/svg" viewBox="0 0 251.92 52.41">
  <defs>
    <style>
      .cls-1 {
        fill: #f7a810;
      }

      .cls-1, .cls-2, .cls-3, .cls-4 {
        stroke-width: 0px;
      }

      .cls-2 {
        fill: #282828;
      }

      .cls-3 {
        fill: #000;
      }

      .cls-4 {
        fill: #161616;
      }
    </style>
  </defs>
  <g>
    <g>
      <path class="cls-4" d="M30.52,51.07c-10.01-.02-20.01-.04-30.02-.07V.58c3.76.57,7.53,1.11,11.3,1.63.02,13.3.03,26.6.05,39.9,6.22.17,12.44.32,18.66.47,0,2.83.01,5.66.02,8.49Z"/>
      <path class="cls-3" d="M31.02,51.57h-.5c-10.01-.02-20.02-.05-30.02-.07h-.5V0l.57.09c3.73.56,7.53,1.11,11.29,1.63l.43.06.05,39.85c6.05.16,12.11.31,18.17.45h.49s.02,9.5.02,9.5ZM1,50.5c9.67.03,19.35.05,29.02.07l-.02-7.51c-6.06-.14-12.12-.29-18.17-.46h-.49s-.05-39.96-.05-39.96c-3.43-.47-6.89-.97-10.3-1.48v49.33Z"/>
    </g>
    <g>
      <path class="cls-4" d="M46.94,40.27c0,1.35.37,2.39,1.1,3.09.73.71,1.7,1.07,2.92,1.09.61,0,1.22-.03,1.83-.13.61-.09,1.22-.19,1.83-.28,0,2.27.02,4.55.02,6.82-1.33.3-2.75.55-4.23.75-1.49.2-3.04.29-4.66.29-1.48,0-2.82-.22-4.03-.66-1.21-.44-2.24-1.08-3.1-1.93-.86-.84-1.52-1.86-1.99-3.06-.47-1.2-.71-2.55-.71-4.04-.02-7.97-.05-15.94-.07-23.9,3.67.29,7.35.57,11.03.83.02,7.04.05,14.09.07,21.13Z"/>
      <path class="cls-3" d="M45.75,52.41c-1.53,0-2.94-.23-4.2-.69-1.27-.47-2.38-1.16-3.28-2.04-.91-.89-1.62-1.98-2.11-3.24-.49-1.25-.74-2.67-.75-4.22l-.07-24.45.54.04c3.67.29,7.35.57,11.02.83l.46.03.07,21.59c0,1.21.32,2.13.95,2.74.64.62,1.48.93,2.58.95.59,0,1.17-.03,1.74-.12l2.4-.37.03,7.8-.39.09c-1.34.31-2.78.56-4.28.76-1.51.2-3.1.3-4.72.3ZM36.34,18.85l.07,23.36c0,1.43.23,2.72.68,3.86.44,1.13,1.08,2.1,1.88,2.89.8.79,1.78,1.4,2.92,1.82,1.14.42,2.44.63,3.85.63,1.58,0,3.12-.1,4.59-.29,1.32-.17,2.6-.39,3.8-.65l-.02-5.84-1.25.19c-.63.1-1.28.14-1.91.13-1.35-.02-2.44-.43-3.26-1.23-.82-.8-1.25-1.96-1.25-3.45l-.07-20.67c-3.34-.24-6.69-.49-10.03-.75Z"/>
    </g>
    <g>
      <path class="cls-4" d="M81.07,50.79c-1.64.72-4.11,1.09-7.41,1.09-7.83.02-11.75-3.49-11.78-10.51-.02-4.74-.03-9.47-.05-14.21-1.95-.09-3.89-.18-5.84-.28,0-2.38-.02-4.76-.02-7.14,1.95.12,3.89.24,5.84.36,0-2.23-.02-4.46-.02-6.69,3.69-.65,7.38-1.29,11.07-1.94.01,3.08.02,6.16.03,9.24,2.7.14,5.39.26,8.09.38,0,2.28.01,4.56.02,6.84-2.7-.09-5.39-.19-8.09-.29.01,4.1.03,8.2.04,12.3.01,3.17,1.5,4.78,4.48,4.8,1.17.01,2.38-.26,3.62-.81,0,2.29.01,4.58.02,6.87Z"/>
      <path class="cls-3" d="M73.6,52.38c-8.08,0-12.2-3.7-12.22-11.01l-.05-13.73c-1.79-.08-3.58-.17-5.36-.26l-.47-.02-.03-8.15.53.03c1.77.11,3.54.22,5.3.33l-.02-6.58.42-.07c3.69-.65,7.38-1.29,11.07-1.94l.58-.1.03,9.36c2.54.13,5.08.24,7.62.35l.48.02.02,7.81h-.52c-2.52-.08-5.05-.17-7.57-.27l.04,11.78c0,2.91,1.28,4.28,3.99,4.31,1.08,0,2.24-.25,3.41-.77l.7-.31.03,7.96-.3.13c-1.7.75-4.26,1.13-7.62,1.13h-.06ZM56.49,26.41c1.79.09,3.57.17,5.36.25l.48.02.05,14.68c.02,6.74,3.69,10.01,11.22,10.01h.06c3.02,0,5.34-.31,6.91-.92l-.02-5.79c-1.06.39-2.11.56-3.13.57-3.24-.03-4.96-1.87-4.98-5.3l-.04-12.82.52.02c2.52.1,5.05.19,7.57.28l-.02-5.84c-2.54-.11-5.08-.23-7.62-.36l-.47-.02-.03-9.12c-3.36.59-6.72,1.18-10.07,1.77l.02,6.8-.53-.03c-1.77-.1-3.54-.21-5.31-.32l.02,6.13Z"/>
    </g>
    <g>
      <path class="cls-4" d="M119.38,39.22c-7.83-.04-15.67-.12-23.5-.23.39,4.29,3.69,6.46,9.9,6.49,3.96.02,7.44-.73,10.44-2.22,0,2.16,0,4.31,0,6.47-3.33,1.43-7.65,2.15-12.97,2.16-5.81,0-10.33-1.31-13.55-3.99-3.22-2.67-4.84-6.43-4.85-11.22-.01-4.97,1.71-8.85,5.17-11.62,3.46-2.77,7.73-4.05,12.81-3.91,5.26.14,9.33,1.49,12.21,4.04,2.88,2.56,4.32,5.98,4.33,10.28v3.77ZM109.06,33.62c0-4.18-2.1-6.3-6.28-6.39-1.78-.04-3.33.53-4.62,1.7-1.3,1.18-2.09,2.67-2.36,4.47,4.42.09,8.84.16,13.27.22Z"/>
      <path class="cls-3" d="M103.26,52.38c-5.92,0-10.58-1.38-13.86-4.11-3.32-2.76-5.02-6.67-5.03-11.61-.02-5.12,1.79-9.16,5.36-12.01,3.51-2.81,7.93-4.16,13.13-4.02,5.36.15,9.58,1.55,12.53,4.17,2.98,2.65,4.49,6.23,4.49,10.65v4.27s-.5,0-.5,0c-7.61-.04-15.32-.12-22.93-.22.59,3.66,3.65,5.45,9.33,5.48,3.82,0,7.3-.71,10.22-2.17l.72-.36v7.6s-.29.13-.29.13c-3.38,1.46-7.81,2.2-13.17,2.2h0ZM102.13,21.62c-4.66,0-8.62,1.28-11.78,3.81-3.32,2.65-5,6.43-4.99,11.23.01,4.63,1.59,8.28,4.67,10.84,3.09,2.57,7.54,3.88,13.22,3.88h0c5.06,0,9.25-.67,12.47-1.99v-5.34c-2.91,1.3-6.21,1.92-9.95,1.93-6.48-.03-9.98-2.37-10.39-6.94l-.05-.55h.55c7.63.11,15.36.19,23,.23v-3.26c0-4.19-1.37-7.43-4.16-9.91-2.77-2.46-6.77-3.78-11.89-3.92-.23,0-.47,0-.7,0ZM109.56,34.13h-.51c-4.42-.06-8.85-.14-13.27-.22h-.57s.09-.58.09-.58c.29-1.91,1.14-3.51,2.52-4.76,1.39-1.26,3.06-1.86,4.97-1.83,4.48.1,6.76,2.42,6.77,6.89v.51ZM96.4,32.92c4.05.08,8.1.14,12.15.2-.17-3.54-2.06-5.3-5.78-5.38-1.69-.03-3.07.48-4.28,1.57-1.07.97-1.77,2.18-2.1,3.61Z"/>
    </g>
    <g>
      <path class="cls-4" d="M149.51,30.28c-1.34-.57-2.9-.85-4.68-.85-2.42.01-4.31.73-5.67,2.15-1.36,1.42-2.04,3.36-2.04,5.8,0,4.6,0,9.2,0,13.8-3.7,0-7.41,0-11.11,0,0-9.64-.01-19.29-.02-28.93,3.71.03,7.42.04,11.13.04,0,1.79,0,3.57,0,5.36.05,0,.09,0,.14,0,1.76-3.91,4.93-5.87,9.51-5.91,1.17-.01,2.09.09,2.75.31,0,2.74,0,5.49,0,8.23Z"/>
      <path class="cls-3" d="M137.62,51.68h-12.11s-.02-29.93-.02-29.93h.5c3.71.03,7.42.05,11.13.04h.5s0,4.13,0,4.13c1.94-3.07,5.01-4.65,9.15-4.68,1.25-.02,2.19.1,2.91.34l.34.11v9.33s-.71-.28-.71-.28c-1.27-.54-2.77-.81-4.48-.81-2.27.01-4.06.68-5.31,2-1.26,1.32-1.9,3.16-1.9,5.45v14.3ZM126.51,50.67h10.11s0-13.29,0-13.29c0-2.57.73-4.63,2.18-6.15,1.45-1.51,3.48-2.29,6.03-2.3,1.55,0,2.95.2,4.19.62v-7.12c-.57-.14-1.33-.2-2.24-.19-4.41.04-7.38,1.88-9.06,5.62l-.13.29h-.97s0-5.35,0-5.35c-3.38,0-6.75-.01-10.13-.04l.02,27.92ZM149.01,30.28h.5-.5Z"/>
    </g>
    <g>
      <path class="cls-4" d="M184.62,51.15c-3.5,0-7.01,0-10.51,0,0-1.41,0-2.82.01-4.23-.05,0-.09,0-.14,0-2.42,3.31-6,4.95-10.73,4.95-3.49,0-6.24-.8-8.24-2.4-2-1.59-3-3.72-3-6.38,0-5.62,4.15-8.88,12.44-9.87,3.26-.4,6.52-.8,9.79-1.22,0-3.22-2.12-4.78-6.4-4.69-4.3.09-8.38,1.19-12.26,3.29,0-2.25,0-4.5,0-6.75,1.55-.66,3.67-1.27,6.36-1.81,2.69-.55,5.14-.86,7.35-.91,10.28-.3,15.41,3.7,15.39,12.21-.02,5.94-.03,11.87-.05,17.81ZM174.2,39.2c0-.66,0-1.32,0-1.98-2.18.26-4.36.52-6.55.77-3.61.42-5.42,1.76-5.43,4.01,0,1.02.44,1.86,1.31,2.51.88.65,2.07.97,3.57.97,2.09-.01,3.79-.61,5.1-1.79,1.32-1.19,1.98-2.69,1.98-4.49Z"/>
      <path class="cls-3" d="M163.24,52.38c-3.59,0-6.47-.84-8.55-2.5-2.12-1.69-3.19-3.97-3.19-6.77,0-5.86,4.34-9.35,12.88-10.37,3.11-.38,6.22-.77,9.33-1.17-.07-1.04-.4-1.84-1.01-2.43-.94-.92-2.58-1.38-4.86-1.31-4.19.09-8.23,1.17-12.03,3.23l-.74.4v-7.92s.31-.13.31-.13c1.58-.68,3.69-1.28,6.46-1.85,2.72-.55,5.22-.87,7.43-.93,5.77-.16,10.04,1.04,12.65,3.59,2.17,2.11,3.26,5.18,3.25,9.12l-.05,18.31h-11.51s0-3.47,0-3.47c-2.48,2.79-5.96,4.2-10.37,4.2ZM168.17,26.82c2.39,0,4.15.54,5.23,1.6.88.86,1.33,2.07,1.32,3.59v.44s-.44.06-.44.06c-3.26.42-6.53.83-9.79,1.22-8.07.96-11.99,4.03-12,9.38,0,2.52.92,4.48,2.81,5.99,1.91,1.52,4.57,2.29,7.93,2.29,4.62,0,8-1.55,10.33-4.74l.15-.21h.9v4.23s9.5,0,9.5,0l.05-17.31c.01-3.66-.98-6.49-2.94-8.4-2.41-2.35-6.43-3.46-11.93-3.3-2.15.06-4.59.36-7.26.9-2.48.51-4.49,1.06-5.96,1.66v5.59c3.71-1.88,7.66-2.88,11.74-2.97.12,0,.24,0,.35,0ZM167.06,45.98c-1.57,0-2.85-.36-3.81-1.06-1.01-.75-1.52-1.73-1.52-2.92,0-2.54,1.98-4.05,5.87-4.51,2.18-.25,4.36-.51,6.54-.77l.56-.07v2.55c-.01,1.94-.73,3.58-2.15,4.86-1.4,1.26-3.23,1.91-5.44,1.92h-.06ZM173.71,37.78c-2,.24-3.99.47-5.99.71-3.35.39-4.98,1.54-4.98,3.52,0,.86.36,1.55,1.11,2.11.79.58,1.87.84,3.27.87,1.95,0,3.56-.57,4.77-1.67,1.22-1.1,1.81-2.45,1.82-4.12v-1.42Z"/>
    </g>
    <g>
      <path class="cls-4" d="M215.17,50.75c-1.64.76-4.12,1.13-7.42,1.13-7.83-.01-11.73-3.43-11.71-10.26.02-4.62.03-9.24.05-13.87-1.95.07-3.89.14-5.84.21,0-2.28.01-4.55.02-6.83,1.95-.08,3.89-.17,5.84-.26,0-2.18.01-4.36.02-6.53,3.7-1.1,7.4-2.23,11.09-3.41-.01,3.12-.02,6.24-.03,9.36,2.7-.15,5.39-.31,8.09-.48,0,2.37-.02,4.75-.02,7.12-2.7.13-5.39.26-8.09.37-.01,4.16-.03,8.31-.04,12.47-.01,3.21,1.47,4.8,4.45,4.76,1.17-.02,2.38-.33,3.62-.94,0,2.38-.02,4.77-.02,7.15Z"/>
      <path class="cls-3" d="M207.75,52.38c-4.3,0-7.51-1.05-9.54-3.09-1.78-1.79-2.68-4.37-2.67-7.67l.04-13.34c-1.77.07-3.55.13-5.32.19l-.52.02.02-7.83.48-.02c1.79-.08,3.58-.16,5.36-.24l.02-6.43.36-.11c3.77-1.12,7.5-2.26,11.08-3.4l.65-.21-.03,9.52c2.52-.14,5.04-.29,7.55-.45l.53-.03-.03,8.13-.47.02c-2.54.12-5.07.24-7.61.35l-.04,11.91c0,1.6.34,2.72,1.04,3.41.64.63,1.62.91,2.9.93,1.1-.02,2.25-.31,3.41-.89l.72-.36-.03,8.28-.29.13c-1.72.79-4.21,1.18-7.63,1.18ZM196.58,27.24l-.05,14.39c0,3.03.79,5.37,2.38,6.97,1.83,1.84,4.81,2.78,8.83,2.79,3.03,0,5.36-.32,6.92-.96l.02-6.05c-1.05.43-2.1.65-3.11.67-1.57,0-2.78-.39-3.62-1.22-.89-.89-1.34-2.25-1.34-4.04l.04-12.94.48-.02c2.54-.11,5.07-.23,7.61-.35l.02-6.11c-2.52.16-5.04.31-7.56.45l-.53.03.03-9.21c-3.28,1.04-6.67,2.08-10.09,3.09l-.02,6.64-.48.02c-1.79.08-3.58.17-5.37.24l-.02,5.83c1.77-.06,3.55-.12,5.32-.19l.52-.02Z"/>
    </g>
    <g>
      <path class="cls-4" d="M251.38,51.05c-3.5,0-7.01.02-10.51.02,0-1.59,0-3.17.01-4.76-.05,0-.09,0-.14,0-2.42,3.74-6,5.57-10.74,5.56-3.49,0-6.24-.88-8.24-2.62-2-1.74-2.99-4.03-2.98-6.93.02-6.1,4.17-9.77,12.44-11.14,3.26-.54,6.51-1.1,9.77-1.68,0-3.63-2.12-5.29-6.38-5.01-4.29.27-8.36,1.67-12.24,4.11,0-2.46.02-4.92.02-7.38,1.55-.8,3.66-1.57,6.35-2.31,2.68-.74,5.12-1.21,7.32-1.39,10.25-.88,15.36,3.44,15.34,13.18-.01,6.78-.03,13.56-.04,20.33ZM240.97,37.61c0-.74,0-1.49,0-2.23-2.18.35-4.36.69-6.54,1.02-3.61.56-5.42,2.07-5.43,4.56,0,1.13.43,2.05,1.31,2.76.88.71,2.06,1.06,3.56,1.03,2.09-.03,3.79-.72,5.1-2.07,1.32-1.35,1.98-3.05,1.98-5.08Z"/>
      <path class="cls-3" d="M230.01,52.38h-.01c-3.59,0-6.47-.92-8.56-2.74-2.1-1.83-3.17-4.29-3.15-7.31.02-6.3,4.35-10.22,12.86-11.63,3.11-.52,6.23-1.05,9.34-1.6-.06-1.31-.46-2.31-1.17-2.98-.94-.89-2.51-1.26-4.67-1.12-4.13.27-8.17,1.62-12,4.04l-.77.49.03-8.59.27-.14c1.58-.82,3.68-1.58,6.44-2.35,2.73-.76,5.23-1.23,7.42-1.41,5.42-.46,9.51.53,12.15,2.96,2.49,2.29,3.75,5.89,3.74,10.72l-.04,20.83-11.51.02v-3.89c-2.45,3.12-5.93,4.7-10.35,4.7ZM235.49,23.97c1.99,0,3.51.48,4.51,1.42,1,.93,1.5,2.32,1.49,4.12v.42s-.41.07-.41.07c-3.26.58-6.51,1.14-9.77,1.68-8.07,1.34-12,4.82-12.02,10.65,0,2.75.91,4.9,2.81,6.55,1.91,1.66,4.57,2.5,7.91,2.5h.01c4.61,0,7.98-1.75,10.31-5.33l.15-.23h.91s-.01,4.75-.01,4.75l9.51-.02.04-19.84c0-4.53-1.14-7.89-3.41-9.98-2.42-2.23-6.26-3.14-11.38-2.69-2.13.17-4.56.64-7.23,1.37-2.5.69-4.51,1.41-5.98,2.14l-.02,6.18c3.74-2.21,7.68-3.46,11.7-3.72.31-.02.61-.03.9-.03ZM233.74,45.25c-1.54,0-2.8-.38-3.73-1.14-1-.81-1.5-1.87-1.49-3.15,0-2.76,1.98-4.46,5.85-5.06,2.18-.33,4.36-.67,6.53-1.02l.58-.09v2.82c-.01,2.16-.73,3.99-2.13,5.42-1.4,1.44-3.23,2.18-5.45,2.22-.05,0-.1,0-.15,0ZM240.48,35.96c-1.99.32-3.97.62-5.96.93-3.36.52-5,1.85-5,4.07,0,.98.36,1.76,1.12,2.37.78.63,1.88.94,3.24.92,1.97-.03,3.53-.66,4.75-1.92,1.22-1.25,1.83-2.84,1.84-4.73v-1.65Z"/>
    </g>
  </g>
  <g>
    <path class="cls-1" d="M41.48,13.63c-1.87-.16-3.41-.8-4.6-1.92-1.2-1.12-1.8-2.43-1.8-3.91,0-1.52.59-2.69,1.78-3.52,1.19-.82,2.72-1.13,4.59-.92,1.9.21,3.44.84,4.62,1.9,1.19,1.06,1.78,2.32,1.79,3.79,0,1.49-.58,2.67-1.76,3.52-1.18.86-2.72,1.21-4.61,1.05Z"/>
    <path class="cls-2" d="M42.35,14.04c-.29,0-.59-.01-.9-.04-1.95-.17-3.58-.85-4.83-2.02-1.27-1.19-1.91-2.6-1.92-4.18,0-1.65.65-2.93,1.94-3.83,1.25-.87,2.89-1.2,4.85-.98,1.96.22,3.59.89,4.83,1.99,1.26,1.13,1.91,2.5,1.91,4.07,0,1.61-.64,2.9-1.92,3.83-1.06.77-2.39,1.16-3.97,1.16ZM41.51,13.25c1.79.16,3.26-.17,4.36-.98,1.09-.79,1.61-1.84,1.61-3.22,0-1.37-.55-2.52-1.66-3.51-1.12-1-2.61-1.61-4.41-1.81-1.77-.19-3.24.09-4.34.85-1.09.76-1.62,1.8-1.62,3.21,0,1.37.57,2.59,1.68,3.63,1.12,1.06,2.6,1.67,4.38,1.82h0Z"/>
  </g>
</svg>