<?xml version="1.0" encoding="UTF-8"?>
<svg id="Capa_1" data-name="Capa 1" xmlns="http://www.w3.org/2000/svg" viewBox="0 0 101 54.1">
  <defs>
    <style>
      .cls-1, .cls-2, .cls-3, .cls-4, .cls-5, .cls-6, .cls-7 {
        stroke: #000;
        stroke-miterlimit: 10;
      }

      .cls-1, .cls-8 {
        fill: #161616;
      }

      .cls-9 {
        fill: #000;
      }

      .cls-9, .cls-8 {
        stroke-width: 0px;
      }

      .cls-2 {
        fill: #fff;
      }

      .cls-3 {
        fill: none;
      }

      .cls-4 {
        fill: #090a0a;
      }

      .cls-5 {
        fill: #e2e2e1;
      }

      .cls-6, .cls-7 {
        fill: #f7a810;
      }

      .cls-7 {
        stroke-width: .75px;
      }
    </style>
  </defs>
  <g>
    <g>
      <g>
        <path class="cls-8" d="M12.46,53.26c-3.99,0-7.98-.02-11.96-.03v-20.09c1.5.23,3,.44,4.5.65,0,5.3.01,10.6.02,15.9,2.48.07,4.96.13,7.43.19,0,1.13,0,2.26,0,3.39Z"/>
        <path class="cls-9" d="M12.97,53.76L0,53.73v-21.17l.57.09c1.5.23,3,.44,4.5.65l.43.06.02,15.85c2.32.06,4.63.12,6.95.17h.49s.01,4.39.01,4.39ZM1,52.73l10.96.03v-2.4c-2.32-.05-4.64-.11-6.96-.17h-.49s-.02-15.96-.02-15.96c-1.17-.16-2.34-.33-3.5-.5v19.01Z"/>
      </g>
      <g>
        <path class="cls-8" d="M19.01,48.96c0,.54.15.95.44,1.23.29.28.68.43,1.16.43.24,0,.49-.01.73-.05.24-.04.49-.07.73-.11,0,.91,0,1.81,0,2.72-.53.12-1.09.22-1.69.3-.59.08-1.21.12-1.86.12-.59,0-1.12-.09-1.61-.26-.48-.18-.89-.43-1.24-.77-.34-.34-.61-.74-.8-1.22-.19-.48-.28-1.02-.28-1.61,0-3.18-.02-6.35-.03-9.53,1.46.12,2.93.23,4.4.33,0,2.81.02,5.61.03,8.42Z"/>
        <path class="cls-9" d="M18.53,54.1c-.65,0-1.25-.1-1.78-.3-.55-.2-1.02-.5-1.41-.88-.39-.38-.7-.85-.91-1.39-.21-.53-.32-1.13-.32-1.79l-.03-10.07.54.04c1.46.12,2.93.23,4.39.33l.46.03.03,8.89c0,.4.09.69.29.88.2.19.47.29.82.29.21,0,.43-.01.64-.04l1.3-.2v3.7s-.38.09-.38.09c-.54.12-1.13.23-1.73.31-.61.08-1.26.12-1.92.12ZM15.09,40.75l.03,8.98c0,.53.09,1.01.25,1.43.16.41.39.76.68,1.05.29.28.64.5,1.06.66.92.34,2.17.26,3.22.12.43-.06.85-.13,1.25-.21v-1.73s-.16.02-.16.02c-.27.04-.55.06-.81.06-.62,0-1.12-.2-1.51-.58-.39-.38-.59-.91-.59-1.59l-.03-7.96c-1.13-.08-2.26-.17-3.4-.25Z"/>
      </g>
      <g>
        <path class="cls-8" d="M32.61,53.15c-.65.29-1.64.43-2.95.43-3.12,0-4.68-1.39-4.69-4.19,0-1.89-.01-3.77-.02-5.66-.78-.04-1.55-.07-2.33-.11,0-.95,0-1.9,0-2.84.78.05,1.55.1,2.33.14,0-.89,0-1.78,0-2.67,1.47-.26,2.94-.52,4.41-.77,0,1.23,0,2.46.01,3.68,1.07.05,2.15.1,3.23.15,0,.91,0,1.82,0,2.73-1.08-.04-2.15-.08-3.22-.12,0,1.63.01,3.27.02,4.9,0,1.26.6,1.9,1.79,1.91.47,0,.95-.1,1.44-.32,0,.91,0,1.83,0,2.74Z"/>
        <path class="cls-9" d="M29.64,54.08c-4.26,0-5.17-2.55-5.17-4.69l-.02-5.19-2.33-.11v-3.85s.52.03.52.03c.6.04,1.2.07,1.79.11v-2.56s5.4-.95,5.4-.95v3.8c.93.04,1.85.09,2.76.13l.48.02v3.72s-.51-.02-.51-.02c-.9-.03-1.8-.06-2.71-.1v4.38c.02,1,.39,1.41,1.31,1.42.44,0,.81-.09,1.23-.28l.7-.31v3.83s-.29.13-.29.13c-.73.32-1.76.48-3.16.48h-.02ZM23.11,43.15l2.33.11.02,6.14c0,2.52,1.33,3.69,4.17,3.69h.02c1.05,0,1.87-.09,2.46-.28v-1.69c-.33.08-.61.13-.96.12-1.46-.02-2.28-.87-2.28-2.41l-.02-5.42.52.02c.9.03,1.8.07,2.7.1v-1.73c-.92-.04-1.84-.08-2.76-.13l-.47-.02v-3.56s-3.43.6-3.43.6v2.78s-.52-.03-.52-.03c-.6-.04-1.2-.07-1.79-.11v1.83Z"/>
      </g>
      <g>
        <path class="cls-8" d="M47.88,48.54c-3.12-.02-6.24-.05-9.37-.09.15,1.71,1.47,2.57,3.95,2.59,1.58,0,2.97-.29,4.16-.89,0,.86,0,1.72,0,2.58-1.33.57-3.05.86-5.17.86-2.32,0-4.12-.52-5.4-1.59-1.28-1.07-1.93-2.56-1.93-4.47,0-1.98.68-3.53,2.06-4.63,1.38-1.1,3.08-1.61,5.1-1.56,2.1.06,3.72.59,4.87,1.61,1.15,1.02,1.72,2.38,1.72,4.1v1.5ZM43.77,46.31c0-1.66-.84-2.51-2.5-2.55-.71-.02-1.33.21-1.84.68-.52.47-.83,1.06-.94,1.78,1.76.03,3.52.06,5.29.09Z"/>
        <path class="cls-9" d="M41.45,54.09c-2.43,0-4.35-.57-5.72-1.71-1.4-1.16-2.11-2.79-2.11-4.86,0-2.14.75-3.83,2.25-5.02,1.46-1.16,3.26-1.72,5.43-1.67,2.21.06,3.95.64,5.18,1.74,1.25,1.11,1.89,2.62,1.89,4.47v2s-.5,0-.5,0c-2.92-.02-5.84-.04-8.76-.08.24.78.99,1.57,3.34,1.58,1.47,0,2.81-.27,3.94-.83l.72-.36v3.71s-.3.13-.3.13c-1.39.6-3.19.9-5.37.9h0ZM40.99,41.83c-1.8,0-3.27.48-4.49,1.45-1.27,1.01-1.88,2.4-1.88,4.24,0,1.75.6,3.13,1.75,4.09,1.18.98,2.89,1.47,5.08,1.47h0c1.88,0,3.45-.23,4.67-.7v-1.48c-1.08.41-2.29.62-3.61.62h-.06c-3.45-.02-4.32-1.66-4.44-3.04l-.05-.55h.55c2.95.05,5.91.08,8.86.09v-1c0-1.58-.51-2.8-1.56-3.72-1.05-.93-2.58-1.43-4.55-1.48-.1,0-.19,0-.28,0ZM44.27,46.81h-.51c-1.76-.03-3.53-.06-5.29-.09h-.57s.09-.58.09-.58c.13-.83.5-1.53,1.1-2.08.61-.56,1.39-.82,2.19-.81,1.93.04,2.99,1.12,2.99,3.05v.51ZM39.12,45.73c1.37.03,2.74.05,4.11.07-.15-1.03-.77-1.51-1.98-1.54-.58-.02-1.07.17-1.5.55-.29.26-.5.57-.64.92Z"/>
      </g>
      <g>
        <path class="cls-8" d="M59.89,44.98c-.53-.23-1.15-.34-1.87-.34-.96,0-1.72.29-2.26.86-.54.57-.81,1.34-.81,2.31,0,1.83,0,3.67,0,5.5-1.48,0-2.95,0-4.43,0,0-3.84,0-7.69,0-11.53,1.48.01,2.96.02,4.44.02,0,.71,0,1.42,0,2.14.02,0,.04,0,.06,0,.7-1.56,1.97-2.34,3.79-2.36.47,0,.83.04,1.1.12,0,1.09,0,2.19,0,3.28Z"/>
        <path class="cls-9" d="M55.45,53.8h-5.43s0-12.53,0-12.53h.5c1.48.02,2.96.02,4.43.02h.5s0,1.07,0,1.07c.81-.85,1.93-1.28,3.34-1.29.51,0,.94.04,1.26.15l.34.11v4.4s-.7-.3-.7-.3c-.47-.2-1.05-.3-1.67-.3-.83,0-1.45.23-1.9.7-.45.47-.67,1.12-.67,1.97v6ZM51.02,52.8h3.43s0-5,0-5c0-1.1.32-2,.95-2.66.64-.67,1.52-1,2.62-1.01.53,0,.95.05,1.37.15v-2.19c-.15-.02-.34-.03-.59-.03-1.63.01-2.72.69-3.34,2.06l-.13.29h-.82l-.06-.5v-1.64c-1.15,0-2.29,0-3.44-.01v10.52Z"/>
      </g>
      <g>
        <path class="cls-8" d="M73.88,53.3c-1.4,0-2.79,0-4.19,0,0-.56,0-1.12,0-1.68-.02,0-.04,0-.06,0-.97,1.32-2.39,1.97-4.28,1.97-1.39,0-2.49-.32-3.28-.95-.8-.64-1.2-1.48-1.2-2.54,0-2.24,1.65-3.54,4.96-3.93,1.3-.16,2.6-.32,3.9-.49,0-1.28-.85-1.9-2.55-1.87-1.71.04-3.34.47-4.89,1.31,0-.9,0-1.79,0-2.69.62-.26,1.46-.5,2.53-.72,1.07-.22,2.05-.34,2.93-.36,4.1-.12,6.14,1.48,6.13,4.86,0,2.37-.01,4.73-.02,7.1ZM69.73,48.53c0-.26,0-.53,0-.79-.87.1-1.74.21-2.61.31-1.44.17-2.16.7-2.16,1.6,0,.41.17.74.52,1,.35.26.82.39,1.42.38.83,0,1.51-.24,2.03-.72.52-.47.79-1.07.79-1.79Z"/>
        <path class="cls-9" d="M65.36,54.09h0c-1.5,0-2.71-.36-3.6-1.06-.92-.73-1.38-1.72-1.38-2.93,0-2.51,1.82-4,5.4-4.43,1.14-.14,2.28-.28,3.41-.43-.05-.2-.14-.37-.27-.5-.31-.31-.88-.45-1.72-.44-1.62.03-3.19.45-4.66,1.25l-.74.4v-3.86s.31-.13.31-.13c.65-.28,1.51-.52,2.63-.75,1.1-.23,2.12-.35,3.01-.38,2.4-.07,4.16.44,5.26,1.51.92.9,1.39,2.2,1.38,3.85l-.02,7.6h-5.19s0-.97,0-.97c-.99.84-2.27,1.26-3.83,1.26ZM67.33,43.3c1.04,0,1.79.24,2.29.73.41.4.62.96.62,1.65v.44s-.44.06-.44.06c-1.3.17-2.6.33-3.9.49-3.04.36-4.51,1.49-4.52,3.44,0,.91.33,1.61,1.01,2.15.7.56,1.7.85,2.97.85h0c1.74,0,3-.58,3.87-1.77l.15-.2h.76l.05.5v1.18s3.19,0,3.19,0l.02-6.6c0-1.39-.35-2.42-1.08-3.13-.9-.88-2.42-1.29-4.53-1.23-.84.02-1.8.14-2.84.35-.87.18-1.59.37-2.13.57v1.54c1.39-.64,2.86-.97,4.37-1,.05,0,.1,0,.15,0ZM66.88,51.53c-.69,0-1.26-.16-1.7-.48-.48-.35-.73-.84-.73-1.4,0-.82.46-1.84,2.6-2.1.87-.1,1.74-.2,2.61-.31l.56-.07v1.36c0,.86-.33,1.59-.96,2.16-.62.55-1.41.84-2.37.84h-.03ZM69.23,48.3c-.68.08-1.37.16-2.05.24-1.72.2-1.72.86-1.72,1.1,0,.25.1.43.32.6.26.19.67.3,1.12.29.71,0,1.27-.2,1.7-.59.42-.38.62-.84.62-1.42v-.23Z"/>
      </g>
      <g>
        <path class="cls-8" d="M86.05,53.13c-.65.3-1.64.45-2.96.45-3.12,0-4.68-1.37-4.67-4.09,0-1.84.01-3.68.02-5.53-.78.03-1.55.06-2.33.08,0-.91,0-1.81,0-2.72.78-.03,1.55-.07,2.33-.11,0-.87,0-1.74,0-2.6,1.47-.44,2.95-.89,4.42-1.36,0,1.24,0,2.49-.01,3.73,1.07-.06,2.15-.12,3.22-.19,0,.95,0,1.89,0,2.84-1.07.05-2.15.1-3.22.15,0,1.66-.01,3.31-.02,4.97,0,1.28.59,1.91,1.77,1.9.47,0,.95-.13,1.44-.37,0,.95,0,1.9,0,2.85Z"/>
        <path class="cls-9" d="M83.1,54.08c-1.8,0-3.15-.45-4.01-1.32-.77-.77-1.16-1.87-1.15-3.27l.02-5.01-2.33.08v-3.72s.49-.02.49-.02c.62-.03,1.23-.05,1.85-.08v-2.5s.36-.11.36-.11c1.47-.44,2.94-.89,4.41-1.35l.65-.21v3.89c.88-.05,1.78-.11,2.68-.16l.53-.03v3.85s-.49.02-.49.02c-.92.04-1.83.09-2.75.13v4.49c-.02.52.09.9.31,1.11.2.19.51.28.94.28.39,0,.81-.11,1.23-.32l.72-.36v3.98s-.3.13-.3.13c-.72.33-1.76.5-3.17.5ZM78.95,43.45l-.02,6.05c0,1.12.29,1.99.86,2.56.67.68,1.79,1.02,3.31,1.02,1.05,0,1.88-.1,2.46-.29v-1.78c-.31.09-.62.14-.93.14-.72,0-1.26-.18-1.66-.57-.42-.41-.62-1.03-.62-1.83l.02-5.44.48-.03c.92-.04,1.83-.08,2.75-.13v-1.83c-.89.06-1.79.11-2.69.16l-.53.03v-3.58c-1.13.36-2.27.71-3.41,1.05v2.71s-.48.02-.48.02c-.62.03-1.24.06-1.85.08v1.72s2.32-.08,2.32-.08Z"/>
      </g>
      <g>
        <path class="cls-8" d="M100.48,53.25c-1.4,0-2.79,0-4.19,0,0-.63,0-1.26,0-1.9-.02,0-.04,0-.06,0-.97,1.49-2.39,2.22-4.28,2.22-1.39,0-2.49-.35-3.28-1.04-.8-.69-1.19-1.61-1.19-2.76,0-2.43,1.66-3.89,4.96-4.44,1.3-.22,2.6-.44,3.89-.67,0-1.45-.84-2.11-2.54-2-1.71.11-3.33.67-4.88,1.64,0-.98,0-1.96,0-2.94.62-.32,1.46-.62,2.53-.92,1.07-.3,2.04-.48,2.92-.55,4.09-.35,6.12,1.37,6.11,5.25,0,2.7-.01,5.4-.02,8.1ZM96.34,47.9c0-.3,0-.59,0-.89-.87.14-1.74.27-2.61.41-1.44.22-2.16.82-2.16,1.82,0,.45.17.82.52,1.1.35.28.82.42,1.42.41.83-.01,1.51-.29,2.03-.82.52-.54.79-1.21.79-2.02Z"/>
        <path class="cls-9" d="M91.97,54.08h0c-1.5,0-2.72-.39-3.61-1.17-.91-.79-1.36-1.85-1.36-3.14,0-2.68,1.82-4.34,5.38-4.93,1.15-.19,2.3-.39,3.45-.59-.05-.31-.16-.55-.34-.72-.31-.29-.85-.42-1.63-.37-1.6.1-3.16.63-4.64,1.56l-.77.49v-4.15s.28-.14.28-.14c.65-.34,1.51-.65,2.62-.96,1.11-.31,2.12-.5,3.01-.57,2.25-.19,3.95.23,5.07,1.26,1.06.97,1.59,2.48,1.59,4.49l-.02,8.6h-5.19s0-1.06,0-1.06c-.99.93-2.27,1.4-3.83,1.4ZM94.15,42.16c.87,0,1.55.22,2.01.65.46.43.69,1.06.69,1.86v.42s-.41.07-.41.07c-1.3.23-2.6.45-3.9.67-3.05.51-4.53,1.8-4.54,3.95,0,1,.33,1.78,1.02,2.38.7.61,1.7.92,2.95.92h0c1.73,0,2.99-.65,3.86-1.99l.14-.22.78-.02.05.51v1.39s3.19,0,3.19,0v-7.61c.02-1.72-.41-2.98-1.25-3.76-.9-.83-2.35-1.16-4.31-1-.83.07-1.78.25-2.83.54-.89.25-1.61.5-2.16.75v1.76c1.39-.75,2.85-1.17,4.34-1.27.13,0,.26-.01.38-.01ZM93.46,51.24c-.68,0-1.25-.18-1.68-.52-.46-.38-.71-.89-.71-1.49,0-.87.45-1.98,2.59-2.31.87-.13,1.74-.27,2.6-.41l.58-.09v1.48c0,.94-.32,1.74-.94,2.37s-1.42.96-2.38.98c-.02,0-.04,0-.07,0ZM95.84,47.59c-.68.11-1.35.21-2.03.31-1.73.27-1.74,1.04-1.74,1.33,0,.3.11.52.34.71.25.21.6.32,1.1.3.7-.01,1.25-.23,1.68-.67.43-.44.65-.99.65-1.67v-.3Z"/>
      </g>
    </g>
    <path class="cls-7" d="M16.83,38.34c-.75-.06-1.36-.32-1.83-.77-.48-.45-.72-.97-.72-1.56,0-.6.23-1.07.71-1.4.47-.33,1.08-.45,1.83-.37.76.08,1.37.34,1.84.76.47.42.71.92.71,1.51,0,.6-.23,1.06-.7,1.4-.47.34-1.08.48-1.84.42Z"/>
  </g>
  <g>
    <path class="cls-3" d="M55.5,16.38c.89.24,1.6.44,2.07.24-.47.2-1.18,0-2.07-.24Z"/>
    <path class="cls-3" d="M43.33,17.08s0,0,0,.01c0,0,0,0,0-.01Z"/>
    <path class="cls-3" d="M43.71,15.37c0,.61-.13,1.19-.37,1.71.08-.17.15-.35.2-.54.11-.37.17-.76.17-1.17,0-.71-.18-1.38-.5-1.97.32.59.5,1.26.5,1.97h0Z"/>
    <path class="cls-3" d="M60.8,27.38c.18-.1.37-.18.58-.25-.21.06-.41.15-.58.25-1.4.81-3.36,4.94-4.16,8.77,0,0,0,0,0,0,.8-3.82,2.75-7.96,4.16-8.77Z"/>
    <path class="cls-3" d="M46.06,14.91c0-1.62.64-3.1,1.68-4.19-1.04,1.09-1.68,2.56-1.68,4.19,0,2.23,1.39,1.93,3.3,1.48-1.91.45-3.3.74-3.3-1.48Z"/>
    <path class="cls-3" d="M42.99,35.24s.01,0,.02-.01c0,0-.01,0-.02.01Z"/>
    <path class="cls-3" d="M55.04,35.36c-1.83-1.45-3.9-2.27-6.1-2.27s-4.11.76-5.89,2.11c1.78-1.35,3.78-2.11,5.89-2.11s4.27.82,6.1,2.27Z"/>
    <path class="cls-3" d="M39.32,34.18c.12-.18.24-.36.37-.54.35-.49.71-.96,1.08-1.41,0,0,0,0,0,0-.37.45-.73.92-1.08,1.41-.13.18-.25.36-.37.54Z"/>
    <path class="cls-4" d="M39.68,33.64c.35-.49.71-.96,1.08-1.41-.14-.1-.28-.21-.42-.31-.63-.47-1.22-.99-1.78-1.54-.89.42-1.82,1.16-2.76,2.17,1.11.65,2.26,1.23,3.45,1.74.02-.03.04-.07.07-.1.12-.18.24-.36.37-.54Z"/>
    <path class="cls-1" d="M60.8,27.38c.18-.1.37-.18.58-.25.72-.22,1.63-.22,2.66,0,.45.1.92.23,1.42.4,1.81-2.75,2.86-6.04,2.86-9.57,0-9.65-7.82-17.47-17.47-17.47-7.26,0-13.49,4.43-16.13,10.74h4.85c1.57,0,2.93.87,3.63,2.16.32.59.5,1.26.5,1.97,0,.41-.06.8-.17,1.17-.06.19-.12.37-.2.54,0,0,0,0,0,0,0,0,0,0,0,.01-.08.17-.17.33-.27.49.04.18.07.36.07.55v.35c0,1.25-.71,3.72-3.93,3.56h-4.06c-.52,0-1-.18-1.38-.47.71,3.41,2.42,6.45,4.8,8.81.56.55,1.15,1.07,1.78,1.54.14.11.28.21.42.31,0,0,0,0,0,0-.37.45-.73.92-1.08,1.41-.13.18-.25.36-.37.54-.02.03-.04.07-.07.1,1.11.47,2.25.88,3.42,1.21.1-.09.21-.17.32-.25,0,0,.01,0,.02-.01.01-.01.03-.02.04-.03,1.78-1.35,3.78-2.11,5.89-2.11s4.27.82,6.1,2.27c.35.28.69.57,1.02.9.2-.03.39-.07.58-.1.8-3.82,2.75-7.96,4.16-8.77ZM57.57,16.62c-.47.2-1.18,0-2.07-.24-.83-.23-1.83-.49-2.95-.49s-2.23.27-3.2.49c-1.91.45-3.3.75-3.3-1.48,0-1.62.64-3.1,1.68-4.19,1.11-1.16,2.67-1.89,4.4-1.89,3.35,0,6.07,2.72,6.07,6.07,0,1.05-.22,1.54-.63,1.72Z"/>
    <path class="cls-5" d="M48.94,33.09c-2.11,0-4.11.76-5.89,2.11-.01.01-.03.02-.04.03,0,0-.01,0-.02.01-.11.08-.21.17-.32.25,2.65.76,5.46,1.17,8.37,1.17,1.71,0,3.39-.14,5.02-.42-.33-.32-.67-.62-1.02-.9-1.83-1.45-3.9-2.27-6.1-2.27Z"/>
    <path class="cls-2" d="M52.13,8.83c-1.73,0-3.29.72-4.4,1.89-1.04,1.09-1.68,2.56-1.68,4.19,0,2.23,1.39,1.93,3.3,1.48.97-.23,2.07-.49,3.2-.49s2.11.26,2.95.49c.89.24,1.6.44,2.07.24.41-.18.63-.67.63-1.72,0-3.35-2.72-6.07-6.07-6.07Z"/>
    <path class="cls-4" d="M64.05,27.14c-1.04-.22-1.94-.23-2.66,0-.21.06-.41.15-.58.25-1.4.81-3.36,4.94-4.16,8.77,5.03-.94,9.61-3.13,13.39-6.22-1.62-1.09-3.17-1.89-4.57-2.38-.49-.17-.97-.31-1.42-.4Z"/>
    <path class="cls-6" d="M39.2,22.04c3.22.16,3.93-2.31,3.93-3.56v-.35c0-.19-.03-.37-.07-.55-.73,1.15-2.02,1.91-3.48,1.91h-6.7v.28c0,.73.34,1.37.88,1.79,0,0,0,0,0,0,.38.3.86.47,1.38.47h4.06Z"/>
    <path class="cls-6" d="M43.06,17.59c.1-.16.19-.32.27-.49,0,0,0,0,0-.01,0,0,0,0,0,0,.24-.52.37-1.1.37-1.71h0c0-.71-.18-1.38-.5-1.97-.7-1.29-2.06-2.16-3.63-2.16h-10c-2.28,0-4.13,1.85-4.13,4.13h0c0,2.28,1.85,4.13,4.13,4.13h10c1.46,0,2.75-.76,3.48-1.91Z"/>
  </g>
</svg>