<?xml version="1.0" encoding="UTF-8"?>
<svg id="Capa_1" data-name="Capa 1" xmlns="http://www.w3.org/2000/svg" viewBox="0 0 50 50">
  <defs>
    <style>
      .cls-1 {
        fill: #f7a810;
      }

      .cls-1, .cls-2, .cls-3, .cls-4, .cls-5, .cls-6 {
        stroke-width: 0px;
      }

      .cls-2 {
        fill: #090a0a;
      }

      .cls-3 {
        fill: #000;
      }

      .cls-4 {
        fill: #161616;
      }

      .cls-5 {
        fill: #e2e2e1;
      }

      .cls-6 {
        fill: #fff;
      }
    </style>
  </defs>
  <g>
    <path class="cls-6" d="M34.45,43.48c5.01-.99,9.73-3.2,13.66-6.43l.5-.4-.53-.36c-1.48-1-2.91-1.76-4.26-2.29,1.77-2.89,2.72-6.2,2.72-9.61,0-10.17-8.27-18.44-18.44-18.44-7.35,0-13.94,4.33-16.88,11.04h-4.99c-2.6,0-4.72,2.12-4.72,4.72s2.12,4.72,4.72,4.72h2.93c.05.73.38,1.4.93,1.89.71,3.27,2.3,6.26,4.6,8.7-.79.47-1.6,1.14-2.42,2.03l-.4.43.51.3c.99.58,2.04,1.11,3.09,1.58v.02s.51.22.51.22c.89.38,1.8.7,2.72.99l-.03.02.87.25c2.83.81,5.77,1.23,8.74,1.23,1.66,0,3.34-.14,4.99-.4h.01s.15-.02.15-.02h0s.32-.05.32-.05l.69-.12h-.01s0-.01,0-.01h0Z"/>
    <path class="cls-6" d="M11.91,38.71c.67-.72,1.35-1.32,2.02-1.79-2.11-2.38-3.59-5.25-4.29-8.34-.46-.45-.78-1.02-.91-1.65h-2.5c-2.88,0-5.22-2.34-5.22-5.22s2.34-5.22,5.22-5.22h4.66c3.08-6.72,9.8-11.04,17.21-11.04,10.44,0,18.94,8.5,18.94,18.94,0,3.28-.86,6.51-2.5,9.37,1.25.54,2.53,1.25,3.82,2.12l1.09.73-1.02.83c-10.72,8.68-25.96,9.38-37.35,2.16l.82-.89ZM19.74,42.4c4.29,1.23,8.79,1.54,13.46.79l.25-.04h0s.89-.17.89-.17c4.92-.98,9.56-3.15,13.42-6.3-1.41-.95-2.8-1.69-4.14-2.22l-.55-.22.31-.51c1.73-2.83,2.65-6.06,2.65-9.35,0-9.89-8.05-17.94-17.94-17.94-7.12,0-13.56,4.22-16.42,10.74l-.13.3h-5.31c-2.33,0-4.22,1.89-4.22,4.22s1.89,4.22,4.22,4.22h3.4l.03.47c.04.6.31,1.15.76,1.55l.12.11.03.16c.69,3.16,2.24,6.09,4.48,8.46l.43.45-.54.32c-.75.45-1.52,1.09-2.29,1.91.91.54,1.9,1.04,3.02,1.54l.55.25h0c.78.34,1.65.65,2.64.97l.88.28Z"/>
  </g>
  <g>
    <path class="cls-3" d="M34.53,23.57c-.47,0-1.01-.14-1.64-.31-.02,0-.04-.01-.06-.02l.17-.94.08.02c.73.2,1.42.39,1.74.25l.38.87h0s0,0-.01,0h0c-.2.08-.41.12-.65.12Z"/>
    <polygon class="cls-3" points="20.78 23.72 19.93 23.28 20.8 23.68 20.78 23.72"/>
    <path class="cls-3" d="M20.8,23.68l-.86-.4h0s0,0,0,0c.23-.49.34-1.02.34-1.56,0-.62-.16-1.24-.45-1.79,0,0,0,0,0,0h0s.84-.45.84-.45c.37.69.57,1.47.57,2.25,0,.46-.07.91-.2,1.34-.06.21-.14.42-.23.62Z"/>
    <path class="cls-3" d="M34.51,43.18l-.93-.19c.28-1.33.72-2.78,1.24-4.14.93-2.42,2.15-4.54,3.26-5.18h0s0,0,0,0c.2-.12.43-.22.69-.3,0,0,0,0,0,0l.28.91c-.19.06-.36.13-.5.21h0s-.02.01-.04.02h0s0,0,0,0h0s0,0,0,0h0c-.13.08-.27.2-.42.36h0s0,0,0,0c0,0,0,0,0,0,0,0,0,0,0,0-1.18,1.25-2.83,4.73-3.58,8.31h0Z"/>
    <path class="cls-3" d="M24.63,23.57c-.47,0-.89-.1-1.23-.37-.47-.37-.7-1.01-.7-1.96,0-1.73.66-3.38,1.85-4.63l.69.66h0s0,0-.01.01c-1.02,1.08-1.58,2.48-1.58,3.96,0,.63.11,1.03.34,1.21.42.33,1.46.09,2.47-.15l.22.93c-.73.17-1.43.34-2.04.34Z"/>
    <path class="cls-3" d="M20.32,42.51l-.45-.55.45.55ZM20.01,42.15l-.3-.37.3.37Z"/>
    <path class="cls-3" d="M32.1,42.64c-3.67-2.91-8.06-2.96-11.75-.16l-.57-.76s.05-.04.07-.05c2.15-1.61,4.49-2.35,6.9-2.19,2.05.13,4.01.92,5.85,2.34.03.02.06.05.09.07l-.59.74Z"/>
    <path class="cls-3" d="M16.63,41.32l-.79-.52c.13-.19.25-.38.39-.57.36-.51.74-1,1.13-1.48h0s0,0,0,0l.73.6s0,0,0,0h0c-.2.25-.4.5-.6.76-.17.22-.33.44-.49.67-.13.18-.25.36-.37.54h0s0,0,0,0Z"/>
    <g>
      <path class="cls-2" d="M16.61,40.51c.36-.5.73-.99,1.11-1.45-.15-.1-.29-.21-.43-.32-.65-.49-1.26-1.02-1.83-1.59-.92.43-1.87,1.19-2.83,2.23,1.14.67,2.32,1.27,3.55,1.79.02-.03.04-.07.07-.1.12-.19.25-.37.38-.55Z"/>
      <path class="cls-3" d="M16.42,41.65l-.43-.05c-1.24-.53-2.45-1.14-3.6-1.81l-.51-.3.4-.43c1.02-1.1,2.02-1.89,2.98-2.34l.3-.14.24.23c.55.55,1.15,1.07,1.78,1.54.15.12.28.22.42.31l.42.29-.32.39c-.37.46-.74.93-1.09,1.43-.13.18-.25.36-.37.54l-.22.33ZM13.39,39.27c.85.47,1.72.91,2.61,1.3.08-.11.15-.23.23-.34h0c.27-.37.54-.74.82-1.09,0,0-.01-.01-.02-.02-.59-.44-1.14-.91-1.65-1.4-.63.35-1.3.86-1.98,1.54Z"/>
    </g>
    <g>
      <path class="cls-4" d="M38.32,34.07c.18-.11.39-.19.6-.25.74-.23,1.67-.22,2.74,0,.46.1.95.24,1.46.42,1.86-2.83,2.94-6.21,2.94-9.84,0-9.92-8.04-17.96-17.96-17.96-7.47,0-13.87,4.56-16.58,11.04h4.99c1.61,0,3.02.9,3.73,2.22.33.6.51,1.29.51,2.02,0,.42-.06.82-.18,1.21-.06.19-.13.38-.21.55,0,0,0,0,0,0,0,0,0,0,0,.01-.08.17-.17.34-.27.5.04.18.07.37.07.56v.36c0,1.28-.73,3.83-4.04,3.66h-4.18c-.54,0-1.03-.18-1.42-.49.73,3.5,2.49,6.63,4.94,9.06.57.57,1.19,1.1,1.83,1.59.14.11.29.22.43.32,0,0,0,0,0,0-.38.46-.75.95-1.11,1.45-.13.18-.25.37-.38.55-.02.03-.04.07-.07.1,1.14.48,2.31.9,3.51,1.25.11-.09.21-.18.32-.26,0,0,.01,0,.02-.01.01-.01.03-.02.04-.03,1.83-1.39,3.89-2.17,6.06-2.17s4.39.84,6.27,2.33c.36.28.71.59,1.05.92.2-.03.4-.07.6-.11.82-3.93,2.83-8.18,4.27-9.01ZM35,23.01c-.48.21-1.21,0-2.13-.25-.86-.23-1.88-.5-3.03-.5s-2.29.27-3.29.51c-1.97.46-3.39.77-3.39-1.52,0-1.67.66-3.18,1.72-4.3,1.14-1.19,2.74-1.94,4.52-1.94,3.45,0,6.24,2.79,6.24,6.24,0,1.08-.23,1.58-.65,1.76Z"/>
      <path class="cls-3" d="M33.29,43.7l-.17-.17c-.32-.31-.66-.61-1.01-.89-3.67-2.91-8.05-2.96-11.75-.16-.15.11-.23.18-.32.25l-.19.16-.29-.03c-1.21-.35-2.41-.77-3.57-1.27l-.52-.22.38-.59c.12-.19.25-.38.38-.56.27-.37.54-.74.81-1.09,0,0-.01-.01-.02-.02-.69-.52-1.32-1.07-1.9-1.64-2.58-2.55-4.33-5.77-5.07-9.3l-.26-1.26,1.02.79c.33.25.72.39,1.13.39h4.18c1.13.05,1.99-.21,2.6-.79.71-.67.96-1.68.96-2.4v-.35c0-.14-.02-.29-.06-.45l-.05-.2.11-.17c.09-.14.17-.29.24-.45.08-.17.14-.34.19-.51.1-.34.16-.7.16-1.07,0-.63-.16-1.25-.46-1.8-.66-1.22-1.93-1.97-3.32-1.97h-5.7l.28-.66c2.88-6.88,9.56-11.33,17.02-11.33,10.17,0,18.44,8.27,18.44,18.44,0,3.6-1.04,7.1-3.02,10.1l-.2.31-.35-.12c-.49-.17-.96-.31-1.4-.4-1-.21-1.84-.22-2.5-.02-.19.06-.36.13-.5.21h0c-1.17.68-3.19,4.62-4.05,8.7l-.06.31-.31.06c-.2.04-.41.07-.61.11l-.24.04ZM26.13,39.46c2.28,0,4.55.84,6.56,2.44.32.25.62.51.91.78.02,0,.03,0,.05,0,.82-3.64,2.75-8.04,4.43-9.01.21-.12.44-.22.7-.3.82-.25,1.82-.25,2.98,0,.37.08.76.18,1.16.31,1.74-2.78,2.66-5.98,2.66-9.27,0-9.64-7.85-17.49-17.49-17.49-6.84,0-12.98,3.94-15.85,10.09h4.26c1.73,0,3.32.95,4.15,2.47.37.69.57,1.47.57,2.25,0,.46-.07.91-.2,1.34-.06.21-.14.42-.23.62-.07.14-.14.28-.21.41.03.16.04.32.04.48v.35c0,.44-.09,1.98-1.26,3.09-.81.77-1.91,1.12-3.28,1.05h-4.15c-.25,0-.49-.03-.72-.09.8,2.97,2.37,5.67,4.58,7.85.55.54,1.15,1.06,1.79,1.54.15.12.28.22.42.31l.42.29-.32.39c-.37.46-.74.93-1.09,1.43-.04.05-.08.11-.12.16.88.36,1.78.67,2.69.94.05-.04.1-.08.14-.11,2.05-1.55,4.18-2.31,6.41-2.31ZM34.53,23.57c-.49,0-1.04-.15-1.7-.33-.84-.23-1.87-.51-2.98-.51s-2.14.25-3.09.48c-1.37.32-2.59.61-3.36,0-.47-.37-.7-1.01-.7-1.96,0-1.73.66-3.38,1.85-4.63,1.28-1.35,3.01-2.09,4.86-2.09,3.7,0,6.72,3.01,6.72,6.72,0,.77-.1,1.84-.94,2.2-.2.09-.42.12-.66.12ZM29.85,21.78c1.24,0,2.35.3,3.15.52.81.22,1.5.41,1.81.27h0c.3-.13.37-.79.37-1.33,0-3.18-2.59-5.77-5.77-5.77-1.59,0-3.07.64-4.18,1.79-1.03,1.08-1.59,2.49-1.59,3.98,0,.63.12,1.03.34,1.21.42.33,1.46.09,2.47-.15,1.09-.26,2.22-.52,3.39-.52Z"/>
    </g>
    <g>
      <path class="cls-5" d="M26.13,39.93c-2.17,0-4.23.78-6.06,2.17-.01.01-.03.02-.04.03,0,0-.01,0-.02.01-.11.08-.22.17-.32.26,2.73.78,5.62,1.21,8.6,1.21,1.76,0,3.48-.15,5.16-.43-.34-.33-.69-.64-1.05-.92-1.88-1.49-4.01-2.33-6.27-2.33Z"/>
      <path class="cls-3" d="M28.29,44.09c-2.97,0-5.91-.41-8.74-1.23l-.87-.25.7-.57c.14-.12.24-.2.34-.27,2.04-1.55,4.18-2.31,6.41-2.31s4.52.82,6.56,2.44c.38.3.75.62,1.09.95l.67.66-.93.15c-1.73.29-3.49.43-5.24.43ZM20.74,42.2c3.77.96,7.74,1.19,11.65.67-.09-.08-.19-.15-.28-.23-3.55-2.81-7.76-2.96-11.37-.44Z"/>
    </g>
    <g>
      <path class="cls-6" d="M29.41,15c-1.78,0-3.38.75-4.52,1.94-1.07,1.12-1.72,2.63-1.72,4.3,0,2.29,1.43,1.99,3.39,1.52.99-.23,2.13-.51,3.29-.51s2.17.27,3.03.5c.92.25,1.65.46,2.13.25.42-.18.65-.69.65-1.76,0-3.45-2.79-6.24-6.24-6.24Z"/>
      <path class="cls-3" d="M34.53,23.57c-.49,0-1.05-.15-1.7-.33-.83-.23-1.86-.51-2.98-.51s-2.14.25-3.09.48c-1.37.32-2.59.61-3.36,0-.47-.37-.7-1.01-.7-1.96,0-1.73.66-3.38,1.85-4.63,1.28-1.35,3.01-2.09,4.86-2.09,3.7,0,6.72,3.01,6.72,6.72,0,.77-.1,1.84-.94,2.2-.2.09-.42.12-.66.12ZM29.85,21.78c1.24,0,2.35.3,3.15.52.81.22,1.5.41,1.81.27.3-.13.37-.79.37-1.33,0-3.18-2.59-5.77-5.77-5.77-1.59,0-3.07.64-4.18,1.79-1.03,1.08-1.59,2.49-1.59,3.98,0,.63.11,1.03.34,1.21.42.33,1.46.09,2.47-.15,1.09-.26,2.22-.52,3.39-.52Z"/>
    </g>
    <g>
      <path class="cls-2" d="M41.66,33.82c-1.07-.23-2-.23-2.74,0-.22.07-.42.15-.6.26-1.44.83-3.45,5.08-4.27,9.01,5.17-.97,9.88-3.22,13.76-6.4-1.67-1.12-3.26-1.94-4.7-2.45-.51-.18-.99-.32-1.45-.42Z"/>
      <path class="cls-3" d="M33.44,43.68l.15-.69c.77-3.69,2.76-8.32,4.5-9.33.21-.12.44-.22.7-.3.82-.25,1.82-.25,2.98,0h0c.48.1.99.25,1.52.43,1.5.53,3.12,1.37,4.8,2.5l.53.36-.5.4c-4.02,3.29-8.85,5.54-13.98,6.49l-.7.13ZM40.16,34.12c-.41,0-.77.05-1.09.15-.19.06-.36.13-.5.21-1.1.64-2.96,4.18-3.89,7.99,4.49-.95,8.73-2.93,12.33-5.75-1.42-.91-2.78-1.59-4.05-2.04-.49-.17-.96-.31-1.4-.4h0c-.51-.11-.98-.16-1.41-.16Z"/>
    </g>
    <g>
      <path class="cls-1" d="M16.11,28.58c3.31.17,4.04-2.38,4.04-3.66v-.36c0-.19-.03-.38-.07-.56-.75,1.18-2.07,1.97-3.58,1.97h-6.89v.29c0,.75.35,1.41.9,1.84,0,0,0,0,0,0,.39.3.88.49,1.42.49h4.18Z"/>
      <path class="cls-3" d="M16.42,29.06c-.1,0-.21,0-.32,0h-4.17c-.62,0-1.22-.2-1.71-.59-.69-.54-1.09-1.34-1.09-2.21v-.76h7.37c1.29,0,2.48-.65,3.18-1.75l.59-.93.27,1.07c.06.23.09.45.09.68v.35c0,.44-.09,1.98-1.26,3.09-.74.7-1.73,1.06-2.95,1.06ZM10.1,26.44c.05.5.3.96.71,1.27.33.25.72.39,1.13.39h4.2c1.1.05,1.97-.21,2.58-.79.61-.58.88-1.41.95-2.09-.86.78-1.97,1.22-3.16,1.22h-6.41Z"/>
    </g>
    <g>
      <path class="cls-1" d="M20.08,24c.1-.16.19-.33.27-.5,0,0,0,0,0-.01,0,0,0,0,0,0,.25-.54.38-1.13.38-1.76h0c0-.73-.19-1.42-.51-2.02-.72-1.32-2.12-2.22-3.73-2.22H6.23c-2.35,0-4.25,1.9-4.25,4.25h0c0,2.35,1.9,4.25,4.25,4.25h10.28c1.51,0,2.83-.79,3.58-1.97Z"/>
      <path class="cls-3" d="M16.5,26.44H6.23c-2.6,0-4.72-2.12-4.72-4.72s2.12-4.72,4.72-4.72h10.28c1.73,0,3.32.95,4.15,2.47.37.69.57,1.47.57,2.25,0,.68-.14,1.34-.43,1.96-.1.21-.2.4-.31.58h0c-.87,1.37-2.36,2.19-3.98,2.19ZM6.23,17.95c-2.08,0-3.77,1.69-3.77,3.77s1.69,3.77,3.77,3.77h10.28c1.29,0,2.48-.65,3.18-1.75.09-.14.17-.29.24-.45.23-.51.35-1.03.35-1.58,0-.63-.16-1.25-.46-1.8-.66-1.22-1.93-1.97-3.32-1.97H6.23Z"/>
    </g>
  </g>
</svg>