<?xml version="1.0" encoding="UTF-8"?>
<svg id="Capa_1" data-name="Capa 1" xmlns="http://www.w3.org/2000/svg" viewBox="0 0 50 50">
  <defs>
    <style>
      .cls-1, .cls-2, .cls-3, .cls-4, .cls-5, .cls-6, .cls-7 {
        stroke-width: 0px;
      }

      .cls-1, .cls-8 {
        fill: #f7a810;
      }

      .cls-2 {
        fill: #090a0a;
      }

      .cls-3 {
        fill: #000;
      }

      .cls-4 {
        fill: #161616;
      }

      .cls-9 {
        stroke: #181b35;
      }

      .cls-9, .cls-10 {
        fill: #28306e;
      }

      .cls-9, .cls-10, .cls-8 {
        stroke-miterlimit: 10;
      }

      .cls-5 {
        fill: #e2e2e1;
      }

      .cls-6 {
        fill: #4e6e2a;
      }

      .cls-10 {
        stroke: #20244b;
      }

      .cls-8 {
        stroke: #825113;
        stroke-width: .25px;
      }

      .cls-7 {
        fill: #fff;
      }
    </style>
  </defs>
  <g>
    <g>
      <path class="cls-6" d="M34.01,44.11c4.97-.98,9.66-3.18,13.57-6.38l.49-.4-.53-.35c-1.48-.99-2.89-1.75-4.24-2.27,1.76-2.88,2.7-6.16,2.7-9.55,0-5.5-2.45-10.43-6.3-13.79l5.68-.46-14.27-5.61-19.94.75-1.69-.23c-.17-.04-.56-.11-.55.1l-.05,5.56c-.38.13-.66.48-.66.9,0,.53.43.97.97.97s.97-.43.97-.97c0-.43-.28-.78-.67-.91v-5.02s.04-.07.07-.06l1.11.15,5.43,4.41c-2.21,1.8-4,4.12-5.2,6.85h-4.95c-2.59,0-4.69,2.1-4.69,4.69s2.1,4.69,4.69,4.69h2.91c.05.73.38,1.39.92,1.88.71,3.25,2.29,6.22,4.57,8.64-.78.46-1.59,1.13-2.4,2.01l-.4.43.51.3c.99.58,2.02,1.1,3.07,1.57v.02s.51.22.51.22c.88.38,1.79.7,2.71.99l-.02.02.86.25c2.81.81,5.73,1.22,8.68,1.22,1.65,0,3.32-.14,4.96-.4h0s.15-.02.15-.02h0s.32-.05.32-.05l.69-.11h-.01s0-.01,0-.01h0Z"/>
      <path class="cls-7" d="M27.89,45.66c-3.04,0-6.04-.42-8.94-1.26l-2.6-.75.11-.09c-.41-.15-.79-.3-1.16-.46l-1.55-.66.03-.05c-.78-.37-1.49-.75-2.17-1.15l-1.52-.89,1.2-1.29c.55-.6,1.11-1.11,1.68-1.54-1.95-2.32-3.33-5.05-4.01-7.99-.39-.41-.67-.89-.84-1.41h-2.14c-3.11,0-5.63-2.53-5.63-5.63s2.53-5.63,5.63-5.63h4.35c1.06-2.21,2.54-4.22,4.33-5.88l-4.2-3.41v3.38c.41.35.67.87.67,1.44,0,1.05-.86,1.91-1.91,1.91s-1.91-.86-1.91-1.91c0-.56.25-1.08.67-1.44l.05-5.04c-.02-.29.12-.6.39-.82.31-.26.75-.32,1.28-.2l1.56.21,20.05-.75,18.25,7.17-7.68.62c3.26,3.54,5.1,8.18,5.1,13.01,0,3.17-.79,6.3-2.3,9.1,1.12.52,2.26,1.17,3.42,1.94l1.58,1.07-1.48,1.21c-3.56,2.91-7.76,5.03-12.24,6.18l.1.1-4.19.75v-.07c-1.32.16-2.65.25-3.97.25ZM19.56,42.61c4.22,1.2,8.68,1.48,13.15.77l.48-.08h0s.65-.13.65-.13c4.62-.92,8.98-2.91,12.66-5.79-1.2-.76-2.38-1.38-3.52-1.83l-1.05-.41.59-.96c1.68-2.73,2.56-5.87,2.56-9.05,0-5-2.18-9.76-5.97-13.08l-1.69-1.47,3.85-.31-10.29-4.04-18.31.69,4.95,4.02-.9.73c-2.12,1.73-3.82,3.98-4.93,6.49l-.25.57h-5.57c-2.07,0-3.75,1.68-3.75,3.75s1.68,3.75,3.75,3.75h3.8l.06.88c.03.48.25.92.61,1.24l.23.2.07.3c.67,3.06,2.17,5.89,4.34,8.19l.81.86-1.01.6c-.58.35-1.18.82-1.78,1.41.75.42,1.56.82,2.46,1.22l.78.35c.7.29,1.47.56,2.33.84l.9.28Z"/>
    </g>
    <g>
      <path class="cls-7" d="M7.86,15.82h2.69c0-1.37-.6-2.48-1.35-2.48s-1.35,1.11-1.35,2.48Z"/>
      <path class="cls-7" d="M11.5,16.77h-4.58v-.94c0-1.95.98-3.42,2.29-3.42s2.29,1.47,2.29,3.42v.94ZM8.94,14.88h.54c-.08-.27-.19-.45-.27-.54-.08.09-.19.28-.27.54Z"/>
    </g>
  </g>
  <g>
    <g>
      <g>
        <path class="cls-3" d="M34.09,24.32c-.47,0-1-.14-1.63-.31-.02,0-.04-.01-.06-.02l.17-.93.08.02c.73.2,1.41.38,1.72.25l.38.87h0s0,0-.01,0h0c-.2.08-.41.12-.64.12Z"/>
        <polygon class="cls-3" points="20.43 24.47 19.59 24.04 20.45 24.43 20.43 24.47"/>
        <path class="cls-3" d="M20.45,24.43l-.86-.39h0s0,0,0,0c.22-.49.34-1.01.34-1.55,0-.62-.15-1.24-.45-1.78,0,0,0,0,0,0h0s.83-.45.83-.45c.37.68.57,1.46.57,2.24,0,.45-.07.9-.19,1.33-.06.21-.14.42-.23.61Z"/>
        <path class="cls-3" d="M34.08,43.81l-.92-.19c.28-1.32.71-2.77,1.23-4.12.93-2.4,2.13-4.51,3.24-5.15h0s0,0,0,0c.2-.12.43-.21.69-.29,0,0,0,0,0,0l.28.9c-.19.06-.35.13-.5.21h0s-.02.01-.04.02h0s0,0,0,0h0s0,0,0,0h0c-.13.08-.27.2-.42.36h0s0,0,0,0c0,0,0,0,0,0,0,0,0,0,0,0-1.18,1.25-2.82,4.7-3.56,8.26h0Z"/>
        <path class="cls-3" d="M24.25,24.32c-.47,0-.89-.1-1.22-.36-.47-.37-.7-1.01-.7-1.94,0-1.72.65-3.35,1.84-4.6l.68.65h0s0,0-.01.01c-1.01,1.07-1.57,2.47-1.57,3.94,0,.62.11,1.03.34,1.2.41.33,1.45.08,2.45-.15l.22.92c-.72.17-1.42.33-2.03.33Z"/>
        <path class="cls-3" d="M19.97,43.14l-.44-.55.44.55ZM19.66,42.78l-.3-.37.3.37Z"/>
        <path class="cls-3" d="M31.68,43.27c-3.65-2.89-8-2.94-11.67-.16l-.57-.75s.05-.04.07-.05c2.13-1.6,4.47-2.33,6.86-2.18,2.04.13,3.99.91,5.81,2.33.03.02.06.05.09.07l-.59.74Z"/>
        <path class="cls-3" d="M16.31,41.96l-.79-.52c.12-.19.25-.38.38-.56.36-.51.74-1,1.12-1.47h0s0,0,0,0l.73.6s0,0,0,0h0c-.2.25-.4.5-.59.75-.16.22-.33.44-.49.66-.12.18-.25.35-.36.53h0s0,0,0,0Z"/>
        <g>
          <path class="cls-2" d="M16.29,41.15c.35-.5.72-.98,1.1-1.44-.15-.1-.29-.21-.43-.32-.64-.48-1.25-1.01-1.82-1.58-.91.43-1.86,1.18-2.82,2.21,1.13.66,2.31,1.26,3.53,1.78.02-.03.04-.07.07-.1.12-.18.25-.37.37-.55Z"/>
          <path class="cls-3" d="M16.1,42.29l-.43-.05c-1.23-.52-2.43-1.13-3.58-1.8l-.51-.3.4-.43c1.01-1.09,2.01-1.87,2.96-2.32l.3-.14.24.23c.55.54,1.14,1.06,1.77,1.53.15.11.28.21.42.31l.41.29-.32.39c-.37.46-.73.93-1.08,1.42-.12.18-.25.35-.36.53l-.22.33ZM13.09,39.92c.84.47,1.71.9,2.59,1.29.08-.11.15-.22.23-.34h0c.26-.37.53-.73.81-1.08,0,0-.01-.01-.02-.02-.58-.44-1.13-.91-1.64-1.39-.63.34-1.29.86-1.97,1.53Z"/>
        </g>
        <g>
          <path class="cls-4" d="M37.86,34.76c.18-.1.38-.19.6-.25.74-.23,1.66-.22,2.72,0,.46.1.94.24,1.45.41,1.84-2.81,2.92-6.17,2.92-9.78,0-9.85-7.99-17.84-17.85-17.84-7.42,0-13.78,4.53-16.47,10.97h4.95c1.6,0,3,.89,3.71,2.21.33.6.51,1.28.51,2.01,0,.42-.06.82-.17,1.2-.06.19-.13.37-.21.55,0,0,0,0,0,0,0,0,0,0,0,.01-.08.17-.17.34-.27.5.04.18.07.37.07.56v.35c0,1.28-.73,3.8-4.01,3.64h-4.15c-.53,0-1.02-.18-1.41-.48.73,3.48,2.47,6.59,4.91,9,.57.56,1.18,1.09,1.82,1.58.14.11.28.22.43.32,0,0,0,0,0,0-.38.46-.75.94-1.1,1.44-.13.18-.25.36-.37.55-.02.03-.04.07-.07.1,1.13.48,2.29.89,3.49,1.24.11-.09.21-.18.32-.26,0,0,.01,0,.02-.01.01-.01.03-.02.04-.03,1.82-1.38,3.86-2.16,6.02-2.16s4.36.84,6.23,2.32c.36.28.71.59,1.04.92.2-.03.4-.07.6-.11.82-3.9,2.81-8.13,4.25-8.95ZM34.56,23.76c-.48.21-1.2,0-2.11-.25-.85-.23-1.87-.5-3.01-.5s-2.28.27-3.26.5c-1.95.46-3.37.76-3.37-1.51,0-1.66.65-3.16,1.71-4.28,1.13-1.19,2.72-1.93,4.49-1.93,3.43,0,6.2,2.78,6.2,6.2,0,1.07-.23,1.57-.65,1.75Z"/>
          <path class="cls-3" d="M32.86,44.32l-.17-.17c-.32-.31-.65-.6-1.01-.88-3.65-2.89-8-2.94-11.67-.16-.15.11-.23.18-.32.25l-.19.16-.29-.03c-1.2-.34-2.39-.77-3.55-1.26l-.52-.22.38-.58c.12-.18.25-.37.38-.56.26-.37.53-.73.81-1.08,0,0-.01-.01-.02-.02-.68-.52-1.31-1.06-1.89-1.63-2.56-2.53-4.3-5.73-5.04-9.24l-.26-1.26,1.01.79c.33.25.71.39,1.12.39h4.15c1.12.05,1.98-.21,2.59-.78.7-.67.96-1.67.96-2.38v-.35c0-.14-.02-.29-.06-.44l-.05-.2.11-.17c.09-.14.17-.29.24-.44.08-.17.14-.33.19-.5.1-.34.15-.7.15-1.06,0-.62-.16-1.24-.45-1.79-.66-1.21-1.92-1.96-3.29-1.96h-5.66l.27-.65c2.86-6.84,9.49-11.26,16.91-11.26,10.1,0,18.32,8.22,18.32,18.32,0,3.58-1.04,7.05-3,10.04l-.2.31-.35-.12c-.49-.17-.95-.31-1.39-.4-.99-.21-1.83-.22-2.49-.02-.19.06-.36.13-.5.21h0c-1.16.67-3.17,4.59-4.02,8.64l-.06.31-.31.06c-.2.04-.4.07-.61.11l-.24.04ZM25.75,40.11c2.27,0,4.52.84,6.52,2.42.31.25.62.51.9.78.02,0,.03,0,.05,0,.81-3.62,2.73-7.99,4.41-8.95.2-.12.44-.22.69-.3.81-.25,1.81-.25,2.96,0,.37.08.75.18,1.15.31,1.73-2.76,2.65-5.94,2.65-9.21,0-9.58-7.79-17.37-17.37-17.37-6.79,0-12.89,3.91-15.75,10.02h4.23c1.72,0,3.3.94,4.12,2.45.37.68.57,1.46.57,2.24,0,.45-.07.9-.19,1.33-.06.21-.14.42-.23.61-.07.14-.14.28-.21.4.03.16.04.32.04.47v.35c0,.44-.09,1.97-1.25,3.07-.8.76-1.9,1.11-3.26,1.04h-4.13c-.25,0-.49-.03-.72-.09.8,2.95,2.35,5.63,4.55,7.8.55.54,1.14,1.06,1.77,1.53.15.11.28.21.42.31l.41.29-.32.39c-.37.45-.73.93-1.08,1.42-.04.05-.08.11-.11.16.88.35,1.77.66,2.67.93.05-.04.1-.08.14-.11,2.03-1.54,4.15-2.3,6.37-2.3ZM34.09,24.32c-.48,0-1.04-.15-1.69-.33-.83-.22-1.86-.5-2.97-.5s-2.13.25-3.07.47c-1.36.32-2.57.6-3.34,0-.47-.37-.7-1.01-.7-1.94,0-1.72.65-3.35,1.84-4.6,1.27-1.34,2.99-2.07,4.83-2.07,3.68,0,6.67,2.99,6.67,6.67,0,.77-.1,1.82-.93,2.19-.2.09-.42.12-.66.12ZM29.44,22.55c1.23,0,2.33.3,3.13.51.81.22,1.49.4,1.8.27h0c.3-.13.36-.79.36-1.32,0-3.16-2.57-5.73-5.73-5.73-1.58,0-3.05.63-4.15,1.78-1.02,1.07-1.58,2.47-1.58,3.95,0,.62.11,1.03.34,1.21.42.33,1.45.08,2.45-.15,1.08-.25,2.2-.52,3.37-.52Z"/>
        </g>
        <g>
          <path class="cls-5" d="M25.75,40.58c-2.16,0-4.2.78-6.02,2.15-.01.01-.03.02-.04.03,0,0-.01,0-.02.01-.11.08-.22.17-.32.26,2.71.78,5.58,1.2,8.55,1.2,1.75,0,3.46-.15,5.13-.43-.34-.33-.69-.63-1.04-.92-1.87-1.48-3.99-2.32-6.23-2.32Z"/>
          <path class="cls-3" d="M27.89,44.71c-2.95,0-5.87-.41-8.68-1.22l-.86-.25.7-.57c.14-.12.24-.2.33-.27,2.03-1.54,4.15-2.3,6.37-2.3s4.49.81,6.52,2.42c.38.3.74.62,1.08.95l.67.65-.92.15c-1.72.29-3.47.43-5.2.43ZM20.39,42.84c3.74.95,7.69,1.18,11.57.66-.09-.08-.19-.15-.28-.23-3.52-2.79-7.71-2.94-11.29-.43Z"/>
        </g>
        <g>
          <path class="cls-7" d="M29.01,15.81c-1.77,0-3.36.74-4.49,1.93-1.06,1.11-1.71,2.62-1.71,4.28,0,2.27,1.42,1.97,3.37,1.51.99-.23,2.11-.5,3.26-.5s2.16.27,3.01.5c.91.25,1.64.45,2.11.25.42-.18.65-.68.65-1.75,0-3.43-2.78-6.2-6.2-6.2Z"/>
          <path class="cls-3" d="M34.09,24.32c-.48,0-1.04-.15-1.69-.33-.83-.22-1.85-.5-2.96-.5s-2.13.25-3.07.47c-1.36.32-2.57.6-3.34,0-.47-.37-.7-1.01-.7-1.94,0-1.72.65-3.35,1.84-4.6,1.27-1.34,2.99-2.07,4.83-2.07,3.68,0,6.67,2.99,6.67,6.67,0,.77-.1,1.82-.93,2.19-.2.09-.42.12-.66.12ZM29.44,22.55c1.23,0,2.33.3,3.13.51.8.22,1.49.4,1.8.27.3-.13.37-.79.37-1.32,0-3.16-2.57-5.73-5.73-5.73-1.58,0-3.05.63-4.15,1.78-1.02,1.07-1.58,2.47-1.58,3.95,0,.62.11,1.03.34,1.2.41.33,1.45.08,2.45-.15,1.08-.25,2.2-.52,3.37-.52Z"/>
        </g>
        <g>
          <path class="cls-2" d="M41.18,34.51c-1.06-.22-1.98-.23-2.72,0-.21.07-.41.15-.6.25-1.43.83-3.43,5.05-4.25,8.95,5.14-.96,9.81-3.2,13.67-6.35-1.65-1.11-3.24-1.93-4.66-2.43-.5-.18-.99-.32-1.45-.41Z"/>
          <path class="cls-3" d="M33.01,44.3l.14-.69c.77-3.67,2.75-8.27,4.47-9.26.21-.12.44-.22.69-.3.81-.25,1.81-.25,2.96,0h0c.48.1.98.25,1.51.43,1.49.53,3.1,1.37,4.77,2.49l.53.35-.49.4c-3.99,3.27-8.8,5.5-13.89,6.45l-.69.13ZM39.68,34.81c-.4,0-.77.05-1.09.15-.19.06-.35.13-.5.21-1.1.63-2.94,4.15-3.86,7.94,4.46-.95,8.67-2.91,12.25-5.71-1.41-.9-2.76-1.58-4.02-2.03-.48-.17-.95-.3-1.39-.4h0c-.51-.11-.98-.16-1.4-.16Z"/>
        </g>
        <g>
          <path class="cls-1" d="M15.8,29.3c3.29.17,4.01-2.36,4.01-3.64v-.35c0-.19-.03-.38-.07-.56-.75,1.17-2.06,1.96-3.56,1.96h-6.85v.29c0,.74.35,1.4.9,1.82,0,0,0,0,0,0,.39.3.88.48,1.41.48h4.15Z"/>
          <path class="cls-3" d="M16.1,29.78c-.1,0-.21,0-.32,0h-4.14c-.62,0-1.21-.2-1.7-.58-.69-.53-1.08-1.33-1.08-2.2v-.76h7.32c1.28,0,2.46-.65,3.16-1.74l.59-.92.27,1.06c.06.23.09.45.09.67v.35c0,.44-.09,1.97-1.25,3.07-.74.7-1.72,1.05-2.93,1.05ZM9.82,27.18c.05.5.3.95.71,1.26.33.25.71.39,1.12.39h4.17c1.09.05,1.96-.21,2.56-.78.61-.58.88-1.4.94-2.07-.85.77-1.96,1.21-3.14,1.21h-6.36Z"/>
        </g>
        <g>
          <path class="cls-1" d="M19.74,24.75c.1-.16.19-.33.27-.5,0,0,0,0,0-.01,0,0,0,0,0,0,.24-.53.38-1.12.38-1.75h0c0-.73-.18-1.41-.51-2.01-.71-1.32-2.11-2.21-3.71-2.21H5.97c-2.33,0-4.22,1.89-4.22,4.22h0c0,2.33,1.89,4.22,4.22,4.22h10.21c1.5,0,2.81-.78,3.56-1.96Z"/>
          <path class="cls-3" d="M16.18,27.18H5.97c-2.59,0-4.69-2.1-4.69-4.69s2.1-4.69,4.69-4.69h10.21c1.72,0,3.3.94,4.12,2.45.37.68.57,1.46.57,2.24,0,.68-.14,1.33-.42,1.95-.1.21-.2.4-.31.57h0c-.87,1.36-2.35,2.17-3.95,2.17ZM5.97,18.74c-2.07,0-3.75,1.68-3.75,3.75s1.68,3.75,3.75,3.75h10.21c1.28,0,2.46-.65,3.16-1.74.09-.14.17-.29.24-.44.23-.51.35-1.03.35-1.57,0-.62-.16-1.24-.45-1.79-.66-1.21-1.92-1.96-3.29-1.96H5.97Z"/>
        </g>
      </g>
      <path class="cls-10" d="M41.05,13.3c1.11,1.37-7.16.04-13.62.04s-13.67.63-12.53-.63c1.78-1.97,6.34-5.41,12.8-5.41s11.35,3.55,13.35,6Z"/>
      <polygon class="cls-9" points="18.7 13.04 10.13 6.08 31.14 5.29 45.4 10.9 18.7 13.04"/>
      <path class="cls-8" d="M26.89,7.98c-.36-.03-.7-.02-.99.04,0,0-.01,0-.02,0l-16.37-2.2c-.17-.04-.56-.11-.55.1l-.06,6.47h.62v-5.92s.03-.07.07-.07l15.53,2.09s-.02.03-.02.05c-.04.39.7.79,1.65.87s1.75-.16,1.79-.55c.04-.39-.7-.79-1.65-.87Z"/>
      <circle class="cls-8" cx="9.21" cy="12.38" r=".97"/>
      <path class="cls-8" d="M10.55,15.82c0-1.37-.6-2.48-1.35-2.48s-1.35,1.11-1.35,2.48h2.69Z"/>
    </g>
    <g>
      <ellipse class="cls-9" cx="26.24" cy="39.08" rx="2.38" ry="1.69"/>
      <path class="cls-9" d="M35.03,41.69c-3.54,0-6.42-1.17-6.42-2.61s2.87-2.61,6.42-2.61v5.21Z"/>
      <path class="cls-9" d="M17.32,41.69c3.54,0,6.42-1.17,6.42-2.61s-2.87-2.61-6.42-2.61v5.21Z"/>
    </g>
  </g>
</svg>