<?xml version="1.0" encoding="UTF-8"?>
<svg id="Penguin" xmlns="http://www.w3.org/2000/svg" viewBox="0 0 261.81 362.33">
  <defs>
    <style>
      .cls-1 {
        fill: #161616;
      }

      .cls-1, .cls-2, .cls-3, .cls-4, .cls-5 {
        stroke: #000;
        stroke-miterlimit: 10;
      }

      .cls-2 {
        fill: #fff;
      }

      .cls-3 {
        fill: #090a0a;
      }

      .cls-4 {
        fill: #e2e2e1;
      }

      .cls-5 {
        fill: #f7a810;
      }
    </style>
  </defs>
  <g id="Body">
    <ellipse class="cls-3" cx="40.99" cy="211.33" rx="89.93" ry="31.6" transform="translate(-173.49 192.97) rotate(-74.13)"/>
    <path class="cls-1" d="M214.74,229.67c0-35.09-10.12-66.86-26.49-89.86-6.37-8.94-13.68-16.55-21.7-22.52,8.9-12.15,14.17-27.13,14.17-43.35C180.71,33.38,147.83.5,107.27.5S33.83,33.38,33.83,73.94c0,24.75,12.26,46.63,31.02,59.93-1.56,1.91-3.07,3.89-4.53,5.94-16.37,23-19.2,55.07-19.2,90.17s-2.48,86.42,13.89,109.42c16.37,23,44.29,17.36,69.27,17.36s62.28.78,78.65-22.22c16.37-23,11.81-69.77,11.81-104.86Z"/>
    <path class="cls-4" d="M155.71,225.09c0,24.2-6.32,46.1-16.54,61.96-10.22,15.86-24.34,25.67-39.94,25.67s-29.72-9.81-39.94-25.67c-10.22-15.86-16.54-37.76-16.54-61.96s6.32-46.1,16.54-61.96c10.22-15.86,24.34-25.67,39.94-25.67s29.72,9.81,39.94,25.67c10.22,15.86,16.54,37.76,16.54,61.96Z"/>
    <path class="cls-2" d="M138.17,61.05c0-14.09-11.43-25.52-25.52-25.52s-25.52,11.43-25.52,25.52,13.21,4.15,27.3,4.15,23.74,9.94,23.74-4.15Z"/>
    <path class="cls-3" d="M154.32,219.25c13.99,24.24,36.25,40.27,54.15,53.99,17.91,13.72,38.48,16.2,46.2,11.74s7.29-15.8,5.66-36.14c-1.63-20.34-8.69-45.63-22.68-69.87-13.99-24.24-32.28-42.84-48.99-54.26-16.71-11.42-31.86-15.67-39.58-11.22-7.72,4.46-19.42,32.84-18.99,50.89s10.23,30.62,24.22,54.86Z"/>
  </g>
  <g id="Feet">
    <path class="cls-5" d="M183.09,325.13c-.63,5.51-2.14,10.66-4.34,15.24s-5.06,8.61-8.42,11.89c-3.35,3.27-7.19,5.79-11.31,7.37s-8.52,2.2-13,1.69c-4.49-.51-8.63-2.12-12.28-4.59s-6.82-5.79-9.34-9.74c-2.52-3.95-4.41-8.52-5.51-13.48-1.1-4.96-1.4-10.32-.77-15.83s2.14-10.66,4.34-15.24,9.16,6.97,12.51,3.7c3.35-3.27,1.76-9.2,5.88-10.77s7.39,7.11,11.87,7.62,9.76-7.19,13.42-4.72c3.65,2.47,1.75,9.02,4.27,12.97s10.82-6.89,11.91-1.93c1.1,4.96,1.4,10.32.77,15.83Z"/>
    <path class="cls-5" d="M84.93,313.98c1.37,5.37,1.79,10.72,1.38,15.79-.41,5.07-1.66,9.85-3.63,14.11-1.97,4.25-4.65,7.98-7.94,10.91-3.29,2.94-7.18,5.09-11.55,6.21-4.37,1.12-8.82,1.09-13.11.09-4.29-1-8.43-2.98-12.2-5.77-3.77-2.79-7.16-6.39-9.95-10.64-2.79-4.25-4.99-9.14-6.36-14.52s-1.79-10.72-1.38-15.79,11.04,3.25,13.01-1c1.97-4.25-1.63-9.22,1.66-12.16,3.29-2.94,9.43,4.01,13.81,2.89,4.37-1.12,6.56-10.19,10.85-9.19,4.29,1,4.85,7.81,8.61,10.6,3.77,2.79,7.65-10.29,10.44-6.05,2.79,4.25,4.99,9.14,6.36,14.52Z"/>
  </g>
  <g id="Mouth">
    <path class="cls-5" d="M58.28,91.04h-17.08c-5.25,0-9.5-4.25-9.5-9.5v-1.45c0-5.25,4.24-7.35,10.13-9.07l23.47-5.9c5.25,0,9.5,4.25,9.5,9.5v1.45c0,5.25-2.99,15.66-16.52,14.98Z"/>
    <rect class="cls-5" x=".5" y="45.64" width="76.74" height="34.72" rx="17.36" ry="17.36"/>
  </g>
</svg>