<?xml version="1.0" encoding="UTF-8"?>
<svg id="Capa_1" data-name="Capa 1" xmlns="http://www.w3.org/2000/svg" viewBox="0 0 319.82 324.67">
  <defs>
    <style>
      .cls-1 {
        fill: #f7a810;
      }

      .cls-1, .cls-2, .cls-3, .cls-4, .cls-5, .cls-6, .cls-7, .cls-8, .cls-9, .cls-10 {
        stroke-width: 0px;
      }

      .cls-2 {
        fill: #090a0a;
      }

      .cls-3 {
        fill: #282828;
      }

      .cls-4 {
        fill: #000;
      }

      .cls-5 {
        fill: #3560ab;
      }

      .cls-6 {
        fill: #fab950;
      }

      .cls-7 {
        fill: #161616;
      }

      .cls-8 {
        fill: #e2e2e1;
      }

      .cls-9 {
        fill: #4175ba;
      }

      .cls-10 {
        fill: #fff;
      }
    </style>
  </defs>
  <g>
    <g>
      <path class="cls-9" d="M316.15,227.29c-1.5-18.1-4.6-40.93-14.18-58.26-6.53-11.8-10.38-14.24-16.47-18.31,6.76-8.28,10.75-18.48,10.75-29.53,0-27.63-24.96-50.03-55.74-50.03-16.6,0-31.5,6.52-41.71,16.86l-15.44-7.92c-6.48-3.32-14.42-.77-17.74,5.71-3.32,6.48-.77,14.42,5.71,17.74l11.89,6.1c-1.15.79-1.93,1.91-2.24,3.55l-.2,1.08c-.61,3.29,1.12,6.46,4.01,7.83.23,11.29,4.61,21.66,11.85,29.94-4.54.9-7.75,2.6-8.9,4.48-.71,1.17-.83,2.51-.45,4.07-23.42-22.89-48.64-34.76-56.84-26.56s4.16,34.47,27.98,58.29c10.84,10.84,22.14,19.33,32.04,24.58-.12,3.47-.17,7-.17,10.58,0,23.91-1.88,58.87,10.54,74.54,1.03,1.29,2.12,2.44,3.26,3.49-14.76,1.19-28.46,7.07-28.46,12.68,0,6.28,15.26,4.93,31.87,4.93s20.52-2.07,20.52-8.35c0-.23,0-.46-.01-.68,4.74.29,9.65.17,14.55.01-1.45,1.33-2.27,2.72-2.27,4.09,0,6.28,15.26,4.93,31.87,4.93s20.52-2.07,20.52-8.35c0-3.85-.77-6.55-5.2-8.06,7.64-3.51,14.51-8.41,19.67-14.92,12.42-15.67,10.93-40.85,8.96-64.52Z"/>
      <path class="cls-10" d="M257.96,324.76c-8.5,0-14.99-.46-17.72-3.15-.94-.93-1.42-2.08-1.42-3.4,0-.84.21-1.67.62-2.5-3.35.08-6.66.11-9.92-.03-.48,7.64-7.32,8.96-22,8.96-2.57,0-5.1.03-7.55.06-11.73.15-21,.27-24.4-3.1-.94-.93-1.42-2.08-1.42-3.4,0-6.74,13.32-12.17,26.69-13.85-.4-.45-.79-.91-1.17-1.38-11.36-14.32-11.11-43.56-10.91-67.06.02-2.92.05-5.74.05-8.42,0-3.49.05-6.68.14-9.7-10.16-5.54-21.34-14.17-31.57-24.4-24.78-24.78-37.07-51.32-27.98-60.41,8.65-8.66,32.61,1.71,56.45,24.15.15-.48.35-.94.62-1.38,1.16-1.92,3.83-3.54,7.48-4.59-6.58-8.25-10.23-17.92-10.62-28.14-3.04-1.86-4.68-5.44-4.01-9.01l.2-1.08c.2-1.1.6-2.06,1.19-2.88l-10.05-5.16c-7.2-3.69-10.05-12.56-6.36-19.76,3.69-7.2,12.56-10.06,19.76-6.36l14.47,7.42c10.82-10.52,26.06-16.53,41.99-16.53,31.56,0,57.24,23.12,57.24,51.53,0,10.52-3.48,20.58-10.07,29.19,5.49,3.69,9.4,6.71,15.6,17.92,9.99,18.06,12.98,42.24,14.36,58.86h0c1.71,20.58,4.05,48.77-9.28,65.58-4.45,5.61-10.31,10.31-17.45,14,2.67,1.88,3.3,4.63,3.3,8.05,0,8.43-6.79,9.85-22.02,9.85-2.57,0-5.1.03-7.55.06-2.33.03-4.57.06-6.68.06ZM246.58,312.49l-2.98,2.73c-.81.75-1.78,1.87-1.78,2.98,0,.51.16.9.53,1.27,2.51,2.48,12.1,2.36,22.25,2.23,2.46-.03,5.01-.06,7.59-.06,17.74,0,19.02-2.59,19.02-6.85,0-3.53-.62-5.43-4.18-6.64l-3.56-1.21,3.42-1.57c7.98-3.67,14.41-8.54,19.12-14.49,12.59-15.88,10.31-43.38,8.64-63.47h0c-1.36-16.34-4.29-40.1-14-57.65-6.24-11.28-9.79-13.65-15.68-17.58l-1.68-1.12,1.04-1.28c6.81-8.35,10.42-18.23,10.42-28.58,0-26.76-24.33-48.53-54.24-48.53-15.52,0-30.34,5.98-40.64,16.41l-.77.78-16.42-8.42c-5.73-2.94-12.78-.67-15.72,5.06-2.94,5.73-.67,12.78,5.06,15.72l14.12,7.25-2.07,1.42c-.89.61-1.4,1.43-1.61,2.59l-.2,1.08c-.47,2.54.84,5.09,3.18,6.2l.84.4.02.93c.21,10.62,4.18,20.65,11.48,28.98l1.71,1.95-2.54.51c-4.7.94-7.17,2.57-7.91,3.79-.48.8-.57,1.73-.28,2.93l1.24,5.09-3.75-3.66c-22.67-22.16-47.23-34.08-54.73-26.57-6.81,6.81,2.81,31,27.98,56.17,10.3,10.3,21.55,18.94,31.68,24.32l.83.44-.03.94c-.12,3.26-.17,6.71-.17,10.52,0,2.69-.02,5.52-.05,8.44-.19,23.02-.43,51.68,10.27,65.17.93,1.18,1.95,2.26,3.09,3.31l2.55,2.33-3.44.28c-15,1.21-27.08,7.11-27.08,11.19,0,.51.16.9.53,1.27,2.51,2.48,12.1,2.36,22.25,2.23,2.46-.03,5.01-.06,7.59-.06,8.24,0,13.14-.52,15.9-1.7,2.28-.97,3.12-2.37,3.12-5.15,0-.22,0-.43,0-.64l-.05-1.64,1.64.1c4.68.28,9.49.17,14.42,0l4.04-.13Z"/>
    </g>
    <g>
      <path class="cls-9" d="M145.2,79.64c0-5.43-3.78-9.97-8.85-11.16l18.52-11.87-11.07-17.28c4.58-1.5,7.89-5.81,7.89-10.89,0-6.33-5.13-11.47-11.47-11.47-3.32,0-6.3,1.42-8.39,3.67l-11.08-17.29-17.05,10.92c-.33-6.04-5.31-10.84-11.43-10.84s-11.47,5.13-11.47,11.47c0,4.4,2.48,8.21,6.11,10.13l-17.04,10.92,11.23,17.53c2.08-2.86,5.45-4.73,9.26-4.73,6.33,0,11.47,5.13,11.47,11.47,0,5.56-3.97,10.17-9.22,11.22l11.39,17.77,18.51-11.86c-.15.74-.23,1.5-.23,2.28,0,6.33,5.13,11.47,11.47,11.47s11.47-5.13,11.47-11.47Z"/>
      <path class="cls-10" d="M133.74,92.61c-6.95,0-12.64-5.5-12.95-12.37l-17.25,11.05-13.38-20.88,2.16-.43c4.64-.92,8.01-5.02,8.01-9.75,0-5.5-4.47-9.97-9.97-9.97-3.16,0-6.17,1.54-8.05,4.11l-1.29,1.77-13.22-20.64,16.36-10.48c-3.04-2.43-4.86-6.13-4.86-10.11,0-7.15,5.82-12.97,12.97-12.97,6.04,0,11.16,4.16,12.57,9.83L121.2,1.29l10.92,17.04c2.29-1.83,5.15-2.85,8.09-2.85,7.15,0,12.97,5.82,12.97,12.97,0,4.97-2.81,9.42-7.16,11.59l10.92,17.04-17.25,11.05c4.24,2.18,7.01,6.56,7.01,11.52,0,7.15-5.82,12.97-12.97,12.97ZM124.67,74.19l-.7,3.47c-.13.66-.2,1.32-.2,1.99,0,5.5,4.47,9.97,9.97,9.97s9.97-4.47,9.97-9.97c0-4.65-3.16-8.64-7.7-9.69l-3.46-.81,20.25-12.98-11.31-17.65,1.84-.6c4.1-1.35,6.86-5.15,6.86-9.46,0-5.5-4.47-9.97-9.97-9.97-2.79,0-5.38,1.13-7.29,3.19l-1.32,1.42-11.31-17.66-17.96,11.5-.14-2.57c-.29-5.28-4.65-9.42-9.94-9.42s-9.97,4.47-9.97,9.97c0,3.7,2.03,7.07,5.31,8.81l2.27,1.2-17.94,11.49,9.34,14.58c2.41-2.37,5.67-3.73,9.08-3.73,7.15,0,12.97,5.82,12.97,12.97,0,5.43-3.42,10.22-8.37,12.1l9.49,14.82,20.23-12.96Z"/>
    </g>
    <g>
      <path class="cls-9" d="M85.58,69.19c0-6.33-5.13-11.47-11.47-11.47-3.95,0-7.44,2-9.5,5.04l-11.38-17.76-16.62,10.65c-.85-5.49-5.59-9.7-11.32-9.7-6.33,0-11.47,5.13-11.47,11.47,0,3.98,2.03,7.49,5.12,9.55l-16.61,10.64,12.02,18.76c-.18,0-.35-.03-.53-.03-6.33,0-11.47,5.13-11.47,11.47s5.13,11.47,11.47,11.47c4.81,0,8.92-2.96,10.62-7.16l12.01,18.75,15.84-10.15c-1.54-1.95-2.47-4.41-2.47-7.09,0-6.33,5.13-11.47,11.47-11.47,4.45,0,8.3,2.54,10.2,6.25l15.84-10.15-11.39-17.77c5.45-.89,9.61-5.6,9.61-11.3Z"/>
      <path class="cls-10" d="M36.02,132.94l-11.44-17.86c-2.38,3.53-6.36,5.7-10.74,5.7-7.15,0-12.97-5.82-12.97-12.97,0-6.43,4.7-11.78,10.85-12.79L.28,77.16l16.11-10.32c-2.57-2.43-4.05-5.81-4.05-9.41,0-7.15,5.82-12.97,12.97-12.97,5.67,0,10.53,3.59,12.27,8.8l16.11-10.32,11.07,17.28c2.42-2.53,5.79-3.99,9.36-3.99,7.15,0,12.97,5.82,12.97,12.97,0,5.63-3.56,10.48-8.72,12.25l11.07,17.28-18.5,11.85-.75-1.47c-1.72-3.35-5.12-5.44-8.87-5.44-5.5,0-9.97,4.47-9.97,9.97,0,2.25.74,4.38,2.14,6.16l1.02,1.3-18.5,11.85ZM24.16,108.87l12.77,19.93,13.27-8.5c-1.21-2.01-1.85-4.28-1.85-6.66,0-7.15,5.82-12.97,12.97-12.97,4.33,0,8.3,2.13,10.7,5.65l13.27-8.5-11.81-18.43,2.25-.37c4.84-.79,8.35-4.92,8.35-9.82,0-5.5-4.47-9.97-9.97-9.97-3.31,0-6.4,1.64-8.26,4.39l-1.28,1.88-11.8-18.41-17.29,11.08-.35-2.27c-.76-4.88-4.89-8.43-9.83-8.43-5.5,0-9.97,4.47-9.97,9.97,0,3.34,1.66,6.44,4.45,8.3l1.91,1.27-17.28,11.07,12.77,19.93-3.12-.14c-.08,0-.15-.01-.23-.01-5.5,0-9.97,4.47-9.97,9.97s4.47,9.97,9.97,9.97c4.07,0,7.7-2.44,9.23-6.22l1.09-2.69Z"/>
    </g>
  </g>
  <g>
    <g>
      <g>
        <ellipse class="cls-2" cx="173.6" cy="177.18" rx="21.43" ry="61" transform="translate(-74.44 174.65) rotate(-45)"/>
        <path class="cls-4" d="M209.27,223.42c-4.31,0-9.78-1.53-16.11-4.57-11.06-5.31-23.52-14.6-35.08-26.16-23.98-23.98-36.53-50.45-27.98-59s35.02,4,59,27.98c11.56,11.56,20.85,24.02,26.16,35.08,5.38,11.22,6.03,19.71,1.82,23.92-1.83,1.83-4.48,2.75-7.82,2.75ZM137.98,131.91c-3.03,0-5.47.8-7.16,2.49-8.16,8.16,4.39,33.99,27.98,57.58h0c11.48,11.48,23.84,20.7,34.8,25.97,10.8,5.18,18.89,5.9,22.78,2.01s3.17-11.98-2.01-22.78c-5.26-10.96-14.48-23.32-25.96-34.8-18.71-18.71-38.82-30.47-50.42-30.47Z"/>
      </g>
      <g>
        <path class="cls-7" d="M316.15,227.29c-1.5-18.1-4.6-40.93-14.18-58.26-6.53-11.8-10.38-14.24-16.47-18.31,6.76-8.28,10.75-18.48,10.75-29.53,0-27.63-24.96-50.03-55.74-50.03s-55.74,22.4-55.74,50.03c0,16.86,9.3,31.76,23.55,40.83-1.18,1.3-2.33,2.65-3.44,4.04-12.42,15.67-14.57,37.52-14.57,61.43s-1.88,58.87,10.54,74.54c12.42,15.67,33.62,11.83,52.58,11.83s41.34-6.39,53.77-22.05c12.42-15.67,10.93-40.85,8.96-64.52Z"/>
        <path class="cls-4" d="M234.42,314.78c-13,0-25.49-1.75-33.96-12.43-11.14-14.05-10.89-43.09-10.7-66.43.02-2.92.05-5.74.05-8.42,0-22.45,1.78-45.47,14.68-61.74.97-1.23,2-2.45,3.06-3.63-14.59-9.5-23.28-24.76-23.28-40.93,0-27.86,25.23-50.53,56.24-50.53s56.24,22.67,56.24,50.53c0,10.64-3.64,20.8-10.52,29.42,5.85,3.9,9.76,6.57,16.18,18.18,9.9,17.89,12.87,41.93,14.24,58.46h0c1.7,20.41,4.02,48.37-9.07,64.87-13,16.4-36.5,22.24-54.16,22.24-3.1,0-6.32.1-9.44.21-3.19.1-6.4.21-9.57.21ZM240.51,71.67c-30.46,0-55.24,22.22-55.24,49.53,0,16.01,8.71,31.12,23.31,40.41l.5.32-.4.44c-1.19,1.3-2.33,2.66-3.42,4.02-12.71,16.03-14.46,38.85-14.46,61.12,0,2.69-.02,5.51-.05,8.43-.2,23.18-.44,52.03,10.48,65.8,10.23,12.9,26.75,12.37,42.72,11.84,3.12-.1,6.35-.21,9.47-.21,17.42,0,40.59-5.74,53.37-21.86,12.84-16.19,10.54-43.92,8.85-64.17-1.37-16.43-4.32-40.33-14.12-58.05-6.36-11.49-10.19-14.05-16-17.93l-.77-.51.35-.43c6.96-8.53,10.64-18.63,10.64-29.21,0-27.31-24.78-49.53-55.24-49.53Z"/>
      </g>
      <g>
        <path class="cls-8" d="M277.28,235.84c0,16.77-4.8,31.94-12.56,42.93-7.76,10.99-18.48,17.78-30.31,17.78s-22.56-6.8-30.31-17.78c-7.76-10.99-12.56-26.17-12.56-42.93s4.8-31.94,12.56-42.93c7.76-10.99,18.48-17.78,30.31-17.78s22.56,6.8,30.31,17.78c7.76,10.99,12.56,26.17,12.56,42.93Z"/>
        <path class="cls-4" d="M234.41,297.06c-11.62,0-22.53-6.39-30.72-17.99-8.16-11.55-12.65-26.9-12.65-43.22s4.49-31.67,12.65-43.22c8.19-11.6,19.1-17.99,30.72-17.99s22.53,6.39,30.72,17.99c8.16,11.55,12.65,26.9,12.65,43.22s-4.49,31.67-12.65,43.22c-8.19,11.6-19.1,17.99-30.72,17.99ZM234.41,175.63c-11.28,0-21.9,6.24-29.91,17.57-8.04,11.38-12.46,26.53-12.46,42.64s4.43,31.26,12.46,42.64c8,11.33,18.62,17.57,29.91,17.57s21.9-6.24,29.91-17.57c8.04-11.38,12.46-26.53,12.46-42.64s-4.43-31.26-12.46-42.64c-8-11.33-18.62-17.57-29.91-17.57Z"/>
      </g>
      <g>
        <path class="cls-10" d="M250.29,118.3c5.32-7.34,3.68-17.61-3.66-22.93s-17.61-3.68-22.93,3.66,5.31,7.15,12.66,12.47c7.34,5.32,8.62,14.14,13.94,6.8Z"/>
        <path class="cls-4" d="M246.64,121.6c-1.73,0-3.11-1.72-4.86-3.88-1.45-1.8-3.26-4.03-5.72-5.81-2.35-1.7-5.08-2.84-7.48-3.85-3.41-1.42-6.1-2.55-6.7-4.71-.36-1.29.1-2.8,1.41-4.61,2.65-3.66,6.57-6.07,11.03-6.78,4.46-.71,8.93.35,12.59,3.01,7.56,5.47,9.25,16.07,3.78,23.63-1.46,2.02-2.73,2.97-3.99,3.01-.02,0-.05,0-.07,0ZM237.03,92.75c-.85,0-1.7.07-2.55.2-4.2.67-7.88,2.94-10.38,6.38-1.12,1.55-1.53,2.78-1.26,3.75.48,1.7,3.1,2.79,6.13,4.06,2.45,1.03,5.23,2.19,7.68,3.96,2.57,1.86,4.42,4.15,5.91,5.99,1.6,1.98,2.88,3.54,4.13,3.51.91-.02,1.96-.87,3.2-2.59h0c2.5-3.44,3.5-7.65,2.83-11.85-.67-4.2-2.94-7.89-6.38-10.38-2.75-1.99-5.98-3.03-9.3-3.03Z"/>
      </g>
      <g>
        <path class="cls-2" d="M260.04,168.23c-15.16-9.2-31.68-12.53-45.25-15.61-13.57-3.09-24.68.04-27.04,3.92-2.36,3.88,1.68,9.48,9.35,19.36,7.67,9.87,19.72,21.08,34.88,30.28,15.16,9.2,30.56,14.66,42.76,16.84,12.2,2.19,21.2,1.1,23.55-2.78s-1.36-20.63-7.66-29.6c-6.3-8.97-15.43-13.21-30.59-22.41Z"/>
        <path class="cls-4" d="M285.93,224.62c-3.31,0-7.12-.36-11.28-1.11-13.79-2.47-29.04-8.48-42.93-16.91-13.91-8.44-26.34-19.24-35.01-30.4-7.7-9.91-11.93-15.72-9.38-19.92,2.68-4.42,14.41-7.15,27.58-4.15l2.67.6c13.35,3.01,28.48,6.42,42.73,15.07h0c2.73,1.66,5.26,3.15,7.62,4.54,10.78,6.36,17.89,10.56,23.12,18.01,6.46,9.2,10.15,26.08,7.68,30.15-1.64,2.7-6.26,4.12-12.79,4.12ZM203.98,151.86c-8.33,0-14.27,2.43-15.8,4.94-2.21,3.64,1.89,9.23,9.32,18.79,8.6,11.07,20.93,21.78,34.74,30.16,13.79,8.37,28.92,14.33,42.59,16.78,11.78,2.11,20.82,1.11,23.04-2.55,2.28-3.76-1.49-20.29-7.65-29.05-5.1-7.27-12.15-11.43-22.81-17.72-2.36-1.39-4.9-2.89-7.63-4.55h0c-14.11-8.56-29.16-11.96-42.43-14.95l-2.67-.6c-3.85-.88-7.46-1.24-10.7-1.24Z"/>
      </g>
      <g>
        <g>
          <path class="cls-1" d="M199.31,125.05l-12.74-2.36c-3.92-.73-6.5-4.49-5.78-8.4l.2-1.08c.73-3.92,4.18-4.9,8.81-5.37l18.33-1.16c3.92.73,6.5,4.49,5.78,8.4l-.2,1.08c-.73,3.92-4.39,11.27-14.4,8.89Z"/>
          <path class="cls-4" d="M203.02,126.02c-1.2,0-2.47-.16-3.81-.48l-12.73-2.36c-4.18-.77-6.95-4.81-6.18-8.99l.2-1.08c.84-4.55,5.22-5.37,9.25-5.78l18.41-1.17h.06c4.18.79,6.95,4.82,6.18,9l-.2,1.08c-.23,1.26-1.29,5.56-5.15,8.07-1.74,1.13-3.76,1.7-6.03,1.7ZM208.1,107.18l-18.27,1.16c-4.67.47-7.71,1.47-8.35,4.96l-.2,1.08c-.67,3.64,1.74,7.15,5.38,7.82l12.77,2.37c3.6.86,6.66.49,9.08-1.09,2.8-1.82,4.27-5.02,4.71-7.41l.2-1.08c.67-3.62-1.71-7.11-5.32-7.81Z"/>
        </g>
        <g>
          <rect class="cls-1" x="162.42" y="85.93" width="58.24" height="26.35" rx="13.18" ry="13.18" transform="translate(66.36 -76.5) rotate(27.16)"/>
          <path class="cls-4" d="M205.7,120.07c-2.1,0-4.23-.48-6.22-1.51l-28.37-14.56c-6.71-3.44-9.37-11.7-5.93-18.41,3.44-6.71,11.7-9.37,18.41-5.93l28.37,14.56c6.71,3.44,9.37,11.7,5.93,18.41-2.42,4.72-7.22,7.43-12.19,7.43ZM177.37,79.16c-4.61,0-9.06,2.52-11.3,6.89-3.19,6.22-.73,13.88,5.49,17.07l28.37,14.56c6.21,3.19,13.87.73,17.07-5.49,3.19-6.22.73-13.88-5.49-17.07l-28.37-14.56c-1.85-.95-3.82-1.4-5.77-1.4Z"/>
        </g>
      </g>
      <g>
        <path class="cls-1" d="M228.04,314.79c0-6.28-2.01-9.49-18.62-9.49s-33.78,6.63-33.78,12.9,15.26,4.93,31.87,4.93,20.52-2.07,20.52-8.35Z"/>
        <path class="cls-4" d="M193.2,323.77c-8.22,0-14.46-.43-16.93-2.87-.75-.74-1.13-1.64-1.13-2.69,0-6.64,17.3-13.4,34.28-13.4s19.12,3.08,19.12,9.99-4.72,8.85-21.03,8.85c-2.57,0-5.11.03-7.56.06-2.36.03-4.63.06-6.75.06ZM209.42,305.81c-16.17,0-33.28,6.38-33.28,12.4,0,.78.27,1.43.83,1.98,2.81,2.77,12.15,2.66,22.97,2.52,2.46-.03,5-.06,7.57-.06,17.24,0,20.03-2.31,20.03-7.85s-1.22-8.99-18.12-8.99Z"/>
      </g>
      <g>
        <path class="cls-1" d="M292.71,314.79c0-6.28-2.01-9.49-18.62-9.49s-33.78,6.63-33.78,12.9,15.26,4.93,31.87,4.93,20.52-2.07,20.52-8.35Z"/>
        <path class="cls-4" d="M257.87,323.77c-8.22,0-14.46-.43-16.93-2.87-.75-.74-1.13-1.64-1.13-2.69,0-6.64,17.3-13.4,34.28-13.4s19.12,3.08,19.12,9.99-4.72,8.85-21.02,8.85c-2.57,0-5.11.03-7.56.06-2.36.03-4.63.06-6.76.06ZM274.09,305.81c-16.17,0-33.28,6.38-33.28,12.4,0,.78.27,1.43.83,1.98,2.81,2.77,12.16,2.66,22.97,2.52,2.46-.03,5-.06,7.57-.06,17.24,0,20.02-2.31,20.02-7.85s-1.22-8.99-18.12-8.99Z"/>
      </g>
    </g>
    <g>
      <g>
        <path class="cls-5" d="M136.35,68.49l18.52-11.87-11.07-17.28c4.58-1.5,7.89-5.81,7.89-10.89,0-6.33-5.13-11.47-11.47-11.47-3.32,0-6.3,1.42-8.39,3.67l-11.08-17.29-17.05,10.92c-.33-6.04-5.31-10.84-11.43-10.84s-11.47,5.13-11.47,11.47c0,4.4,2.48,8.21,6.11,10.13l-17.04,10.92,11.23,17.53c2.08-2.86,5.45-4.73,9.26-4.73,6.33,0,11.47,5.13,11.47,11.47,0,5.56-3.97,10.17-9.22,11.22l11.39,17.77,18.51-11.86c-.15.74-.23,1.5-.23,2.28,0,6.33,5.13,11.47,11.47,11.47s11.47-5.13,11.47-11.47c0-5.43-3.78-9.97-8.85-11.16Z"/>
        <path class="cls-3" d="M133.74,91.61c-6.6,0-11.97-5.37-11.97-11.97,0-.42.02-.84.07-1.27l-18,11.53-12.05-18.81.72-.14c5.11-1.02,8.82-5.53,8.82-10.73,0-6.05-4.92-10.97-10.97-10.97-3.48,0-6.79,1.69-8.85,4.53l-.43.59-11.9-18.57,16.77-10.74c-3.5-2.18-5.64-6-5.64-10.16,0-6.6,5.37-11.97,11.97-11.97,6.06,0,11.12,4.54,11.86,10.47l16.78-10.75,11.01,17.18c2.22-2.15,5.22-3.37,8.31-3.37,6.6,0,11.97,5.37,11.97,11.97,0,4.96-3.04,9.37-7.63,11.15l11,17.18-18.01,11.54c4.85,1.62,8.15,6.13,8.15,11.33,0,6.6-5.37,11.97-11.97,11.97ZM123.22,76.3l-.23,1.16c-.15.72-.22,1.46-.22,2.18,0,6.05,4.92,10.97,10.97,10.97s10.97-4.92,10.97-10.97c0-5.12-3.48-9.51-8.47-10.67l-1.15-.27,19.1-12.24-11.15-17.41.61-.2c4.51-1.48,7.54-5.67,7.54-10.41,0-6.05-4.92-10.97-10.97-10.97-3.07,0-5.92,1.25-8.03,3.51l-.44.47-11.16-17.41-17.35,11.12-.05-.86c-.32-5.81-5.12-10.37-10.93-10.37s-10.97,4.92-10.97,10.97c0,4.07,2.24,7.78,5.84,9.69l.76.4-17.34,11.11,10.58,16.51c2.27-2.75,5.66-4.37,9.22-4.37,6.6,0,11.97,5.37,11.97,11.97,0,5.43-3.71,10.18-8.92,11.55l10.73,16.75,19.08-12.23Z"/>
      </g>
      <g>
        <path class="cls-1" d="M49.85,113.63c0-6.33,5.13-11.47,11.47-11.47,4.45,0,8.3,2.54,10.2,6.25l15.84-10.15-11.39-17.77c5.45-.89,9.61-5.6,9.61-11.3,0-6.33-5.13-11.47-11.47-11.47-3.95,0-7.44,2-9.5,5.04l-11.38-17.76-16.62,10.65c-.85-5.49-5.59-9.7-11.32-9.7-6.33,0-11.47,5.13-11.47,11.47,0,3.98,2.03,7.49,5.12,9.55l-16.61,10.64,12.02,18.76c-.18,0-.35-.03-.53-.03-6.33,0-11.47,5.13-11.47,11.47s5.13,11.47,11.47,11.47c4.81,0,8.92-2.96,10.62-7.16l12.01,18.75,15.84-10.15c-1.54-1.95-2.47-4.41-2.47-7.09Z"/>
        <path class="cls-3" d="M36.32,131.56l-11.79-18.39c-2.02,4.05-6.12,6.61-10.7,6.61-6.6,0-11.97-5.37-11.97-11.97s5.16-11.75,11.57-11.96L1.66,77.46l16.4-10.51c-2.97-2.26-4.73-5.77-4.73-9.52,0-6.6,5.37-11.97,11.97-11.97,5.68,0,10.47,3.9,11.67,9.38l16.41-10.52,11.25,17.56c2.26-2.93,5.75-4.66,9.47-4.66,6.6,0,11.97,5.37,11.97,11.97,0,5.64-3.86,10.42-9.29,11.65l11.26,17.57-16.73,10.72-.25-.49c-1.89-3.69-5.63-5.98-9.76-5.98-6.05,0-10.97,4.92-10.97,10.97,0,2.48.82,4.82,2.36,6.78l.34.43-16.73,10.72ZM24.36,111.03l12.26,19.14,14.97-9.59c-1.47-2.04-2.24-4.44-2.24-6.96,0-6.6,5.37-11.97,11.97-11.97,4.32,0,8.25,2.3,10.39,6.04l14.97-9.59-11.53-17.99.75-.12c5.33-.87,9.19-5.41,9.19-10.81,0-6.05-4.92-10.97-10.97-10.97-3.64,0-7.04,1.8-9.09,4.83l-.43.63-11.52-17.98-16.84,10.79-.12-.76c-.83-5.37-5.39-9.27-10.82-9.27-6.05,0-10.97,4.92-10.97,10.97,0,3.68,1.83,7.09,4.9,9.13l.64.42-16.83,10.78,12.27,19.15-1.17-.05c-.1,0-.2-.01-.3-.01-6.05,0-10.97,4.92-10.97,10.97s4.92,10.97,10.97,10.97c4.48,0,8.47-2.69,10.16-6.85l.36-.9Z"/>
      </g>
      <path class="cls-6" d="M34.29,57.1c0,4.78-3.87-4.34-8.66-4.34s-8.66,9.12-8.66,4.34,3.87-8.66,8.66-8.66,8.66,3.87,8.66,8.66Z"/>
      <path class="cls-6" d="M53.92,58.07c-1.19-1.96-2.97-3.62-5.39-2.5-2.03.88-5.72,5.27-7.23,1.57-.41-2.28,1.98-3.05,3.6-4.39,1.95-1.41,4.76-3.49,7.27-3.4,2.13-.03,3.31,2.09,4.43,3.88,1.37,2.05,3.54,3.97,1.58,6.41-.13.09-.64.23-.93.27-1.47.24-2.5-.57-3.32-1.84Z"/>
      <path class="cls-9" d="M101.18,13.83c0,4.78-3.87-4.34-8.66-4.34s-8.66,9.12-8.66,4.34,3.87-8.66,8.66-8.66,8.66,3.87,8.66,8.66Z"/>
      <path class="cls-9" d="M120.92,16.36c-1.19-1.96-2.97-3.62-5.39-2.5-2.03.88-5.72,5.27-7.23,1.57-.41-2.28,1.98-3.05,3.6-4.39,1.95-1.41,4.76-3.49,7.27-3.4,2.13-.03,3.31,2.09,4.43,3.88,1.37,2.05,3.54,3.97,1.58,6.41-.13.09-.64.23-.93.27-1.47.24-2.5-.57-3.32-1.84Z"/>
    </g>
  </g>
</svg>