<?xml version="1.0" encoding="UTF-8"?>
<svg id="Feet" xmlns="http://www.w3.org/2000/svg" viewBox="0 0 380 380">
  <defs>
    <style>
      .cls-1 {
        fill: #f7a810;
      }

      .cls-1, .cls-2, .cls-3, .cls-4, .cls-5, .cls-6, .cls-7, .cls-8, .cls-9, .cls-10, .cls-11 {
        stroke-width: 0px;
      }

      .cls-2 {
        fill: #090a0a;
      }

      .cls-3 {
        fill: #000;
      }

      .cls-4 {
        fill: #434e89;
      }

      .cls-5 {
        fill: #6272b5;
      }

      .cls-6 {
        fill: #161616;
      }

      .cls-7 {
        fill: #e2e2e1;
      }

      .cls-8 {
        fill: #9698a3;
      }

      .cls-9 {
        fill: #c4c4c4;
      }

      .cls-10 {
        fill: #4d59a4;
      }

      .cls-11 {
        fill: #fff;
      }

      .cls-12 {
        opacity: .79;
      }
    </style>
  </defs>
  <g>
    <path class="cls-11" d="M305.98,326.9c6.16-4.79,9.54-10,9.54-15.45,0-6.45-4.74-12.56-13.21-18.04l37.71-71.66v-17.41h-74.27c-4.85-6.83-10.28-13.75-16.23-20.61-14.47-16.66-29.75-30.34-43.75-39.84,14.52-11.88,24.7-28.73,28.08-47.77l.88-.3c5.39-1.85,8.25-7.72,6.4-13.11l-.42-1.21,14.21-4.89c9.84-3.39,15.08-14.11,11.69-23.96h0c-3.39-9.84-14.11-15.08-23.96-11.69l-16.01,5.51C212.79,18.83,183.43.63,150.6,2.58c-35.62,2.12-64.38,27.31-72.63,60.18-2.77,1.27-5.08,3.95-4.65,7.2l.02,1.49c0,.24.02.48.05.71,1.19,8.81,1.28,10.92,2.2,9.83,0,1.63.03,3.26.13,4.91,1.04,17.58,7.72,33.47,18.15,46.07-8.31,6.99-15.75,15.7-22.07,25.81-1.43,2.29-2.81,4.66-4.13,7.09-.78,1.16-1.52,2.33-2.22,3.49-3.46,5.77-5.84,11.4-6.13,14.91-8.11,21.67-12.04,46.91-10.46,73.62.86,14.4,1.11,25.52,2.14,35.08-8.92,5.59-13.93,11.86-13.93,18.49,0,23.41,62.33,42.38,139.22,42.38,1.96,0,3.9-.02,5.84-.04l14.49,20.82,144,2.85-34.64-50.56Z"/>
    <path class="cls-11" d="M345.4,380.05l-150.1-2.97-14.46-20.78c-1.51.02-3.02.02-4.55.02-37.42,0-72.64-4.45-99.16-12.52-27.43-8.35-42.54-19.84-42.54-32.35,0-7.07,4.64-13.71,13.78-19.76-.58-5.97-.91-12.54-1.28-20.05-.21-4.29-.43-8.72-.72-13.61-1.55-26.02,2.08-51.71,10.5-74.33.43-3.82,2.75-9.48,6.44-15.62.68-1.14,1.43-2.32,2.22-3.5,1.34-2.47,2.74-4.87,4.15-7.12,6.02-9.62,12.99-17.96,20.74-24.8-10.26-13.15-16.19-28.87-17.19-45.61-.06-1-.1-2.06-.12-3.2-.83-.98-1.1-3-1.73-7.88-.13-1.02-.28-2.17-.46-3.47-.04-.33-.07-.67-.08-1l-.02-1.36c-.4-3.59,1.52-7.03,5-9.06C84.95,26.66,114.8,2.21,150.45.1c32.17-1.91,62.3,15.04,77.41,43.34l13.98-4.81c5.39-1.85,11.18-1.5,16.3,1,5.12,2.5,8.96,6.84,10.82,12.23,1.85,5.39,1.5,11.18-1,16.3-2.5,5.12-6.84,8.96-12.23,10.82l-11.92,4.1c1.49,6.17-1.81,12.59-7.79,14.93-3.46,17.65-12.68,33.72-26.19,45.7,13.93,9.86,28.24,23.08,41.55,38.41,5.56,6.4,10.81,13.04,15.63,19.75h75.48v20.51l-36.95,70.23c8.27,5.81,12.46,12.14,12.46,18.85,0,5.58-2.92,10.93-8.69,15.92l36.09,52.67ZM197.94,372.16l137.9,2.73-33.24-48.51,1.85-1.44c5.69-4.43,8.58-8.96,8.58-13.48,0-6.73-6.56-12.39-12.07-15.95l-1.91-1.23,38.48-73.13v-14.31h-73.07l-.74-1.05c-4.93-6.94-10.34-13.81-16.08-20.42-13.89-16-28.85-29.63-43.27-39.41l-2.76-1.87,2.58-2.11c14.33-11.73,23.99-28.17,27.21-46.28l.26-1.44,2.26-.78c1.98-.68,3.57-2.09,4.49-3.97.92-1.88,1.05-4,.37-5.98l-1.22-3.56,16.56-5.7c4.13-1.42,7.47-4.37,9.38-8.3,1.92-3.93,2.19-8.37.77-12.5-1.42-4.13-4.37-7.47-8.3-9.38-3.93-1.92-8.37-2.19-12.5-.77l-18.07,6.21-.98-1.94c-13.87-27.68-42.8-44.38-73.67-42.54-33.85,2.01-62.12,25.44-70.36,58.31l-.29,1.16-1.08.5c-1.66.76-3.51,2.43-3.22,4.62l.02.28.02,1.49c0,.14.01.29.03.42.17,1.3.33,2.46.46,3.48.08.59.15,1.16.22,1.7l1.55-1.84v6.81c-.02,1.77.02,3.33.11,4.76.98,16.49,7.06,31.93,17.58,44.63l1.57,1.9-1.89,1.59c-8.09,6.8-15.35,15.28-21.57,25.22-1.37,2.2-2.74,4.54-4.05,6.96l-.12.2c-.77,1.15-1.49,2.28-2.15,3.38-3.32,5.54-5.54,10.84-5.78,13.83l-.03.34-.12.32c-8.25,22.05-11.82,47.15-10.3,72.6.29,4.92.51,9.36.72,13.66.4,8.08.74,15.06,1.41,21.3l.17,1.55-1.32.83c-5.82,3.65-12.76,9.45-12.76,16.39,0,19.27,54.94,39.89,136.73,39.89,1.95,0,3.88-.02,5.81-.04l1.32-.02,14.52,20.86Z"/>
  </g>
  <g>
    <g class="cls-12">
      <path class="cls-9" d="M340.62,377.47l-34.64-50.56c6.16-4.79,9.54-10,9.54-15.45,0-23.41-62.33-42.38-139.21-42.38s-139.22,18.97-139.22,42.38,62.33,42.38,139.22,42.38c1.96,0,3.9-.02,5.84-.04l14.49,20.82,144,2.85Z"/>
    </g>
    <g>
      <g id="Body">
        <g>
          <ellipse class="cls-2" cx="223.6" cy="206.24" rx="34.31" ry="97.65" transform="translate(-80.45 197.13) rotate(-40.97)"/>
          <path class="cls-3" d="M277.26,283.85c-7.13,0-16.31-3.08-26.95-9.14-17.03-9.7-35.85-25.92-52.99-45.65h0c-35.48-40.86-52.56-84.34-38.07-96.92,14.49-12.58,55.15,10.42,90.63,51.28,17.14,19.73,30.55,40.64,37.77,58.86,7.28,18.39,7.39,31.9.3,38.06-2.7,2.34-6.31,3.51-10.69,3.51ZM169.99,129.6c-4.1,0-7.52,1.06-10.08,3.28-14.08,12.22,3.05,55.07,38.17,95.52,17.07,19.65,35.79,35.79,52.73,45.44,16.79,9.56,29.75,11.6,36.5,5.74,6.75-5.86,6.55-18.98-.57-36.94-7.18-18.12-20.53-38.93-37.6-58.58-28.73-33.08-60.74-54.47-79.14-54.47Z"/>
        </g>
        <g>
          <path class="cls-6" d="M48.87,257.88c-2.26-38.04,6.67-73.12,22.93-99.1,6.32-10.1,13.76-18.82,22.07-25.81-10.43-12.6-17.1-28.49-18.15-46.07C73.12,42.94,106.64,5.19,150.6,2.58,194.56-.03,232.31,33.49,234.92,77.45c1.59,26.83-10.28,51.33-29.76,66.95,1.81,1.97,3.58,4.01,5.29,6.14,19.22,23.87,24.36,58.46,26.62,96.49,2.26,38.04,6.41,23.81-9.85,49.79-16.26,25.98-45.05,7.76-72.13,9.37-27.07,1.61-67.45,52.62-86.67,28.75-19.22-23.87-17.29-39.03-19.55-77.07Z"/>
          <path class="cls-3" d="M81.3,341.76c-5.04,0-9.55-1.87-13.28-6.5-16.84-20.92-17.54-35.21-18.93-63.69-.21-4.3-.43-8.74-.72-13.65-2.19-36.89,5.98-72.2,23-99.4,6.29-10.05,13.62-18.66,21.8-25.61-10.74-13.13-16.94-29.01-17.95-45.98-1.27-21.39,5.87-42,20.1-58.03,14.23-16.03,33.85-25.55,55.24-26.82,44.16-2.63,82.23,31.17,84.85,75.34,1.53,25.73-9.5,50.75-29.54,67.04,1.71,1.88,3.38,3.82,4.95,5.78,19.9,24.72,24.61,61.12,26.72,96.77.52,8.69,1.13,14.65,1.58,18.99,1.2,11.62,1.15,11.82-5.13,21.27-1.67,2.51-3.75,5.63-6.37,9.82-11.28,18.03-28.54,15.1-46.82,12.01-8.44-1.43-17.17-2.91-25.7-2.4-10.7.64-23.78,9.27-36.43,17.61-13.07,8.63-26.46,17.45-37.39,17.45ZM49.37,257.86c.29,4.91.51,9.36.72,13.66,1.38,28.27,2.08,42.46,18.72,63.12,11.25,13.97,29.75,1.76,49.34-11.16,12.76-8.42,25.95-17.12,36.92-17.77,8.64-.51,17.43.98,25.93,2.42,17.94,3.04,34.88,5.91,45.81-11.55,2.63-4.2,4.71-7.33,6.39-9.85q6.15-9.24,4.97-20.62c-.45-4.35-1.07-10.32-1.58-19.03-2.11-35.49-6.78-71.71-26.51-96.21-1.67-2.08-3.45-4.14-5.27-6.12l-.36-.39.42-.33c20.04-16.08,31.1-40.95,29.58-66.54C231.84,33.86,194.25.5,150.63,3.08c-21.13,1.25-40.5,10.66-54.56,26.49-14.05,15.83-21.1,36.18-19.85,57.31,1.01,16.92,7.24,32.75,18.03,45.78l.32.38-.38.32c-8.25,6.93-15.64,15.57-21.97,25.69-16.92,27.03-25.03,62.12-22.85,98.81Z"/>
        </g>
        <g>
          <path class="cls-7" d="M112.56,249.13c1.56,26.23.3,22.32,12.4,38.85,12.1,16.53,37.56,17.67,54.46,16.66,16.91-1,31.58,23.29,41.64,5.44,10.06-17.85,15.5-42,13.94-68.22-1.56-26.23-9.82-49.56-21.92-66.09-12.1-16.53-28.04-26.25-44.94-25.25-16.91,1-31.58,12.54-41.64,30.39-10.06,17.85-15.5,42-13.94,68.22Z"/>
          <path class="cls-3" d="M211.95,317.14c-4.21,0-8.8-2.63-13.62-5.39-6.01-3.45-12.24-7-18.88-6.61-27.05,1.61-45.52-4.07-54.89-16.86-1.02-1.39-1.94-2.63-2.77-3.76q-8.37-11.3-9.37-29.28c-.1-1.83-.21-3.84-.35-6.07-1.51-25.46,3.46-49.79,14.01-68.5,10.58-18.78,25.51-29.66,42.04-30.64,16.54-.99,32.64,8.06,45.37,25.45,12.68,17.33,20.5,40.89,22.01,66.36,1.51,25.46-3.46,49.79-14.01,68.5-2.04,3.62-4.37,5.74-7.13,6.5-.78.22-1.59.31-2.4.31ZM180.43,304.11c6.57,0,12.83,3.59,18.39,6.77,5.57,3.19,10.83,6.2,15.26,4.98,2.49-.69,4.63-2.66,6.53-6.03,10.45-18.54,15.38-42.67,13.88-67.95-1.5-25.27-9.25-48.65-21.82-65.83-12.52-17.11-28.32-26.01-44.51-25.04-16.18.96-30.82,11.66-41.23,30.14-10.45,18.54-15.38,42.67-13.88,67.95.13,2.23.24,4.25.35,6.08q.98,17.68,9.18,28.74c.84,1.13,1.76,2.38,2.78,3.76,9.16,12.51,27.33,18.04,54.03,16.46.35-.02.7-.03,1.05-.03Z"/>
        </g>
        <g>
          <path class="cls-11" d="M132.05,74.11c-.67-11.23,7.9-20.88,19.13-21.55,11.23-.67,20.88,7.9,21.55,19.13.67,11.23-10.33,3.93-21.56,4.6-11.23.67-18.45,9.05-19.12-2.18Z"/>
          <path class="cls-3" d="M135.74,80.42c-.79,0-1.48-.17-2.08-.57-1.26-.85-1.93-2.67-2.11-5.71h0c-.33-5.57,1.53-10.93,5.23-15.1,3.7-4.17,8.81-6.65,14.37-6.98,5.58-.33,10.93,1.53,15.1,5.23,4.17,3.7,6.65,8.81,6.98,14.37.16,2.73-.35,4.58-1.56,5.67-2.04,1.82-5.58,1.2-10.05.43-3.19-.55-6.8-1.18-10.42-.97-3.78.22-7.17,1.36-9.89,2.28-2.17.73-4.03,1.35-5.56,1.35ZM152.41,53.02c-.4,0-.8.01-1.21.04-5.3.32-10.16,2.67-13.69,6.65s-5.29,9.08-4.98,14.38c.16,2.67.71,4.29,1.68,4.95,1.35.91,3.74.11,6.77-.9,2.78-.93,6.24-2.09,10.15-2.32,3.72-.22,7.4.42,10.65.98,4.05.7,7.54,1.31,9.22-.19.97-.87,1.37-2.46,1.23-4.86-.31-5.3-2.67-10.16-6.65-13.69-3.67-3.26-8.31-5.01-13.17-5.01Z"/>
        </g>
      </g>
      <g>
        <path class="cls-2" d="M201.63,149.39c-3.16-2.66-8.92-1.37-14.76-.8l.13-5.21c.11-4.5-3.44-8.23-7.93-8.35s-8.23,3.44-8.35,7.93l-.08,3.34c-5.87-1.52-12.08-3.04-18.56-4.14-9.34-1.58-19.22-2.29-29.35-.89-10.13,1.4-18.12,2.1-24.89,3.43-6.77,1.33-12.34,3.29-17.64,7.22-5.31,3.93-10.74,10.76-14.74,17.42-4,6.66-6.56,13.15-6.11,16.38.45,3.23,2.98,6.55,7.17,9.63,4.19,3.08,10.02,5.92,17.07,8.17,7.05,2.26,15.31,3.94,24.34,4.7,9.03.76,18.83.61,28.97-.79,10.13-1.4,19.64-3.92,28.18-7.12,8.53-3.2,16.09-7.06,22.33-11.16,6.24-4.1,11.04-7.35,14.17-10.4,3.13-3.04,4.59-5.87,4.15-9.09-.45-3.23.7-16.27-4.08-20.29Z"/>
        <path class="cls-3" d="M118.81,209.2c-3.66,0-7.3-.15-10.93-.46-8.63-.73-17.08-2.36-24.45-4.72-6.96-2.23-12.91-5.08-17.21-8.25-4.36-3.21-6.91-6.65-7.37-9.96-.44-3.21,1.92-9.61,6.17-16.7,4.44-7.39,9.99-13.96,14.87-17.57,4.9-3.63,10.24-5.81,17.84-7.31,4.35-.85,9.18-1.45,14.77-2.13,3.2-.39,6.5-.8,10.15-1.3,8.98-1.24,18.63-.95,29.5.89,6.42,1.09,12.67,2.61,17.99,3.99l.07-2.71c.12-4.76,4.11-8.55,8.86-8.42,4.76.12,8.54,4.09,8.42,8.86l-.12,4.65c.78-.08,1.56-.17,2.33-.27,4.85-.58,9.44-1.12,12.24,1.23h0c3.88,3.26,4.02,12,4.11,17.22.02,1.44.04,2.69.14,3.38.45,3.26-.87,6.2-4.29,9.52-3.23,3.14-8.15,6.45-14.24,10.45-6.52,4.28-14.27,8.16-22.43,11.21-9.09,3.4-18.6,5.81-28.28,7.15-6.03.84-12.1,1.25-18.15,1.25ZM133.91,141.03c-3.84,0-7.53.25-11.12.74-3.65.51-6.96.91-10.16,1.31-5.57.68-10.38,1.28-14.7,2.12-7.45,1.46-12.67,3.6-17.44,7.13s-10.24,9.99-14.61,17.28c-4.08,6.8-6.45,13.1-6.04,16.06.42,3.04,2.83,6.25,6.97,9.3,4.22,3.1,10.07,5.91,16.93,8.1,7.3,2.34,15.67,3.96,24.23,4.68,9.54.81,19.25.54,28.86-.79,9.61-1.33,19.05-3.72,28.07-7.09,8.09-3.03,15.77-6.87,22.23-11.11,6.05-3.97,10.93-7.26,14.1-10.34,3.17-3.08,4.4-5.75,4-8.67-.1-.75-.12-1.96-.15-3.5-.08-5.05-.23-13.51-3.76-16.48h0c-2.47-2.08-6.85-1.56-11.48-1.01-.96.11-1.94.23-2.91.33l-.56.05.15-5.78c.11-4.21-3.24-7.73-7.45-7.84-.07,0-.13,0-.2,0-4.13,0-7.54,3.3-7.64,7.45l-.1,3.96-.61-.16c-5.44-1.41-11.89-3.01-18.52-4.13-6.42-1.09-12.41-1.63-18.08-1.63Z"/>
      </g>
      <g>
        <path class="cls-4" d="M230.25,55.21l-.51-3.87c-.41-3.12-3.27-5.32-6.39-4.91l-30.93,4.05-1.03-7.86c-.25-1.94-1.25-3.67-2.8-4.86-1.55-1.19-3.47-1.71-5.42-1.45l-68.86,9.02c-1.94.25-3.67,1.25-4.86,2.8-1.19,1.55-1.71,3.47-1.45,5.42l.09.7-27.64,7.79c-3.68.48-7.67,3.74-7.12,7.93l.02,1.49c0,.24.02.48.05.71,1.86,13.81,1.02,11.18,4.95,5.48.86-1.25,2.17-2.13,3.65-2.43l28.11-5.84c1.45,7.99,5.76,15.07,12.25,20.05,5.78,4.44,12.7,6.78,19.86,6.78,1.43,0,2.87-.09,4.32-.28l18.52-2.43c14.82-1.94,26.03-13.58,28.11-27.68l32.17-4.21c3.12-.41,5.32-3.27,4.91-6.39ZM176.21,73.52c-3.54,4.61-8.67,7.57-14.44,8.32l-15.06,1.97c-11.9,1.56-22.86-6.86-24.42-18.76l-1.12-8.55,58.24-7.63,1.12,8.55c.75,5.77-.78,11.48-4.32,16.09Z"/>
        <path class="cls-3" d="M142.22,96.45c-7.28,0-14.2-2.36-20.02-6.83-6.43-4.94-10.79-12.02-12.29-19.95l-27.86,5.79c-1.42.3-2.66,1.12-3.49,2.33-.75,1.09-1.32,2.06-1.78,2.84-.8,1.35-1.15,1.97-1.64,1.87-.62-.13-.79-1.3-1.51-6.8-.14-1.03-.29-2.19-.46-3.51-.03-.25-.05-.5-.06-.74l-.02-1.49c-.26-1.97.47-3.94,2.05-5.54,1.4-1.41,3.37-2.4,5.29-2.65l27.39-7.72-.06-.49c-.26-2.01.27-4,1.5-5.6,1.23-1.61,3.02-2.63,5.03-2.9l68.86-9.02c2.01-.26,4,.27,5.6,1.5,1.61,1.23,2.64,3.02,2.9,5.03l1,7.61,30.69-4.02c1.58-.2,3.14.21,4.39,1.18s2.07,2.37,2.27,3.94l.51,3.87c.21,1.58-.21,3.14-1.18,4.4-.97,1.26-2.37,2.07-3.94,2.27l-31.98,4.19c-2.21,14.43-13.82,25.81-28.3,27.71l-18.52,2.43c-1.44.19-2.91.28-4.35.28ZM110.3,69.08l.05.25c1.44,7.91,5.75,14.98,12.15,19.9,5.73,4.4,12.54,6.73,19.71,6.73,1.42,0,2.86-.09,4.28-.28l18.52-2.43c14.32-1.88,25.79-13.17,27.9-27.47l.03-.19.19-.02,32.17-4.21c1.44-.19,2.73-.93,3.61-2.08.89-1.15,1.27-2.59,1.08-4.03l-.51-3.87c-.19-1.44-.93-2.73-2.08-3.61-1.15-.89-2.58-1.27-4.03-1.08l-31.18,4.08-1.06-8.1c-.24-1.88-1.21-3.54-2.71-4.7-1.5-1.15-3.35-1.65-5.23-1.4l-68.86,9.02c-1.88.25-3.54,1.21-4.7,2.71-1.15,1.5-1.65,3.36-1.4,5.23l.12.91-.21.06-27.64,7.79c-1.84.24-3.71,1.18-5.04,2.51-1.47,1.48-2.15,3.31-1.91,5.15l.03,1.52c0,.23.02.46.05.68.18,1.31.33,2.48.46,3.51.49,3.72.81,6.19,1.13,6.38.16-.05.64-.86,1.1-1.64.46-.79,1.04-1.77,1.8-2.87.91-1.32,2.26-2.22,3.8-2.54l28.36-5.89ZM143.87,84.25c-10.88,0-20.37-8.09-21.82-19.16l-1.15-8.8.25-.03,58.48-7.66,1.15,8.8c.76,5.83-.79,11.62-4.37,16.28h0c-3.58,4.66-8.77,7.65-14.6,8.42l-15.06,1.97c-.97.13-1.93.19-2.87.19ZM121.45,56.72l1.09,8.31c1.54,11.77,12.37,20.09,24.14,18.55l15.06-1.97c5.7-.75,10.77-3.67,14.27-8.23,3.5-4.56,5.02-10.21,4.27-15.91l-1.09-8.31-57.74,7.56Z"/>
      </g>
      <g>
        <g>
          <path class="cls-1" d="M217.18,101.87l17.53-6.03c5.39-1.85,8.25-7.72,6.4-13.11l-.51-1.49c-1.85-5.39-6.95-6.05-13.6-5.74l-26.18,2.23c-5.39,1.85-8.25,7.72-6.4,13.11l.51,1.49c1.85,5.39,8.6,15.02,22.25,9.54Z"/>
          <path class="cls-3" d="M209.5,104c-2.19,0-4.24-.44-6.16-1.31-4.7-2.15-7.67-6.68-8.88-10.2l-.51-1.49c-.94-2.73-.76-5.66.51-8.26,1.27-2.6,3.47-4.54,6.2-5.48l.12-.03,26.18-2.23c5.73-.27,12.01-.05,14.11,6.07l.51,1.49c.94,2.73.76,5.66-.51,8.26-1.27,2.6-3.47,4.54-6.2,5.48l-17.52,6.03c-2.77,1.11-5.4,1.67-7.86,1.67ZM200.92,78.22c-2.45.86-4.43,2.62-5.57,4.96-1.15,2.36-1.31,5.02-.46,7.5l.51,1.49c1.14,3.33,3.94,7.6,8.35,9.62,3.82,1.75,8.27,1.62,13.24-.38h.02s17.53-6.04,17.53-6.04c2.48-.85,4.48-2.62,5.63-4.98,1.15-2.36,1.31-5.02.46-7.5l-.51-1.49c-1.7-4.94-6.27-5.73-13.11-5.4l-26.1,2.22Z"/>
        </g>
        <g>
          <rect class="cls-1" x="185.56" y="47.37" width="83.32" height="37.7" rx="18.85" ry="18.85" transform="translate(463.61 54.94) rotate(161.02)"/>
          <path class="cls-3" d="M205.63,93c-2.9,0-5.79-.66-8.47-1.97-4.64-2.27-8.13-6.21-9.81-11.09-1.68-4.89-1.36-10.14.91-14.78,2.27-4.64,6.21-8.13,11.09-9.81l43.14-14.84c4.89-1.68,10.14-1.36,14.78.91,4.64,2.27,8.13,6.21,9.81,11.09,1.68,4.89,1.36,10.14-.91,14.78-2.27,4.64-6.21,8.13-11.09,9.81l-43.14,14.84c-2.06.71-4.19,1.06-6.31,1.06ZM248.8,40.44c-2.01,0-4.03.33-5.98,1.01l-43.14,14.84c-4.64,1.59-8.37,4.9-10.52,9.3-2.15,4.41-2.46,9.38-.86,14.02s4.9,8.37,9.3,10.52c4.41,2.15,9.39,2.46,14.02.86l.16.47-.16-.47,43.14-14.84c4.64-1.59,8.37-4.9,10.52-9.3,2.15-4.41,2.46-9.38.86-14.02-1.59-4.64-4.9-8.37-9.3-10.52-2.55-1.24-5.28-1.87-8.04-1.87Z"/>
        </g>
      </g>
      <g>
        <g>
          <polygon class="cls-10" points="340.01 221.77 197.36 221.77 156.32 300.98 300.31 297.21 340.01 221.77"/>
          <path class="cls-3" d="M155.9,301.24l.19-.37,41.11-79.35h143.21l-.19.36-39.77,75.58h-.15s-144.42,3.79-144.42,3.79ZM197.51,222.01l-40.78,78.71,143.43-3.75,39.44-74.95h-142.09Z"/>
        </g>
        <g>
          <polygon class="cls-5" points="340.01 221.77 197.36 221.77 189.96 204.36 340.01 204.36 340.01 221.77"/>
          <path class="cls-3" d="M340.26,222.01h-143.06l-.07-.15-7.55-17.76h150.68v17.91ZM197.53,221.52h142.24v-16.91h-149.43l7.19,16.91Z"/>
        </g>
        <g>
          <polygon class="cls-4" points="156.32 300.98 137.48 300.98 189.96 204.36 197.36 221.77 156.32 300.98"/>
          <path class="cls-3" d="M156.47,301.23h-19.41l.2-.37,52.73-97.08,7.65,17.99-.05.1-41.11,79.35ZM137.89,300.73h18.27l40.92-78.98-7.15-16.83-52.04,95.81Z"/>
        </g>
        <g>
          <path class="cls-10" d="M293.73,328.27l-139.66,2.57c-9.11.17-16.59-6.8-16.59-15.46v-1.37c0-8.39,7.04-15.25,15.87-15.46l139.71-3.26c9.27-.22,16.85,6.96,16.67,15.77l-.04,2.06c-.17,8.3-7.22,14.99-15.96,15.15Z"/>
          <path class="cls-3" d="M153.75,331.09c-4.46,0-8.77-1.73-11.87-4.78-3-2.95-4.65-6.83-4.65-10.93v-1.37c0-8.6,7.08-15.5,16.12-15.71l139.71-3.26c4.64-.1,9.16,1.67,12.37,4.87,3.03,3.02,4.65,6.98,4.56,11.15l-.04,2.06c-.18,8.47-7.29,15.23-16.2,15.4v-.25s0,.25,0,.25l-139.66,2.57c-.11,0-.21,0-.32,0ZM293.46,295.53c-.13,0-.26,0-.39,0l-139.71,3.26c-8.77.2-15.63,6.89-15.63,15.21v1.37c0,3.97,1.6,7.72,4.5,10.58,3.09,3.03,7.39,4.72,11.83,4.64l139.66-2.57c8.64-.16,15.54-6.71,15.71-14.91l.04-2.06c.08-4.04-1.48-7.87-4.41-10.79-3.02-3.02-7.24-4.73-11.61-4.73Z"/>
        </g>
        <g>
          <rect class="cls-4" x="65.48" y="299.3" width="88.59" height="31.54" rx="10.31" ry="10.31"/>
          <path class="cls-3" d="M143.81,331.09h-68.07c-5.79,0-10.51-4.71-10.51-10.51v-11.02c0-5.79,4.71-10.51,10.51-10.51h68.07c5.79,0,10.51,4.71,10.51,10.51v11.02c0,5.79-4.71,10.51-10.51,10.51ZM75.74,299.55c-5.52,0-10.01,4.49-10.01,10.01v11.02c0,5.52,4.49,10.01,10.01,10.01h68.07c5.52,0,10.01-4.49,10.01-10.01v-11.02c0-5.52-4.49-10.01-10.01-10.01h-68.07Z"/>
        </g>
        <g>
          <ellipse class="cls-4" cx="147.74" cy="313.57" rx="16.89" ry="18.28"/>
          <path class="cls-3" d="M147.74,332.1c-9.45,0-17.14-8.31-17.14-18.53s7.69-18.53,17.14-18.53,17.14,8.31,17.14,18.53-7.69,18.53-17.14,18.53ZM147.74,295.53c-9.17,0-16.64,8.09-16.64,18.03s7.46,18.03,16.64,18.03,16.64-8.09,16.64-18.03-7.46-18.03-16.64-18.03Z"/>
        </g>
        <g>
          <ellipse class="cls-8" cx="147.74" cy="313.57" rx="4.05" ry="4.38"/>
          <path class="cls-3" d="M147.74,318.2c-2.37,0-4.29-2.08-4.29-4.63s1.93-4.63,4.29-4.63,4.29,2.08,4.29,4.63-1.93,4.63-4.29,4.63ZM147.74,309.44c-2.09,0-3.8,1.85-3.8,4.13s1.7,4.13,3.8,4.13,3.8-1.85,3.8-4.13-1.7-4.13-3.8-4.13Z"/>
        </g>
        <g>
          <rect class="cls-4" x="274.81" y="311.91" width="18.08" height="6.32" rx="2.18" ry="2.18"/>
          <path class="cls-3" d="M290.72,318.48h-13.73c-1.34,0-2.42-1.09-2.42-2.42v-1.98c0-1.34,1.09-2.42,2.42-2.42h13.73c1.34,0,2.42,1.09,2.42,2.42v1.98c0,1.34-1.09,2.42-2.42,2.42ZM276.98,312.15c-1.06,0-1.92.86-1.92,1.92v1.98c0,1.06.86,1.92,1.92,1.92h13.73c1.06,0,1.92-.86,1.92-1.92v-1.98c0-1.06-.86-1.92-1.92-1.92h-13.73Z"/>
        </g>
        <g>
          <path class="cls-4" d="M261.71,269.51c-1.24-.85-2.43-1.47-3.49-1.84,1.33-2.02,2.1-4.43,2.1-7.03,0-7.08-5.74-12.83-12.83-12.83-5.33,0-9.9,3.25-11.84,7.88h-3.78c-1.67,0-3.03,1.36-3.03,3.03h0c0,1.67,1.36,3.03,3.03,3.03h2.42v.21c0,.53.25,1.01.64,1.31.52,2.5,1.78,4.73,3.53,6.47-1.46.69-3.07,2.55-4.55,5.19h33.57c-1.85-2.29-3.87-4.13-5.78-5.43Z"/>
          <path class="cls-3" d="M268,275.19h-34.51l.21-.37c1.41-2.53,2.95-4.33,4.36-5.14-1.68-1.75-2.83-3.91-3.34-6.26-.41-.35-.66-.86-.67-1.41h-2.17c-1.81,0-3.28-1.47-3.28-3.28s1.47-3.28,3.28-3.28h3.61c2.07-4.79,6.77-7.88,12-7.88,7.21,0,13.07,5.87,13.07,13.07,0,2.45-.68,4.83-1.97,6.9,1.03.4,2.12.99,3.25,1.76,2.04,1.4,4.06,3.29,5.83,5.48l.33.41ZM234.34,274.69h32.61c-1.66-1.98-3.51-3.69-5.39-4.98-1.19-.81-2.38-1.44-3.43-1.81l-.3-.11.17-.27c1.35-2.05,2.06-4.43,2.06-6.89,0-6.94-5.64-12.58-12.58-12.58-5.09,0-9.65,3.03-11.61,7.73l-.06.15h-3.94c-1.53,0-2.78,1.25-2.78,2.78s1.25,2.78,2.78,2.78h2.67v.45c0,.44.2.85.55,1.11l.07.06.02.09c.5,2.41,1.7,4.6,3.46,6.34l.25.25-.32.15c-1.33.63-2.82,2.3-4.23,4.72Z"/>
        </g>
      </g>
      <g>
        <path class="cls-1" d="M60.11,308.12c1.04,5.93,3.01,11.41,5.68,16.24,2.67,4.83,6.04,9.01,9.89,12.34,3.85,3.33,8.16,5.82,12.73,7.26,4.56,1.44,9.38,1.84,14.2.99,4.83-.85,9.22-2.86,13.02-5.76,3.8-2.91,7.02-6.71,9.5-11.16,2.48-4.44,4.23-9.52,5.1-14.97.87-5.45.86-11.27-.18-17.21-1.04-5.93-3.01-11.41-5.68-16.24s-9.48,8.14-13.32,4.81c-3.85-3.33-2.5-9.85-7.06-11.29-4.56-1.44-7.55,8.18-12.38,9.03s-11.04-7.16-14.84-4.25c-3.8,2.91-1.31,9.89-3.79,14.33s-12.17-6.78-13.04-1.33c-.87,5.45-.86,11.27.18,17.21Z"/>
        <path class="cls-3" d="M97.53,345.89c-3.1,0-6.2-.49-9.28-1.46-4.61-1.46-8.95-3.93-12.91-7.36-3.95-3.42-7.31-7.62-10-12.48-2.78-5.02-4.71-10.54-5.74-16.4-1.03-5.85-1.09-11.7-.19-17.37.14-.88.51-1.47,1.09-1.76,1.33-.65,3.3.44,5.59,1.71,3.17,1.75,5.48,2.86,6.41,1.21,1.04-1.85,1.16-4.24,1.29-6.55.16-3.03.33-6.16,2.64-7.93,2.32-1.78,5.34,0,8.25,1.71,2.35,1.38,4.78,2.81,6.81,2.45,2.03-.36,3.8-2.52,5.52-4.62,2.12-2.59,4.31-5.27,7.1-4.39,2.75.87,3.55,3.43,4.33,5.91.63,2,1.28,4.07,2.91,5.48,1.56,1.35,3.98-.78,6.32-2.85,1.99-1.76,3.86-3.41,5.46-3.14.67.12,1.23.56,1.65,1.32,2.78,5.03,4.71,10.54,5.73,16.4,1.03,5.85,1.09,11.7.19,17.37-.87,5.48-2.61,10.58-5.16,15.14-2.55,4.57-5.79,8.37-9.63,11.31-3.98,3.05-8.44,5.02-13.24,5.86-1.71.3-3.44.45-5.16.45ZM61.42,289.88c-.17,0-.33.03-.46.09-.1.05-.42.2-.55,1.02-.89,5.56-.83,11.3.18,17.04,1.01,5.75,2.9,11.16,5.63,16.09,2.63,4.76,5.92,8.86,9.78,12.21,3.85,3.34,8.07,5.75,12.55,7.16,4.63,1.46,9.33,1.79,13.97.97,4.64-.81,8.95-2.72,12.8-5.67,3.73-2.85,6.88-6.56,9.37-11,2.49-4.46,4.19-9.44,5.04-14.81.89-5.56.82-11.29-.18-17.04-1.01-5.74-2.9-11.16-5.63-16.09-.27-.49-.58-.76-.95-.82-1.13-.2-2.91,1.38-4.64,2.9-2.54,2.24-5.42,4.78-7.63,2.86-1.85-1.6-2.57-3.9-3.21-5.94-.77-2.44-1.43-4.55-3.68-5.26-2.15-.68-4.03,1.63-6.03,4.07-1.83,2.24-3.72,4.55-6.12,4.97-2.4.42-4.98-1.1-7.49-2.57-2.75-1.62-5.35-3.14-7.14-1.77-1.95,1.49-2.1,4.26-2.25,7.19-.13,2.43-.26,4.93-1.41,6.99-1.48,2.64-4.81.8-7.76-.83-1.52-.84-3.22-1.78-4.22-1.78Z"/>
      </g>
    </g>
  </g>
</svg>