<?xml version="1.0" encoding="UTF-8"?>
<svg id="Capa_1" data-name="Capa 1" xmlns="http://www.w3.org/2000/svg" viewBox="0 0 407.27 394.87">
  <defs>
    <style>
      .cls-1 {
        fill: #7e1710;
      }

      .cls-1, .cls-2, .cls-3, .cls-4, .cls-5, .cls-6, .cls-7, .cls-8, .cls-9, .cls-10, .cls-11, .cls-12, .cls-13 {
        stroke-width: 0px;
      }

      .cls-14 {
        fill: #161616;
      }

      .cls-14, .cls-15, .cls-16, .cls-17, .cls-18, .cls-19, .cls-20, .cls-21 {
        stroke-miterlimit: 10;
      }

      .cls-14, .cls-16, .cls-17, .cls-18, .cls-20 {
        stroke: #000;
      }

      .cls-15 {
        stroke: #fff;
        stroke-width: 4px;
      }

      .cls-15, .cls-19, .cls-21 {
        fill: none;
      }

      .cls-2 {
        fill: #45c1f1;
      }

      .cls-16, .cls-12 {
        fill: #fff;
      }

      .cls-3 {
        fill: #f7a51e;
      }

      .cls-4 {
        fill: #a3402b;
      }

      .cls-17 {
        fill: #090a0a;
      }

      .cls-5 {
        fill: #81aede;
      }

      .cls-18 {
        fill: #e2e2e1;
      }

      .cls-6 {
        fill: #cfeaf4;
      }

      .cls-19 {
        stroke: #7e1712;
        stroke-width: 6px;
      }

      .cls-20 {
        fill: #f7a810;
      }

      .cls-7 {
        fill: #411415;
      }

      .cls-8 {
        fill: #c4c4c4;
      }

      .cls-9 {
        fill: #87bd2d;
      }

      .cls-10 {
        fill: #68c8f0;
      }

      .cls-11 {
        fill: #98c0e5;
      }

      .cls-21 {
        stroke: #a4402b;
      }

      .cls-13 {
        fill: #a5c961;
      }
    </style>
  </defs>
  <g>
    <path class="cls-15" d="M398.26,381.56l3.58,1.98,1.48-256.6L238.84,3.88l-4.73,2.44v147.08c-14.74,6.71-32.43,17.85-50.14,32.19-.91.74-1.81,1.48-2.71,2.23-2.02-3.63-4.28-7.08-6.83-10.31-1.53-1.94-3.11-3.81-4.74-5.61,15.53-12.21,25.86-30.6,27.42-51.26.82-.84,1.47-1.81,1.92-2.86l14.2-.7c9.41-.47,16.67-8.48,16.2-17.89-.47-9.41-8.48-16.67-17.89-16.2l-21.24,1.05c-12.17-25.49-38.77-42.5-68.75-41.01-22.58,1.12-42.21,12.5-54.62,29.4-7.66,2.83-18.19,11.21-26.52,24.73-11.3,18.35-25.53,40.23-31.94,66.99-6.41,26.76-4.97,33.52-2.06,50.24,2.14,12.28,12.87,28.37,21.09,36.69-.56,7.23-.67,14.64-.29,22.19,1.71,34.46-.49,58.97,16.7,80.75,2.78,3.53,6.08,6.41,9.75,8.77-.82,1.12-1.24,2.44-1.42,3.95-18.83,2.63-30.38,6.18-30.38,10.09,0,8.09,49.55,14.66,110.67,14.66s110.67-6.56,110.67-14.66c0-5.89-26.24-10.97-64.09-13.3-.32-.13-.64-.26-.97-.39,4.22-2.8,8.02-6.54,11.22-11.56,14.95-23.38,10.01-52.02,8.3-86.48-.43-8.61-1.02-17.02-1.93-25.14,6.6-4.48,13.37-9.48,20.13-14.96,6.54-5.29,12.64-10.67,18.23-16.01v63.15l15.09,10.06s0,.02-.01.04l-15.08-10.1-8.82,5.49,161.15,107.92,11.54-.41-44.75-33.23c.11-.04.21-.1.31-.15l44.7,29.8ZM47.84,167.3c.8-10.47,4.28-20.66,8.54-30.16,2.77,8.65,7.1,16.56,12.67,23.42-7.57,6.23-14.36,14.03-20.16,23.09-2.02-4.01-2.8-9.07-1.05-16.35ZM306.2,320.4l-9.94-6.65c.06-.02.11-.05.17-.08l9.85,6.56c-.03.05-.05.11-.08.16Z"/>
    <path class="cls-15" d="M133.24,17.14c0-7.74-3.82-13.62-8.53-13.62s-8.53,5.89-8.53,13.62,8.53,18.24,8.53,18.24c0,0,8.53-10.5,8.53-18.24Z"/>
    <path class="cls-15" d="M109.22,37.66s.01-9.45-3.39-13.65-8.06-5.72-10.62-3.65c-2.56,2.07-2.04,6.94,1.36,11.14s12.65,6.15,12.65,6.15Z"/>
    <path class="cls-15" d="M152.17,28.91c2.76-4.65,2.56-9.55-.27-11.22-2.83-1.68-7.22.5-9.97,5.15-2.75,4.65-1.37,14-1.37,14,0,0,8.86-3.27,11.62-7.93Z"/>
  </g>
  <g>
    <ellipse class="cls-8" cx="132.53" cy="376.7" rx="110.67" ry="14.66"/>
    <g>
      <g>
        <polygon class="cls-4" points="402.82 384.11 398.26 381.45 234.11 6.21 238.84 3.77 403.32 126.83 402.82 384.11"/>
        <polygon class="cls-21" points="402.82 384.11 398.26 381.45 234.11 6.21 238.84 3.77 403.32 126.83 402.82 384.11"/>
      </g>
      <polygon class="cls-3" points="398.26 381.45 234.11 272.02 234.11 6.21 398.26 130.72 398.26 381.45"/>
      <polygon class="cls-12" points="393.53 370.64 238.84 267.51 238.84 17.02 393.53 134.36 393.53 370.64"/>
    </g>
    <g>
      <ellipse class="cls-17" cx="199.93" cy="205.18" rx="88.4" ry="25.35" transform="translate(-84.57 171.52) rotate(-39)"/>
      <path class="cls-14" d="M27.21,273.15c-1.71-34.46,6.68-66.14,21.63-89.52,5.81-9.09,12.62-16.92,20.21-23.17-9.33-11.5-15.23-25.95-16.02-41.87-1.98-39.82,28.7-73.71,68.52-75.68,39.82-1.98,73.71,28.7,75.68,68.52,1.21,24.3-9.76,46.38-27.54,60.35,1.62,1.8,3.2,3.67,4.74,5.61,17.19,21.78,21.54,53.14,23.25,87.59,1.71,34.46,6.65,63.1-8.3,86.48-14.95,23.38-42.64,19.2-67.17,20.42-24.52,1.22-61.11,3.8-78.3-17.98-17.19-21.78-14.99-46.3-16.7-80.75Z"/>
      <path class="cls-18" d="M79.84,262.02c1.13,22.72,8.36,42.98,19.13,57.37,10.77,14.39,25.1,22.91,40.41,22.15,15.31-.76,28.72-10.66,38.02-26.04,9.3-15.39,14.48-36.26,13.35-58.98-1.13-22.72-8.36-42.98-19.13-57.37-10.77-14.39-25.1-22.91-40.41-22.15-15.31.76-28.72,10.66-38.02,26.04-9.3,15.39-14.48,36.26-13.35,58.98Z"/>
      <path class="cls-16" d="M100.2,94.27c.04-5.78,2.38-8.31,6.16-9.38s9-.69,14.78-.65,11.04-.28,14.84.84c3.8,1.12,6.14,3.68,6.11,9.46-.04,5.78-2.38,8.96-6.16,10.68s-9,1.99-14.78,1.95c-5.78-.04-11.04-.37-14.84-2.14s-6.14-4.98-6.11-10.76Z"/>
      <path class="cls-17" d="M8.47,164.03c6.41-26.76,20.63-48.63,31.94-66.99,11.3-18.35,26.67-27.25,33.41-25.63,6.74,1.61,6.37,11.51,1.41,27.06-5.05,16-25.31,41.44-27.39,68.73-6.41,26.76,21.11,23.6,19.73,47.91-3.3,19.38-13.06,47.01-32.67,41.27-6.74-1.61-25.58-25.4-28.49-42.11-2.91-16.72-4.35-23.48,2.06-50.24Z"/>
      <path class="cls-20" d="M179.85,130.02l14.9-7.74c4.58-2.38,6.36-8.02,3.98-12.59l-.66-1.27c-2.38-4.58-7.03-4.49-12.95-3.32l-23.15,5.48c-4.58,2.38-6.36,8.02-3.98,12.59l.66,1.27c2.38,4.58,9.7,12.3,21.2,5.58Z"/>
      <rect class="cls-20" x="154.04" y="83.87" width="75.43" height="34.13" rx="17.07" ry="17.07" transform="translate(388.28 192.24) rotate(177.16)"/>
    </g>
    <path class="cls-20" d="M128.38,369.16c0-7.4,2.37-11.19,21.96-11.19,19.59,0,39.84,7.81,39.84,15.22s-18,5.82-37.59,5.82c-19.59,0-24.21-2.44-24.21-9.85Z"/>
    <path class="cls-20" d="M52.11,369.16c0-7.4,2.37-11.19,21.96-11.19,19.59,0,39.84,7.81,39.84,15.22,0,7.4-18,5.82-37.59,5.82s-24.21-2.44-24.21-9.85Z"/>
    <line class="cls-19" x1="266.29" y1="64.32" x2="366.74" y2="139.31"/>
    <line class="cls-19" x1="263.04" y1="92.56" x2="363.49" y2="167.55"/>
    <line class="cls-19" x1="259.32" y1="124.81" x2="301.5" y2="156.29"/>
    <g>
      <path class="cls-1" d="M292.54,148.55c-4.79-.63-10.49-.17-15.28-.3-5.73.2-11.13.3-16.84.43-1.28.03-4.95,3.55-7.15,5.95-3.74,4.09-8.01,7.26,1.6,7.17,9.47-.1,18.67.02,28.01.08,5.43-.1,10.13-.22,13.48-1.95,7.29-3.76,7.47-7.18-3.65-11.34l-.16-.03Z"/>
      <path class="cls-7" d="M287.73,158.38c-3.94-.13-8.63-.03-12.57-.06-5,.04-8.85.06-13.85.09-1.05,0-4.07.71-5.88,1.19-3.08.82-6.58,1.45,1.32,1.43s15.35,0,23.03.02c4.46-.02,8.44.47,11.08-.39,4.23-1.37,5.96-2.33-3-2.26h-.13Z"/>
    </g>
    <g>
      <polygon class="cls-4" points="386.45 385.43 225.29 277.5 234.11 272.02 401.84 384.34 386.45 385.43"/>
      <polygon class="cls-21" points="386.45 385.43 225.29 277.5 234.11 272.02 401.84 384.34 386.45 385.43"/>
    </g>
    <g>
      <path class="cls-9" d="M293.49,302.39c-3.7-3.11-8.75-5.79-12.72-8.48-4.94-2.92-9.54-5.73-14.43-8.71-1.09-.67-10.41-6.88-13.54-6.04-5.36,1.43-6.34,9.02,1.81,14.11,8.03,5.01,15.73,10.07,23.56,15.14,4.63,2.84,8.65,5.27,12.41,5.61,8.17.76,10.16-2.03,3.03-11.53l-.12-.11Z"/>
      <path class="cls-13" d="M286.47,302.01c-3.41-1.97-7.35-4.52-10.71-6.57-4.23-2.67-7.49-4.71-11.73-7.37-.89-.56-5.11-2.86-6.17-3.71-2.47-2.01-3.03-5.09,3.67-.91s13.05,8.09,19.58,12.12c3.78,2.37,7.42,4.05,9.22,6.17,2.87,3.39,3.84,5.12-3.74.34l-.12-.06Z"/>
    </g>
    <g>
      <path class="cls-5" d="M350.52,340.53c-3.7-3.11-8.75-5.79-12.72-8.48-4.94-2.92-9.54-5.73-14.43-8.71-1.09-.67-10.41-6.88-13.54-6.04-5.36,1.43-6.34,9.02,1.81,14.11,8.03,5.01,15.73,10.07,23.56,15.14,4.63,2.84,8.65,5.27,12.41,5.61,8.17.76,10.16-2.03,3.03-11.53l-.12-.11Z"/>
      <path class="cls-11" d="M343.5,340.14c-3.41-1.97-7.35-4.52-10.71-6.57-4.23-2.67-7.49-4.71-11.73-7.37-.89-.56-5.11-2.86-6.17-3.71-2.47-2.01-3.03-5.09,3.67-.91,6.61,4.12,13.05,8.09,19.58,12.12,3.78,2.37,7.42,4.05,9.22,6.17,2.87,3.39,3.84,5.12-3.74.34l-.12-.06Z"/>
    </g>
    <g>
      <path class="cls-2" d="M116.19,17.03c0-7.74,3.82-13.62,8.53-13.62,4.71,0,8.53,5.89,8.53,13.62,0,7.74-8.53,18.24-8.53,18.24,0,0-8.53-10.5-8.53-18.24Z"/>
      <path class="cls-2" d="M96.58,31.4c-3.4-4.2-3.92-9.07-1.36-11.14s7.22-.55,10.62,3.65c3.4,4.2,3.39,13.65,3.39,13.65,0,0-9.24-1.95-12.65-6.15Z"/>
      <path class="cls-2" d="M141.92,22.73c2.76-4.65,7.14-6.83,9.97-5.15s3.03,6.57.27,11.22-11.62,7.93-11.62,7.93c0,0-1.39-9.34,1.37-14Z"/>
      <path class="cls-10" d="M117.73,16.91c0-6.34,3.13-11.16,6.98-11.16s6.98,4.82,6.98,11.16c0,6.34-6.98,14.94-6.98,14.94,0,0-6.98-8.6-6.98-14.94Z"/>
      <path class="cls-10" d="M97.45,30.86c-2.79-3.44-3.21-7.43-1.11-9.13s5.91-.45,8.7,2.99c2.79,3.44,2.77,11.18,2.77,11.18,0,0-7.57-1.6-10.36-5.04Z"/>
      <path class="cls-10" d="M142.87,23.48c2.26-3.81,5.85-5.59,8.17-4.22s2.48,5.38.22,9.19c-2.26,3.81-9.52,6.49-9.52,6.49,0,0-1.14-7.66,1.12-11.46Z"/>
      <path class="cls-6" d="M102.67,24.9c.57,2.2-1.53-1.35-3.9-.75-1.86.47-2.48,4.74-3.05,2.54s.53-4.38,2.45-4.88,3.93.88,4.5,3.08Z"/>
      <path class="cls-6" d="M129.18,10.53c0,2.27-1.39-1.69-4.34-1.7-2.32,0-4.34,3.97-4.34,1.7s1.94-4.11,4.34-4.11,4.34,1.84,4.34,4.11Z"/>
      <path class="cls-6" d="M151.86,24.94c-1.01,2.03-.27-2.03-2.46-3.12-1.72-.86-4.98,1.96-3.97-.07s3.27-2.97,5.04-2.09,2.4,3.24,1.39,5.28Z"/>
    </g>
  </g>
</svg>