<?xml version="1.0" encoding="UTF-8"?>
<svg xmlns="http://www.w3.org/2000/svg" viewBox="0 0 319.82 324.67">
  <defs>
    <style>
      .cls-1 {
        fill: #161616;
      }

      .cls-1, .cls-2, .cls-3, .cls-4, .cls-5, .cls-6, .cls-7 {
        stroke-miterlimit: 10;
      }

      .cls-1, .cls-2, .cls-4, .cls-5, .cls-7 {
        stroke: #000;
      }

      .cls-2 {
        fill: #fff;
      }

      .cls-3, .cls-6 {
        stroke: #282828;
      }

      .cls-3, .cls-7 {
        fill: #f7a810;
      }

      .cls-8 {
        fill: #fab950;
      }

      .cls-8, .cls-9 {
        stroke-width: 0px;
      }

      .cls-4 {
        fill: #090a0a;
      }

      .cls-5 {
        fill: #e2e2e1;
      }

      .cls-6 {
        fill: #3560ab;
      }

      .cls-9 {
        fill: #4175ba;
      }
    </style>
  </defs>
  <g id="Capa_1" data-name="Capa 1">
    <g>
      <ellipse class="cls-4" cx="173.69" cy="176.3" rx="21.7" ry="61.75" transform="translate(-73.79 174.45) rotate(-45)"/>
      <path class="cls-1" d="M317.99,227.02c-1.52-18.32-4.65-41.43-14.35-58.97-6.61-11.94-10.51-14.41-16.67-18.53,6.84-8.38,10.89-18.71,10.89-29.89,0-27.97-25.26-50.64-56.42-50.64s-56.42,22.67-56.42,50.64c0,17.07,9.42,32.15,23.83,41.33-1.2,1.32-2.36,2.68-3.48,4.09-12.58,15.86-14.75,37.98-14.75,62.18s-1.91,59.59,10.67,75.45c12.58,15.86,34.03,11.97,53.22,11.97s41.85-6.47,54.42-22.32c12.58-15.86,11.06-41.35,9.07-65.31Z"/>
      <path class="cls-5" d="M278.64,235.67c0,16.97-4.86,32.33-12.71,43.46-7.85,11.12-18.7,18-30.68,18s-22.83-6.88-30.68-18c-7.85-11.12-12.71-26.49-12.71-43.46s4.86-32.33,12.71-43.46c7.85-11.12,18.7-18,30.68-18s22.83,6.88,30.68,18c7.85,11.12,12.71,26.49,12.71,43.46Z"/>
      <path class="cls-2" d="M251.32,116.69c5.39-7.43,3.72-17.83-3.71-23.21-7.43-5.39-17.83-3.72-23.21,3.71s5.38,7.24,12.81,12.62c7.43,5.39,8.72,14.31,14.11,6.88Z"/>
      <path class="cls-4" d="M261.19,167.23c-15.34-9.31-32.07-12.68-45.8-15.8-13.73-3.12-24.99.04-27.37,3.97s1.7,9.6,9.47,19.59c7.76,9.99,19.96,21.34,35.3,30.65,15.34,9.31,30.93,14.84,43.28,17.05,12.35,2.21,21.46,1.12,23.84-2.81,2.38-3.93-1.38-20.88-7.76-29.96-6.38-9.08-15.62-13.37-30.96-22.68Z"/>
      <g>
        <path class="cls-7" d="M199.72,123.53l-12.9-2.39c-3.96-.73-6.58-4.54-5.85-8.51l.2-1.1c.73-3.96,4.23-4.96,8.92-5.44l18.56-1.18c3.96.73,6.58,4.54,5.85,8.51l-.2,1.1c-.73,3.96-4.45,11.41-14.58,9Z"/>
        <rect class="cls-7" x="162.37" y="83.93" width="58.96" height="26.68" rx="13.34" ry="13.34" transform="translate(65.55 -76.85) rotate(27.16)"/>
      </g>
      <path class="cls-7" d="M228.8,315.59c0-6.35-2.04-9.6-18.85-9.6s-34.19,6.71-34.19,13.06,15.45,4.99,32.26,4.99,20.78-2.1,20.78-8.45Z"/>
      <path class="cls-7" d="M294.26,315.59c0-6.35-2.04-9.6-18.85-9.6s-34.19,6.71-34.19,13.06,15.45,4.99,32.26,4.99,20.78-2.1,20.78-8.45Z"/>
    </g>
  </g>
  <g id="Puzzle">
    <g>
      <path class="cls-6" d="M135.98,66.27l18.75-12.01-11.21-17.49c4.63-1.52,7.98-5.88,7.98-11.02,0-6.41-5.2-11.61-11.61-11.61-3.36,0-6.38,1.44-8.49,3.72L120.19.35l-17.26,11.06c-.33-6.11-5.38-10.97-11.57-10.97s-11.61,5.2-11.61,11.61c0,4.45,2.51,8.31,6.18,10.26l-17.25,11.05,11.37,17.74c2.11-2.9,5.51-4.79,9.37-4.79,6.41,0,11.61,5.2,11.61,11.61,0,5.63-4.02,10.3-9.33,11.36l11.52,17.99,18.74-12.01c-.15.75-.23,1.52-.23,2.31,0,6.41,5.2,11.61,11.61,11.61s11.61-5.2,11.61-11.61c0-5.5-3.83-10.09-8.96-11.29Z"/>
      <path class="cls-3" d="M48.42,111.96c0-6.41,5.2-11.61,11.61-11.61,4.51,0,8.4,2.57,10.33,6.33l16.03-10.27-11.53-17.99c5.51-.9,9.73-5.67,9.73-11.44,0-6.41-5.2-11.61-11.61-11.61-4,0-7.53,2.03-9.62,5.11l-11.52-17.98-16.82,10.78c-.86-5.56-5.66-9.81-11.45-9.81-6.41,0-11.61,5.2-11.61,11.61,0,4.03,2.06,7.58,5.18,9.66L.35,75.5l12.17,18.99c-.18,0-.36-.03-.54-.03-6.41,0-11.61,5.2-11.61,11.61s5.2,11.61,11.61,11.61c4.87,0,9.03-3,10.75-7.25l12.16,18.98,16.04-10.27c-1.56-1.98-2.5-4.46-2.5-7.18Z"/>
      <path class="cls-8" d="M32.67,54.75c0,4.84-3.92-4.39-8.76-4.39s-8.76,9.23-8.76,4.39,3.92-8.76,8.76-8.76,8.76,3.92,8.76,8.76Z"/>
      <path class="cls-8" d="M52.55,55.72c-1.2-1.99-3-3.66-5.46-2.54-2.05.89-5.79,5.33-7.32,1.58-.42-2.3,2-3.09,3.64-4.45,1.98-1.42,4.81-3.53,7.36-3.44,2.15-.03,3.35,2.11,4.48,3.92,1.39,2.07,3.58,4.02,1.6,6.49-.13.09-.65.23-.95.28-1.49.25-2.53-.58-3.36-1.86Z"/>
      <path class="cls-9" d="M100.38,10.94c0,4.84-3.92-4.39-8.76-4.39s-8.76,9.23-8.76,4.39,3.92-8.76,8.76-8.76,8.76,3.92,8.76,8.76Z"/>
      <path class="cls-9" d="M120.36,13.5c-1.2-1.99-3-3.66-5.46-2.54-2.05.89-5.79,5.33-7.32,1.58-.42-2.3,2-3.09,3.64-4.45,1.98-1.42,4.81-3.53,7.36-3.44,2.15-.03,3.35,2.11,4.48,3.92,1.39,2.07,3.58,4.02,1.6,6.49-.13.09-.65.23-.95.28-1.49.25-2.53-.58-3.36-1.86Z"/>
    </g>
  </g>
</svg>