<?xml version="1.0" encoding="UTF-8"?>
<svg id="Capa_1" data-name="Capa 1" xmlns="http://www.w3.org/2000/svg" viewBox="0 0 500 500">
  <defs>
    <style>
      .cls-1 {
        opacity: .04;
      }

      .cls-1, .cls-2, .cls-3, .cls-4, .cls-5, .cls-6, .cls-7 {
        stroke-width: 0px;
      }

      .cls-1, .cls-7 {
        fill: #381d17;
      }

      .cls-2 {
        fill: #e5aa9c;
      }

      .cls-3 {
        fill: #4f2a20;
      }

      .cls-4 {
        fill: #1d1d1b;
      }

      .cls-5 {
        fill: #d09b90;
      }

      .cls-6 {
        fill: #c18a8a;
      }
    </style>
  </defs>
  <path class="cls-2" d="M435.8,272c0,53.28-13.28,82.67-47.91,125.8-34.63,43.13-90.61,86.8-143.45,86.8s-106.86-44.77-141.49-87.9c-34.63-43.13-49.87-71.42-49.87-124.7s21.42-101.52,56.05-136.43c34.63-34.92,82.47-56.51,135.31-56.51s100.68,21.6,135.31,56.51c34.63,34.92,56.05,83.15,56.05,136.43Z"/>
  <path class="cls-1" d="M402.73,364.17c3.6-2,7.48,2.13,5.27,5.6l-.11.17c-3.57,5.59-7.21,11.19-8.92,13.52-1.71,2.32-3.49,4.67-5.34,7.06s-3.76,4.82-5.75,7.29c-8.66,10.78-18.65,21.6-29.59,31.76s-22.84,19.66-35.3,27.82c-12.46,8.15-25.5,14.96-38.72,19.73-13.22,4.77-26.63,7.5-39.84,7.5s-26.49-2.8-39.53-7.67c-13.04-4.87-25.82-11.81-38.04-20.11-12.22-8.29-23.87-17.93-34.63-28.19-10.76-10.26-20.63-21.15-29.29-31.93-2.16-2.7-4.25-5.33-6.27-7.92-2.01-2.59-3.95-5.13-5.82-7.63s-5.54-8.04-9.14-13.54l-.13-.2c-.85-1.29-.49-2.76.47-3.99,2.19-2.78,6.39-2.9,8.98-.48l30.07,28.14c.06.03,19.89,18.89,19.96,18.92,0,0,24.07,21.82,52.1,35.51,26.45,12.91,79.07,12.15,93.74,6.36.24-.09.46-.2.68-.32l24.39-10.06c.44-.24,21.83-15.01,22.2-15.35l68.54-61.98Z"/>
  <ellipse class="cls-4" cx="169.77" cy="250.94" rx="15.21" ry="20.73"/>
  <ellipse class="cls-4" cx="322.6" cy="250.94" rx="15.21" ry="20.73"/>
  <path class="cls-5" d="M270.41,293.63v-50.23c0-9.08-6.32-16.45-14.12-16.45h-12.22c-7.8,0-14.12,7.36-14.12,16.45v53.7c-3.1,7.83-6.23,17.71-10.66,26.96h0c0,13.01,7.83,23.56,17.49,23.56h26.77c9.66,0,17.49-10.55,17.49-23.56h0c-5.71-14.69-8.67-24.23-10.66-30.43Z"/>
  <path class="cls-3" d="M186.27,187l-10.73-1.35h-21.29c-10.12-1.69-36.83,15.27-36.83,20.61l-3.94,4.39c0,5.34,26.88-7.56,35.25-7.56l24.4,2.49,31.54,10.36c14.71,6.91,24.9.38,24.9-4.96v-.85c4.98-11.65-39.85-23.81-43.29-23.13Z"/>
  <path class="cls-3" d="M311.06,189.56l10.81.03,21.12,2.73c10.26-.38,34.57,19.86,33.89,25.16l3.35,4.86c-.68,5.3-25.69-10.94-33.99-12.01l-24.52-.66-32.61,6.24c-15.47,4.97-24.75-2.81-24.06-8.11l.11-.85c-3.45-12.19,42.57-18.51,45.9-17.4Z"/>
  <path class="cls-7" d="M138.72,131.34c-15.88,52.86-56.46,73.49-81.14,98.86-22.85,23.5-30.43-10.7-30.43-64.98S93.33,46.22,128.51,43.2c51.24-4.4,28,28.92,10.21,88.15Z"/>
  <path class="cls-7" d="M128.02,65.27c40.82-28.68,130.74.03,205.15,50.83,74.4,50.79,78.36,100.85,64.3,133.11-14.28,32.74-156.82-123.54-156.82-123.54,0,0-196.41-1.52-112.62-60.39Z"/>
  <path class="cls-7" d="M146.66,41.07c50.21-16.05,139.64-1.42,221.74,51.95,82.1,53.36,69.89,115.53,56.54,150.1-13.55,35.09-154.87-138.87-154.87-138.87,0,0-182.54-44.28-123.41-63.18Z"/>
  <path class="cls-7" d="M144.99,39.37c59.43-24.31,202.17-45.07,269.43,16.58,67.21,61.61,85.21,113.39,40.86,158.07-37.52,37.79-135.04-133.63-135.04-133.63,0,0-245.22-12.38-175.24-41.01Z"/>
  <path class="cls-6" d="M297.96,385.84c0,2.21-20.09,17.29-27.63,18.2s-2.17.78-14.31.78c-12.14,0-18.36,2.15-27.96-1.19-13.29-2.06-25.66-10.78-25.66-12.99s26.04-2.08,38.78-2.52c3.51.25,12.29,2.59,12.29,2.59,0,0,3.08-1,14.06-2.82,10.57.18,30.43-4.26,30.43-2.04Z"/>
  <g>
    <path class="cls-2" d="M431.07,296.34c20.92,0,37.88-14.96,37.88-33.41,0-18.45-16.96-33.41-37.88-33.41"/>
    <path class="cls-5" d="M431.07,283.73c13.03,0,23.59-9.31,23.59-20.8,0-11.49-10.56-20.8-23.59-20.8"/>
  </g>
  <g>
    <path class="cls-2" d="M58.32,297.02c-20.92,0-37.88-14.96-37.88-33.41,0-18.45,16.96-33.41,37.88-33.41"/>
    <path class="cls-5" d="M58.32,284.42c-13.03,0-23.59-9.31-23.59-20.8,0-11.49,10.56-20.8,23.59-20.8"/>
  </g>
  <path class="cls-7" d="M178.72,47.87c45.17-12.51,143.91-3.83,221.38,49.05,77.47,52.89,96.85,83.68,50.38,141.72-23.17,28.94-123.82-133.65-123.82-133.65,0,0-201.13-42.39-147.94-57.12Z"/>
  <ellipse class="cls-4" cx="296.67" cy="377.84" rx=".43" ry=".46"/>
  <ellipse class="cls-4" cx="210.02" cy="383.66" rx=".76" ry=".82" transform="translate(-17.51 10.12) rotate(-2.65)"/>
  <path class="cls-1" d="M166.49,392.17c-2.79-10.84,13.13-24.3,35.54-30.06,22.41-5.76,42.84-1.64,45.63,9.2,2.79,10.84-40.58,10.43-40.58,10.43,0,0-37.8,21.27-40.58,10.43Z"/>
  <path class="cls-1" d="M332.12,392.17c2.78-10.84-13.13-24.29-35.54-30.05-22.41-5.76-42.84-1.64-45.63,9.2-2.78,10.84,40.58,10.43,40.58,10.43,0,0,37.8,21.27,40.58,10.43Z"/>
  <rect class="cls-1" x="239.99" y="411.28" width="21.67" height="14.39" rx="3.01" ry="3.01"/>
</svg>