<?xml version="1.0" encoding="UTF-8"?>
<svg id="Capa_1" data-name="Capa 1" xmlns="http://www.w3.org/2000/svg" viewBox="0 0 500 500">
  <defs>
    <style>
      .cls-1 {
        fill: #000;
      }

      .cls-1, .cls-2, .cls-3, .cls-4, .cls-5, .cls-6, .cls-7 {
        stroke-width: 0px;
      }

      .cls-2 {
        fill: #c99883;
      }

      .cls-3 {
        fill: #dca88d;
      }

      .cls-4 {
        fill: #dd6464;
      }

      .cls-5 {
        fill: #502821;
      }

      .cls-6 {
        fill: #e89c9c;
      }

      .cls-7 {
        fill: #381d17;
      }
    </style>
  </defs>
  <ellipse class="cls-7" cx="97.54" cy="225.7" rx="84.7" ry="86.36"/>
  <ellipse class="cls-7" cx="97.54" cy="333.08" rx="84.7" ry="86.36"/>
  <ellipse class="cls-7" cx="397.68" cy="231.72" rx="84.7" ry="86.36"/>
  <ellipse class="cls-7" cx="394.27" cy="333.08" rx="84.7" ry="86.36"/>
  <ellipse class="cls-7" cx="406.77" cy="406.75" rx="84.7" ry="82.22"/>
  <ellipse class="cls-7" cx="362.52" cy="406.75" rx="84.7" ry="82.22"/>
  <ellipse class="cls-7" cx="302.27" cy="406.75" rx="84.7" ry="82.22"/>
  <ellipse class="cls-7" cx="220.41" cy="409.31" rx="84.7" ry="79.67"/>
  <ellipse class="cls-7" cx="161.44" cy="415.56" rx="84.7" ry="73.41"/>
  <ellipse class="cls-7" cx="93.23" cy="411.02" rx="84.7" ry="77.95"/>
  <path class="cls-3" d="M428.04,221.35c0,96.9-77.91,205.33-174.01,205.33s-174.01-108.43-174.01-205.33S157.92,45.9,254.02,45.9s174.01,78.55,174.01,175.45Z"/>
  <path class="cls-7" d="M275.51,68.21c0,41.11-33.33,74.44-74.44,74.44s-33.92-81.36-74.44-74.44C-1.28,90.04,159.95,18.42,201.07,18.42s74.44,8.68,74.44,49.79Z"/>
  <path class="cls-7" d="M428.04,98.87c102.59,249.17-182.14-32.04-218.99-33.61-204.64-8.75-2.52-54.23,44.25-54.23s144.38,14.1,174.74,87.84Z"/>
  <rect class="cls-1" x="167.47" y="192.23" width="32" height="48.8" rx="16" ry="16"/>
  <rect class="cls-1" x="308.58" y="192.51" width="32" height="48.51" rx="16" ry="16"/>
  <ellipse class="cls-6" cx="172.73" cy="297.98" rx="28.34" ry="30.49"/>
  <ellipse class="cls-6" cx="331.09" cy="297.98" rx="28.34" ry="30.49"/>
  <path class="cls-4" d="M292.13,338.29c0,10.18-17.06,18.43-38.1,18.43s-38.1-8.25-38.1-18.43,38.1,0,38.1,0c0,0,38.1-10.18,38.1,0Z"/>
  <rect class="cls-2" x="238.02" y="235.27" width="32" height="58.6" rx="16" ry="16"/>
  <path class="cls-5" d="M286.42,182.47c2.98-9.73,17.06-18.43,38.1-18.43s32.74,9.78,38.1,18.43c5.45,8.77-48.04-3.41-48.04-3.41,0,0-31.67,14.87-28.17,3.41Z"/>
  <path class="cls-5" d="M217.15,182.36c-3.81-9.44-18.6-16.87-39.56-15.04-20.96,1.83-31.76,12.59-36.36,21.67s47.56-7.57,47.56-7.57c0,0,32.85,12.06,28.36.94Z"/>
  <circle class="cls-7" cx="126.58" cy="127.61" r="78.4"/>
</svg>