<?xml version="1.0" encoding="UTF-8"?>
<svg id="Capa_1" data-name="Capa 1" xmlns="http://www.w3.org/2000/svg" viewBox="0 0 500 500">
  <defs>
    <style>
      .cls-1 {
        fill: #000;
      }

      .cls-1, .cls-2, .cls-3, .cls-4, .cls-5, .cls-6, .cls-7, .cls-8, .cls-9 {
        stroke-width: 0px;
      }

      .cls-2 {
        fill: none;
      }

      .cls-3 {
        fill: #e2c8ba;
      }

      .cls-4 {
        fill: #f2d6c4;
      }

      .cls-5 {
        fill: #4f2a20;
      }

      .cls-6 {
        fill: #1d1d1b;
      }

      .cls-7 {
        fill: #fff;
      }

      .cls-8 {
        fill: #1c1616;
      }

      .cls-9 {
        fill: #e0afaf;
      }
    </style>
  </defs>
  <g>
    <path class="cls-4" d="M406.57,425.09l-116.38,64.88c-23.98,13.37-52.5,13.37-76.48,0l-116.38-64.88c-26.39-14.71-43.29-33.75-43.29-68.89v-181.79c0-49.74,33.34-90.05,74.48-90.05h246.88c41.13,0,74.48,40.32,74.48,90.05v181.79c0,35.14-16.9,54.17-43.29,68.89Z"/>
    <g>
      <path class="cls-5" d="M305.43,109.9h-110.66c-11.32,0-20.5,7.47-20.5,16.68v1.47c0,9.21,9.18,16.68,20.5,16.68h110.66c11.32,0,20.5-7.47,20.5-16.68v-1.47c0-9.21-9.18-16.68-20.5-16.68Z"/>
      <path class="cls-5" d="M80.01,203.56v-50.25c0-5.14-5.57-9.31-12.44-9.31h-1.1c-6.87,0-12.44,19.59-12.44,24.73v34.83c0,5.14,5.57,9.31,12.44,9.31h1.1c6.87,0,12.44-4.17,12.44-9.31Z"/>
      <path class="cls-5" d="M449.87,202.63v-33.9c0-5.14-5.57-25.66-12.44-25.66h-1.1c-6.87,0-12.44,4.17-12.44,9.31v50.25c0,5.14,5.57,9.31,12.44,9.31h1.1c6.87,0,12.44-4.17,12.44-9.31Z"/>
      <path class="cls-1" d="M251.95,0C142.64,0,54.03,75.54,54.03,168.73h395.84C449.87,75.54,361.26,0,251.95,0ZM309.29,137c0,9.21-6.94,16.68-15.5,16.68h-83.68c-8.56,0-15.5-7.47-15.5-16.68v-1.47c0-9.21,6.94-16.68,15.5-16.68h83.68c8.56,0,15.5,7.47,15.5,16.68v1.47Z"/>
    </g>
    <g>
      <path class="cls-4" d="M54.03,304.9c-21.18,0-38.35-21.5-38.35-48.03s17.17-48.03,38.35-48.03"/>
      <path class="cls-3" d="M54.03,286.78c-13.19,0-23.88-13.39-23.88-29.91s10.69-29.91,23.88-29.91"/>
    </g>
    <g>
      <path class="cls-4" d="M449.87,304.9c19.03,0,34.45-20.56,34.45-45.93,0-25.37-15.42-45.93-34.45-45.93"/>
      <path class="cls-3" d="M449.87,287.57c11.85,0,21.45-12.8,21.45-28.6,0-15.79-9.6-28.6-21.45-28.6"/>
    </g>
    <path class="cls-5" d="M204.84,182.22h-79.27c-8.11,0-14.68,7.47-14.68,16.68v1.47c0,9.21,6.57,16.68,14.68,16.68h79.27c8.11,0,14.68-7.47,14.68-16.68v-1.47c0-9.21-6.57-16.68-14.68-16.68Z"/>
    <path class="cls-5" d="M374.67,182.22h-79.27c-8.11,0-14.68,7.47-14.68,16.68v1.47c0,9.21,6.57,16.68,14.68,16.68h79.27c8.11,0,14.68-7.47,14.68-16.68v-1.47c0-9.21-6.57-16.68-14.68-16.68Z"/>
    <ellipse class="cls-6" cx="165.21" cy="257.62" rx="13.83" ry="14.88"/>
    <ellipse class="cls-6" cx="335.03" cy="257.62" rx="13.83" ry="14.88"/>
    <rect class="cls-3" x="228.15" y="223.7" width="47.6" height="120.41" rx="16.61" ry="16.61"/>
    <path class="cls-9" d="M243.38,421.89c-10.35.15-25.2-1.07-38.91-13.23-7.22-6.4-8.05-13.09-2.92-18.83,4.72-5.29,12.48-4.92,19.66.93,20.01,8.63,43.66,9.28,60.4.91,1.15-.9,2.27-1.84,3.45-2.7,6.01-4.32,12.55-3.91,17.26,1.05,4.48,4.72,4.42,10.68-.16,16.15-9.48,11.32-32.27,15.61-58.77,15.72Z"/>
    <g>
      <path class="cls-2" d="M170.14,322.34c31.49-7.04,66.84-60.05,59.96-92.27-6.22-29.14-43.25-36.24-67.06-36.37l-61,95.72c12.76,30.45,40.78,39.02,68.1,32.92Z"/>
      <path class="cls-2" d="M94.9,258.19l38.92-61.07c-29.81,7.68-42.02,27.97-38.92,61.07Z"/>
      <path class="cls-2" d="M332.85,322.08c31.4,7.43,63.99-4.6,73.41-47.48,11.08-50.46-6.22-77.19-57.68-80.8-2.31-.16-4.85-.25-7.56-.26l-55.05,86.39c11.75,20.44,29.8,38.11,46.88,42.16Z"/>
      <path class="cls-2" d="M274,229.06c-1.7,7.53-1.08,16.24,1.25,25.25l36.56-57.36c-17.42,4.42-33.67,13.82-37.81,32.11Z"/>
      <path class="cls-2" d="M311.9,193.62h-121.51c18.93,4.31,37.28,13.91,42.45,33.12,7.43-1.98,27.45-2.35,38.34-.6,5.03-18.67,22.4-28.16,40.72-32.51Z"/>
      <path class="cls-7" d="M155.96,193.88c-8.24.47-15.61,1.56-22.14,3.24l-38.92,61.07c.47,4.97,1.25,10.21,2.4,15.75,1.18,5.69,2.78,10.84,4.73,15.48l61-95.72c-2.52-.01-4.9.05-7.08.17Z"/>
      <path class="cls-7" d="M275.25,254.31c2.2,8.51,5.93,17.29,10.71,25.61l55.05-86.39c-8.72-.03-19.16.86-29.21,3.41l-36.56,57.36Z"/>
      <path class="cls-1" d="M349.05,190.67c-1.88-.13-3.91-.22-6.04-.25l-1.99,3.12c2.7,0,5.25.1,7.56.26,51.47,3.61,68.77,30.35,57.68,80.8-9.42,42.87-42.01,54.91-73.41,47.48-17.08-4.04-35.13-21.71-46.88-42.16l-1.73,2.72c12.34,20.79,30.81,38.55,48.31,42.69,32.97,7.8,67.18-4.83,77.06-49.84,11.63-52.97-6.53-81.03-60.55-84.82Z"/>
      <path class="cls-1" d="M133.82,197.12l2.5-3.92c-35.64,7.54-49.41,30.67-44.38,69.64l2.96-4.65c-3.1-33.1,9.11-53.39,38.92-61.07Z"/>
      <path class="cls-1" d="M274,229.06c4.14-18.3,20.39-27.7,37.81-32.11l3.58-5.62h-138.79c-4.03-.44-7.93-.67-11.58-.74l-1.98,3.11c23.81.13,60.85,7.24,67.06,36.37,6.88,32.22-28.47,85.23-59.96,92.27-27.32,6.1-55.35-2.47-68.1-32.92l-2.27,3.57c13.76,30.38,42.56,38.88,70.65,32.61,32.99-7.37,70.01-62.81,62.98-96.66.88-.24,1.98-.46,3.28-.65l28.18-.6c2.09.17,4.03.39,5.79.67-1.81,8.74-.72,18.93,2.44,29.36l2.17-3.41c-2.33-9.01-2.95-17.72-1.25-25.25ZM232.84,226.74c-5.17-19.2-23.52-28.8-42.45-33.12h121.51c-18.31,4.36-35.69,13.84-40.72,32.51-10.89-1.74-30.91-1.38-38.34.6Z"/>
      <path class="cls-1" d="M97.3,273.94c-1.15-5.55-1.94-10.79-2.4-15.75l-2.96,4.65c.5,3.84,1.15,7.81,2.01,11.95,1.4,6.78,3.38,12.83,5.81,18.2l2.27-3.57c-1.95-4.65-3.55-9.79-4.73-15.48Z"/>
      <path class="cls-1" d="M155.96,193.88c2.17-.13,4.55-.19,7.08-.17l1.98-3.11c-3.42-.07-6.63-.01-9.5.15-7,.4-13.39,1.23-19.2,2.46l-2.5,3.92c6.53-1.68,13.89-2.77,22.14-3.24Z"/>
      <path class="cls-1" d="M275.25,254.31l-2.17,3.41c2.53,8.36,6.37,16.86,11.16,24.92l1.73-2.72c-4.79-8.32-8.52-17.1-10.71-25.61Z"/>
      <path class="cls-1" d="M341.02,193.54l1.99-3.12c-5.48-.1-11.7.14-18.15.91h-9.47l-3.58,5.62c10.06-2.55,20.49-3.44,29.21-3.41Z"/>
    </g>
  </g>
  <path class="cls-8" d="M394.08,65.09c7.65,6.97,17.64,18.03,19.31,36.28.88,9.61-3.09,15.05-10.76,15.73-7.06.62-12.47-4.96-13.69-14.13-8.68-19.99-25.48-36.65-43.41-42-1.45-.14-2.92-.21-4.36-.4-7.34-.96-11.83-5.74-11.87-12.58-.04-6.51,4.08-10.81,11.18-11.66,14.66-1.77,34.21,10.7,53.61,28.77Z"/>
</svg>